M48
;Layer_Color=9474304
;FILE_FORMAT=4:4
METRIC
;TYPE=PLATED
T1F00S00C0.3000
T2F00S00C0.7000
T3F00S00C1.1000
T4F00S00C3.4000
%
T01
X00101000Y00024145
X00108833Y00085000
X00121046
X00115000Y00097500
X00121167Y00108750
X00108833
X00156100Y00085000
X00166000Y00092500
X00182500Y00107500
Y00132500
X00185000Y00160204
X00174700Y00170079
X00182500Y00182500
X00162500Y00203500
X00151500
X00140500
Y00216500
X00151500
X00162500
X00170000Y00280000
X00187500Y00297500
X00230000Y00300000
Y00250000
Y00190204
X00166000Y00147500
X00197500Y00070000
X00175500Y00024573
X00118899Y00260000
Y00275000
X00031046Y00310000
X00018833
X00025000Y00322500
X00018833Y00333750
X00031167
X00173300Y00354200
X00185800
X00199633
X00212133
X00185800Y00405000
X00173300
X00160800
X00148300
X00135501Y00393000
X00260000Y00395000
Y00365000
X00255000Y00330000
X00285000Y00300889
Y00291950
X00260000Y00274494
X00272500Y00250606
Y00241606
Y00227606
Y00218666
X00285000Y00224689
X00288098Y00203050
X00287422Y00170000
X00281254Y00162255
X00287422Y00155000
X00322601
X00322601Y00170000
Y00185000
X00316700Y00215750
X00342500Y00240816
X00380821Y00243182
Y00269652
X00374500Y00275973
X00412147Y00269652
X00438000Y00251356
Y00242356
Y00228356
Y00219417
X00450000Y00217500
X00486067Y00216500
Y00225439
X00489463Y00192800
X00478220Y00159399
X00453642Y00170000
X00453494Y00178676
X00446231Y00174547
X00422081Y00204005
X00380854Y00209405
X00374567Y00203050
X00360000Y00170000
X00398170Y00154487
X00502500Y00142500
X00526900Y00151061
Y00160000
X00525000Y00115000
X00476100
Y00057087
X00475000Y00025000
X00515000Y00057500
X00550000Y00025000
X00625000
X00628500Y00057087
X00612500Y00057500
X00607500Y00115000
X00628500
X00606167Y00143968
X00595422Y00155000
Y00170000
X00590908Y00203800
X00583000Y00219061
Y00228000
Y00242000
Y00251000
X00565508Y00203800
Y00194861
X00540067
Y00203800
X00507500Y00241856
X00540067Y00280000
Y00288939
X00522500Y00304368
X00524633Y00354000
X00537133
X00510800
X00498300
Y00406000
X00485800
X00473300
X00460501Y00392800
X00405000Y00395000
Y00365000
Y00328000
X00414000
X00391000
X00382061
X00359330
X00361333Y00354000
X00347500
X00335000
Y00406000
X00322500
X00310000
X00297201Y00392800
X00347500Y00406000
X00342500Y00297500
X00456078Y00305122
Y00313939
X00569638Y00318452
X00568300Y00365000
Y00395000
X00623001Y00392800
X00635800Y00406000
X00510800
X00569112Y00143968
X00630601Y00174547
Y00185000
X00400000Y00025000
X00325500Y00024573
X00250500
X00653900Y00057087
X00679300
X00700000Y00025000
X00774500Y00025427
X00882851Y00022500
X00882851Y00037500
Y00052500
X00869500Y00062811
X00830000Y00087399
X00816462Y00111250
X00816454Y00120000
X00825000Y00150000
X00845780Y00149675
X00880000Y00150000
X00897500Y00182500
Y00222500
X00912750Y00253850
X00927750
X00960000Y00222500
X00957750Y00287700
X00972750
X00982500Y00315000
X00972500Y00325189
X00957500Y00330000
X00927500Y00325311
X00892900Y00365200
Y00395200
X00835400Y00406200
X00822900
X00810400
X00797900
X00785101Y00393000
X00730800Y00395000
Y00338452
X00714911Y00312500
X00715000Y00293939
Y00285000
X00721321Y00277857
X00715000Y00271536
X00738679Y00265215
X00745000Y00271536
X00755500Y00284650
Y00293589
Y00252000
X00798500Y00278000
Y00313037
X00822900Y00354200
X00835400
X00849233
X00861733
X00874189Y00284650
X00850150Y00233264
X00826350Y00222500
Y00210000
X00820767Y00248211
X00826018Y00254756
X00785101Y00197500
Y00182500
X00785101Y00167500
X00745904Y00168773
Y00178974
X00735806Y00168443
X00712500Y00147500
Y00212000
X00686550Y00254353
X00679300Y00291950
X00645110
X00650000Y00241500
Y00203050
X00662500Y00175000
X00653900Y00115000
X00679300
X00673300Y00354000
X00660800
X00687133
X00673300Y00406000
X00660800
X00648300
X00967500Y00132500
T02
X00050000Y00201700
Y00214400
Y00227100
Y00239800
Y00252500
X00075400
Y00239800
Y00227100
Y00214400
Y00201700
X00155000Y00367300
X00167700
X00180400
X00193100
X00205800
Y00392700
X00193100
X00180400
X00167700
X00155000
X00316700Y00392500
X00329400
X00342100
X00354800
X00367500
Y00367100
X00354800
X00342100
X00329400
X00316700
X00480000
X00492700
X00505400
X00518100
X00530800
Y00392500
X00518100
X00505400
X00492700
X00480000
X00642500
X00655200
X00667900
X00680600
X00693300
Y00367100
X00680600
X00667900
X00655200
X00642500
X00804600Y00367300
X00817300
X00830000
X00842700
X00855400
Y00392700
X00842700
X00830000
X00817300
X00804600
X00924600Y00183300
Y00170600
Y00157900
Y00145200
Y00132500
X00950000
Y00145200
Y00157900
Y00170600
Y00183300
T03
X00272900Y00072750
Y00098150
X00298300
Y00072750
X00323700
Y00098150
X00349100
Y00072750
X00374500
Y00098150
X00399900
X00425300
X00450700
X00476100
X00501500
X00526900
X00552300
X00577700
X00603100
X00628500
Y00072750
X00603100
X00577700
X00552300
X00526900
X00501500
X00476100
X00450700
X00425300
X00399900
X00653900
Y00098150
X00679300
Y00072750
X00704700
Y00098150
X00730101
X00755500
Y00072750
X00730100
T04
X00040000Y00040000
Y00410000
X00960000
Y00040000
M30
