G04*
G04 #@! TF.GenerationSoftware,Altium Limited,Altium Designer,21.8.1 (53)*
G04*
G04 Layer_Color=65535*
%FSAX44Y44*%
%MOMM*%
G71*
G04*
G04 #@! TF.SameCoordinates,FA5E87E6-E1E0-4C40-9374-903DC783770A*
G04*
G04*
G04 #@! TF.FilePolarity,Positive*
G04*
G01*
G75*
%ADD10C,0.6000*%
%ADD11C,0.2500*%
%ADD12C,0.2000*%
%ADD13C,0.3000*%
%ADD14C,0.4000*%
%ADD15C,0.1500*%
G36*
X00195615Y00425500D02*
X00165500D01*
Y00444929D01*
X00195615D01*
Y00425500D01*
D02*
G37*
G36*
X00358760D02*
X00327500D01*
Y00444929D01*
X00358760D01*
Y00425500D01*
D02*
G37*
G36*
X00520615D02*
X00490500D01*
Y00444929D01*
X00520615D01*
Y00425500D01*
D02*
G37*
G36*
X00683864D02*
X00652500D01*
Y00444929D01*
X00683864D01*
Y00425500D01*
D02*
G37*
G36*
X00844343D02*
X00816500D01*
Y00444929D01*
X00844343D01*
Y00425500D01*
D02*
G37*
G36*
X00058810Y00150429D02*
Y00131000D01*
X00021200D01*
Y00150429D01*
X00058810D01*
D02*
G37*
G36*
X00263466Y00035429D02*
Y00016000D01*
X00220600D01*
Y00035429D01*
X00263466D01*
D02*
G37*
G36*
X00926268Y00017300D02*
X00904566D01*
Y00080030D01*
X00926268D01*
Y00017300D01*
D02*
G37*
%LPC*%
G36*
X00184799Y00443429D02*
X00183984D01*
X00183862Y00443411D01*
X00183741Y00443394D01*
X00183568Y00443290D01*
X00183498Y00443238D01*
X00183446Y00443203D01*
X00183411Y00443168D01*
X00183394Y00443151D01*
X00183325Y00443047D01*
X00183273Y00442960D01*
X00183203Y00442787D01*
X00183186Y00442735D01*
X00183169Y00442683D01*
Y00442648D01*
Y00442631D01*
Y00436576D01*
X00177947D01*
Y00442631D01*
X00177929Y00442752D01*
X00177912Y00442874D01*
X00177808Y00443047D01*
X00177756Y00443116D01*
X00177721Y00443168D01*
X00177687Y00443186D01*
X00177669Y00443203D01*
X00177565Y00443273D01*
X00177478Y00443342D01*
X00177305Y00443394D01*
X00177235Y00443411D01*
X00177183Y00443429D01*
X00182738D01*
X00176316D01*
X00177131D01*
X00177010Y00443411D01*
X00176889Y00443394D01*
X00176715Y00443290D01*
X00176646Y00443238D01*
X00176594Y00443203D01*
X00176559Y00443168D01*
X00176542Y00443151D01*
X00176472Y00443047D01*
X00176420Y00442960D01*
X00176351Y00442787D01*
X00176333Y00442735D01*
X00176316Y00442683D01*
Y00427798D01*
X00176333Y00427659D01*
X00176368Y00427520D01*
X00176403Y00427416D01*
X00176455Y00427330D01*
X00176507Y00427243D01*
X00176559Y00427191D01*
X00176576Y00427174D01*
X00176594Y00427156D01*
X00176715Y00427104D01*
X00176836Y00427069D01*
X00176923Y00427035D01*
X00176993Y00427017D01*
X00177097Y00427000D01*
X00176316D01*
X00177131D01*
X00177253Y00427017D01*
X00177357Y00427035D01*
X00177548Y00427104D01*
X00177617Y00427139D01*
X00177669Y00427174D01*
X00177704Y00427208D01*
X00177721D01*
X00177791Y00427295D01*
X00177860Y00427382D01*
X00177912Y00427590D01*
X00177929Y00427659D01*
X00177947Y00427729D01*
Y00427781D01*
Y00427798D01*
Y00434963D01*
X00183169D01*
Y00427798D01*
X00183186Y00427659D01*
X00183221Y00427520D01*
X00183255Y00427416D01*
X00183307Y00427330D01*
X00183359Y00427243D01*
X00183411Y00427191D01*
X00183429Y00427174D01*
X00183446Y00427156D01*
X00183568Y00427104D01*
X00183689Y00427069D01*
X00183776Y00427035D01*
X00183845Y00427017D01*
X00183949Y00427000D01*
X00183984D01*
D01*
X00184799D01*
Y00427017D01*
Y00427000D01*
X00183984D01*
X00184105Y00427017D01*
X00184209Y00427035D01*
X00184400Y00427104D01*
X00184470Y00427139D01*
X00184522Y00427174D01*
X00184556Y00427208D01*
X00184574D01*
X00184643Y00427295D01*
X00184713Y00427382D01*
X00184765Y00427590D01*
X00184782Y00427659D01*
X00184799Y00427729D01*
Y00427017D01*
Y00442631D01*
X00184782Y00442752D01*
X00184765Y00442874D01*
X00184660Y00443047D01*
X00184608Y00443116D01*
X00184574Y00443168D01*
X00184539Y00443186D01*
X00184522Y00443203D01*
X00184418Y00443273D01*
X00184331Y00443342D01*
X00184157Y00443394D01*
X00184088Y00443411D01*
X00184036Y00443429D01*
X00184799D01*
D02*
G37*
G36*
X00174321D02*
X00170660D01*
X00170383Y00443411D01*
X00170105Y00443377D01*
X00169845Y00443325D01*
X00169585Y00443255D01*
X00169151Y00443082D01*
X00168943Y00442978D01*
X00168769Y00442874D01*
X00168596Y00442770D01*
X00168457Y00442665D01*
X00168336Y00442579D01*
X00168232Y00442492D01*
X00168145Y00442423D01*
X00168093Y00442370D01*
X00168058Y00442336D01*
X00168041Y00442318D01*
X00167850Y00442110D01*
X00167694Y00441902D01*
X00167555Y00441677D01*
X00167434Y00441451D01*
X00167347Y00441243D01*
X00167260Y00441035D01*
X00167139Y00440636D01*
X00167087Y00440445D01*
X00167052Y00440289D01*
X00167035Y00440133D01*
X00167017Y00440011D01*
X00167000Y00439907D01*
Y00430661D01*
X00167017Y00430383D01*
X00167052Y00430105D01*
X00167104Y00429845D01*
X00167174Y00429602D01*
X00167347Y00429151D01*
X00167451Y00428960D01*
X00167555Y00428787D01*
X00167659Y00428613D01*
X00167763Y00428475D01*
X00167850Y00428353D01*
X00167937Y00428249D01*
X00168006Y00428162D01*
X00168058Y00428110D01*
X00168093Y00428076D01*
X00168110Y00428058D01*
X00168319Y00427867D01*
X00168544Y00427711D01*
X00168752Y00427573D01*
X00168978Y00427451D01*
X00169186Y00427347D01*
X00169411Y00427260D01*
X00169810Y00427139D01*
X00169984Y00427087D01*
X00170140Y00427052D01*
X00170296Y00427035D01*
X00170418Y00427017D01*
X00170522Y00427000D01*
X00173506D01*
X00173644Y00427017D01*
X00173766Y00427035D01*
X00173853Y00427087D01*
X00173939Y00427139D01*
X00174009Y00427174D01*
X00174061Y00427225D01*
X00174078Y00427243D01*
X00174095Y00427260D01*
X00174165Y00427364D01*
X00174234Y00427451D01*
X00174286Y00427642D01*
X00174304Y00427711D01*
X00174321Y00427763D01*
Y00427104D01*
Y00427937D01*
Y00427815D01*
X00174304Y00427920D01*
X00174286Y00428024D01*
X00174200Y00428197D01*
X00174147Y00428249D01*
X00174095Y00428301D01*
X00174078Y00428336D01*
X00174061Y00428353D01*
X00173974Y00428440D01*
X00173870Y00428509D01*
X00173783Y00428544D01*
X00173696Y00428579D01*
X00173610Y00428596D01*
X00173558Y00428613D01*
X00170660D01*
X00170366Y00428631D01*
X00170088Y00428700D01*
X00169845Y00428804D01*
X00169637Y00428908D01*
X00169463Y00429012D01*
X00169325Y00429117D01*
X00169255Y00429186D01*
X00169221Y00429203D01*
X00169030Y00429446D01*
X00168874Y00429689D01*
X00168769Y00429932D01*
X00168700Y00430157D01*
X00168665Y00430366D01*
X00168648Y00430522D01*
X00168631Y00430626D01*
Y00430643D01*
Y00430661D01*
Y00439768D01*
X00168648Y00440081D01*
X00168717Y00440358D01*
X00168822Y00440618D01*
X00168926Y00440826D01*
X00169030Y00441000D01*
X00169134Y00441121D01*
X00169203Y00441191D01*
X00169221Y00441226D01*
X00169463Y00441416D01*
X00169706Y00441572D01*
X00169949Y00441677D01*
X00170175Y00441746D01*
X00170366Y00441781D01*
X00170522Y00441815D01*
X00173506D01*
X00173644Y00441833D01*
X00173766Y00441850D01*
X00173853Y00441902D01*
X00173939Y00441954D01*
X00174009Y00441989D01*
X00174061Y00442041D01*
X00174078Y00442058D01*
X00174095Y00442076D01*
X00174165Y00442180D01*
X00174234Y00442266D01*
X00174286Y00442457D01*
X00174304Y00442527D01*
X00174321Y00442579D01*
Y00435154D01*
Y00442631D01*
X00174304Y00442735D01*
X00174286Y00442839D01*
X00174200Y00443012D01*
X00174147Y00443064D01*
X00174095Y00443116D01*
X00174078Y00443151D01*
X00174061Y00443168D01*
X00173974Y00443255D01*
X00173870Y00443325D01*
X00173783Y00443359D01*
X00173696Y00443394D01*
X00173610Y00443411D01*
X00173558Y00443429D01*
X00174321D01*
D02*
G37*
G36*
X00194115D02*
X00186794D01*
X00187453D01*
X00187332Y00443394D01*
X00187124Y00443307D01*
X00186985Y00443168D01*
X00186898Y00443030D01*
X00186829Y00442891D01*
X00186812Y00442752D01*
X00186794Y00442665D01*
Y00427902D01*
Y00435761D01*
X00186812Y00435622D01*
X00186829Y00435501D01*
X00186916Y00435292D01*
X00187055Y00435154D01*
X00187193Y00435067D01*
X00187332Y00434997D01*
X00187471Y00434980D01*
X00187558Y00434963D01*
X00190455D01*
X00190750Y00434945D01*
X00191027Y00434876D01*
X00191270Y00434772D01*
X00191478Y00434668D01*
X00191652Y00434547D01*
X00191773Y00434460D01*
X00191843Y00434390D01*
X00191877Y00434356D01*
X00192085Y00434130D01*
X00192224Y00433887D01*
X00192328Y00433644D01*
X00192415Y00433419D01*
X00192450Y00433228D01*
X00192467Y00433072D01*
X00192484Y00432968D01*
Y00432950D01*
Y00432933D01*
Y00430661D01*
X00192467Y00430348D01*
X00192398Y00430071D01*
X00192294Y00429810D01*
X00192190Y00429602D01*
X00192068Y00429429D01*
X00191981Y00429307D01*
X00191912Y00429238D01*
X00191877Y00429203D01*
X00191652Y00429012D01*
X00191409Y00428856D01*
X00191166Y00428752D01*
X00190940Y00428683D01*
X00190750Y00428648D01*
X00190593Y00428631D01*
X00190490Y00428613D01*
X00187592D01*
X00187453Y00428596D01*
X00187315Y00428561D01*
X00187211Y00428509D01*
X00187141Y00428457D01*
X00187072Y00428405D01*
X00187020Y00428353D01*
X00187003Y00428318D01*
X00186985Y00428301D01*
X00186916Y00428197D01*
X00186881Y00428093D01*
X00186812Y00427937D01*
X00186794Y00427850D01*
Y00427815D01*
X00186812Y00427694D01*
X00186829Y00427590D01*
X00186898Y00427399D01*
X00186933Y00427330D01*
X00186968Y00427278D01*
X00187003Y00427243D01*
Y00427225D01*
X00187089Y00427156D01*
X00187193Y00427104D01*
X00187384Y00427035D01*
X00187471Y00427017D01*
X00187540Y00427000D01*
X00186794D01*
X00190455D01*
X00190732Y00427017D01*
X00190993Y00427052D01*
X00191253Y00427104D01*
X00191496Y00427174D01*
X00191929Y00427347D01*
X00192138Y00427434D01*
X00192311Y00427538D01*
X00192484Y00427642D01*
X00192623Y00427729D01*
X00192745Y00427833D01*
X00192849Y00427902D01*
X00192936Y00427971D01*
X00192988Y00428024D01*
X00193022Y00428058D01*
X00193040Y00428076D01*
X00193230Y00428284D01*
X00193387Y00428492D01*
X00193543Y00428717D01*
X00193664Y00428926D01*
X00193768Y00429151D01*
X00193855Y00429359D01*
X00193976Y00429776D01*
X00194028Y00429949D01*
X00194063Y00430123D01*
X00194081Y00430279D01*
X00194098Y00430400D01*
X00194115Y00430522D01*
Y00427729D01*
Y00432933D01*
X00194098Y00433211D01*
X00194063Y00433471D01*
X00194011Y00433731D01*
X00193942Y00433957D01*
X00193768Y00434408D01*
X00193682Y00434599D01*
X00193577Y00434772D01*
X00193473Y00434945D01*
X00193387Y00435084D01*
X00193283Y00435206D01*
X00193213Y00435310D01*
X00193144Y00435396D01*
X00193092Y00435449D01*
X00193057Y00435483D01*
X00193040Y00435501D01*
X00192831Y00435691D01*
X00192623Y00435848D01*
X00192398Y00436004D01*
X00192190Y00436125D01*
X00191964Y00436229D01*
X00191756Y00436316D01*
X00191339Y00436437D01*
X00191166Y00436489D01*
X00190993Y00436524D01*
X00190836Y00436541D01*
X00190715Y00436559D01*
X00190593Y00436576D01*
X00188425D01*
Y00441815D01*
X00193300D01*
X00193439Y00441833D01*
X00193560Y00441850D01*
X00193647Y00441902D01*
X00193734Y00441954D01*
X00193803Y00441989D01*
X00193855Y00442041D01*
X00193872Y00442058D01*
X00193890Y00442076D01*
X00193959Y00442180D01*
X00194028Y00442266D01*
X00194081Y00442457D01*
X00194098Y00442527D01*
X00194115Y00442579D01*
Y00432968D01*
Y00442839D01*
Y00442631D01*
X00194098Y00442735D01*
X00194081Y00442839D01*
X00193994Y00443012D01*
X00193942Y00443064D01*
X00193890Y00443116D01*
X00193872Y00443151D01*
X00193855Y00443168D01*
X00193751Y00443255D01*
X00193664Y00443325D01*
X00193560Y00443359D01*
X00193473Y00443394D01*
X00193404Y00443411D01*
X00193352Y00443429D01*
X00194115D01*
D02*
G37*
G36*
X00336321D02*
X00332660D01*
X00332383Y00443411D01*
X00332105Y00443377D01*
X00331845Y00443325D01*
X00331585Y00443255D01*
X00331151Y00443082D01*
X00330943Y00442978D01*
X00330770Y00442874D01*
X00330596Y00442770D01*
X00330457Y00442665D01*
X00330336Y00442579D01*
X00330232Y00442492D01*
X00330145Y00442423D01*
X00330093Y00442370D01*
X00330058Y00442336D01*
X00330041Y00442318D01*
X00329850Y00442110D01*
X00329694Y00441902D01*
X00329555Y00441677D01*
X00329434Y00441451D01*
X00329347Y00441243D01*
X00329260Y00441035D01*
X00329139Y00440636D01*
X00329087Y00440445D01*
X00329052Y00440289D01*
X00329035Y00440133D01*
X00329017Y00440011D01*
X00329000Y00439907D01*
Y00430661D01*
X00329017Y00430383D01*
X00329052Y00430105D01*
X00329104Y00429845D01*
X00329174Y00429602D01*
X00329347Y00429151D01*
X00329451Y00428960D01*
X00329555Y00428787D01*
X00329659Y00428613D01*
X00329763Y00428475D01*
X00329850Y00428353D01*
X00329937Y00428249D01*
X00330006Y00428162D01*
X00330058Y00428110D01*
X00330093Y00428076D01*
X00330110Y00428058D01*
X00330318Y00427867D01*
X00330544Y00427711D01*
X00330752Y00427573D01*
X00330978Y00427451D01*
X00331186Y00427347D01*
X00331411Y00427260D01*
X00331810Y00427139D01*
X00331984Y00427087D01*
X00332140Y00427052D01*
X00332296Y00427035D01*
X00332418Y00427017D01*
X00332522Y00427000D01*
X00335506D01*
X00335644Y00427017D01*
X00335766Y00427035D01*
X00335853Y00427087D01*
X00335939Y00427139D01*
X00336009Y00427174D01*
X00336061Y00427225D01*
X00336078Y00427243D01*
X00336095Y00427260D01*
X00336165Y00427364D01*
X00336234Y00427451D01*
X00336286Y00427642D01*
X00336304Y00427711D01*
X00336321Y00427763D01*
Y00427104D01*
Y00427815D01*
X00336304Y00427920D01*
X00336286Y00428024D01*
X00336199Y00428197D01*
X00336147Y00428249D01*
X00336095Y00428301D01*
X00336078Y00428336D01*
X00336061Y00428353D01*
X00335974Y00428440D01*
X00335870Y00428509D01*
X00335783Y00428544D01*
X00335696Y00428579D01*
X00335610Y00428596D01*
X00335558Y00428613D01*
X00332660D01*
X00332366Y00428631D01*
X00332088Y00428700D01*
X00331845Y00428804D01*
X00331637Y00428908D01*
X00331463Y00429012D01*
X00331325Y00429117D01*
X00331255Y00429186D01*
X00331221Y00429203D01*
X00331030Y00429446D01*
X00330874Y00429689D01*
X00330770Y00429932D01*
X00330700Y00430157D01*
X00330665Y00430366D01*
X00330648Y00430522D01*
X00330631Y00430626D01*
Y00430643D01*
Y00430661D01*
Y00439768D01*
X00330648Y00440081D01*
X00330718Y00440358D01*
X00330822Y00440618D01*
X00330926Y00440826D01*
X00331030Y00441000D01*
X00331134Y00441121D01*
X00331203Y00441191D01*
X00331221Y00441226D01*
X00331463Y00441416D01*
X00331706Y00441572D01*
X00331949Y00441677D01*
X00332175Y00441746D01*
X00332366Y00441781D01*
X00332522Y00441815D01*
X00335506D01*
X00335644Y00441833D01*
X00335766Y00441850D01*
X00335853Y00441902D01*
X00335939Y00441954D01*
X00336009Y00441989D01*
X00336061Y00442041D01*
X00336078Y00442058D01*
X00336095Y00442076D01*
X00336165Y00442180D01*
X00336234Y00442266D01*
X00336286Y00442457D01*
X00336304Y00442527D01*
X00336321Y00442579D01*
Y00435206D01*
Y00442631D01*
D01*
X00336304Y00442735D01*
X00336286Y00442839D01*
X00336199Y00443012D01*
X00336147Y00443064D01*
X00336095Y00443116D01*
X00336078Y00443151D01*
X00336061Y00443168D01*
X00335974Y00443255D01*
X00335870Y00443325D01*
X00335783Y00443359D01*
X00335696Y00443394D01*
X00335610Y00443411D01*
X00335558Y00443429D01*
X00336321D01*
D02*
G37*
G36*
X00357260D02*
X00348777D01*
X00351830D01*
X00351379Y00443273D01*
X00351292Y00443203D01*
X00351223Y00443116D01*
X00351119Y00442926D01*
X00351102Y00442856D01*
X00351084Y00442787D01*
X00351067Y00442752D01*
Y00442735D01*
X00348794Y00431372D01*
X00348777Y00431216D01*
X00348794Y00431094D01*
X00348812Y00430973D01*
X00348898Y00430799D01*
X00348933Y00430730D01*
X00348968Y00430678D01*
X00348985Y00430661D01*
X00349002Y00430643D01*
X00349089Y00430574D01*
X00349193Y00430522D01*
X00349384Y00430452D01*
X00349471Y00430435D01*
X00349540Y00430418D01*
X00353340D01*
Y00427798D01*
X00353357Y00427659D01*
X00353392Y00427520D01*
X00353426Y00427416D01*
X00353478Y00427330D01*
X00353530Y00427243D01*
X00353582Y00427191D01*
X00353600Y00427174D01*
X00353617Y00427156D01*
X00353739Y00427104D01*
X00353860Y00427069D01*
X00353947Y00427035D01*
X00354016Y00427017D01*
X00354120Y00427000D01*
X00354155D01*
X00354276Y00427017D01*
X00354380Y00427035D01*
X00354571Y00427104D01*
X00354641Y00427139D01*
X00354693Y00427174D01*
X00354727Y00427208D01*
X00354745D01*
X00354814Y00427295D01*
X00354883Y00427382D01*
X00354936Y00427590D01*
X00354953Y00427659D01*
X00354970Y00427729D01*
Y00427781D01*
Y00427798D01*
Y00430418D01*
X00356445D01*
X00356584Y00430435D01*
X00356705Y00430452D01*
X00356792Y00430504D01*
X00356879Y00430556D01*
X00356948Y00430591D01*
X00357000Y00430643D01*
X00357017Y00430661D01*
X00357035Y00430678D01*
X00357104Y00430782D01*
X00357174Y00430869D01*
X00357225Y00431059D01*
X00357243Y00431129D01*
X00357260Y00431181D01*
Y00430678D01*
Y00431233D01*
X00357243Y00431337D01*
X00357225Y00431441D01*
X00357139Y00431615D01*
X00357087Y00431667D01*
X00357035Y00431719D01*
X00357017Y00431753D01*
X00357000Y00431771D01*
X00356913Y00431857D01*
X00356809Y00431927D01*
X00356722Y00431962D01*
X00356636Y00431996D01*
X00356549Y00432014D01*
X00356497Y00432031D01*
X00354970D01*
Y00434668D01*
X00354953Y00434789D01*
X00354936Y00434911D01*
X00354832Y00435084D01*
X00354779Y00435154D01*
X00354745Y00435206D01*
X00354710Y00435223D01*
X00354693Y00435240D01*
X00354589Y00435310D01*
X00354502Y00435379D01*
X00354328Y00435431D01*
X00354259Y00435449D01*
X00354207Y00435466D01*
X00354155D01*
X00354034Y00435449D01*
X00353912Y00435431D01*
X00353739Y00435327D01*
X00353669Y00435275D01*
X00353617Y00435240D01*
X00353582Y00435206D01*
X00353565Y00435188D01*
X00353496Y00435084D01*
X00353444Y00434997D01*
X00353374Y00434824D01*
X00353357Y00434772D01*
X00353340Y00434720D01*
Y00434685D01*
Y00434668D01*
Y00432031D01*
X00350529D01*
X00352663Y00442475D01*
X00352680Y00442648D01*
X00352663Y00442770D01*
X00352646Y00442874D01*
X00352559Y00443047D01*
X00352507Y00443116D01*
X00352455Y00443168D01*
X00352437Y00443186D01*
X00352420Y00443203D01*
X00352333Y00443273D01*
X00352229Y00443342D01*
X00352038Y00443394D01*
X00351952Y00443411D01*
X00351882Y00443429D01*
X00357260D01*
D02*
G37*
G36*
X00346799D02*
X00338316D01*
D01*
X00339131D01*
X00339010Y00443411D01*
X00338889Y00443394D01*
X00338715Y00443290D01*
X00338646Y00443238D01*
X00338594Y00443203D01*
X00338559Y00443168D01*
X00338541Y00443151D01*
X00338472Y00443047D01*
X00338420Y00442960D01*
X00338351Y00442787D01*
X00338333Y00442735D01*
X00338316Y00442683D01*
Y00427798D01*
X00338333Y00427659D01*
X00338368Y00427520D01*
X00338403Y00427416D01*
X00338455Y00427330D01*
X00338507Y00427243D01*
X00338559Y00427191D01*
X00338576Y00427174D01*
X00338594Y00427156D01*
X00338715Y00427104D01*
X00338836Y00427069D01*
X00338923Y00427035D01*
X00338993Y00427017D01*
X00339097Y00427000D01*
X00339131D01*
X00339253Y00427017D01*
X00339357Y00427035D01*
X00339548Y00427104D01*
X00339617Y00427139D01*
X00339669Y00427174D01*
X00339704Y00427208D01*
X00339721D01*
X00339791Y00427295D01*
X00339860Y00427382D01*
X00339912Y00427590D01*
X00339929Y00427659D01*
X00339947Y00427729D01*
Y00427781D01*
Y00427798D01*
Y00434963D01*
X00345168D01*
Y00427798D01*
X00345186Y00427659D01*
X00345221Y00427520D01*
X00345255Y00427416D01*
X00345307Y00427330D01*
X00345359Y00427243D01*
X00345411Y00427191D01*
X00345429Y00427174D01*
X00345446Y00427156D01*
X00345568Y00427104D01*
X00345689Y00427069D01*
X00345776Y00427035D01*
X00345845Y00427017D01*
X00345949Y00427000D01*
X00345984D01*
X00346105Y00427017D01*
X00346209Y00427035D01*
X00346400Y00427104D01*
X00346470Y00427139D01*
X00346522Y00427174D01*
X00346556Y00427208D01*
X00346574D01*
X00346643Y00427295D01*
X00346712Y00427382D01*
X00346765Y00427590D01*
X00346782Y00427659D01*
X00346799Y00427729D01*
Y00427017D01*
Y00442631D01*
X00346782Y00442752D01*
X00346765Y00442874D01*
X00346660Y00443047D01*
X00346608Y00443116D01*
X00346574Y00443168D01*
X00346539Y00443186D01*
X00346522Y00443203D01*
X00346418Y00443273D01*
X00346331Y00443342D01*
X00346157Y00443394D01*
X00346088Y00443411D01*
X00346036Y00443429D01*
X00346799D01*
D01*
D02*
G37*
%LPD*%
G36*
X00345863Y00443411D02*
X00345741Y00443394D01*
X00345568Y00443290D01*
X00345498Y00443238D01*
X00345446Y00443203D01*
X00345411Y00443168D01*
X00345394Y00443151D01*
X00345325Y00443047D01*
X00345273Y00442960D01*
X00345203Y00442787D01*
X00345186Y00442735D01*
X00345168Y00442683D01*
Y00442648D01*
Y00442631D01*
Y00436576D01*
X00339947D01*
Y00442631D01*
X00339929Y00442752D01*
X00339912Y00442874D01*
X00339808Y00443047D01*
X00339756Y00443116D01*
X00339721Y00443168D01*
X00339687Y00443186D01*
X00339669Y00443203D01*
X00339565Y00443273D01*
X00339478Y00443342D01*
X00339305Y00443394D01*
X00339235Y00443411D01*
X00339183Y00443429D01*
X00345984D01*
X00345863Y00443411D01*
D02*
G37*
%LPC*%
G36*
X00509799Y00443429D02*
X00508984D01*
X00508862Y00443411D01*
X00508741Y00443394D01*
X00508568Y00443290D01*
X00508498Y00443238D01*
X00508446Y00443203D01*
X00508411Y00443168D01*
X00508394Y00443151D01*
X00508325Y00443047D01*
X00508273Y00442960D01*
X00508203Y00442787D01*
X00508186Y00442735D01*
X00508168Y00442683D01*
Y00442648D01*
Y00442631D01*
Y00436576D01*
X00502947D01*
Y00442631D01*
X00502929Y00442752D01*
X00502912Y00442874D01*
X00502808Y00443047D01*
X00502756Y00443116D01*
X00502721Y00443168D01*
X00502687Y00443186D01*
X00502669Y00443203D01*
X00502565Y00443273D01*
X00502478Y00443342D01*
X00502305Y00443394D01*
X00502235Y00443411D01*
X00502183Y00443429D01*
X00507738D01*
X00501316D01*
X00502131D01*
X00502010Y00443411D01*
X00501889Y00443394D01*
X00501715Y00443290D01*
X00501646Y00443238D01*
X00501594Y00443203D01*
X00501559Y00443168D01*
X00501541Y00443151D01*
X00501472Y00443047D01*
X00501420Y00442960D01*
X00501351Y00442787D01*
X00501333Y00442735D01*
X00501316Y00442683D01*
Y00427798D01*
X00501333Y00427659D01*
X00501368Y00427520D01*
X00501403Y00427416D01*
X00501455Y00427330D01*
X00501507Y00427243D01*
X00501559Y00427191D01*
X00501576Y00427174D01*
X00501594Y00427156D01*
X00501715Y00427104D01*
X00501836Y00427069D01*
X00501923Y00427035D01*
X00501993Y00427017D01*
X00502097Y00427000D01*
X00501316D01*
X00502131D01*
X00502253Y00427017D01*
X00502357Y00427035D01*
X00502548Y00427104D01*
X00502617Y00427139D01*
X00502669Y00427174D01*
X00502704Y00427208D01*
X00502721D01*
X00502791Y00427295D01*
X00502860Y00427382D01*
X00502912Y00427590D01*
X00502929Y00427659D01*
X00502947Y00427729D01*
Y00427781D01*
Y00427798D01*
Y00434963D01*
X00508168D01*
Y00427798D01*
X00508186Y00427659D01*
X00508221Y00427520D01*
X00508255Y00427416D01*
X00508307Y00427330D01*
X00508359Y00427243D01*
X00508411Y00427191D01*
X00508429Y00427174D01*
X00508446Y00427156D01*
X00508568Y00427104D01*
X00508689Y00427069D01*
X00508776Y00427035D01*
X00508845Y00427017D01*
X00508949Y00427000D01*
X00508984D01*
D01*
X00509799D01*
Y00427017D01*
Y00427000D01*
X00508984D01*
X00509105Y00427017D01*
X00509209Y00427035D01*
X00509400Y00427104D01*
X00509470Y00427139D01*
X00509522Y00427174D01*
X00509556Y00427208D01*
X00509574D01*
X00509643Y00427295D01*
X00509712Y00427382D01*
X00509765Y00427590D01*
X00509782Y00427659D01*
X00509799Y00427729D01*
Y00427017D01*
Y00442631D01*
X00509782Y00442752D01*
X00509765Y00442874D01*
X00509660Y00443047D01*
X00509608Y00443116D01*
X00509574Y00443168D01*
X00509539Y00443186D01*
X00509522Y00443203D01*
X00509418Y00443273D01*
X00509331Y00443342D01*
X00509157Y00443394D01*
X00509088Y00443411D01*
X00509036Y00443429D01*
X00509799D01*
D02*
G37*
G36*
X00499321D02*
X00495661D01*
X00495383Y00443411D01*
X00495105Y00443377D01*
X00494845Y00443325D01*
X00494585Y00443255D01*
X00494151Y00443082D01*
X00493943Y00442978D01*
X00493769Y00442874D01*
X00493596Y00442770D01*
X00493457Y00442665D01*
X00493336Y00442579D01*
X00493232Y00442492D01*
X00493145Y00442423D01*
X00493093Y00442370D01*
X00493058Y00442336D01*
X00493041Y00442318D01*
X00492850Y00442110D01*
X00492694Y00441902D01*
X00492555Y00441677D01*
X00492434Y00441451D01*
X00492347Y00441243D01*
X00492260Y00441035D01*
X00492139Y00440636D01*
X00492087Y00440445D01*
X00492052Y00440289D01*
X00492035Y00440133D01*
X00492017Y00440011D01*
X00492000Y00439907D01*
Y00430661D01*
X00492017Y00430383D01*
X00492052Y00430105D01*
X00492104Y00429845D01*
X00492174Y00429602D01*
X00492347Y00429151D01*
X00492451Y00428960D01*
X00492555Y00428787D01*
X00492659Y00428613D01*
X00492763Y00428475D01*
X00492850Y00428353D01*
X00492937Y00428249D01*
X00493006Y00428162D01*
X00493058Y00428110D01*
X00493093Y00428076D01*
X00493110Y00428058D01*
X00493318Y00427867D01*
X00493544Y00427711D01*
X00493752Y00427573D01*
X00493978Y00427451D01*
X00494186Y00427347D01*
X00494411Y00427260D01*
X00494810Y00427139D01*
X00494984Y00427087D01*
X00495140Y00427052D01*
X00495296Y00427035D01*
X00495418Y00427017D01*
X00495522Y00427000D01*
X00498506D01*
X00498644Y00427017D01*
X00498766Y00427035D01*
X00498853Y00427087D01*
X00498939Y00427139D01*
X00499009Y00427174D01*
X00499061Y00427225D01*
X00499078Y00427243D01*
X00499095Y00427260D01*
X00499165Y00427364D01*
X00499234Y00427451D01*
X00499286Y00427642D01*
X00499304Y00427711D01*
X00499321Y00427763D01*
Y00427104D01*
Y00427815D01*
X00499304Y00427920D01*
X00499286Y00428024D01*
X00499199Y00428197D01*
X00499147Y00428249D01*
X00499095Y00428301D01*
X00499078Y00428336D01*
X00499061Y00428353D01*
X00498974Y00428440D01*
X00498870Y00428509D01*
X00498783Y00428544D01*
X00498696Y00428579D01*
X00498610Y00428596D01*
X00498558Y00428613D01*
X00495661D01*
X00495366Y00428631D01*
X00495088Y00428700D01*
X00494845Y00428804D01*
X00494637Y00428908D01*
X00494464Y00429012D01*
X00494325Y00429117D01*
X00494255Y00429186D01*
X00494221Y00429203D01*
X00494030Y00429446D01*
X00493874Y00429689D01*
X00493769Y00429932D01*
X00493700Y00430157D01*
X00493665Y00430366D01*
X00493648Y00430522D01*
X00493631Y00430626D01*
Y00430643D01*
Y00430661D01*
Y00439768D01*
X00493648Y00440081D01*
X00493717Y00440358D01*
X00493822Y00440618D01*
X00493926Y00440826D01*
X00494030Y00441000D01*
X00494134Y00441121D01*
X00494203Y00441191D01*
X00494221Y00441226D01*
X00494464Y00441416D01*
X00494706Y00441572D01*
X00494949Y00441677D01*
X00495175Y00441746D01*
X00495366Y00441781D01*
X00495522Y00441815D01*
X00498506D01*
X00498644Y00441833D01*
X00498766Y00441850D01*
X00498853Y00441902D01*
X00498939Y00441954D01*
X00499009Y00441989D01*
X00499061Y00442041D01*
X00499078Y00442058D01*
X00499095Y00442076D01*
X00499165Y00442180D01*
X00499234Y00442266D01*
X00499286Y00442457D01*
X00499304Y00442527D01*
X00499321Y00442579D01*
Y00435015D01*
Y00442631D01*
X00499304Y00442735D01*
X00499286Y00442839D01*
X00499199Y00443012D01*
X00499147Y00443064D01*
X00499095Y00443116D01*
X00499078Y00443151D01*
X00499061Y00443168D01*
X00498974Y00443255D01*
X00498870Y00443325D01*
X00498783Y00443359D01*
X00498696Y00443394D01*
X00498610Y00443411D01*
X00498558Y00443429D01*
X00499321D01*
D02*
G37*
G36*
X00515038D02*
X00512592D01*
X00512453Y00443411D01*
X00512315Y00443377D01*
X00512211Y00443325D01*
X00512141Y00443273D01*
X00512072Y00443221D01*
X00512020Y00443168D01*
X00512002Y00443134D01*
X00511985Y00443116D01*
X00511916Y00443012D01*
X00511881Y00442908D01*
X00511812Y00442752D01*
X00511794Y00442665D01*
Y00442631D01*
X00511812Y00442509D01*
X00511829Y00442405D01*
X00511898Y00442214D01*
X00511933Y00442145D01*
X00511968Y00442093D01*
X00512002Y00442058D01*
Y00442041D01*
X00512089Y00441972D01*
X00512193Y00441920D01*
X00512384Y00441850D01*
X00512471Y00441833D01*
X00512540Y00441815D01*
X00514882D01*
X00515195Y00441798D01*
X00515472Y00441729D01*
X00515715Y00441624D01*
X00515923Y00441521D01*
X00516097Y00441399D01*
X00516218Y00441312D01*
X00516305Y00441243D01*
X00516322Y00441208D01*
X00516513Y00440983D01*
X00516669Y00440740D01*
X00516773Y00440497D01*
X00516843Y00440271D01*
X00516877Y00440063D01*
X00516912Y00439907D01*
Y00439803D01*
Y00439786D01*
Y00439768D01*
Y00438641D01*
X00516895Y00438328D01*
X00516825Y00438051D01*
X00516721Y00437791D01*
X00516617Y00437582D01*
X00516513Y00437409D01*
X00516409Y00437287D01*
X00516339Y00437218D01*
X00516322Y00437183D01*
X00516097Y00436993D01*
X00515854Y00436836D01*
X00515611Y00436732D01*
X00515385Y00436663D01*
X00515177Y00436628D01*
X00515021Y00436611D01*
X00514917Y00436594D01*
X00514882D01*
X00514743Y00436576D01*
X00514605Y00436541D01*
X00514501Y00436489D01*
X00514431Y00436437D01*
X00514362Y00436385D01*
X00514310Y00436333D01*
X00514292Y00436299D01*
X00514275Y00436281D01*
X00514206Y00436177D01*
X00514171Y00436073D01*
X00514102Y00435917D01*
X00514084Y00435830D01*
Y00435796D01*
X00514102Y00435674D01*
X00514119Y00435570D01*
X00514188Y00435379D01*
X00514223Y00435310D01*
X00514258Y00435258D01*
X00514292Y00435223D01*
Y00435206D01*
X00514379Y00435136D01*
X00514483Y00435084D01*
X00514674Y00435015D01*
X00514761Y00434997D01*
X00514830Y00434980D01*
X00515455D01*
X00515767Y00434963D01*
X00516045Y00434893D01*
X00516287Y00434789D01*
X00516496Y00434685D01*
X00516669Y00434564D01*
X00516791Y00434477D01*
X00516860Y00434408D01*
X00516895Y00434373D01*
X00517085Y00434147D01*
X00517242Y00433905D01*
X00517346Y00433662D01*
X00517415Y00433436D01*
X00517450Y00433228D01*
X00517485Y00433072D01*
Y00432968D01*
Y00432950D01*
Y00432933D01*
Y00430661D01*
X00517467Y00430348D01*
X00517398Y00430071D01*
X00517294Y00429810D01*
X00517190Y00429602D01*
X00517068Y00429429D01*
X00516981Y00429307D01*
X00516912Y00429238D01*
X00516877Y00429203D01*
X00516652Y00429012D01*
X00516409Y00428856D01*
X00516166Y00428752D01*
X00515941Y00428683D01*
X00515732Y00428648D01*
X00515576Y00428631D01*
X00515472Y00428613D01*
X00512592D01*
X00512453Y00428596D01*
X00512315Y00428561D01*
X00512211Y00428509D01*
X00512141Y00428457D01*
X00512072Y00428405D01*
X00512020Y00428353D01*
X00512002Y00428318D01*
X00511985Y00428301D01*
X00511916Y00428197D01*
X00511881Y00428093D01*
X00511812Y00427937D01*
X00511794Y00427850D01*
Y00427815D01*
X00511812Y00427694D01*
X00511829Y00427590D01*
X00511898Y00427399D01*
X00511933Y00427330D01*
X00511968Y00427278D01*
X00512002Y00427243D01*
Y00427225D01*
X00512089Y00427156D01*
X00512193Y00427104D01*
X00512384Y00427035D01*
X00512471Y00427017D01*
X00512540Y00427000D01*
X00511794D01*
D01*
X00519115D01*
Y00432933D01*
X00519098Y00433315D01*
X00519029Y00433662D01*
X00518942Y00433991D01*
X00518838Y00434286D01*
X00518716Y00434512D01*
X00518629Y00434703D01*
X00518595Y00434772D01*
X00518560Y00434824D01*
X00518543Y00434841D01*
Y00434859D01*
X00518335Y00435171D01*
X00518109Y00435414D01*
X00517901Y00435622D01*
X00517710Y00435778D01*
X00517537Y00435900D01*
X00517415Y00435969D01*
X00517328Y00436004D01*
X00517294Y00436021D01*
X00517502Y00436177D01*
X00517693Y00436351D01*
X00517831Y00436507D01*
X00517970Y00436680D01*
X00518074Y00436819D01*
X00518144Y00436940D01*
X00518178Y00437010D01*
X00518196Y00437045D01*
X00518265Y00437183D01*
X00518335Y00437305D01*
X00518404Y00437530D01*
X00518439Y00437635D01*
X00518456Y00437704D01*
Y00437738D01*
Y00437756D01*
X00518543Y00437999D01*
Y00438259D01*
Y00438641D01*
Y00439768D01*
X00518525Y00440046D01*
X00518491Y00440323D01*
X00518439Y00440566D01*
X00518387Y00440809D01*
X00518213Y00441260D01*
X00518109Y00441451D01*
X00518022Y00441642D01*
X00517918Y00441798D01*
X00517814Y00441937D01*
X00517727Y00442058D01*
X00517658Y00442162D01*
X00517589Y00442249D01*
X00517537Y00442301D01*
X00517502Y00442336D01*
X00517485Y00442353D01*
X00517276Y00442544D01*
X00517068Y00442700D01*
X00516860Y00442856D01*
X00516634Y00442978D01*
X00516409Y00443082D01*
X00516201Y00443168D01*
X00515784Y00443290D01*
X00515594Y00443342D01*
X00515420Y00443377D01*
X00515281Y00443394D01*
X00515143Y00443411D01*
X00515038Y00443429D01*
D02*
G37*
%LPD*%
G36*
X00519115Y00427000D02*
X00515455D01*
X00515732Y00427017D01*
X00515993Y00427052D01*
X00516253Y00427104D01*
X00516496Y00427174D01*
X00516929Y00427330D01*
X00517137Y00427434D01*
X00517311Y00427538D01*
X00517485Y00427625D01*
X00517623Y00427729D01*
X00517745Y00427815D01*
X00517849Y00427902D01*
X00517936Y00427954D01*
X00517988Y00428006D01*
X00518022Y00428041D01*
X00518040Y00428058D01*
X00518231Y00428266D01*
X00518387Y00428475D01*
X00518543Y00428700D01*
X00518664Y00428926D01*
X00518768Y00429134D01*
X00518855Y00429359D01*
X00518977Y00429758D01*
X00519029Y00429949D01*
X00519063Y00430123D01*
X00519081Y00430279D01*
X00519098Y00430400D01*
X00519115Y00430522D01*
Y00427000D01*
D02*
G37*
%LPC*%
G36*
X00677923Y00443429D02*
X00677854D01*
D01*
D01*
D01*
X00673812D01*
X00677854D01*
X00677403Y00443394D01*
X00676969Y00443325D01*
X00676587Y00443221D01*
X00676258Y00443099D01*
X00675997Y00442960D01*
X00675876Y00442908D01*
X00675789Y00442856D01*
X00675720Y00442822D01*
X00675668Y00442787D01*
X00675633Y00442752D01*
X00675616D01*
X00675234Y00442440D01*
X00674922Y00442093D01*
X00674644Y00441729D01*
X00674419Y00441364D01*
X00674245Y00441035D01*
X00674176Y00440896D01*
X00674124Y00440774D01*
X00674072Y00440670D01*
X00674037Y00440601D01*
X00674020Y00440549D01*
Y00440532D01*
X00673985Y00440323D01*
X00674003Y00440185D01*
X00674020Y00440063D01*
X00674054Y00439959D01*
X00674107Y00439855D01*
X00674159Y00439786D01*
X00674193Y00439734D01*
X00674211Y00439716D01*
X00674228Y00439699D01*
X00674332Y00439630D01*
X00674436Y00439577D01*
X00674644Y00439525D01*
X00674731Y00439508D01*
X00674800Y00439491D01*
X00674870D01*
X00675026Y00439525D01*
X00675147Y00439560D01*
X00675234Y00439595D01*
X00675269Y00439612D01*
X00675408Y00439734D01*
X00675494Y00439872D01*
X00675546Y00439977D01*
X00675564Y00439994D01*
Y00440011D01*
X00675720Y00440358D01*
X00675893Y00440653D01*
X00676049Y00440879D01*
X00676223Y00441069D01*
X00676362Y00441226D01*
X00676466Y00441330D01*
X00676535Y00441382D01*
X00676570Y00441399D01*
X00676813Y00441538D01*
X00677038Y00441642D01*
X00677264Y00441711D01*
X00677472Y00441763D01*
X00677646Y00441798D01*
X00677784Y00441815D01*
X00678097D01*
X00678288Y00441781D01*
X00678461Y00441746D01*
X00678617Y00441711D01*
X00678756Y00441677D01*
X00678860Y00441642D01*
X00678929Y00441624D01*
X00678947Y00441607D01*
X00679137Y00441521D01*
X00679311Y00441434D01*
X00679467Y00441347D01*
X00679589Y00441260D01*
X00679693Y00441174D01*
X00679779Y00441104D01*
X00679831Y00441069D01*
X00679849Y00441052D01*
X00680005Y00440913D01*
X00680126Y00440774D01*
X00680248Y00440618D01*
X00680335Y00440462D01*
X00680491Y00440167D01*
X00680595Y00439890D01*
X00680647Y00439647D01*
X00680682Y00439456D01*
X00680699Y00439387D01*
Y00439335D01*
Y00439300D01*
Y00439282D01*
X00680682Y00438988D01*
X00680664Y00438866D01*
X00680630Y00438745D01*
X00680612Y00438658D01*
X00680577Y00438589D01*
X00680560Y00438537D01*
Y00438519D01*
X00680404Y00438155D01*
X00680178Y00437704D01*
X00673898Y00428214D01*
X00673846Y00428093D01*
X00673829Y00427989D01*
X00673812Y00427885D01*
Y00427850D01*
X00673829Y00427729D01*
X00673846Y00427625D01*
X00673916Y00427434D01*
X00673950Y00427364D01*
X00673985Y00427312D01*
X00674020Y00427278D01*
Y00427260D01*
X00674124Y00427174D01*
X00674245Y00427104D01*
X00674332Y00427069D01*
X00674419Y00427035D01*
X00674506Y00427017D01*
X00674558Y00427000D01*
X00673812D01*
X00681428D01*
X00681566Y00427017D01*
X00681688Y00427035D01*
X00681792Y00427087D01*
X00681879Y00427139D01*
X00681948Y00427174D01*
X00682000Y00427225D01*
X00682017Y00427243D01*
X00682035Y00427260D01*
X00682104Y00427364D01*
X00682156Y00427451D01*
X00682225Y00427642D01*
Y00427711D01*
X00682243Y00427763D01*
Y00427798D01*
Y00427815D01*
X00682225Y00427920D01*
X00682208Y00428024D01*
X00682121Y00428197D01*
X00682069Y00428249D01*
X00682017Y00428301D01*
X00682000Y00428336D01*
X00681983Y00428353D01*
X00681896Y00428440D01*
X00681792Y00428509D01*
X00681705Y00428544D01*
X00681618Y00428579D01*
X00681532Y00428596D01*
X00681479Y00428613D01*
X00675928D01*
X00681532Y00436802D01*
X00681688Y00437079D01*
X00681826Y00437322D01*
X00681931Y00437548D01*
X00682017Y00437738D01*
X00682087Y00437895D01*
X00682139Y00438016D01*
X00682173Y00438103D01*
Y00438120D01*
X00682243Y00438328D01*
X00682278Y00438537D01*
X00682312Y00438745D01*
X00682347Y00438918D01*
Y00439074D01*
X00682364Y00439178D01*
Y00428596D01*
Y00439282D01*
X00682347Y00439595D01*
X00682312Y00439890D01*
X00682243Y00440150D01*
X00682156Y00440410D01*
X00682052Y00440636D01*
X00681931Y00440844D01*
X00681809Y00441035D01*
X00681688Y00441208D01*
X00681566Y00441347D01*
X00681445Y00441486D01*
X00681323Y00441590D01*
X00681219Y00441677D01*
X00681133Y00441746D01*
X00681063Y00441798D01*
X00681029Y00441815D01*
X00681011Y00441833D01*
X00680734Y00442110D01*
X00680456Y00442353D01*
X00680178Y00442579D01*
X00679918Y00442752D01*
X00679641Y00442908D01*
X00679380Y00443047D01*
X00679137Y00443151D01*
X00678895Y00443238D01*
X00678669Y00443290D01*
X00678478Y00443342D01*
X00678305Y00443377D01*
X00678149Y00443411D01*
X00678027D01*
X00677923Y00443429D01*
D02*
G37*
G36*
X00661321D02*
X00657661D01*
X00657383Y00443411D01*
X00657105Y00443377D01*
X00656845Y00443325D01*
X00656585Y00443255D01*
X00656151Y00443082D01*
X00655943Y00442978D01*
X00655770Y00442874D01*
X00655596Y00442770D01*
X00655457Y00442665D01*
X00655336Y00442579D01*
X00655232Y00442492D01*
X00655145Y00442423D01*
X00655093Y00442370D01*
X00655058Y00442336D01*
X00655041Y00442318D01*
X00654850Y00442110D01*
X00654694Y00441902D01*
X00654555Y00441677D01*
X00654434Y00441451D01*
X00654347Y00441243D01*
X00654260Y00441035D01*
X00654139Y00440636D01*
X00654087Y00440445D01*
X00654052Y00440289D01*
X00654035Y00440133D01*
X00654017Y00440011D01*
X00654000Y00439907D01*
Y00430661D01*
X00654017Y00430383D01*
X00654052Y00430105D01*
X00654104Y00429845D01*
X00654174Y00429602D01*
X00654347Y00429151D01*
X00654451Y00428960D01*
X00654555Y00428787D01*
X00654659Y00428613D01*
X00654763Y00428475D01*
X00654850Y00428353D01*
X00654937Y00428249D01*
X00655006Y00428162D01*
X00655058Y00428110D01*
X00655093Y00428076D01*
X00655110Y00428058D01*
X00655319Y00427867D01*
X00655544Y00427711D01*
X00655752Y00427573D01*
X00655978Y00427451D01*
X00656186Y00427347D01*
X00656411Y00427260D01*
X00656810Y00427139D01*
X00656984Y00427087D01*
X00657140Y00427052D01*
X00657296Y00427035D01*
X00657418Y00427017D01*
X00657522Y00427000D01*
X00660506D01*
X00660644Y00427017D01*
X00660766Y00427035D01*
X00660853Y00427087D01*
X00660939Y00427139D01*
X00661009Y00427174D01*
X00661061Y00427225D01*
X00661078Y00427243D01*
X00661095Y00427260D01*
X00661165Y00427364D01*
X00661234Y00427451D01*
X00661286Y00427642D01*
X00661304Y00427711D01*
X00661321Y00427763D01*
Y00427069D01*
Y00427867D01*
Y00427815D01*
X00661304Y00427920D01*
X00661286Y00428024D01*
X00661199Y00428197D01*
X00661147Y00428249D01*
X00661095Y00428301D01*
X00661078Y00428336D01*
X00661061Y00428353D01*
X00660974Y00428440D01*
X00660870Y00428509D01*
X00660783Y00428544D01*
X00660696Y00428579D01*
X00660610Y00428596D01*
X00660558Y00428613D01*
X00657661D01*
X00657365Y00428631D01*
X00657088Y00428700D01*
X00656845Y00428804D01*
X00656637Y00428908D01*
X00656463Y00429012D01*
X00656325Y00429117D01*
X00656255Y00429186D01*
X00656221Y00429203D01*
X00656030Y00429446D01*
X00655874Y00429689D01*
X00655770Y00429932D01*
X00655700Y00430157D01*
X00655665Y00430366D01*
X00655648Y00430522D01*
X00655631Y00430626D01*
Y00430643D01*
Y00430661D01*
Y00439768D01*
X00655648Y00440081D01*
X00655717Y00440358D01*
X00655822Y00440618D01*
X00655926Y00440826D01*
X00656030Y00441000D01*
X00656134Y00441121D01*
X00656203Y00441191D01*
X00656221Y00441226D01*
X00656463Y00441416D01*
X00656706Y00441572D01*
X00656949Y00441677D01*
X00657175Y00441746D01*
X00657365Y00441781D01*
X00657522Y00441815D01*
X00660506D01*
X00660644Y00441833D01*
X00660766Y00441850D01*
X00660853Y00441902D01*
X00660939Y00441954D01*
X00661009Y00441989D01*
X00661061Y00442041D01*
X00661078Y00442058D01*
X00661095Y00442076D01*
X00661165Y00442180D01*
X00661234Y00442266D01*
X00661286Y00442457D01*
X00661304Y00442527D01*
X00661321Y00442579D01*
Y00436576D01*
Y00442631D01*
D01*
X00661304Y00442735D01*
X00661286Y00442839D01*
X00661199Y00443012D01*
X00661147Y00443064D01*
X00661095Y00443116D01*
X00661078Y00443151D01*
X00661061Y00443168D01*
X00660974Y00443255D01*
X00660870Y00443325D01*
X00660783Y00443359D01*
X00660696Y00443394D01*
X00660610Y00443411D01*
X00660558Y00443429D01*
X00661321D01*
D02*
G37*
G36*
X00671799D02*
X00670984D01*
X00670862Y00443411D01*
X00670741Y00443394D01*
X00670567Y00443290D01*
X00670498Y00443238D01*
X00670446Y00443203D01*
X00670411Y00443168D01*
X00670394Y00443151D01*
X00670325Y00443047D01*
X00670273Y00442960D01*
X00670203Y00442787D01*
X00670186Y00442735D01*
X00670169Y00442683D01*
Y00442648D01*
Y00442631D01*
Y00436576D01*
X00664947D01*
Y00442631D01*
X00664929Y00442752D01*
X00664912Y00442874D01*
X00664808Y00443047D01*
X00664756Y00443116D01*
X00664721Y00443168D01*
X00664687Y00443186D01*
X00664669Y00443203D01*
X00664565Y00443273D01*
X00664478Y00443342D01*
X00664305Y00443394D01*
X00664235Y00443411D01*
X00664183Y00443429D01*
X00669738D01*
X00663316D01*
X00664131D01*
X00664010Y00443411D01*
X00663888Y00443394D01*
X00663715Y00443290D01*
X00663646Y00443238D01*
X00663594Y00443203D01*
X00663559Y00443168D01*
X00663541Y00443151D01*
X00663472Y00443047D01*
X00663420Y00442960D01*
X00663351Y00442787D01*
X00663333Y00442735D01*
X00663316Y00442683D01*
Y00427798D01*
X00663333Y00427659D01*
X00663368Y00427520D01*
X00663403Y00427416D01*
X00663455Y00427330D01*
X00663507Y00427243D01*
X00663559Y00427191D01*
X00663576Y00427174D01*
X00663594Y00427156D01*
X00663715Y00427104D01*
X00663836Y00427069D01*
X00663923Y00427035D01*
X00663993Y00427017D01*
X00664097Y00427000D01*
X00663316D01*
X00664131D01*
X00664253Y00427017D01*
X00664357Y00427035D01*
X00664548Y00427104D01*
X00664617Y00427139D01*
X00664669Y00427174D01*
X00664704Y00427208D01*
X00664721D01*
X00664791Y00427295D01*
X00664860Y00427382D01*
X00664912Y00427590D01*
X00664929Y00427659D01*
X00664947Y00427729D01*
Y00427781D01*
Y00427798D01*
Y00434963D01*
X00670169D01*
Y00427798D01*
X00670186Y00427659D01*
X00670221Y00427520D01*
X00670255Y00427416D01*
X00670307Y00427330D01*
X00670359Y00427243D01*
X00670411Y00427191D01*
X00670429Y00427174D01*
X00670446Y00427156D01*
X00670567Y00427104D01*
X00670689Y00427069D01*
X00670776Y00427035D01*
X00670845Y00427017D01*
X00670949Y00427000D01*
X00670984D01*
D01*
X00671799D01*
Y00427017D01*
Y00427000D01*
X00670984D01*
X00671105Y00427017D01*
X00671209Y00427035D01*
X00671400Y00427104D01*
X00671470Y00427139D01*
X00671522Y00427174D01*
X00671556Y00427208D01*
X00671574D01*
X00671643Y00427295D01*
X00671712Y00427382D01*
X00671765Y00427590D01*
X00671782Y00427659D01*
X00671799Y00427729D01*
Y00427017D01*
Y00442631D01*
X00671782Y00442752D01*
X00671765Y00442874D01*
X00671661Y00443047D01*
X00671608Y00443116D01*
X00671574Y00443168D01*
X00671539Y00443186D01*
X00671522Y00443203D01*
X00671418Y00443273D01*
X00671331Y00443342D01*
X00671157Y00443394D01*
X00671088Y00443411D01*
X00671036Y00443429D01*
X00671799D01*
D02*
G37*
G36*
X00825321D02*
X00821661D01*
X00821383Y00443411D01*
X00821105Y00443377D01*
X00820845Y00443325D01*
X00820585Y00443255D01*
X00820151Y00443082D01*
X00819943Y00442978D01*
X00819770Y00442874D01*
X00819596Y00442770D01*
X00819457Y00442665D01*
X00819336Y00442579D01*
X00819232Y00442492D01*
X00819145Y00442423D01*
X00819093Y00442370D01*
X00819058Y00442336D01*
X00819041Y00442318D01*
X00818850Y00442110D01*
X00818694Y00441902D01*
X00818555Y00441677D01*
X00818434Y00441451D01*
X00818347Y00441243D01*
X00818260Y00441035D01*
X00818139Y00440636D01*
X00818087Y00440445D01*
X00818052Y00440289D01*
X00818035Y00440133D01*
X00818017Y00440011D01*
X00818000Y00439907D01*
Y00430661D01*
X00818017Y00430383D01*
X00818052Y00430105D01*
X00818104Y00429845D01*
X00818174Y00429602D01*
X00818347Y00429151D01*
X00818451Y00428960D01*
X00818555Y00428787D01*
X00818659Y00428613D01*
X00818763Y00428475D01*
X00818850Y00428353D01*
X00818937Y00428249D01*
X00819006Y00428162D01*
X00819058Y00428110D01*
X00819093Y00428076D01*
X00819110Y00428058D01*
X00819318Y00427867D01*
X00819544Y00427711D01*
X00819752Y00427573D01*
X00819978Y00427451D01*
X00820186Y00427347D01*
X00820411Y00427260D01*
X00820810Y00427139D01*
X00820984Y00427087D01*
X00821140Y00427052D01*
X00821296Y00427035D01*
X00821418Y00427017D01*
X00821522Y00427000D01*
X00824506D01*
X00824644Y00427017D01*
X00824766Y00427035D01*
X00824853Y00427087D01*
X00824939Y00427139D01*
X00825009Y00427174D01*
X00825061Y00427225D01*
X00825078Y00427243D01*
X00825095Y00427260D01*
X00825165Y00427364D01*
X00825234Y00427451D01*
X00825286Y00427642D01*
X00825304Y00427711D01*
X00825321Y00427763D01*
Y00427087D01*
Y00428509D01*
Y00427815D01*
X00825304Y00427920D01*
X00825286Y00428024D01*
X00825200Y00428197D01*
X00825147Y00428249D01*
X00825095Y00428301D01*
X00825078Y00428336D01*
X00825061Y00428353D01*
X00824974Y00428440D01*
X00824870Y00428509D01*
X00824783Y00428544D01*
X00824696Y00428579D01*
X00824610Y00428596D01*
X00824558Y00428613D01*
X00821661D01*
X00821366Y00428631D01*
X00821088Y00428700D01*
X00820845Y00428804D01*
X00820637Y00428908D01*
X00820463Y00429012D01*
X00820325Y00429117D01*
X00820255Y00429186D01*
X00820221Y00429203D01*
X00820030Y00429446D01*
X00819874Y00429689D01*
X00819770Y00429932D01*
X00819700Y00430157D01*
X00819665Y00430366D01*
X00819648Y00430522D01*
X00819631Y00430626D01*
Y00430643D01*
Y00430661D01*
Y00439768D01*
X00819648Y00440081D01*
X00819717Y00440358D01*
X00819822Y00440618D01*
X00819926Y00440826D01*
X00820030Y00441000D01*
X00820134Y00441121D01*
X00820203Y00441191D01*
X00820221Y00441226D01*
X00820463Y00441416D01*
X00820706Y00441572D01*
X00820949Y00441677D01*
X00821175Y00441746D01*
X00821366Y00441781D01*
X00821522Y00441815D01*
X00824506D01*
X00824644Y00441833D01*
X00824766Y00441850D01*
X00824853Y00441902D01*
X00824939Y00441954D01*
X00825009Y00441989D01*
X00825061Y00442041D01*
X00825078Y00442058D01*
X00825095Y00442076D01*
X00825165Y00442180D01*
X00825234Y00442266D01*
X00825286Y00442457D01*
X00825304Y00442527D01*
X00825321Y00442579D01*
Y00440289D01*
Y00442631D01*
D01*
X00825304Y00442735D01*
X00825286Y00442839D01*
X00825200Y00443012D01*
X00825147Y00443064D01*
X00825095Y00443116D01*
X00825078Y00443151D01*
X00825061Y00443168D01*
X00824974Y00443255D01*
X00824870Y00443325D01*
X00824783Y00443359D01*
X00824696Y00443394D01*
X00824610Y00443411D01*
X00824558Y00443429D01*
X00825321D01*
D02*
G37*
G36*
X00835799D02*
X00827316D01*
D01*
X00828131D01*
X00828010Y00443411D01*
X00827888Y00443394D01*
X00827715Y00443290D01*
X00827646Y00443238D01*
X00827594Y00443203D01*
X00827559Y00443168D01*
X00827542Y00443151D01*
X00827472Y00443047D01*
X00827420Y00442960D01*
X00827351Y00442787D01*
X00827333Y00442735D01*
X00827316Y00442683D01*
Y00427798D01*
X00827333Y00427659D01*
X00827368Y00427520D01*
X00827403Y00427416D01*
X00827455Y00427330D01*
X00827507Y00427243D01*
X00827559Y00427191D01*
X00827576Y00427174D01*
X00827594Y00427156D01*
X00827715Y00427104D01*
X00827836Y00427069D01*
X00827923Y00427035D01*
X00827993Y00427017D01*
X00828097Y00427000D01*
X00828131D01*
X00828253Y00427017D01*
X00828357Y00427035D01*
X00828548Y00427104D01*
X00828617Y00427139D01*
X00828669Y00427174D01*
X00828704Y00427208D01*
X00828721D01*
X00828791Y00427295D01*
X00828860Y00427382D01*
X00828912Y00427590D01*
X00828929Y00427659D01*
X00828947Y00427729D01*
Y00427781D01*
Y00427798D01*
Y00434963D01*
X00834168D01*
Y00427798D01*
X00834186Y00427659D01*
X00834221Y00427520D01*
X00834255Y00427416D01*
X00834307Y00427330D01*
X00834359Y00427243D01*
X00834411Y00427191D01*
X00834429Y00427174D01*
X00834446Y00427156D01*
X00834567Y00427104D01*
X00834689Y00427069D01*
X00834776Y00427035D01*
X00834845Y00427017D01*
X00834949Y00427000D01*
X00834984D01*
X00835105Y00427017D01*
X00835209Y00427035D01*
X00835400Y00427104D01*
X00835470Y00427139D01*
X00835522Y00427174D01*
X00835556Y00427208D01*
X00835574D01*
X00835643Y00427295D01*
X00835713Y00427382D01*
X00835764Y00427590D01*
X00835782Y00427659D01*
X00835799Y00427729D01*
Y00427017D01*
Y00442631D01*
X00835782Y00442752D01*
X00835764Y00442874D01*
X00835660Y00443047D01*
X00835608Y00443116D01*
X00835574Y00443168D01*
X00835539Y00443186D01*
X00835522Y00443203D01*
X00835418Y00443273D01*
X00835331Y00443342D01*
X00835157Y00443394D01*
X00835088Y00443411D01*
X00835036Y00443429D01*
X00835799D01*
D01*
D02*
G37*
G36*
X00842062D02*
X00842010D01*
X00841889Y00443411D01*
X00841784Y00443394D01*
X00841611Y00443325D01*
X00841542Y00443273D01*
X00841489Y00443238D01*
X00841472Y00443221D01*
X00841455Y00443203D01*
X00838020Y00439751D01*
X00837950Y00439612D01*
X00837898Y00439508D01*
X00837864Y00439421D01*
X00837846Y00439335D01*
X00837829Y00439282D01*
X00837812Y00439248D01*
Y00439213D01*
X00837829Y00439092D01*
X00837846Y00438970D01*
X00837933Y00438797D01*
X00837968Y00438727D01*
X00838002Y00438675D01*
X00838020Y00438641D01*
X00838037Y00438623D01*
X00838141Y00438554D01*
X00838228Y00438502D01*
X00838419Y00438433D01*
X00838506Y00438415D01*
X00838575Y00438398D01*
X00838627D01*
X00838748Y00438415D01*
X00838852Y00438433D01*
X00839026Y00438519D01*
X00839095Y00438571D01*
X00839147Y00438606D01*
X00839165Y00438623D01*
X00839182Y00438641D01*
X00841212Y00441017D01*
Y00427798D01*
X00841229Y00427659D01*
X00841264Y00427520D01*
X00841299Y00427416D01*
X00841351Y00427330D01*
X00841403Y00427243D01*
X00841455Y00427191D01*
X00841472Y00427174D01*
X00841489Y00427156D01*
X00841611Y00427104D01*
X00841732Y00427069D01*
X00841819Y00427035D01*
X00841889Y00427017D01*
X00841993Y00427000D01*
X00837812D01*
X00842843D01*
Y00442874D01*
Y00442648D01*
X00842825Y00442770D01*
X00842808Y00442874D01*
X00842721Y00443064D01*
X00842669Y00443116D01*
X00842617Y00443168D01*
X00842600Y00443186D01*
X00842582Y00443203D01*
X00842496Y00443273D01*
X00842392Y00443342D01*
X00842201Y00443394D01*
X00842131Y00443411D01*
X00842062Y00443429D01*
D02*
G37*
%LPD*%
G36*
X00834862Y00443411D02*
X00834741Y00443394D01*
X00834567Y00443290D01*
X00834498Y00443238D01*
X00834446Y00443203D01*
X00834411Y00443168D01*
X00834394Y00443151D01*
X00834325Y00443047D01*
X00834273Y00442960D01*
X00834203Y00442787D01*
X00834186Y00442735D01*
X00834168Y00442683D01*
Y00442648D01*
Y00442631D01*
Y00436576D01*
X00828947D01*
Y00442631D01*
X00828929Y00442752D01*
X00828912Y00442874D01*
X00828808Y00443047D01*
X00828756Y00443116D01*
X00828721Y00443168D01*
X00828687Y00443186D01*
X00828669Y00443203D01*
X00828565Y00443273D01*
X00828478Y00443342D01*
X00828305Y00443394D01*
X00828235Y00443411D01*
X00828183Y00443429D01*
X00834984D01*
X00834862Y00443411D01*
D02*
G37*
G36*
X00842843Y00427000D02*
X00842027D01*
X00842149Y00427017D01*
X00842253Y00427035D01*
X00842444Y00427104D01*
X00842513Y00427139D01*
X00842565Y00427174D01*
X00842600Y00427208D01*
X00842617D01*
X00842686Y00427295D01*
X00842756Y00427382D01*
X00842808Y00427590D01*
X00842825Y00427659D01*
X00842843Y00427729D01*
Y00427000D01*
D02*
G37*
%LPC*%
G36*
X00030021Y00142093D02*
X00026360D01*
X00026239Y00142076D01*
X00026118Y00142059D01*
X00025944Y00141955D01*
X00025875Y00141903D01*
X00025823Y00141868D01*
X00025788Y00141833D01*
X00025771Y00141816D01*
X00025701Y00141712D01*
X00025649Y00141625D01*
X00025580Y00141452D01*
X00025563Y00141400D01*
X00025545Y00141348D01*
Y00141313D01*
Y00141295D01*
Y00139248D01*
X00023498D01*
X00023359Y00139231D01*
X00023221Y00139196D01*
X00023116Y00139144D01*
X00023047Y00139092D01*
X00022978Y00139040D01*
X00022926Y00138988D01*
X00022908Y00138954D01*
X00022891Y00138936D01*
X00022821Y00138832D01*
X00022787Y00138728D01*
X00022717Y00138572D01*
X00022700Y00138485D01*
Y00138450D01*
X00022717Y00138329D01*
X00022735Y00138225D01*
X00022804Y00138034D01*
X00022839Y00137965D01*
X00022873Y00137913D01*
X00022908Y00137878D01*
Y00137861D01*
X00022995Y00137791D01*
X00023099Y00137739D01*
X00023290Y00137670D01*
X00023377Y00137652D01*
X00023446Y00137635D01*
X00025545D01*
Y00135588D01*
X00025563Y00135449D01*
X00025597Y00135310D01*
X00025632Y00135189D01*
X00025701Y00135102D01*
X00025753Y00135033D01*
X00025788Y00134981D01*
X00025823Y00134946D01*
X00025840Y00134929D01*
X00026066Y00134842D01*
X00026239Y00134790D01*
X00026326Y00134773D01*
X00026360D01*
X00026482Y00134790D01*
X00026586Y00134807D01*
X00026777Y00134877D01*
X00026846Y00134911D01*
X00026898Y00134946D01*
X00026933Y00134981D01*
X00026950D01*
X00027020Y00135068D01*
X00027089Y00135172D01*
X00027141Y00135362D01*
X00027159Y00135449D01*
X00027176Y00135519D01*
Y00135571D01*
Y00135588D01*
Y00137635D01*
X00029206D01*
X00029344Y00137652D01*
X00029466Y00137670D01*
X00029553Y00137722D01*
X00029639Y00137774D01*
X00029709Y00137809D01*
X00029761Y00137861D01*
X00029778Y00137878D01*
X00029795Y00137895D01*
X00029865Y00137999D01*
X00029934Y00138086D01*
X00029986Y00138277D01*
X00030004Y00138346D01*
X00030021Y00138398D01*
Y00135345D01*
Y00138450D01*
X00030004Y00138554D01*
X00029986Y00138659D01*
X00029899Y00138832D01*
X00029848Y00138884D01*
X00029795Y00138936D01*
X00029778Y00138971D01*
X00029761Y00138988D01*
X00029674Y00139075D01*
X00029570Y00139144D01*
X00029483Y00139179D01*
X00029396Y00139214D01*
X00029310Y00139231D01*
X00029258Y00139248D01*
X00027176D01*
Y00141295D01*
X00027159Y00141417D01*
X00027141Y00141538D01*
X00027037Y00141712D01*
X00026985Y00141781D01*
X00026950Y00141833D01*
X00026916Y00141851D01*
X00026898Y00141868D01*
X00026794Y00141937D01*
X00026707Y00142007D01*
X00026534Y00142059D01*
X00026465Y00142076D01*
X00026412Y00142093D01*
X00030021D01*
D01*
D02*
G37*
G36*
X00053198Y00148929D02*
X00049486D01*
X00049364Y00148894D01*
X00049156Y00148807D01*
X00049017Y00148668D01*
X00048931Y00148530D01*
X00048861Y00148391D01*
X00048844Y00148252D01*
X00048826Y00148165D01*
Y00133298D01*
X00048844Y00133159D01*
X00048861Y00133038D01*
X00048948Y00132830D01*
X00049087Y00132691D01*
X00049225Y00132604D01*
X00049364Y00132535D01*
X00049503Y00132517D01*
X00049590Y00132500D01*
X00048826D01*
D01*
X00057310D01*
Y00138433D01*
X00057292Y00138797D01*
X00057223Y00139144D01*
X00057136Y00139457D01*
X00057032Y00139734D01*
X00056911Y00139977D01*
X00056824Y00140150D01*
X00056789Y00140220D01*
X00056754Y00140272D01*
X00056737Y00140289D01*
Y00140307D01*
X00056529Y00140619D01*
X00056304Y00140879D01*
X00056078Y00141087D01*
X00055887Y00141243D01*
X00055696Y00141365D01*
X00055557Y00141452D01*
X00055471Y00141486D01*
X00055453Y00141504D01*
X00055436D01*
X00055644Y00141660D01*
X00055835Y00141816D01*
X00055991Y00142007D01*
X00056130Y00142163D01*
X00056234Y00142319D01*
X00056321Y00142441D01*
X00056356Y00142527D01*
X00056373Y00142562D01*
X00056494Y00142822D01*
X00056581Y00143100D01*
X00056633Y00143360D01*
X00056685Y00143620D01*
X00056702Y00143828D01*
X00056720Y00143984D01*
Y00144054D01*
Y00144106D01*
Y00144123D01*
Y00144141D01*
Y00145268D01*
Y00145633D01*
X00056650Y00146032D01*
X00056460Y00146673D01*
X00056338Y00146916D01*
X00056217Y00147142D01*
X00056061Y00147367D01*
X00055904Y00147558D01*
X00055783Y00147714D01*
X00055662Y00147836D01*
X00055592Y00147905D01*
X00055557Y00147940D01*
X00055367Y00148113D01*
X00055159Y00148270D01*
X00054968Y00148391D01*
X00054742Y00148512D01*
X00054534Y00148617D01*
X00054326Y00148686D01*
X00053944Y00148807D01*
X00053753Y00148842D01*
X00053597Y00148877D01*
X00053441Y00148894D01*
X00053320Y00148911D01*
X00053198Y00148929D01*
D02*
G37*
G36*
X00036804D02*
X00036752D01*
X00036440Y00148859D01*
X00035989Y00148668D01*
X00035572Y00148443D01*
X00035173Y00148200D01*
X00034809Y00147957D01*
X00034462Y00147697D01*
X00034150Y00147437D01*
X00033855Y00147159D01*
X00033595Y00146916D01*
X00033369Y00146656D01*
X00033178Y00146431D01*
X00033005Y00146222D01*
X00032866Y00146049D01*
X00032745Y00145893D01*
X00032675Y00145789D01*
X00032623Y00145702D01*
X00032606Y00145685D01*
X00032380Y00145303D01*
X00032190Y00144904D01*
X00032033Y00144522D01*
X00031877Y00144141D01*
X00031756Y00143759D01*
X00031669Y00143377D01*
X00031582Y00143030D01*
X00031513Y00142701D01*
X00031461Y00142388D01*
X00031426Y00142093D01*
X00031391Y00141851D01*
X00031374Y00141643D01*
Y00141469D01*
X00031357Y00141330D01*
Y00136160D01*
X00031374Y00135883D01*
X00031409Y00135605D01*
X00031461Y00135345D01*
X00031530Y00135102D01*
X00031704Y00134651D01*
X00031808Y00134460D01*
X00031912Y00134287D01*
X00032016Y00134113D01*
X00032120Y00133975D01*
X00032207Y00133853D01*
X00032294Y00133749D01*
X00032363Y00133662D01*
X00032415Y00133610D01*
X00032450Y00133576D01*
X00032467Y00133558D01*
X00032675Y00133367D01*
X00032901Y00133211D01*
X00033126Y00133073D01*
X00033335Y00132951D01*
X00033560Y00132847D01*
X00033768Y00132760D01*
X00034167Y00132639D01*
X00034341Y00132587D01*
X00034514Y00132552D01*
X00034653Y00132535D01*
X00034774Y00132517D01*
X00034878Y00132500D01*
X00031357D01*
X00039823D01*
Y00138433D01*
X00039805Y00138711D01*
X00039771Y00138988D01*
X00039719Y00139231D01*
X00039649Y00139474D01*
X00039476Y00139925D01*
X00039389Y00140116D01*
X00039285Y00140307D01*
X00039181Y00140463D01*
X00039094Y00140602D01*
X00038990Y00140723D01*
X00038921Y00140827D01*
X00038851Y00140914D01*
X00038799Y00140966D01*
X00038764Y00141001D01*
X00038747Y00141018D01*
X00038539Y00141209D01*
X00038331Y00141365D01*
X00038123Y00141521D01*
X00037897Y00141643D01*
X00037671Y00141747D01*
X00037463Y00141833D01*
X00037047Y00141955D01*
X00036856Y00142007D01*
X00036683Y00142042D01*
X00036544Y00142059D01*
X00036405Y00142076D01*
X00036301Y00142093D01*
X00032987D01*
X00033005Y00142284D01*
X00033040Y00142493D01*
X00033074Y00142701D01*
X00033144Y00142909D01*
X00033196Y00143100D01*
X00033230Y00143238D01*
X00033265Y00143343D01*
X00033282Y00143360D01*
Y00143377D01*
X00033404Y00143672D01*
X00033508Y00143950D01*
X00033629Y00144193D01*
X00033733Y00144401D01*
X00033820Y00144574D01*
X00033890Y00144713D01*
X00033942Y00144782D01*
X00033959Y00144817D01*
X00034202Y00145164D01*
X00034445Y00145476D01*
X00034653Y00145737D01*
X00034861Y00145945D01*
X00035017Y00146118D01*
X00035156Y00146222D01*
X00035225Y00146309D01*
X00035260Y00146327D01*
X00035572Y00146569D01*
X00035711Y00146673D01*
X00035850Y00146778D01*
X00035954Y00146847D01*
X00036041Y00146899D01*
X00036110Y00146934D01*
X00036128Y00146951D01*
X00036527Y00147159D01*
X00036804Y00147281D01*
X00037012Y00147350D01*
X00037116Y00147419D01*
X00037203Y00147472D01*
X00037342Y00147593D01*
X00037411Y00147662D01*
X00037429Y00147697D01*
X00037498Y00147836D01*
X00037515Y00147957D01*
X00037533Y00148061D01*
Y00148079D01*
Y00148096D01*
X00037515Y00148217D01*
X00037498Y00148322D01*
X00037429Y00148495D01*
X00037377Y00148564D01*
X00037342Y00148617D01*
X00037325Y00148651D01*
X00037307Y00148668D01*
X00037220Y00148755D01*
X00037134Y00148825D01*
X00037047Y00148859D01*
X00036960Y00148894D01*
X00036874Y00148911D01*
X00036804Y00148929D01*
D02*
G37*
%LPD*%
G36*
X00053354Y00147298D02*
X00053632Y00147229D01*
X00053892Y00147125D01*
X00054100Y00147020D01*
X00054274Y00146899D01*
X00054395Y00146812D01*
X00054465Y00146743D01*
X00054499Y00146708D01*
X00054690Y00146483D01*
X00054846Y00146240D01*
X00054950Y00145997D01*
X00055020Y00145771D01*
X00055054Y00145563D01*
X00055089Y00145407D01*
Y00145303D01*
Y00145286D01*
Y00145268D01*
Y00144141D01*
X00055072Y00143828D01*
X00055002Y00143551D01*
X00054898Y00143291D01*
X00054794Y00143082D01*
X00054673Y00142909D01*
X00054586Y00142770D01*
X00054517Y00142701D01*
X00054482Y00142666D01*
X00054239Y00142475D01*
X00053996Y00142319D01*
X00053753Y00142215D01*
X00053528Y00142146D01*
X00053337Y00142111D01*
X00053181Y00142093D01*
X00053077Y00142076D01*
X00050457D01*
Y00147315D01*
X00053042D01*
X00053354Y00147298D01*
D02*
G37*
G36*
X00053909Y00140428D02*
X00054187Y00140359D01*
X00054412Y00140272D01*
X00054621Y00140150D01*
X00054794Y00140029D01*
X00054933Y00139942D01*
X00055002Y00139873D01*
X00055037Y00139838D01*
X00055245Y00139595D01*
X00055401Y00139353D01*
X00055523Y00139127D01*
X00055592Y00138902D01*
X00055644Y00138711D01*
X00055662Y00138572D01*
X00055679Y00138468D01*
Y00138450D01*
Y00138433D01*
Y00136160D01*
X00055644Y00135848D01*
X00055575Y00135553D01*
X00055488Y00135310D01*
X00055367Y00135085D01*
X00055245Y00134911D01*
X00055159Y00134790D01*
X00055089Y00134721D01*
X00055054Y00134686D01*
X00054812Y00134495D01*
X00054569Y00134356D01*
X00054343Y00134252D01*
X00054118Y00134183D01*
X00053927Y00134148D01*
X00053771Y00134131D01*
X00053667Y00134113D01*
X00050457D01*
Y00140463D01*
X00053632D01*
X00053909Y00140428D01*
D02*
G37*
G36*
X00057310Y00132500D02*
X00053632D01*
X00053892Y00132517D01*
X00054135Y00132552D01*
X00054378Y00132604D01*
X00054621Y00132674D01*
X00055037Y00132847D01*
X00055419Y00133055D01*
X00055575Y00133142D01*
X00055731Y00133246D01*
X00055852Y00133333D01*
X00055957Y00133419D01*
X00056043Y00133489D01*
X00056113Y00133541D01*
X00056147Y00133576D01*
X00056165Y00133593D01*
X00056373Y00133801D01*
X00056546Y00134009D01*
X00056702Y00134235D01*
X00056824Y00134460D01*
X00056945Y00134669D01*
X00057032Y00134894D01*
X00057171Y00135293D01*
X00057223Y00135466D01*
X00057258Y00135640D01*
X00057275Y00135779D01*
X00057292Y00135918D01*
X00057310Y00136022D01*
Y00132500D01*
D02*
G37*
G36*
X00036457Y00140463D02*
X00036735Y00140393D01*
X00036995Y00140289D01*
X00037203Y00140185D01*
X00037377Y00140064D01*
X00037498Y00139977D01*
X00037567Y00139908D01*
X00037602Y00139873D01*
X00037793Y00139647D01*
X00037949Y00139405D01*
X00038053Y00139162D01*
X00038123Y00138936D01*
X00038157Y00138728D01*
X00038192Y00138572D01*
Y00138468D01*
Y00138450D01*
Y00138433D01*
Y00136160D01*
X00038175Y00135848D01*
X00038105Y00135571D01*
X00038001Y00135310D01*
X00037897Y00135102D01*
X00037776Y00134929D01*
X00037689Y00134807D01*
X00037620Y00134738D01*
X00037585Y00134703D01*
X00037359Y00134512D01*
X00037116Y00134356D01*
X00036874Y00134252D01*
X00036648Y00134183D01*
X00036440Y00134148D01*
X00036284Y00134131D01*
X00036180Y00134113D01*
X00035017D01*
X00034722Y00134131D01*
X00034462Y00134200D01*
X00034219Y00134304D01*
X00034011Y00134408D01*
X00033837Y00134512D01*
X00033699Y00134616D01*
X00033629Y00134686D01*
X00033595Y00134703D01*
X00033386Y00134946D01*
X00033248Y00135189D01*
X00033144Y00135432D01*
X00033057Y00135657D01*
X00033022Y00135865D01*
X00033005Y00136022D01*
X00032987Y00136126D01*
Y00136143D01*
Y00136160D01*
Y00140480D01*
X00036145D01*
X00036457Y00140463D01*
D02*
G37*
G36*
X00039823Y00132500D02*
X00036145D01*
X00036422Y00132517D01*
X00036700Y00132552D01*
X00036960Y00132604D01*
X00037203Y00132674D01*
X00037637Y00132830D01*
X00037845Y00132934D01*
X00038019Y00133038D01*
X00038175Y00133125D01*
X00038331Y00133229D01*
X00038452Y00133315D01*
X00038556Y00133402D01*
X00038643Y00133454D01*
X00038695Y00133506D01*
X00038730Y00133541D01*
X00038747Y00133558D01*
X00038938Y00133766D01*
X00039094Y00133975D01*
X00039250Y00134200D01*
X00039372Y00134426D01*
X00039476Y00134634D01*
X00039562Y00134859D01*
X00039684Y00135258D01*
X00039736Y00135449D01*
X00039771Y00135623D01*
X00039788Y00135779D01*
X00039805Y00135900D01*
X00039823Y00136022D01*
Y00132500D01*
D02*
G37*
%LPC*%
G36*
X00250360Y00033929D02*
X00245555D01*
X00245277Y00033911D01*
X00245000Y00033877D01*
X00244739Y00033825D01*
X00244479Y00033755D01*
X00244046Y00033582D01*
X00243837Y00033478D01*
X00243664Y00033374D01*
X00243490Y00033270D01*
X00243352Y00033165D01*
X00243230Y00033079D01*
X00243126Y00032992D01*
X00243039Y00032922D01*
X00242987Y00032871D01*
X00242952Y00032836D01*
X00242935Y00032819D01*
X00242744Y00032610D01*
X00242588Y00032402D01*
X00242449Y00032177D01*
X00242328Y00031951D01*
X00242241Y00031743D01*
X00242155Y00031535D01*
X00242033Y00031136D01*
X00241981Y00030945D01*
X00241946Y00030789D01*
X00241929Y00030633D01*
X00241912Y00030511D01*
X00241894Y00030407D01*
Y00021161D01*
X00241912Y00020883D01*
X00241946Y00020605D01*
X00241998Y00020345D01*
X00242068Y00020102D01*
X00242241Y00019651D01*
X00242345Y00019460D01*
X00242449Y00019287D01*
X00242554Y00019113D01*
X00242658Y00018975D01*
X00242744Y00018853D01*
X00242831Y00018749D01*
X00242901Y00018662D01*
X00242952Y00018610D01*
X00242987Y00018576D01*
X00243005Y00018558D01*
X00243213Y00018367D01*
X00243438Y00018211D01*
X00243664Y00018073D01*
X00243872Y00017951D01*
X00244097Y00017847D01*
X00244306Y00017760D01*
X00244705Y00017639D01*
X00244878Y00017587D01*
X00245052Y00017552D01*
X00245191Y00017535D01*
X00245312Y00017517D01*
X00245416Y00017500D01*
X00250360D01*
Y00026573D01*
Y00026417D01*
X00250326Y00026538D01*
X00250239Y00026747D01*
X00250100Y00026885D01*
X00249961Y00026972D01*
X00249805Y00027041D01*
X00249666Y00027059D01*
X00249580Y00027076D01*
X00247255D01*
X00247116Y00027059D01*
X00246977Y00027024D01*
X00246873Y00026972D01*
X00246804Y00026920D01*
X00246735Y00026868D01*
X00246682Y00026816D01*
X00246665Y00026781D01*
X00246648Y00026764D01*
X00246578Y00026660D01*
X00246544Y00026556D01*
X00246474Y00026400D01*
X00246457Y00026313D01*
Y00026278D01*
X00246474Y00026157D01*
X00246492Y00026053D01*
X00246561Y00025862D01*
X00246596Y00025792D01*
X00246630Y00025740D01*
X00246665Y00025706D01*
Y00025688D01*
X00246752Y00025619D01*
X00246856Y00025567D01*
X00247047Y00025498D01*
X00247134Y00025480D01*
X00247203Y00025463D01*
X00248729D01*
Y00019113D01*
X00245555D01*
X00245260Y00019131D01*
X00245000Y00019200D01*
X00244757Y00019304D01*
X00244549Y00019408D01*
X00244375Y00019512D01*
X00244236Y00019617D01*
X00244167Y00019686D01*
X00244132Y00019703D01*
X00243924Y00019946D01*
X00243785Y00020189D01*
X00243681Y00020432D01*
X00243594Y00020657D01*
X00243560Y00020865D01*
X00243542Y00021022D01*
X00243525Y00021126D01*
Y00021143D01*
Y00021161D01*
Y00030268D01*
X00243542Y00030580D01*
X00243612Y00030858D01*
X00243716Y00031101D01*
X00243820Y00031309D01*
X00243924Y00031483D01*
X00244028Y00031604D01*
X00244097Y00031674D01*
X00244115Y00031708D01*
X00244340Y00031916D01*
X00244583Y00032055D01*
X00244826Y00032159D01*
X00245052Y00032246D01*
X00245260Y00032281D01*
X00245416Y00032298D01*
X00245520Y00032315D01*
X00249545D01*
X00249684Y00032333D01*
X00249805Y00032350D01*
X00249892Y00032402D01*
X00249979Y00032454D01*
X00250048Y00032489D01*
X00250100Y00032541D01*
X00250117Y00032558D01*
X00250135Y00032576D01*
X00250204Y00032680D01*
X00250273Y00032766D01*
X00250326Y00032957D01*
X00250343Y00033027D01*
X00250360Y00033079D01*
Y00031483D01*
Y00033131D01*
X00250343Y00033235D01*
X00250326Y00033339D01*
X00250239Y00033512D01*
X00250187Y00033564D01*
X00250135Y00033616D01*
X00250117Y00033651D01*
X00250100Y00033668D01*
X00249996Y00033755D01*
X00249909Y00033825D01*
X00249805Y00033859D01*
X00249718Y00033894D01*
X00249649Y00033911D01*
X00249597Y00033929D01*
X00250360D01*
D02*
G37*
G36*
X00261966D02*
X00257161D01*
X00256952Y00033894D01*
X00256779Y00033825D01*
X00256640Y00033703D01*
X00256536Y00033582D01*
X00256467Y00033460D01*
X00256415Y00033339D01*
X00256397Y00033270D01*
X00256380Y00033235D01*
X00252373Y00018471D01*
X00252355Y00018315D01*
X00252373Y00018177D01*
X00252390Y00018055D01*
X00252425Y00017951D01*
X00252477Y00017864D01*
X00252529Y00017795D01*
X00252563Y00017743D01*
X00252581Y00017725D01*
X00252598Y00017708D01*
X00252702Y00017639D01*
X00252806Y00017587D01*
X00252980Y00017535D01*
X00253067Y00017517D01*
X00253119Y00017500D01*
X00252355D01*
X00253171D01*
X00253361Y00017517D01*
X00253535Y00017587D01*
X00253639Y00017639D01*
X00253656Y00017656D01*
X00253674D01*
X00253813Y00017795D01*
X00253899Y00017951D01*
X00253917Y00018020D01*
X00253934Y00018073D01*
X00253951Y00018107D01*
Y00018125D01*
X00255009Y00022063D01*
X00259295D01*
X00260387Y00018020D01*
X00260457Y00017864D01*
X00260561Y00017743D01*
X00260630Y00017673D01*
X00260665Y00017639D01*
X00260821Y00017552D01*
X00260977Y00017517D01*
X00261099Y00017500D01*
X00261133D01*
X00261255Y00017517D01*
X00261359Y00017535D01*
X00261532Y00017604D01*
X00261602Y00017639D01*
X00261654Y00017656D01*
X00261671Y00017691D01*
X00261689D01*
X00261775Y00017795D01*
X00261845Y00017916D01*
X00261897Y00018003D01*
X00261931Y00018090D01*
X00261949Y00018177D01*
X00261966Y00018229D01*
Y00017535D01*
Y00018281D01*
X00261931Y00018471D01*
X00257941Y00033235D01*
X00257855Y00033460D01*
X00257733Y00033634D01*
X00257612Y00033755D01*
X00257473Y00033842D01*
X00257352Y00033894D01*
X00257265Y00033911D01*
X00257195Y00033929D01*
X00261966D01*
D02*
G37*
G36*
X00236360D02*
X00231416D01*
X00232075D01*
X00231954Y00033894D01*
X00231746Y00033807D01*
X00231607Y00033668D01*
X00231520Y00033530D01*
X00231451Y00033391D01*
X00231433Y00033252D01*
X00231416Y00033165D01*
Y00018298D01*
X00231433Y00018159D01*
X00231468Y00018020D01*
X00231503Y00017916D01*
X00231555Y00017830D01*
X00231607Y00017743D01*
X00231659Y00017691D01*
X00231676Y00017673D01*
X00231694Y00017656D01*
X00231815Y00017604D01*
X00231936Y00017569D01*
X00232023Y00017535D01*
X00232093Y00017517D01*
X00232197Y00017500D01*
X00231416D01*
X00232231D01*
X00232353Y00017517D01*
X00232457Y00017535D01*
X00232648Y00017604D01*
X00232717Y00017639D01*
X00232769Y00017673D01*
X00232804Y00017708D01*
X00232821D01*
X00232891Y00017795D01*
X00232960Y00017882D01*
X00233012Y00018090D01*
X00233029Y00018159D01*
X00233047Y00018229D01*
Y00018281D01*
Y00018298D01*
Y00024353D01*
X00236221D01*
X00236499Y00024370D01*
X00236777Y00024405D01*
X00237037Y00024457D01*
X00237280Y00024526D01*
X00237713Y00024682D01*
X00237922Y00024786D01*
X00238095Y00024890D01*
X00238251Y00024977D01*
X00238407Y00025081D01*
X00238529Y00025168D01*
X00238633Y00025255D01*
X00238720Y00025307D01*
X00238772Y00025359D01*
X00238806Y00025393D01*
X00238824Y00025411D01*
X00239014Y00025619D01*
X00239171Y00025827D01*
X00239327Y00026053D01*
X00239448Y00026261D01*
X00239552Y00026486D01*
X00239639Y00026695D01*
X00239760Y00027111D01*
X00239813Y00027284D01*
X00239847Y00027458D01*
X00239865Y00027614D01*
X00239882Y00027735D01*
X00239899Y00027857D01*
Y00030650D01*
X00239830Y00031032D01*
X00239639Y00031691D01*
X00239535Y00031934D01*
X00239396Y00032159D01*
X00239275Y00032350D01*
X00239136Y00032524D01*
X00239014Y00032680D01*
X00238910Y00032784D01*
X00238841Y00032853D01*
X00238824Y00032871D01*
X00238615Y00033061D01*
X00238390Y00033217D01*
X00238182Y00033356D01*
X00237956Y00033478D01*
X00237731Y00033582D01*
X00237523Y00033668D01*
X00237106Y00033790D01*
X00236933Y00033842D01*
X00236759Y00033877D01*
X00236603Y00033894D01*
X00236482Y00033911D01*
X00236360Y00033929D01*
D02*
G37*
G36*
X00229421D02*
X00222100D01*
X00222759D01*
X00222638Y00033894D01*
X00222430Y00033807D01*
X00222291Y00033668D01*
X00222204Y00033530D01*
X00222135Y00033391D01*
X00222117Y00033252D01*
X00222100Y00033165D01*
Y00018298D01*
X00222117Y00018159D01*
X00222152Y00018020D01*
X00222187Y00017916D01*
X00222239Y00017830D01*
X00222291Y00017743D01*
X00222343Y00017691D01*
X00222360Y00017673D01*
X00222378Y00017656D01*
X00222499Y00017604D01*
X00222621Y00017569D01*
X00222707Y00017535D01*
X00222777Y00017517D01*
X00222881Y00017500D01*
X00222100D01*
X00222915D01*
X00223037Y00017517D01*
X00223141Y00017535D01*
X00223332Y00017604D01*
X00223401Y00017639D01*
X00223453Y00017673D01*
X00223488Y00017708D01*
X00223505D01*
X00223575Y00017795D01*
X00223644Y00017882D01*
X00223696Y00018090D01*
X00223713Y00018159D01*
X00223731Y00018229D01*
Y00018281D01*
Y00018298D01*
Y00025463D01*
X00228606D01*
X00228744Y00025480D01*
X00228866Y00025498D01*
X00228953Y00025550D01*
X00229039Y00025602D01*
X00229109Y00025636D01*
X00229161Y00025688D01*
X00229178Y00025706D01*
X00229195Y00025723D01*
X00229265Y00025827D01*
X00229334Y00025914D01*
X00229386Y00026105D01*
X00229404Y00026174D01*
X00229421Y00026226D01*
Y00026278D01*
X00229404Y00026382D01*
X00229386Y00026486D01*
X00229300Y00026660D01*
X00229247Y00026712D01*
X00229195Y00026764D01*
X00229178Y00026799D01*
X00229161Y00026816D01*
X00229074Y00026903D01*
X00228970Y00026972D01*
X00228883Y00027007D01*
X00228796Y00027041D01*
X00228710Y00027059D01*
X00228658Y00027076D01*
X00223731D01*
Y00032315D01*
X00228606D01*
X00228744Y00032333D01*
X00228866Y00032350D01*
X00228953Y00032402D01*
X00229039Y00032454D01*
X00229109Y00032489D01*
X00229161Y00032541D01*
X00229178Y00032558D01*
X00229195Y00032576D01*
X00229265Y00032680D01*
X00229334Y00032766D01*
X00229386Y00032957D01*
X00229404Y00033027D01*
X00229421Y00033079D01*
Y00033165D01*
Y00033131D01*
X00229404Y00033235D01*
X00229386Y00033339D01*
X00229300Y00033512D01*
X00229247Y00033564D01*
X00229195Y00033616D01*
X00229178Y00033651D01*
X00229161Y00033668D01*
X00229074Y00033755D01*
X00228970Y00033825D01*
X00228883Y00033859D01*
X00228796Y00033894D01*
X00228710Y00033911D01*
X00228658Y00033929D01*
X00229421D01*
D02*
G37*
%LPD*%
G36*
X00250360Y00017500D02*
X00249545D01*
X00249684Y00017517D01*
X00249822Y00017535D01*
X00250013Y00017621D01*
X00250169Y00017760D01*
X00250256Y00017899D01*
X00250326Y00018038D01*
X00250343Y00018177D01*
X00250360Y00018263D01*
Y00017500D01*
D02*
G37*
G36*
X00258948Y00023676D02*
X00255391D01*
X00257161Y00030737D01*
X00258948Y00023676D01*
D02*
G37*
G36*
X00236516Y00032298D02*
X00236794Y00032229D01*
X00237037Y00032125D01*
X00237262Y00032020D01*
X00237418Y00031899D01*
X00237557Y00031812D01*
X00237627Y00031743D01*
X00237661Y00031708D01*
X00237869Y00031465D01*
X00238008Y00031222D01*
X00238112Y00030997D01*
X00238199Y00030771D01*
X00238234Y00030580D01*
X00238251Y00030424D01*
X00238269Y00030320D01*
Y00030303D01*
Y00030286D01*
Y00027996D01*
X00238234Y00027683D01*
X00238164Y00027406D01*
X00238078Y00027146D01*
X00237956Y00026937D01*
X00237835Y00026764D01*
X00237748Y00026642D01*
X00237679Y00026573D01*
X00237644Y00026538D01*
X00237401Y00026348D01*
X00237158Y00026209D01*
X00236933Y00026105D01*
X00236707Y00026035D01*
X00236516Y00026001D01*
X00236360Y00025983D01*
X00236256Y00025966D01*
X00233047D01*
Y00032315D01*
X00236221D01*
X00236516Y00032298D01*
D02*
G37*
%LPC*%
G36*
X00922495Y00078530D02*
D01*
Y00077662D01*
X00922478Y00077784D01*
X00922460Y00077905D01*
X00922374Y00078113D01*
X00922339Y00078183D01*
X00922304Y00078235D01*
X00922287Y00078270D01*
X00922270Y00078287D01*
X00922148Y00078374D01*
X00922027Y00078426D01*
X00921853Y00078495D01*
X00921784Y00078512D01*
X00921732Y00078530D01*
X00906066D01*
X00906864D01*
X00906743Y00078512D01*
X00906621Y00078495D01*
X00906448Y00078391D01*
X00906379Y00078339D01*
X00906327Y00078304D01*
X00906309Y00078270D01*
X00906292Y00078252D01*
X00906223Y00078148D01*
X00906153Y00078061D01*
X00906101Y00077888D01*
X00906084Y00077818D01*
X00906066Y00077766D01*
Y00077714D01*
X00906084Y00077593D01*
X00906101Y00077471D01*
X00906205Y00077298D01*
X00906257Y00077229D01*
X00906292Y00077177D01*
X00906327Y00077142D01*
X00906344Y00077125D01*
X00906448Y00077055D01*
X00906535Y00077003D01*
X00906708Y00076934D01*
X00906760Y00076916D01*
X00906812Y00076899D01*
X00906847D01*
X00906864D01*
X00918852D01*
X00906830Y00071608D01*
X00906639Y00071556D01*
X00906500Y00071486D01*
X00906379Y00071417D01*
X00906292Y00071365D01*
X00906240Y00071313D01*
X00906188Y00071278D01*
X00906170Y00071261D01*
Y00071244D01*
X00906101Y00071087D01*
X00906084Y00070966D01*
X00906066Y00070879D01*
Y00070844D01*
X00906084Y00070723D01*
X00906101Y00070619D01*
X00906205Y00070428D01*
X00906257Y00070359D01*
X00906292Y00070324D01*
X00906327Y00070289D01*
X00906344Y00070272D01*
X00906448Y00070203D01*
X00906535Y00070151D01*
X00906708Y00070081D01*
X00906760Y00070064D01*
X00906812Y00070047D01*
X00906066D01*
X00922495D01*
Y00078530D01*
D02*
G37*
G36*
X00921767Y00068173D02*
X00906066D01*
X00906864D01*
X00906743Y00068156D01*
X00906621Y00068138D01*
X00906448Y00068034D01*
X00906379Y00067982D01*
X00906327Y00067947D01*
X00906309Y00067913D01*
X00906292Y00067895D01*
X00906223Y00067791D01*
X00906153Y00067705D01*
X00906101Y00067531D01*
X00906084Y00067462D01*
X00906066Y00067410D01*
Y00067358D01*
X00906084Y00067236D01*
X00906101Y00067115D01*
X00906205Y00066941D01*
X00906257Y00066872D01*
X00906292Y00066820D01*
X00906327Y00066785D01*
X00906344Y00066768D01*
X00906448Y00066698D01*
X00906535Y00066646D01*
X00906708Y00066577D01*
X00906760Y00066560D01*
X00906812Y00066542D01*
X00906066D01*
X00922495D01*
Y00067358D01*
X00922478Y00067479D01*
X00922460Y00067583D01*
X00922391Y00067774D01*
X00922356Y00067843D01*
X00922322Y00067895D01*
X00922287Y00067930D01*
Y00067947D01*
X00922200Y00068017D01*
X00922113Y00068086D01*
X00921905Y00068138D01*
X00921836Y00068156D01*
X00921767Y00068173D01*
D02*
G37*
G36*
X00924768Y00065692D02*
X00922495D01*
X00923154D01*
Y00056099D01*
X00924768D01*
Y00065692D01*
D02*
G37*
G36*
X00906916Y00055231D02*
X00906882D01*
X00906760Y00055214D01*
X00906656Y00055196D01*
X00906465Y00055092D01*
X00906396Y00055040D01*
X00906344Y00055006D01*
X00906327Y00054971D01*
X00906309Y00054954D01*
X00906223Y00054850D01*
X00906170Y00054763D01*
X00906101Y00054572D01*
X00906084Y00054503D01*
X00906066Y00054450D01*
Y00054398D01*
X00906084Y00054242D01*
X00906118Y00054121D01*
X00906188Y00053999D01*
X00906240Y00053913D01*
X00906309Y00053826D01*
X00906379Y00053774D01*
X00906413Y00053739D01*
X00906431Y00053722D01*
X00914029Y00048379D01*
X00906864D01*
X00906743Y00048361D01*
X00906621Y00048344D01*
X00906448Y00048240D01*
X00906379Y00048188D01*
X00906327Y00048153D01*
X00906309Y00048118D01*
X00906292Y00048101D01*
X00906223Y00047997D01*
X00906153Y00047910D01*
X00906101Y00047737D01*
X00906084Y00047667D01*
X00906066Y00047615D01*
Y00047563D01*
X00906084Y00047442D01*
X00906101Y00047320D01*
X00906205Y00047147D01*
X00906257Y00047077D01*
X00906292Y00047025D01*
X00906327Y00046991D01*
X00906344Y00046973D01*
X00906448Y00046904D01*
X00906535Y00046852D01*
X00906708Y00046783D01*
X00906760Y00046765D01*
X00906812Y00046748D01*
X00906066D01*
X00922495D01*
Y00047563D01*
X00922478Y00047685D01*
X00922460Y00047789D01*
X00922391Y00047980D01*
X00922356Y00048049D01*
X00922322Y00048101D01*
X00922287Y00048136D01*
Y00048153D01*
X00922200Y00048222D01*
X00922113Y00048292D01*
X00921905Y00048344D01*
X00921836Y00048361D01*
X00921767Y00048379D01*
X00921714D01*
X00921697D01*
X00916267D01*
X00913873Y00049975D01*
X00922061Y00053687D01*
X00922408Y00053982D01*
X00922495Y00054346D01*
X00922478Y00054485D01*
X00922460Y00054589D01*
X00922391Y00054780D01*
X00922356Y00054850D01*
X00922322Y00054919D01*
X00922287Y00054936D01*
Y00054954D01*
X00922183Y00055040D01*
X00922079Y00055110D01*
X00921975Y00055144D01*
X00921870Y00055179D01*
X00921784Y00055196D01*
X00921714Y00055214D01*
X00921680D01*
X00921662D01*
X00921610Y00055196D01*
X00921593D01*
X00921385Y00055144D01*
X00912641Y00051050D01*
X00907350Y00055075D01*
X00907194Y00055162D01*
X00907038Y00055214D01*
X00906916Y00055231D01*
D02*
G37*
G36*
X00922495Y00044770D02*
Y00043955D01*
X00922478Y00044094D01*
X00922460Y00044215D01*
X00922408Y00044302D01*
X00922356Y00044388D01*
X00922322Y00044458D01*
X00922270Y00044510D01*
X00922252Y00044527D01*
X00922235Y00044545D01*
X00922131Y00044614D01*
X00922044Y00044683D01*
X00921853Y00044735D01*
X00921784Y00044753D01*
X00921732Y00044770D01*
X00906066D01*
X00921680D01*
X00921576Y00044753D01*
X00921471Y00044735D01*
X00921298Y00044649D01*
X00921246Y00044597D01*
X00921194Y00044545D01*
X00921159Y00044527D01*
X00921142Y00044510D01*
X00921055Y00044423D01*
X00920986Y00044319D01*
X00920951Y00044232D01*
X00920916Y00044146D01*
X00920899Y00044059D01*
X00920882Y00044007D01*
Y00040225D01*
X00906864D01*
X00906743Y00040208D01*
X00906621Y00040190D01*
X00906448Y00040086D01*
X00906379Y00040034D01*
X00906327Y00039999D01*
X00906309Y00039965D01*
X00906292Y00039947D01*
X00906223Y00039843D01*
X00906153Y00039757D01*
X00906101Y00039583D01*
X00906084Y00039514D01*
X00906066Y00039462D01*
Y00039410D01*
X00906084Y00039288D01*
X00906101Y00039167D01*
X00906205Y00038993D01*
X00906257Y00038924D01*
X00906292Y00038872D01*
X00906327Y00038837D01*
X00906344Y00038820D01*
X00906448Y00038750D01*
X00906535Y00038698D01*
X00906708Y00038629D01*
X00906760Y00038612D01*
X00906812Y00038594D01*
X00906066D01*
X00922495D01*
X00921697D01*
X00921836Y00038612D01*
X00921957Y00038629D01*
X00922166Y00038716D01*
X00922304Y00038854D01*
X00922391Y00038993D01*
X00922460Y00039132D01*
X00922478Y00039271D01*
X00922495Y00039358D01*
Y00044770D01*
D02*
G37*
G36*
X00921732Y00036599D02*
X00913340D01*
X00921680D01*
X00921576Y00036582D01*
X00921471Y00036565D01*
X00921298Y00036478D01*
X00921246Y00036426D01*
X00921194Y00036374D01*
X00921159Y00036356D01*
X00921142Y00036339D01*
X00921055Y00036252D01*
X00920986Y00036148D01*
X00920951Y00036061D01*
X00920916Y00035975D01*
X00920899Y00035888D01*
X00920882Y00035836D01*
Y00032939D01*
X00920864Y00032644D01*
X00920795Y00032366D01*
X00920691Y00032123D01*
X00920587Y00031915D01*
X00920483Y00031742D01*
X00920379Y00031603D01*
X00920309Y00031534D01*
X00920292Y00031499D01*
X00920049Y00031308D01*
X00919806Y00031152D01*
X00919563Y00031048D01*
X00919338Y00030978D01*
X00919129Y00030944D01*
X00918973Y00030926D01*
X00918869Y00030909D01*
X00918852D01*
X00918835D01*
X00909727D01*
X00909415Y00030926D01*
X00909137Y00030996D01*
X00908877Y00031100D01*
X00908669Y00031204D01*
X00908495Y00031308D01*
X00908374Y00031412D01*
X00908304Y00031481D01*
X00908270Y00031499D01*
X00908079Y00031742D01*
X00907923Y00031985D01*
X00907819Y00032227D01*
X00907749Y00032453D01*
X00907714Y00032644D01*
X00907680Y00032800D01*
Y00035784D01*
X00907662Y00035923D01*
X00907645Y00036044D01*
X00907593Y00036131D01*
X00907541Y00036218D01*
X00907506Y00036287D01*
X00907454Y00036339D01*
X00907437Y00036356D01*
X00907420Y00036374D01*
X00907315Y00036443D01*
X00907229Y00036512D01*
X00907038Y00036565D01*
X00906968Y00036582D01*
X00906916Y00036599D01*
X00906066D01*
Y00029278D01*
Y00032939D01*
X00906084Y00032661D01*
X00906118Y00032384D01*
X00906170Y00032123D01*
X00906240Y00031863D01*
X00906413Y00031429D01*
X00906517Y00031221D01*
X00906621Y00031048D01*
X00906726Y00030874D01*
X00906830Y00030735D01*
X00906916Y00030614D01*
X00907003Y00030510D01*
X00907073Y00030423D01*
X00907125Y00030371D01*
X00907159Y00030336D01*
X00907177Y00030319D01*
X00907385Y00030128D01*
X00907593Y00029972D01*
X00907819Y00029833D01*
X00908044Y00029712D01*
X00908252Y00029625D01*
X00908460Y00029539D01*
X00908859Y00029417D01*
X00909050Y00029365D01*
X00909206Y00029330D01*
X00909362Y00029313D01*
X00909484Y00029296D01*
X00909588Y00029278D01*
X00906066D01*
X00922495D01*
X00918835D01*
X00919112Y00029296D01*
X00919390Y00029330D01*
X00919650Y00029382D01*
X00919893Y00029452D01*
X00920344Y00029625D01*
X00920535Y00029729D01*
X00920708Y00029833D01*
X00920882Y00029938D01*
X00921021Y00030042D01*
X00921142Y00030128D01*
X00921246Y00030215D01*
X00921333Y00030284D01*
X00921385Y00030336D01*
X00921420Y00030371D01*
X00921437Y00030389D01*
X00921628Y00030597D01*
X00921784Y00030822D01*
X00921923Y00031030D01*
X00922044Y00031256D01*
X00922148Y00031464D01*
X00922235Y00031690D01*
X00922356Y00032089D01*
X00922408Y00032262D01*
X00922443Y00032418D01*
X00922460Y00032574D01*
X00922478Y00032696D01*
X00922495Y00032800D01*
Y00036044D01*
Y00035784D01*
X00922478Y00035923D01*
X00922460Y00036044D01*
X00922408Y00036131D01*
X00922356Y00036218D01*
X00922322Y00036287D01*
X00922270Y00036339D01*
X00922252Y00036356D01*
X00922235Y00036374D01*
X00922131Y00036443D01*
X00922044Y00036512D01*
X00921853Y00036565D01*
X00921784Y00036582D01*
X00921732Y00036599D01*
D02*
G37*
G36*
X00922495Y00027266D02*
Y00026451D01*
X00922478Y00026589D01*
X00922460Y00026728D01*
X00922374Y00026919D01*
X00922235Y00027075D01*
X00922096Y00027162D01*
X00921957Y00027231D01*
X00921818Y00027248D01*
X00921732Y00027266D01*
X00910454D01*
X00913578D01*
X00913457Y00027231D01*
X00913249Y00027144D01*
X00913110Y00027006D01*
X00913023Y00026867D01*
X00912954Y00026711D01*
X00912936Y00026572D01*
X00912919Y00026485D01*
Y00024160D01*
X00912936Y00024022D01*
X00912971Y00023883D01*
X00913023Y00023779D01*
X00913075Y00023709D01*
X00913127Y00023640D01*
X00913179Y00023588D01*
X00913214Y00023571D01*
X00913231Y00023553D01*
X00913335Y00023484D01*
X00913439Y00023449D01*
X00913596Y00023380D01*
X00913682Y00023363D01*
X00913717D01*
X00913838Y00023380D01*
X00913942Y00023397D01*
X00914133Y00023467D01*
X00914203Y00023501D01*
X00914255Y00023536D01*
X00914289Y00023571D01*
X00914307D01*
X00914376Y00023657D01*
X00914428Y00023761D01*
X00914498Y00023952D01*
X00914515Y00024039D01*
X00914532Y00024109D01*
Y00025635D01*
X00920882D01*
Y00022460D01*
X00920864Y00022166D01*
X00920795Y00021905D01*
X00920691Y00021662D01*
X00920587Y00021454D01*
X00920483Y00021281D01*
X00920379Y00021142D01*
X00920309Y00021073D01*
X00920292Y00021038D01*
X00920049Y00020830D01*
X00919806Y00020691D01*
X00919563Y00020587D01*
X00919338Y00020500D01*
X00919129Y00020465D01*
X00918973Y00020448D01*
X00918869Y00020431D01*
X00918852D01*
X00918835D01*
X00909727D01*
X00909415Y00020448D01*
X00909137Y00020517D01*
X00908894Y00020622D01*
X00908686Y00020726D01*
X00908512Y00020830D01*
X00908391Y00020934D01*
X00908322Y00021003D01*
X00908287Y00021021D01*
X00908079Y00021246D01*
X00907940Y00021489D01*
X00907836Y00021732D01*
X00907749Y00021957D01*
X00907714Y00022166D01*
X00907697Y00022322D01*
X00907680Y00022426D01*
Y00026451D01*
X00907662Y00026589D01*
X00907645Y00026711D01*
X00907593Y00026797D01*
X00907541Y00026884D01*
X00907506Y00026954D01*
X00907454Y00027006D01*
X00907437Y00027023D01*
X00907420Y00027040D01*
X00907315Y00027110D01*
X00907229Y00027179D01*
X00907038Y00027231D01*
X00906968Y00027248D01*
X00906916Y00027266D01*
X00906066D01*
X00906864D01*
X00906760Y00027248D01*
X00906656Y00027231D01*
X00906483Y00027144D01*
X00906431Y00027092D01*
X00906379Y00027040D01*
X00906344Y00027023D01*
X00906327Y00027006D01*
X00906240Y00026902D01*
X00906170Y00026815D01*
X00906136Y00026711D01*
X00906101Y00026624D01*
X00906084Y00026555D01*
X00906066Y00026502D01*
Y00018800D01*
Y00022460D01*
X00906084Y00022183D01*
X00906118Y00021905D01*
X00906170Y00021645D01*
X00906240Y00021385D01*
X00906413Y00020951D01*
X00906517Y00020743D01*
X00906621Y00020570D01*
X00906726Y00020396D01*
X00906830Y00020257D01*
X00906916Y00020136D01*
X00907003Y00020032D01*
X00907073Y00019945D01*
X00907125Y00019893D01*
X00907159Y00019858D01*
X00907177Y00019841D01*
X00907385Y00019650D01*
X00907593Y00019494D01*
X00907819Y00019355D01*
X00908044Y00019234D01*
X00908252Y00019147D01*
X00908460Y00019060D01*
X00908859Y00018939D01*
X00909050Y00018887D01*
X00909206Y00018852D01*
X00909362Y00018835D01*
X00909484Y00018817D01*
X00909588Y00018800D01*
X00906066D01*
X00922495D01*
Y00027266D01*
D02*
G37*
%LPD*%
G36*
Y00070862D02*
X00922478Y00070983D01*
X00922460Y00071087D01*
X00922391Y00071278D01*
X00922356Y00071348D01*
X00922322Y00071400D01*
X00922287Y00071434D01*
Y00071452D01*
X00922200Y00071521D01*
X00922096Y00071590D01*
X00921905Y00071643D01*
X00921818Y00071660D01*
X00921749Y00071677D01*
X00921714D01*
X00921697D01*
X00909692D01*
X00922061Y00076986D01*
X00922408Y00077281D01*
X00922495Y00077662D01*
Y00070862D01*
D02*
G37*
G36*
Y00070047D02*
X00921697D01*
X00921836Y00070064D01*
X00921975Y00070099D01*
X00922079Y00070133D01*
X00922166Y00070185D01*
X00922252Y00070237D01*
X00922304Y00070289D01*
X00922322Y00070307D01*
X00922339Y00070324D01*
X00922391Y00070445D01*
X00922426Y00070567D01*
X00922460Y00070654D01*
X00922478Y00070723D01*
X00922495Y00070827D01*
Y00070047D01*
D02*
G37*
G36*
Y00066542D02*
X00921697D01*
X00921836Y00066560D01*
X00921975Y00066594D01*
X00922079Y00066629D01*
X00922166Y00066681D01*
X00922252Y00066733D01*
X00922304Y00066785D01*
X00922322Y00066802D01*
X00922339Y00066820D01*
X00922391Y00066941D01*
X00922426Y00067063D01*
X00922460Y00067149D01*
X00922478Y00067219D01*
X00922495Y00067323D01*
Y00066542D01*
D02*
G37*
G36*
Y00046748D02*
X00921697D01*
X00921836Y00046765D01*
X00921975Y00046800D01*
X00922079Y00046835D01*
X00922166Y00046887D01*
X00922252Y00046939D01*
X00922304Y00046991D01*
X00922322Y00047008D01*
X00922339Y00047025D01*
X00922391Y00047147D01*
X00922426Y00047268D01*
X00922460Y00047355D01*
X00922478Y00047425D01*
X00922495Y00047529D01*
Y00046748D01*
D02*
G37*
G36*
X00906760Y00036582D02*
X00906656Y00036565D01*
X00906483Y00036478D01*
X00906431Y00036426D01*
X00906379Y00036374D01*
X00906344Y00036356D01*
X00906327Y00036339D01*
X00906240Y00036252D01*
X00906170Y00036148D01*
X00906136Y00036061D01*
X00906101Y00035975D01*
X00906084Y00035888D01*
X00906066Y00035836D01*
Y00036599D01*
X00906864D01*
X00906760Y00036582D01*
D02*
G37*
G36*
X00922495Y00018800D02*
X00918835D01*
X00919112Y00018817D01*
X00919390Y00018852D01*
X00919650Y00018904D01*
X00919893Y00018973D01*
X00920344Y00019147D01*
X00920535Y00019251D01*
X00920708Y00019355D01*
X00920882Y00019459D01*
X00921021Y00019563D01*
X00921142Y00019650D01*
X00921246Y00019737D01*
X00921333Y00019806D01*
X00921385Y00019858D01*
X00921420Y00019893D01*
X00921437Y00019910D01*
X00921628Y00020118D01*
X00921784Y00020344D01*
X00921923Y00020570D01*
X00922044Y00020778D01*
X00922148Y00021003D01*
X00922235Y00021211D01*
X00922356Y00021610D01*
X00922408Y00021784D01*
X00922443Y00021957D01*
X00922460Y00022096D01*
X00922478Y00022218D01*
X00922495Y00022322D01*
Y00018800D01*
D02*
G37*
D10*
X00010700Y00292100D02*
G03*
X00010700Y00292100I-00003000J00000000D01*
G01*
X00248400Y00435000D02*
G03*
X00248400Y00435000I-00003000J00000000D01*
G01*
X00410100Y00434800D02*
G03*
X00410100Y00434800I-00003000J00000000D01*
G01*
X00573400D02*
G03*
X00573400Y00434800I-00003000J00000000D01*
G01*
X00735900D02*
G03*
X00735900Y00434800I-00003000J00000000D01*
G01*
X00898000Y00435000D02*
G03*
X00898000Y00435000I-00003000J00000000D01*
G01*
X00995300Y00092900D02*
G03*
X00995300Y00092900I-00003000J00000000D01*
G01*
X00757750Y00139900D02*
G03*
X00757750Y00139900I-00003000J00000000D01*
G01*
D11*
X00769000Y00224250D02*
G03*
X00769000Y00224250I-00001250J00000000D01*
G01*
X00869000Y00207500D02*
G03*
X00869000Y00207500I-00001250J00000000D01*
G01*
X00843000Y00075250D02*
G03*
X00843000Y00075250I-00001250J00000000D01*
G01*
X00863000Y00256900D02*
G03*
X00863000Y00256900I-00001250J00000000D01*
G01*
X00180300Y00237250D02*
G03*
X00180300Y00237250I-00001250J00000000D01*
G01*
D12*
X00188500Y00082250D02*
G03*
X00188500Y00082250I-00001000J00000000D01*
G01*
X00358000Y00195050D02*
G03*
X00358000Y00195050I-00001000J00000000D01*
G01*
X00665500D02*
G03*
X00665500Y00195050I-00001000J00000000D01*
G01*
X00523500Y00195800D02*
G03*
X00523500Y00195800I-00001000J00000000D01*
G01*
X00022700Y00298100D02*
X00102700D01*
Y00156100D02*
Y00298100D01*
X00022700Y00156100D02*
X00102700D01*
X00022700D02*
Y00298100D01*
Y00247100D02*
X00029700D01*
Y00207100D02*
Y00247100D01*
X00022700Y00207100D02*
X00029700D01*
X00251400Y00340000D02*
Y00420000D01*
X00109400Y00340000D02*
X00251400D01*
X00109400D02*
Y00420000D01*
X00251400D01*
X00200400Y00413000D02*
Y00420000D01*
X00160400Y00413000D02*
X00200400D01*
X00160400D02*
Y00420000D01*
X00413100Y00339800D02*
Y00419800D01*
X00271100Y00339800D02*
X00413100D01*
X00271100D02*
Y00419800D01*
X00413100D01*
X00362100Y00412800D02*
Y00419800D01*
X00322100Y00412800D02*
X00362100D01*
X00322100D02*
Y00419800D01*
X00576400Y00339800D02*
Y00419800D01*
X00434400Y00339800D02*
X00576400D01*
X00434400D02*
Y00419800D01*
X00576400D01*
X00525400Y00412800D02*
Y00419800D01*
X00485400Y00412800D02*
X00525400D01*
X00485400D02*
Y00419800D01*
X00738900Y00339800D02*
Y00419800D01*
X00596900Y00339800D02*
X00738900D01*
X00596900D02*
Y00419800D01*
X00738900D01*
X00687900Y00412800D02*
Y00419800D01*
X00647900Y00412800D02*
X00687900D01*
X00647900D02*
Y00419800D01*
X00901000Y00340000D02*
Y00420000D01*
X00759000Y00340000D02*
X00901000D01*
X00759000D02*
Y00420000D01*
X00901000D01*
X00850000Y00413000D02*
Y00420000D01*
X00810000Y00413000D02*
X00850000D01*
X00810000D02*
Y00420000D01*
X00897300Y00086900D02*
X00977300D01*
X00897300D02*
Y00228900D01*
X00977300D01*
Y00086900D02*
Y00228900D01*
X00970300Y00137900D02*
X00977300D01*
X00970300D02*
Y00177900D01*
X00977300D01*
X00748000Y00227000D02*
Y00258000D01*
X00758000Y00227000D02*
Y00258000D01*
X00748000D02*
X00758000D01*
X00748000Y00227000D02*
X00758000D01*
X00176000Y00076750D02*
X00179000D01*
X00176000Y00064750D02*
X00179000D01*
X00314500Y00297500D02*
X00345500D01*
X00314500Y00197500D02*
X00345500D01*
X00314500D02*
Y00297500D01*
X00345500Y00197500D02*
Y00297500D01*
X00622000D02*
X00653000D01*
X00622000Y00197500D02*
X00653000D01*
X00622000D02*
Y00297500D01*
X00653000Y00197500D02*
Y00297500D01*
X00480000Y00298250D02*
X00511000D01*
X00480000Y00198250D02*
X00511000D01*
X00480000D02*
Y00298250D01*
X00511000Y00198250D02*
Y00298250D01*
X00834500Y00199000D02*
X00865500D01*
X00834500Y00176000D02*
X00865500D01*
Y00199000D01*
X00834500Y00176000D02*
Y00199000D01*
X00844500Y00095000D02*
X00875500D01*
X00844500Y00085000D02*
X00875500D01*
Y00095000D01*
X00844500Y00085000D02*
Y00095000D01*
X00842000Y00259650D02*
Y00290650D01*
X00852000Y00259650D02*
Y00290650D01*
X00842000D02*
X00852000D01*
X00842000Y00259650D02*
X00852000D01*
X00126500Y00194000D02*
Y00226000D01*
X00176500Y00194000D02*
Y00226000D01*
X00126500Y00194000D02*
X00176500D01*
X00126500Y00226000D02*
X00176500D01*
X00136000Y00098000D02*
X00170000D01*
X00136000Y00117000D02*
X00170000D01*
X00136000Y00123000D02*
X00170000D01*
X00136000Y00142000D02*
X00170000D01*
X00141000Y00288000D02*
X00175000D01*
X00141000Y00307000D02*
X00175000D01*
D13*
X00942500Y00326750D02*
G03*
X00942500Y00326750I-00001500J00000000D01*
G01*
X00130000Y00119000D02*
G03*
X00130000Y00119000I-00001500J00000000D01*
G01*
Y00144000D02*
G03*
X00130000Y00144000I-00001500J00000000D01*
G01*
X00135000Y00309000D02*
G03*
X00135000Y00309000I-00001500J00000000D01*
G01*
D14*
X00341500Y00203550D02*
G03*
X00341500Y00203550I-00002000J00000000D01*
G01*
X00649000D02*
G03*
X00649000Y00203550I-00002000J00000000D01*
G01*
X00507000Y00204300D02*
G03*
X00507000Y00204300I-00002000J00000000D01*
G01*
D15*
X00966500Y00299500D02*
X00978500D01*
X00966500Y00320500D02*
X00978500D01*
Y00299500D02*
Y00320500D01*
X00966500Y00299500D02*
Y00320500D01*
X00806300Y00041000D02*
Y00129900D01*
X00222100D02*
X00806300D01*
X00222100Y00041000D02*
Y00129900D01*
Y00041000D02*
X00806300D01*
X00491700Y00117950D02*
Y00129900D01*
Y00117950D02*
X00536700D01*
Y00129900D01*
X00152750Y00078000D02*
Y00092000D01*
X00126250Y00078000D02*
Y00092000D01*
X00152750D01*
X00126250Y00078000D02*
X00152750D01*
X00123250Y00253000D02*
Y00267000D01*
X00149750Y00253000D02*
Y00267000D01*
X00123250Y00253000D02*
X00149750D01*
X00123250Y00267000D02*
X00149750D01*
X00123250Y00268000D02*
Y00282000D01*
X00149750Y00268000D02*
Y00282000D01*
X00123250Y00268000D02*
X00149750D01*
X00123250Y00282000D02*
X00149750D01*
X00318250Y00148000D02*
Y00162000D01*
X00291750Y00148000D02*
Y00162000D01*
X00318250D01*
X00291750Y00148000D02*
X00318250D01*
X00716851Y00219000D02*
X00716851Y00205000D01*
X00743351Y00219000D02*
X00743351Y00205000D01*
X00716851D02*
X00743351D01*
X00716851Y00219000D02*
X00743351Y00219000D01*
X00318250Y00163000D02*
Y00177000D01*
X00291750Y00163000D02*
Y00177000D01*
X00318250D01*
X00291750Y00163000D02*
X00318250D01*
Y00178000D02*
Y00192000D01*
X00291750Y00178000D02*
Y00192000D01*
X00318250D01*
X00291750Y00178000D02*
X00318250D01*
X00780750Y00190500D02*
Y00204500D01*
X00754250Y00190500D02*
Y00204500D01*
X00780750D01*
X00754250Y00190500D02*
X00780750D01*
X00484470Y00163000D02*
Y00177000D01*
X00457971Y00163000D02*
Y00177000D01*
X00484470D01*
X00457971Y00163000D02*
X00484470D01*
X00626250Y00148000D02*
Y00162000D01*
X00599750Y00148000D02*
Y00162000D01*
X00626250D01*
X00599750Y00148000D02*
X00626250D01*
Y00163000D02*
Y00177000D01*
X00599750Y00163000D02*
Y00177000D01*
X00626250D01*
X00599750Y00163000D02*
X00626250D01*
X00484470Y00178000D02*
Y00192000D01*
X00457971Y00178000D02*
Y00192000D01*
X00484470D01*
X00457971Y00178000D02*
X00484470D01*
X00875750Y00143000D02*
Y00157000D01*
X00849250Y00143000D02*
Y00157000D01*
X00875750D01*
X00849250Y00143000D02*
X00875750D01*
X00626250Y00178000D02*
Y00192000D01*
X00599750Y00178000D02*
Y00192000D01*
X00626250D01*
X00599750Y00178000D02*
X00626250D01*
X00426432Y00197005D02*
Y00211005D01*
X00452932Y00197005D02*
Y00211005D01*
X00426432Y00197005D02*
X00452932D01*
X00426432Y00211005D02*
X00452932D01*
X00823000Y00091750D02*
X00837000D01*
X00823000Y00118250D02*
X00837000D01*
Y00091750D02*
Y00118250D01*
X00823000Y00091750D02*
Y00118250D01*
X00829900Y00215500D02*
Y00229500D01*
X00856400Y00215500D02*
Y00229500D01*
X00829900Y00215500D02*
X00856400D01*
X00829900Y00229500D02*
X00856400D01*
X00791750Y00259538D02*
Y00273538D01*
X00818250Y00259538D02*
Y00273538D01*
X00791750Y00259538D02*
X00818250D01*
X00791750Y00273538D02*
X00818250D01*
X00878500Y00045500D02*
Y00059500D01*
X00852000Y00045500D02*
Y00059500D01*
X00878500D01*
X00852000Y00045500D02*
X00878500D01*
X00935750Y00283900D02*
X00949750D01*
X00935750Y00257400D02*
X00949750D01*
X00935750D02*
Y00283900D01*
X00949750Y00257400D02*
Y00283900D01*
X00950500Y00325750D02*
X00964500D01*
X00950500Y00299250D02*
X00964500D01*
X00950500D02*
Y00325750D01*
X00964500Y00299250D02*
Y00325750D01*
X00126250Y00060500D02*
X00152750D01*
X00126250Y00074500D02*
X00152750D01*
X00126250Y00060500D02*
Y00074500D01*
X00152750Y00060500D02*
Y00074500D01*
X00154450Y00153000D02*
X00180950D01*
X00154450Y00167000D02*
X00180950D01*
X00154450Y00153000D02*
Y00167000D01*
X00180950Y00153000D02*
Y00167000D01*
X00127250Y00153000D02*
X00153750D01*
X00127250Y00167000D02*
X00153750D01*
X00127250Y00153000D02*
Y00167000D01*
X00153750Y00153000D02*
Y00167000D01*
X00151750Y00253000D02*
X00178250D01*
X00151750Y00267000D02*
X00178250D01*
X00151750Y00253000D02*
Y00267000D01*
X00178250Y00253000D02*
Y00267000D01*
X00029250Y00315500D02*
X00055750D01*
X00029250Y00329500D02*
X00055750D01*
X00029250Y00315500D02*
Y00329500D01*
X00055750Y00315500D02*
Y00329500D01*
X00754250Y00160500D02*
X00780750D01*
X00754250Y00174500D02*
X00780750D01*
X00754250Y00160500D02*
Y00174500D01*
X00780750Y00160500D02*
Y00174500D01*
X00754250Y00175500D02*
X00780750D01*
X00754250Y00189500D02*
X00780750D01*
X00754250Y00175500D02*
Y00189500D01*
X00780750Y00175500D02*
Y00189500D01*
X00754250Y00159500D02*
X00780750D01*
X00754250Y00145500D02*
X00780750D01*
Y00159500D01*
X00754250Y00145500D02*
Y00159500D01*
X00798750Y00204500D02*
X00825250D01*
X00798750Y00190500D02*
X00825250D01*
Y00204500D01*
X00798750Y00190500D02*
Y00204500D01*
Y00189500D02*
X00825250D01*
X00798750Y00175500D02*
X00825250D01*
Y00189500D01*
X00798750Y00175500D02*
Y00189500D01*
X00846900Y00312100D02*
X00873400D01*
X00846900Y00298100D02*
X00873400D01*
Y00312100D01*
X00846900Y00298100D02*
Y00312100D01*
X00849250Y00134500D02*
X00875750D01*
X00849250Y00120500D02*
X00875750D01*
Y00134500D01*
X00849250Y00120500D02*
Y00134500D01*
X00846900Y00327500D02*
X00873400D01*
X00846900Y00313500D02*
X00873400D01*
Y00327500D01*
X00846900Y00313500D02*
Y00327500D01*
X00852000Y00030500D02*
X00878500D01*
X00852000Y00044500D02*
X00878500D01*
X00852000Y00030500D02*
Y00044500D01*
X00878500Y00030500D02*
Y00044500D01*
X00891750Y00312750D02*
X00918250D01*
X00891750Y00298750D02*
X00918250D01*
Y00312750D01*
X00891750Y00298750D02*
Y00312750D01*
X00890750Y00257400D02*
Y00283900D01*
X00904750Y00257400D02*
Y00283900D01*
X00890750D02*
X00904750D01*
X00890750Y00257400D02*
X00904750D01*
X00905750D02*
Y00283900D01*
X00919750Y00257400D02*
Y00283900D01*
X00905750D02*
X00919750D01*
X00905750Y00257400D02*
X00919750D01*
X00934750D02*
Y00283900D01*
X00920750Y00257400D02*
Y00283900D01*
Y00257400D02*
X00934750D01*
X00920750Y00283900D02*
X00934750D01*
X00852000Y00015800D02*
X00878500D01*
X00852000Y00029800D02*
X00878500D01*
X00852000Y00015800D02*
Y00029800D01*
X00878500Y00015800D02*
Y00029800D01*
X00832500Y00016750D02*
Y00043250D01*
X00846500Y00016750D02*
Y00043250D01*
X00832500D02*
X00846500D01*
X00832500Y00016750D02*
X00846500D01*
X00964750Y00257400D02*
Y00283900D01*
X00950750Y00257400D02*
Y00283900D01*
Y00257400D02*
X00964750D01*
X00950750Y00283900D02*
X00964750D01*
X00979750Y00257400D02*
Y00283900D01*
X00965750Y00257400D02*
Y00283900D01*
Y00257400D02*
X00979750D01*
X00965750Y00283900D02*
X00979750D01*
X00120000Y00149872D02*
X00125128Y00155000D01*
X00120000Y00137500D02*
Y00149872D01*
X00117500Y00135000D02*
X00120000Y00137500D01*
X00090000Y00135000D02*
X00117500D01*
X00110000Y00434798D02*
X00116665Y00424800D01*
Y00434798D02*
X00110000Y00424800D01*
X00125568Y00434798D02*
X00120807Y00424800D01*
X00118903Y00434798D02*
X00125568D01*
X00271100D02*
X00277765Y00424800D01*
Y00434798D02*
X00271100Y00424800D01*
X00285716Y00433370D02*
X00285240Y00434322D01*
X00283811Y00434798D01*
X00282859D01*
X00281431Y00434322D01*
X00280479Y00432893D01*
X00280003Y00430513D01*
Y00428133D01*
X00280479Y00426228D01*
X00281431Y00425276D01*
X00282859Y00424800D01*
X00283335D01*
X00284764Y00425276D01*
X00285716Y00426228D01*
X00286192Y00427657D01*
Y00428133D01*
X00285716Y00429561D01*
X00284764Y00430513D01*
X00283335Y00430989D01*
X00282859D01*
X00281431Y00430513D01*
X00280479Y00429561D01*
X00280003Y00428133D01*
X00433710Y00434798D02*
X00440375Y00424800D01*
Y00434798D02*
X00433710Y00424800D01*
X00448326Y00434798D02*
X00443565D01*
X00443089Y00430513D01*
X00443565Y00430989D01*
X00444993Y00431465D01*
X00446422D01*
X00447850Y00430989D01*
X00448802Y00430037D01*
X00449278Y00428609D01*
Y00427657D01*
X00448802Y00426228D01*
X00447850Y00425276D01*
X00446422Y00424800D01*
X00444993D01*
X00443565Y00425276D01*
X00443089Y00425752D01*
X00442613Y00426704D01*
X00596230Y00434798D02*
X00602895Y00424800D01*
Y00434798D02*
X00596230Y00424800D01*
X00609894Y00434798D02*
X00605133Y00428133D01*
X00612274D01*
X00609894Y00434798D02*
Y00424800D01*
X00758350Y00434798D02*
X00765015Y00424800D01*
Y00434798D02*
X00758350Y00424800D01*
X00768205Y00434798D02*
X00773442D01*
X00770585Y00430989D01*
X00772014D01*
X00772966Y00430513D01*
X00773442Y00430037D01*
X00773918Y00428609D01*
Y00427657D01*
X00773442Y00426228D01*
X00772490Y00425276D01*
X00771062Y00424800D01*
X00769633D01*
X00768205Y00425276D01*
X00767729Y00425752D01*
X00767253Y00426704D01*
X00222500Y00147498D02*
X00229165Y00137500D01*
Y00147498D02*
X00222500Y00137500D01*
X00231879Y00145117D02*
Y00145594D01*
X00232355Y00146546D01*
X00232831Y00147022D01*
X00233783Y00147498D01*
X00235688D01*
X00236640Y00147022D01*
X00237116Y00146546D01*
X00237592Y00145594D01*
Y00144641D01*
X00237116Y00143689D01*
X00236164Y00142261D01*
X00231403Y00137500D01*
X00238068D01*
X00881752Y00217000D02*
X00891750Y00223665D01*
X00881752D02*
X00891750Y00217000D01*
X00883657Y00225903D02*
X00883180Y00226855D01*
X00881752Y00228283D01*
X00891750D01*
X00293784Y00316724D02*
Y00306726D01*
Y00316724D02*
X00297117D01*
X00298545Y00316248D01*
X00299497Y00315296D01*
X00299973Y00314343D01*
X00300449Y00312915D01*
Y00310535D01*
X00299973Y00309106D01*
X00299497Y00308154D01*
X00298545Y00307202D01*
X00297117Y00306726D01*
X00293784D01*
X00302687Y00316724D02*
Y00306726D01*
Y00316724D02*
X00306019D01*
X00307448Y00316248D01*
X00308400Y00315296D01*
X00308876Y00314343D01*
X00309352Y00312915D01*
Y00310535D01*
X00308876Y00309106D01*
X00308400Y00308154D01*
X00307448Y00307202D01*
X00306019Y00306726D01*
X00302687D01*
X00318255Y00316724D02*
X00313494Y00306726D01*
X00311590Y00316724D02*
X00318255D01*
X00601124D02*
Y00306726D01*
Y00316724D02*
X00604457D01*
X00605885Y00316248D01*
X00606837Y00315296D01*
X00607313Y00314343D01*
X00607789Y00312915D01*
Y00310535D01*
X00607313Y00309106D01*
X00606837Y00308154D01*
X00605885Y00307202D01*
X00604457Y00306726D01*
X00601124D01*
X00610027Y00316724D02*
Y00306726D01*
Y00316724D02*
X00613359D01*
X00614788Y00316248D01*
X00615740Y00315296D01*
X00616216Y00314343D01*
X00616692Y00312915D01*
Y00310535D01*
X00616216Y00309106D01*
X00615740Y00308154D01*
X00614788Y00307202D01*
X00613359Y00306726D01*
X00610027D01*
X00624643Y00316724D02*
X00619882D01*
X00619406Y00312439D01*
X00619882Y00312915D01*
X00621310Y00313391D01*
X00622738D01*
X00624167Y00312915D01*
X00625119Y00311963D01*
X00625595Y00310535D01*
Y00309583D01*
X00625119Y00308154D01*
X00624167Y00307202D01*
X00622738Y00306726D01*
X00621310D01*
X00619882Y00307202D01*
X00619406Y00307678D01*
X00618930Y00308630D01*
X00970002Y00331665D02*
X00980000Y00325000D01*
X00970002D02*
Y00331665D01*
X00980000Y00325000D02*
Y00331665D01*
X00970002Y00333903D02*
X00980000D01*
Y00339616D01*
X00971907Y00340711D02*
X00971430Y00341663D01*
X00970002Y00343091D01*
X00980000D01*
X00007502Y00156100D02*
X00017500Y00162765D01*
X00007502D02*
X00017500Y00156100D01*
X00007502Y00167383D02*
X00007978Y00165955D01*
X00008930Y00165479D01*
X00009883D01*
X00010835Y00165955D01*
X00011311Y00166907D01*
X00011787Y00168811D01*
X00012263Y00170240D01*
X00013215Y00171192D01*
X00014167Y00171668D01*
X00015596D01*
X00016548Y00171192D01*
X00017024Y00170716D01*
X00017500Y00169288D01*
Y00167383D01*
X00017024Y00165955D01*
X00016548Y00165479D01*
X00015596Y00165003D01*
X00014167D01*
X00013215Y00165479D01*
X00012263Y00166431D01*
X00011787Y00167859D01*
X00011311Y00169764D01*
X00010835Y00170716D01*
X00009883Y00171192D01*
X00008930D01*
X00007978Y00170716D01*
X00007502Y00169288D01*
Y00167383D01*
X00185000Y00164998D02*
Y00155000D01*
Y00164998D02*
X00189285D01*
X00190713Y00164522D01*
X00191189Y00164046D01*
X00191665Y00163093D01*
Y00162141D01*
X00191189Y00161189D01*
X00190713Y00160713D01*
X00189285Y00160237D01*
X00185000D01*
X00188333D02*
X00191665Y00155000D01*
X00194379Y00162617D02*
Y00163093D01*
X00194855Y00164046D01*
X00195331Y00164522D01*
X00196283Y00164998D01*
X00198188D01*
X00199140Y00164522D01*
X00199616Y00164046D01*
X00200092Y00163093D01*
Y00162141D01*
X00199616Y00161189D01*
X00198664Y00159761D01*
X00193903Y00155000D01*
X00200568D01*
X00202806Y00163093D02*
X00203758Y00163570D01*
X00205186Y00164998D01*
Y00155000D01*
X00097000Y00072998D02*
Y00063000D01*
Y00072998D02*
X00101285D01*
X00102713Y00072522D01*
X00103189Y00072046D01*
X00103665Y00071094D01*
Y00070141D01*
X00103189Y00069189D01*
X00102713Y00068713D01*
X00101285Y00068237D01*
X00097000D01*
X00100333D02*
X00103665Y00063000D01*
X00106379Y00070617D02*
Y00071094D01*
X00106855Y00072046D01*
X00107331Y00072522D01*
X00108283Y00072998D01*
X00110188D01*
X00111140Y00072522D01*
X00111616Y00072046D01*
X00112092Y00071094D01*
Y00070141D01*
X00111616Y00069189D01*
X00110664Y00067761D01*
X00105903Y00063000D01*
X00112568D01*
X00115282Y00070617D02*
Y00071094D01*
X00115758Y00072046D01*
X00116234Y00072522D01*
X00117186Y00072998D01*
X00119090D01*
X00120043Y00072522D01*
X00120519Y00072046D01*
X00120995Y00071094D01*
Y00070141D01*
X00120519Y00069189D01*
X00119567Y00067761D01*
X00114806Y00063000D01*
X00121471D01*
X00182500Y00264998D02*
Y00255000D01*
Y00264998D02*
X00186785D01*
X00188213Y00264522D01*
X00188689Y00264046D01*
X00189165Y00263093D01*
Y00262141D01*
X00188689Y00261189D01*
X00188213Y00260713D01*
X00186785Y00260237D01*
X00182500D01*
X00185833D02*
X00189165Y00255000D01*
X00191403Y00263093D02*
X00192355Y00263570D01*
X00193783Y00264998D01*
Y00255000D01*
X00204924Y00261665D02*
X00204448Y00260237D01*
X00203496Y00259285D01*
X00202067Y00258809D01*
X00201591D01*
X00200163Y00259285D01*
X00199211Y00260237D01*
X00198735Y00261665D01*
Y00262141D01*
X00199211Y00263570D01*
X00200163Y00264522D01*
X00201591Y00264998D01*
X00202067D01*
X00203496Y00264522D01*
X00204448Y00263570D01*
X00204924Y00261665D01*
Y00259285D01*
X00204448Y00256904D01*
X00203496Y00255476D01*
X00202067Y00255000D01*
X00201115D01*
X00199687Y00255476D01*
X00199211Y00256428D01*
X00090000Y00148998D02*
Y00139000D01*
Y00148998D02*
X00094285D01*
X00095713Y00148522D01*
X00096189Y00148046D01*
X00096665Y00147093D01*
Y00146141D01*
X00096189Y00145189D01*
X00095713Y00144713D01*
X00094285Y00144237D01*
X00090000D01*
X00093333D02*
X00096665Y00139000D01*
X00099379Y00146617D02*
Y00147093D01*
X00099855Y00148046D01*
X00100331Y00148522D01*
X00101283Y00148998D01*
X00103188D01*
X00104140Y00148522D01*
X00104616Y00148046D01*
X00105092Y00147093D01*
Y00146141D01*
X00104616Y00145189D01*
X00103664Y00143761D01*
X00098903Y00139000D01*
X00105568D01*
X00110662Y00148998D02*
X00109234Y00148522D01*
X00108282Y00147093D01*
X00107806Y00144713D01*
Y00143285D01*
X00108282Y00140904D01*
X00109234Y00139476D01*
X00110662Y00139000D01*
X00111614D01*
X00113043Y00139476D01*
X00113995Y00140904D01*
X00114471Y00143285D01*
Y00144713D01*
X00113995Y00147093D01*
X00113043Y00148522D01*
X00111614Y00148998D01*
X00110662D01*
X00062500Y00327498D02*
Y00317500D01*
Y00327498D02*
X00066785D01*
X00068213Y00327022D01*
X00068689Y00326546D01*
X00069165Y00325593D01*
Y00324641D01*
X00068689Y00323689D01*
X00068213Y00323213D01*
X00066785Y00322737D01*
X00062500D01*
X00065833D02*
X00069165Y00317500D01*
X00071403Y00325593D02*
X00072355Y00326070D01*
X00073783Y00327498D01*
Y00317500D01*
X00081115Y00327498D02*
X00079687Y00327022D01*
X00079211Y00326070D01*
Y00325117D01*
X00079687Y00324165D01*
X00080639Y00323689D01*
X00082543Y00323213D01*
X00083972Y00322737D01*
X00084924Y00321785D01*
X00085400Y00320833D01*
Y00319404D01*
X00084924Y00318452D01*
X00084448Y00317976D01*
X00083019Y00317500D01*
X00081115D01*
X00079687Y00317976D01*
X00079211Y00318452D01*
X00078735Y00319404D01*
Y00320833D01*
X00079211Y00321785D01*
X00080163Y00322737D01*
X00081591Y00323213D01*
X00083496Y00323689D01*
X00084448Y00324165D01*
X00084924Y00325117D01*
Y00326070D01*
X00084448Y00327022D01*
X00083019Y00327498D01*
X00081115D01*
X00725000Y00171998D02*
Y00162000D01*
Y00171998D02*
X00729285D01*
X00730713Y00171522D01*
X00731189Y00171046D01*
X00731665Y00170093D01*
Y00169141D01*
X00731189Y00168189D01*
X00730713Y00167713D01*
X00729285Y00167237D01*
X00725000D01*
X00728333D02*
X00731665Y00162000D01*
X00733903Y00170093D02*
X00734855Y00170570D01*
X00736283Y00171998D01*
Y00162000D01*
X00747900Y00171998D02*
X00743139Y00162000D01*
X00741235Y00171998D02*
X00747900D01*
X00725000Y00185998D02*
Y00176000D01*
Y00185998D02*
X00729285D01*
X00730713Y00185522D01*
X00731189Y00185046D01*
X00731665Y00184093D01*
Y00183141D01*
X00731189Y00182189D01*
X00730713Y00181713D01*
X00729285Y00181237D01*
X00725000D01*
X00728333D02*
X00731665Y00176000D01*
X00733903Y00184093D02*
X00734855Y00184570D01*
X00736283Y00185998D01*
Y00176000D01*
X00746948Y00184570D02*
X00746472Y00185522D01*
X00745043Y00185998D01*
X00744091D01*
X00742663Y00185522D01*
X00741711Y00184093D01*
X00741235Y00181713D01*
Y00179333D01*
X00741711Y00177428D01*
X00742663Y00176476D01*
X00744091Y00176000D01*
X00744567D01*
X00745995Y00176476D01*
X00746948Y00177428D01*
X00747424Y00178857D01*
Y00179333D01*
X00746948Y00180761D01*
X00745995Y00181713D01*
X00744567Y00182189D01*
X00744091D01*
X00742663Y00181713D01*
X00741711Y00180761D01*
X00741235Y00179333D01*
X00725000Y00155998D02*
Y00146000D01*
Y00155998D02*
X00729285D01*
X00730713Y00155522D01*
X00731189Y00155046D01*
X00731665Y00154094D01*
Y00153141D01*
X00731189Y00152189D01*
X00730713Y00151713D01*
X00729285Y00151237D01*
X00725000D01*
X00728333D02*
X00731665Y00146000D01*
X00733903Y00154094D02*
X00734855Y00154570D01*
X00736283Y00155998D01*
Y00146000D01*
X00746948Y00155998D02*
X00742187D01*
X00741711Y00151713D01*
X00742187Y00152189D01*
X00743615Y00152665D01*
X00745043D01*
X00746472Y00152189D01*
X00747424Y00151237D01*
X00747900Y00149809D01*
Y00148856D01*
X00747424Y00147428D01*
X00746472Y00146476D01*
X00745043Y00146000D01*
X00743615D01*
X00742187Y00146476D01*
X00741711Y00146952D01*
X00741235Y00147904D01*
X00882800Y00041998D02*
Y00032000D01*
Y00041998D02*
X00887085D01*
X00888513Y00041522D01*
X00888989Y00041046D01*
X00889465Y00040093D01*
Y00039141D01*
X00888989Y00038189D01*
X00888513Y00037713D01*
X00887085Y00037237D01*
X00882800D01*
X00886133D02*
X00889465Y00032000D01*
X00897892Y00038665D02*
X00897416Y00037237D01*
X00896464Y00036285D01*
X00895035Y00035809D01*
X00894559D01*
X00893131Y00036285D01*
X00892179Y00037237D01*
X00891703Y00038665D01*
Y00039141D01*
X00892179Y00040570D01*
X00893131Y00041522D01*
X00894559Y00041998D01*
X00895035D01*
X00896464Y00041522D01*
X00897416Y00040570D01*
X00897892Y00038665D01*
Y00036285D01*
X00897416Y00033904D01*
X00896464Y00032476D01*
X00895035Y00032000D01*
X00894083D01*
X00892655Y00032476D01*
X00892179Y00033428D01*
X00882800Y00026998D02*
Y00017000D01*
Y00026998D02*
X00887085D01*
X00888513Y00026522D01*
X00888989Y00026046D01*
X00889465Y00025094D01*
Y00024141D01*
X00888989Y00023189D01*
X00888513Y00022713D01*
X00887085Y00022237D01*
X00882800D01*
X00886133D02*
X00889465Y00017000D01*
X00896464Y00026998D02*
X00891703Y00020333D01*
X00898844D01*
X00896464Y00026998D02*
Y00017000D01*
X00817502Y00025500D02*
X00827500D01*
X00817502D02*
Y00029785D01*
X00817978Y00031213D01*
X00818454Y00031689D01*
X00819407Y00032165D01*
X00820359D01*
X00821311Y00031689D01*
X00821787Y00031213D01*
X00822263Y00029785D01*
Y00025500D01*
Y00028833D02*
X00827500Y00032165D01*
X00817502Y00035355D02*
Y00040592D01*
X00821311Y00037736D01*
Y00039164D01*
X00821787Y00040116D01*
X00822263Y00040592D01*
X00823691Y00041068D01*
X00824643D01*
X00826072Y00040592D01*
X00827024Y00039640D01*
X00827500Y00038212D01*
Y00036783D01*
X00827024Y00035355D01*
X00826548Y00034879D01*
X00825596Y00034403D01*
X00826000Y00132998D02*
Y00123000D01*
Y00132998D02*
X00830285D01*
X00831713Y00132522D01*
X00832189Y00132046D01*
X00832665Y00131094D01*
Y00130141D01*
X00832189Y00129189D01*
X00831713Y00128713D01*
X00830285Y00128237D01*
X00826000D01*
X00829333D02*
X00832665Y00123000D01*
X00834903Y00131094D02*
X00835855Y00131570D01*
X00837283Y00132998D01*
Y00123000D01*
X00842235Y00131094D02*
X00843187Y00131570D01*
X00844615Y00132998D01*
Y00123000D01*
X00800000Y00217498D02*
Y00207500D01*
Y00217498D02*
X00804285D01*
X00805713Y00217022D01*
X00806189Y00216546D01*
X00806665Y00215593D01*
Y00214641D01*
X00806189Y00213689D01*
X00805713Y00213213D01*
X00804285Y00212737D01*
X00800000D01*
X00803333D02*
X00806665Y00207500D01*
X00808903Y00215593D02*
X00809855Y00216070D01*
X00811283Y00217498D01*
Y00207500D01*
X00820995Y00217498D02*
X00816235Y00210833D01*
X00823376D01*
X00820995Y00217498D02*
Y00207500D01*
X00800000Y00172498D02*
Y00162500D01*
Y00172498D02*
X00804285D01*
X00805713Y00172022D01*
X00806189Y00171546D01*
X00806665Y00170593D01*
Y00169641D01*
X00806189Y00168689D01*
X00805713Y00168213D01*
X00804285Y00167737D01*
X00800000D01*
X00803333D02*
X00806665Y00162500D01*
X00808903Y00170593D02*
X00809855Y00171070D01*
X00811283Y00172498D01*
Y00162500D01*
X00817187Y00172498D02*
X00822424D01*
X00819567Y00168689D01*
X00820995D01*
X00821948Y00168213D01*
X00822424Y00167737D01*
X00822900Y00166309D01*
Y00165357D01*
X00822424Y00163928D01*
X00821472Y00162976D01*
X00820043Y00162500D01*
X00818615D01*
X00817187Y00162976D01*
X00816711Y00163452D01*
X00816235Y00164404D01*
X00820000Y00309998D02*
Y00300000D01*
Y00309998D02*
X00824285D01*
X00825713Y00309522D01*
X00826189Y00309046D01*
X00826665Y00308093D01*
Y00307141D01*
X00826189Y00306189D01*
X00825713Y00305713D01*
X00824285Y00305237D01*
X00820000D01*
X00823333D02*
X00826665Y00300000D01*
X00828903Y00308093D02*
X00829855Y00308570D01*
X00831283Y00309998D01*
Y00300000D01*
X00836711Y00307617D02*
Y00308093D01*
X00837187Y00309046D01*
X00837663Y00309522D01*
X00838615Y00309998D01*
X00840519D01*
X00841472Y00309522D01*
X00841948Y00309046D01*
X00842424Y00308093D01*
Y00307141D01*
X00841948Y00306189D01*
X00840995Y00304761D01*
X00836235Y00300000D01*
X00842900D01*
X00892000Y00325998D02*
Y00316000D01*
Y00325998D02*
X00896285D01*
X00897713Y00325522D01*
X00898189Y00325046D01*
X00898665Y00324094D01*
Y00323141D01*
X00898189Y00322189D01*
X00897713Y00321713D01*
X00896285Y00321237D01*
X00892000D01*
X00895333D02*
X00898665Y00316000D01*
X00903283Y00325998D02*
X00901855Y00325522D01*
X00901379Y00324570D01*
Y00323617D01*
X00901855Y00322665D01*
X00902807Y00322189D01*
X00904712Y00321713D01*
X00906140Y00321237D01*
X00907092Y00320285D01*
X00907568Y00319333D01*
Y00317904D01*
X00907092Y00316952D01*
X00906616Y00316476D01*
X00905188Y00316000D01*
X00903283D01*
X00901855Y00316476D01*
X00901379Y00316952D01*
X00900903Y00317904D01*
Y00319333D01*
X00901379Y00320285D01*
X00902331Y00321237D01*
X00903759Y00321713D01*
X00905664Y00322189D01*
X00906616Y00322665D01*
X00907092Y00323617D01*
Y00324570D01*
X00906616Y00325522D01*
X00905188Y00325998D01*
X00903283D01*
X00820000Y00324998D02*
Y00315000D01*
Y00324998D02*
X00824285D01*
X00825713Y00324522D01*
X00826189Y00324046D01*
X00826665Y00323093D01*
Y00322141D01*
X00826189Y00321189D01*
X00825713Y00320713D01*
X00824285Y00320237D01*
X00820000D01*
X00823333D02*
X00826665Y00315000D01*
X00828903Y00323093D02*
X00829855Y00323570D01*
X00831283Y00324998D01*
Y00315000D01*
X00839091Y00324998D02*
X00837663Y00324522D01*
X00836711Y00323093D01*
X00836235Y00320713D01*
Y00319285D01*
X00836711Y00316904D01*
X00837663Y00315476D01*
X00839091Y00315000D01*
X00840043D01*
X00841472Y00315476D01*
X00842424Y00316904D01*
X00842900Y00319285D01*
Y00320713D01*
X00842424Y00323093D01*
X00841472Y00324522D01*
X00840043Y00324998D01*
X00839091D01*
X00952502Y00238547D02*
X00962500D01*
X00952502D02*
Y00242832D01*
X00952978Y00244260D01*
X00953454Y00244736D01*
X00954407Y00245213D01*
X00955359D01*
X00956311Y00244736D01*
X00956787Y00244260D01*
X00957263Y00242832D01*
Y00238547D01*
Y00241880D02*
X00962500Y00245213D01*
X00954883Y00247926D02*
X00954407D01*
X00953454Y00248402D01*
X00952978Y00248878D01*
X00952502Y00249831D01*
Y00251735D01*
X00952978Y00252687D01*
X00953454Y00253163D01*
X00954407Y00253639D01*
X00955359D01*
X00956311Y00253163D01*
X00957739Y00252211D01*
X00962500Y00247450D01*
Y00254116D01*
X00967502Y00242832D02*
X00977500D01*
X00967502D02*
Y00247117D01*
X00967978Y00248545D01*
X00968454Y00249021D01*
X00969407Y00249497D01*
X00970359D01*
X00971311Y00249021D01*
X00971787Y00248545D01*
X00972263Y00247117D01*
Y00242832D01*
Y00246165D02*
X00977500Y00249497D01*
X00969407Y00251735D02*
X00968930Y00252687D01*
X00967502Y00254116D01*
X00977500D01*
X00907502Y00239023D02*
X00917500D01*
X00907502D02*
Y00243308D01*
X00907978Y00244736D01*
X00908454Y00245213D01*
X00909407Y00245689D01*
X00910359D01*
X00911311Y00245213D01*
X00911787Y00244736D01*
X00912263Y00243308D01*
Y00239023D01*
Y00242356D02*
X00917500Y00245689D01*
X00908930Y00253639D02*
X00907978Y00253163D01*
X00907502Y00251735D01*
Y00250783D01*
X00907978Y00249355D01*
X00909407Y00248402D01*
X00911787Y00247926D01*
X00914167D01*
X00916072Y00248402D01*
X00917024Y00249355D01*
X00917500Y00250783D01*
Y00251259D01*
X00917024Y00252687D01*
X00916072Y00253639D01*
X00914643Y00254116D01*
X00914167D01*
X00912739Y00253639D01*
X00911787Y00252687D01*
X00911311Y00251259D01*
Y00250783D01*
X00911787Y00249355D01*
X00912739Y00248402D01*
X00914167Y00247926D01*
X00892502Y00238547D02*
X00902500D01*
X00892502D02*
Y00242832D01*
X00892978Y00244260D01*
X00893454Y00244736D01*
X00894407Y00245213D01*
X00895359D01*
X00896311Y00244736D01*
X00896787Y00244260D01*
X00897263Y00242832D01*
Y00238547D01*
Y00241880D02*
X00902500Y00245213D01*
X00892502Y00254116D02*
X00902500Y00249355D01*
X00892502Y00247450D02*
Y00254116D01*
X00922502Y00238547D02*
X00932500D01*
X00922502D02*
Y00242832D01*
X00922978Y00244260D01*
X00923454Y00244736D01*
X00924407Y00245213D01*
X00925359D01*
X00926311Y00244736D01*
X00926787Y00244260D01*
X00927263Y00242832D01*
Y00238547D01*
Y00241880D02*
X00932500Y00245213D01*
X00922502Y00253163D02*
Y00248402D01*
X00926787Y00247926D01*
X00926311Y00248402D01*
X00925835Y00249831D01*
Y00251259D01*
X00926311Y00252687D01*
X00927263Y00253639D01*
X00928691Y00254116D01*
X00929643D01*
X00931072Y00253639D01*
X00932024Y00252687D01*
X00932500Y00251259D01*
Y00249831D01*
X00932024Y00248402D01*
X00931548Y00247926D01*
X00930596Y00247450D01*
X00175000Y00057498D02*
Y00047500D01*
X00181665Y00057498D02*
Y00047500D01*
X00175000Y00052737D02*
X00181665D01*
X00184427Y00057498D02*
Y00047500D01*
X00190140D01*
X00191235Y00055594D02*
X00192187Y00056070D01*
X00193615Y00057498D01*
Y00047500D01*
X00929427Y00335117D02*
X00928951Y00336070D01*
X00927999Y00337022D01*
X00927047Y00337498D01*
X00925143D01*
X00924190Y00337022D01*
X00923238Y00336070D01*
X00922762Y00335117D01*
X00922286Y00333689D01*
Y00331309D01*
X00922762Y00329880D01*
X00923238Y00328928D01*
X00924190Y00327976D01*
X00925143Y00327500D01*
X00927047D01*
X00927999Y00327976D01*
X00928951Y00328928D01*
X00929427Y00329880D01*
Y00331309D01*
X00927047D02*
X00929427D01*
X00931713Y00335593D02*
X00932665Y00336070D01*
X00934093Y00337498D01*
Y00327500D01*
X00740000Y00276148D02*
Y00266150D01*
Y00276148D02*
X00743333D01*
X00744761Y00275672D01*
X00745713Y00274720D01*
X00746189Y00273768D01*
X00746665Y00272339D01*
Y00269959D01*
X00746189Y00268531D01*
X00745713Y00267578D01*
X00744761Y00266626D01*
X00743333Y00266150D01*
X00740000D01*
X00748903Y00276148D02*
Y00266150D01*
Y00276148D02*
X00752235D01*
X00753664Y00275672D01*
X00754616Y00274720D01*
X00755092Y00273768D01*
X00755568Y00272339D01*
Y00269959D01*
X00755092Y00268531D01*
X00754616Y00267578D01*
X00753664Y00266626D01*
X00752235Y00266150D01*
X00748903D01*
X00763519Y00274720D02*
X00763043Y00275672D01*
X00761614Y00276148D01*
X00760662D01*
X00759234Y00275672D01*
X00758282Y00274244D01*
X00757806Y00271863D01*
Y00269483D01*
X00758282Y00267578D01*
X00759234Y00266626D01*
X00760662Y00266150D01*
X00761138D01*
X00762567Y00266626D01*
X00763519Y00267578D01*
X00763995Y00269007D01*
Y00269483D01*
X00763519Y00270911D01*
X00762567Y00271863D01*
X00761138Y00272339D01*
X00760662D01*
X00759234Y00271863D01*
X00758282Y00270911D01*
X00757806Y00269483D01*
X00824502Y00063000D02*
X00834500D01*
X00824502D02*
Y00066333D01*
X00824978Y00067761D01*
X00825930Y00068713D01*
X00826883Y00069189D01*
X00828311Y00069665D01*
X00830691D01*
X00832120Y00069189D01*
X00833072Y00068713D01*
X00834024Y00067761D01*
X00834500Y00066333D01*
Y00063000D01*
X00824502Y00071903D02*
X00834500D01*
X00824502D02*
Y00075236D01*
X00824978Y00076664D01*
X00825930Y00077616D01*
X00826883Y00078092D01*
X00828311Y00078568D01*
X00830691D01*
X00832120Y00078092D01*
X00833072Y00077616D01*
X00834024Y00076664D01*
X00834500Y00075236D01*
Y00071903D01*
X00826883Y00081282D02*
X00826406D01*
X00825454Y00081758D01*
X00824978Y00082234D01*
X00824502Y00083186D01*
Y00085091D01*
X00824978Y00086043D01*
X00825454Y00086519D01*
X00826406Y00086995D01*
X00827359D01*
X00828311Y00086519D01*
X00829739Y00085567D01*
X00834500Y00080806D01*
Y00087471D01*
X00872502Y00175000D02*
X00882500D01*
X00872502D02*
Y00178333D01*
X00872978Y00179761D01*
X00873930Y00180713D01*
X00874883Y00181189D01*
X00876311Y00181665D01*
X00878691D01*
X00880120Y00181189D01*
X00881072Y00180713D01*
X00882024Y00179761D01*
X00882500Y00178333D01*
Y00175000D01*
X00872502Y00183903D02*
X00882500D01*
X00872502D02*
Y00187236D01*
X00872978Y00188664D01*
X00873930Y00189616D01*
X00874883Y00190092D01*
X00876311Y00190568D01*
X00878691D01*
X00880120Y00190092D01*
X00881072Y00189616D01*
X00882024Y00188664D01*
X00882500Y00187236D01*
Y00183903D01*
X00872502Y00193758D02*
Y00198995D01*
X00876311Y00196138D01*
Y00197567D01*
X00876787Y00198519D01*
X00877263Y00198995D01*
X00878691Y00199471D01*
X00879643D01*
X00881072Y00198995D01*
X00882024Y00198043D01*
X00882500Y00196614D01*
Y00195186D01*
X00882024Y00193758D01*
X00881548Y00193282D01*
X00880596Y00192806D01*
X00850150Y00251148D02*
Y00241150D01*
Y00251148D02*
X00853483D01*
X00854911Y00250672D01*
X00855863Y00249720D01*
X00856339Y00248767D01*
X00856815Y00247339D01*
Y00244959D01*
X00856339Y00243530D01*
X00855863Y00242578D01*
X00854911Y00241626D01*
X00853483Y00241150D01*
X00850150D01*
X00859053Y00251148D02*
Y00241150D01*
Y00251148D02*
X00862385D01*
X00863814Y00250672D01*
X00864766Y00249720D01*
X00865242Y00248767D01*
X00865718Y00247339D01*
Y00244959D01*
X00865242Y00243530D01*
X00864766Y00242578D01*
X00863814Y00241626D01*
X00862385Y00241150D01*
X00859053D01*
X00867956Y00249243D02*
X00868908Y00249720D01*
X00870336Y00251148D01*
Y00241150D01*
X00459138Y00317486D02*
Y00307488D01*
Y00317486D02*
X00462471D01*
X00463899Y00317010D01*
X00464851Y00316058D01*
X00465327Y00315105D01*
X00465803Y00313677D01*
Y00311297D01*
X00465327Y00309868D01*
X00464851Y00308916D01*
X00463899Y00307964D01*
X00462471Y00307488D01*
X00459138D01*
X00468041Y00317486D02*
Y00307488D01*
Y00317486D02*
X00471373D01*
X00472802Y00317010D01*
X00473754Y00316058D01*
X00474230Y00315105D01*
X00474706Y00313677D01*
Y00311297D01*
X00474230Y00309868D01*
X00473754Y00308916D01*
X00472802Y00307964D01*
X00471373Y00307488D01*
X00468041D01*
X00481705Y00317486D02*
X00476944Y00310821D01*
X00484085D01*
X00481705Y00317486D02*
Y00307488D01*
X00185002Y00201700D02*
X00195000D01*
X00185002D02*
Y00205033D01*
X00185478Y00206461D01*
X00186430Y00207413D01*
X00187383Y00207889D01*
X00188811Y00208365D01*
X00191191D01*
X00192620Y00207889D01*
X00193572Y00207413D01*
X00194524Y00206461D01*
X00195000Y00205033D01*
Y00201700D01*
Y00218220D02*
X00185002Y00214412D01*
X00195000Y00210603D01*
X00191667Y00212031D02*
Y00216792D01*
X00186907Y00220553D02*
X00186430Y00221505D01*
X00185002Y00222934D01*
X00195000D01*
X00189641Y00115117D02*
X00189165Y00116070D01*
X00188213Y00117022D01*
X00187261Y00117498D01*
X00185357D01*
X00184404Y00117022D01*
X00183452Y00116070D01*
X00182976Y00115117D01*
X00182500Y00113689D01*
Y00111309D01*
X00182976Y00109880D01*
X00183452Y00108928D01*
X00184404Y00107976D01*
X00185357Y00107500D01*
X00187261D01*
X00188213Y00107976D01*
X00189165Y00108928D01*
X00189641Y00109880D01*
X00192926Y00115117D02*
Y00115594D01*
X00193402Y00116546D01*
X00193878Y00117022D01*
X00194831Y00117498D01*
X00196735D01*
X00197687Y00117022D01*
X00198163Y00116546D01*
X00198639Y00115594D01*
Y00114641D01*
X00198163Y00113689D01*
X00197211Y00112261D01*
X00192450Y00107500D01*
X00199116D01*
X00202305Y00117498D02*
X00207542D01*
X00204686Y00113689D01*
X00206114D01*
X00207066Y00113213D01*
X00207542Y00112737D01*
X00208018Y00111309D01*
Y00110357D01*
X00207542Y00108928D01*
X00206590Y00107976D01*
X00205162Y00107500D01*
X00203734D01*
X00202305Y00107976D01*
X00201829Y00108452D01*
X00201353Y00109404D01*
X00189641Y00135117D02*
X00189165Y00136070D01*
X00188213Y00137022D01*
X00187261Y00137498D01*
X00185357D01*
X00184404Y00137022D01*
X00183452Y00136070D01*
X00182976Y00135117D01*
X00182500Y00133689D01*
Y00131309D01*
X00182976Y00129880D01*
X00183452Y00128928D01*
X00184404Y00127976D01*
X00185357Y00127500D01*
X00187261D01*
X00188213Y00127976D01*
X00189165Y00128928D01*
X00189641Y00129880D01*
X00192926Y00135117D02*
Y00135594D01*
X00193402Y00136546D01*
X00193878Y00137022D01*
X00194831Y00137498D01*
X00196735D01*
X00197687Y00137022D01*
X00198163Y00136546D01*
X00198639Y00135594D01*
Y00134641D01*
X00198163Y00133689D01*
X00197211Y00132261D01*
X00192450Y00127500D01*
X00199116D01*
X00201829Y00135117D02*
Y00135594D01*
X00202305Y00136546D01*
X00202781Y00137022D01*
X00203734Y00137498D01*
X00205638D01*
X00206590Y00137022D01*
X00207066Y00136546D01*
X00207542Y00135594D01*
Y00134641D01*
X00207066Y00133689D01*
X00206114Y00132261D01*
X00201353Y00127500D01*
X00208018D01*
X00158641Y00319617D02*
X00158165Y00320570D01*
X00157213Y00321522D01*
X00156261Y00321998D01*
X00154356D01*
X00153404Y00321522D01*
X00152452Y00320570D01*
X00151976Y00319617D01*
X00151500Y00318189D01*
Y00315809D01*
X00151976Y00314380D01*
X00152452Y00313428D01*
X00153404Y00312476D01*
X00154356Y00312000D01*
X00156261D01*
X00157213Y00312476D01*
X00158165Y00313428D01*
X00158641Y00314380D01*
X00161450Y00320093D02*
X00162402Y00320570D01*
X00163831Y00321998D01*
Y00312000D01*
X00174971Y00318665D02*
X00174495Y00317237D01*
X00173543Y00316285D01*
X00172115Y00315809D01*
X00171639D01*
X00170210Y00316285D01*
X00169258Y00317237D01*
X00168782Y00318665D01*
Y00319141D01*
X00169258Y00320570D01*
X00170210Y00321522D01*
X00171639Y00321998D01*
X00172115D01*
X00173543Y00321522D01*
X00174495Y00320570D01*
X00174971Y00318665D01*
Y00316285D01*
X00174495Y00313904D01*
X00173543Y00312476D01*
X00172115Y00312000D01*
X00171162D01*
X00169734Y00312476D01*
X00169258Y00313428D01*
X00104141Y00087617D02*
X00103665Y00088570D01*
X00102713Y00089522D01*
X00101761Y00089998D01*
X00099857D01*
X00098904Y00089522D01*
X00097952Y00088570D01*
X00097476Y00087617D01*
X00097000Y00086189D01*
Y00083809D01*
X00097476Y00082380D01*
X00097952Y00081428D01*
X00098904Y00080476D01*
X00099857Y00080000D01*
X00101761D01*
X00102713Y00080476D01*
X00103665Y00081428D01*
X00104141Y00082380D01*
X00107426Y00087617D02*
Y00088094D01*
X00107902Y00089046D01*
X00108378Y00089522D01*
X00109331Y00089998D01*
X00111235D01*
X00112187Y00089522D01*
X00112663Y00089046D01*
X00113139Y00088094D01*
Y00087141D01*
X00112663Y00086189D01*
X00111711Y00084761D01*
X00106950Y00080000D01*
X00113616D01*
X00120614Y00089998D02*
X00115853Y00083333D01*
X00122994D01*
X00120614Y00089998D02*
Y00080000D01*
X00112383Y00252141D02*
X00111430Y00251665D01*
X00110478Y00250713D01*
X00110002Y00249761D01*
Y00247857D01*
X00110478Y00246904D01*
X00111430Y00245952D01*
X00112383Y00245476D01*
X00113811Y00245000D01*
X00116191D01*
X00117620Y00245476D01*
X00118572Y00245952D01*
X00119524Y00246904D01*
X00120000Y00247857D01*
Y00249761D01*
X00119524Y00250713D01*
X00118572Y00251665D01*
X00117620Y00252141D01*
X00112383Y00255426D02*
X00111906D01*
X00110954Y00255902D01*
X00110478Y00256378D01*
X00110002Y00257331D01*
Y00259235D01*
X00110478Y00260187D01*
X00110954Y00260663D01*
X00111906Y00261139D01*
X00112859D01*
X00113811Y00260663D01*
X00115239Y00259711D01*
X00120000Y00254950D01*
Y00261616D01*
X00111906Y00263853D02*
X00111430Y00264805D01*
X00110002Y00266234D01*
X00120000D01*
X00112383Y00277141D02*
X00111430Y00276665D01*
X00110478Y00275713D01*
X00110002Y00274761D01*
Y00272857D01*
X00110478Y00271904D01*
X00111430Y00270952D01*
X00112383Y00270476D01*
X00113811Y00270000D01*
X00116191D01*
X00117620Y00270476D01*
X00118572Y00270952D01*
X00119524Y00271904D01*
X00120000Y00272857D01*
Y00274761D01*
X00119524Y00275713D01*
X00118572Y00276665D01*
X00117620Y00277141D01*
X00112383Y00280426D02*
X00111906D01*
X00110954Y00280902D01*
X00110478Y00281378D01*
X00110002Y00282331D01*
Y00284235D01*
X00110478Y00285187D01*
X00110954Y00285663D01*
X00111906Y00286139D01*
X00112859D01*
X00113811Y00285663D01*
X00115239Y00284711D01*
X00120000Y00279950D01*
Y00286616D01*
X00110002Y00291710D02*
X00110478Y00290281D01*
X00111906Y00289329D01*
X00114287Y00288853D01*
X00115715D01*
X00118096Y00289329D01*
X00119524Y00290281D01*
X00120000Y00291710D01*
Y00292662D01*
X00119524Y00294090D01*
X00118096Y00295042D01*
X00115715Y00295518D01*
X00114287D01*
X00111906Y00295042D01*
X00110478Y00294090D01*
X00110002Y00292662D01*
Y00291710D01*
X00328733Y00157651D02*
X00328257Y00158604D01*
X00327305Y00159556D01*
X00326353Y00160032D01*
X00324449D01*
X00323496Y00159556D01*
X00322544Y00158604D01*
X00322068Y00157651D01*
X00321592Y00156223D01*
Y00153843D01*
X00322068Y00152414D01*
X00322544Y00151462D01*
X00323496Y00150510D01*
X00324449Y00150034D01*
X00326353D01*
X00327305Y00150510D01*
X00328257Y00151462D01*
X00328733Y00152414D01*
X00331542Y00158127D02*
X00332494Y00158604D01*
X00333923Y00160032D01*
Y00150034D01*
X00341254Y00160032D02*
X00339826Y00159556D01*
X00339350Y00158604D01*
Y00157651D01*
X00339826Y00156699D01*
X00340778Y00156223D01*
X00342683Y00155747D01*
X00344111Y00155271D01*
X00345063Y00154319D01*
X00345539Y00153367D01*
Y00151938D01*
X00345063Y00150986D01*
X00344587Y00150510D01*
X00343159Y00150034D01*
X00341254D01*
X00339826Y00150510D01*
X00339350Y00150986D01*
X00338874Y00151938D01*
Y00153367D01*
X00339350Y00154319D01*
X00340302Y00155271D01*
X00341730Y00155747D01*
X00343635Y00156223D01*
X00344587Y00156699D01*
X00345063Y00157651D01*
Y00158604D01*
X00344587Y00159556D01*
X00343159Y00160032D01*
X00341254D01*
X00328733Y00172637D02*
X00328257Y00173590D01*
X00327305Y00174542D01*
X00326353Y00175018D01*
X00324449D01*
X00323496Y00174542D01*
X00322544Y00173590D01*
X00322068Y00172637D01*
X00321592Y00171209D01*
Y00168829D01*
X00322068Y00167400D01*
X00322544Y00166448D01*
X00323496Y00165496D01*
X00324449Y00165020D01*
X00326353D01*
X00327305Y00165496D01*
X00328257Y00166448D01*
X00328733Y00167400D01*
X00331542Y00173113D02*
X00332494Y00173590D01*
X00333923Y00175018D01*
Y00165020D01*
X00344587Y00173590D02*
X00344111Y00174542D01*
X00342683Y00175018D01*
X00341730D01*
X00340302Y00174542D01*
X00339350Y00173113D01*
X00338874Y00170733D01*
Y00168353D01*
X00339350Y00166448D01*
X00340302Y00165496D01*
X00341730Y00165020D01*
X00342207D01*
X00343635Y00165496D01*
X00344587Y00166448D01*
X00345063Y00167876D01*
Y00168353D01*
X00344587Y00169781D01*
X00343635Y00170733D01*
X00342207Y00171209D01*
X00341730D01*
X00340302Y00170733D01*
X00339350Y00169781D01*
X00338874Y00168353D01*
X00328733Y00187623D02*
X00328257Y00188576D01*
X00327305Y00189528D01*
X00326353Y00190004D01*
X00324449D01*
X00323496Y00189528D01*
X00322544Y00188576D01*
X00322068Y00187623D01*
X00321592Y00186195D01*
Y00183815D01*
X00322068Y00182386D01*
X00322544Y00181434D01*
X00323496Y00180482D01*
X00324449Y00180006D01*
X00326353D01*
X00327305Y00180482D01*
X00328257Y00181434D01*
X00328733Y00182386D01*
X00331542Y00188099D02*
X00332494Y00188576D01*
X00333923Y00190004D01*
Y00180006D01*
X00344587Y00190004D02*
X00339826D01*
X00339350Y00185719D01*
X00339826Y00186195D01*
X00341254Y00186671D01*
X00342683D01*
X00344111Y00186195D01*
X00345063Y00185243D01*
X00345539Y00183815D01*
Y00182862D01*
X00345063Y00181434D01*
X00344111Y00180482D01*
X00342683Y00180006D01*
X00341254D01*
X00339826Y00180482D01*
X00339350Y00180958D01*
X00338874Y00181910D01*
X00732141Y00198117D02*
X00731665Y00199070D01*
X00730713Y00200022D01*
X00729761Y00200498D01*
X00727857D01*
X00726904Y00200022D01*
X00725952Y00199070D01*
X00725476Y00198117D01*
X00725000Y00196689D01*
Y00194309D01*
X00725476Y00192880D01*
X00725952Y00191928D01*
X00726904Y00190976D01*
X00727857Y00190500D01*
X00729761D01*
X00730713Y00190976D01*
X00731665Y00191928D01*
X00732141Y00192880D01*
X00734950Y00198594D02*
X00735902Y00199070D01*
X00737331Y00200498D01*
Y00190500D01*
X00747043Y00200498D02*
X00742282Y00193833D01*
X00749423D01*
X00747043Y00200498D02*
Y00190500D01*
X00695985Y00215117D02*
X00695509Y00216070D01*
X00694557Y00217022D01*
X00693605Y00217498D01*
X00691700D01*
X00690748Y00217022D01*
X00689796Y00216070D01*
X00689320Y00215117D01*
X00688844Y00213689D01*
Y00211309D01*
X00689320Y00209880D01*
X00689796Y00208928D01*
X00690748Y00207976D01*
X00691700Y00207500D01*
X00693605D01*
X00694557Y00207976D01*
X00695509Y00208928D01*
X00695985Y00209880D01*
X00698794Y00215593D02*
X00699746Y00216070D01*
X00701174Y00217498D01*
Y00207500D01*
X00712791Y00217498D02*
X00708030Y00207500D01*
X00706126Y00217498D02*
X00712791D01*
X00637141Y00157617D02*
X00636665Y00158570D01*
X00635713Y00159522D01*
X00634761Y00159998D01*
X00632856D01*
X00631904Y00159522D01*
X00630952Y00158570D01*
X00630476Y00157617D01*
X00630000Y00156189D01*
Y00153809D01*
X00630476Y00152380D01*
X00630952Y00151428D01*
X00631904Y00150476D01*
X00632856Y00150000D01*
X00634761D01*
X00635713Y00150476D01*
X00636665Y00151428D01*
X00637141Y00152380D01*
X00639950Y00158094D02*
X00640902Y00158570D01*
X00642331Y00159998D01*
Y00150000D01*
X00647758Y00157617D02*
Y00158094D01*
X00648234Y00159046D01*
X00648710Y00159522D01*
X00649662Y00159998D01*
X00651567D01*
X00652519Y00159522D01*
X00652995Y00159046D01*
X00653471Y00158094D01*
Y00157141D01*
X00652995Y00156189D01*
X00652043Y00154761D01*
X00647282Y00150000D01*
X00653947D01*
X00637141Y00172617D02*
X00636665Y00173570D01*
X00635713Y00174522D01*
X00634761Y00174998D01*
X00632856D01*
X00631904Y00174522D01*
X00630952Y00173570D01*
X00630476Y00172617D01*
X00630000Y00171189D01*
Y00168809D01*
X00630476Y00167380D01*
X00630952Y00166428D01*
X00631904Y00165476D01*
X00632856Y00165000D01*
X00634761D01*
X00635713Y00165476D01*
X00636665Y00166428D01*
X00637141Y00167380D01*
X00639950Y00173093D02*
X00640902Y00173570D01*
X00642331Y00174998D01*
Y00165000D01*
X00647282Y00173093D02*
X00648234Y00173570D01*
X00649662Y00174998D01*
Y00165000D01*
X00637141Y00187617D02*
X00636665Y00188570D01*
X00635713Y00189522D01*
X00634761Y00189998D01*
X00632856D01*
X00631904Y00189522D01*
X00630952Y00188570D01*
X00630476Y00187617D01*
X00630000Y00186189D01*
Y00183809D01*
X00630476Y00182380D01*
X00630952Y00181428D01*
X00631904Y00180476D01*
X00632856Y00180000D01*
X00634761D01*
X00635713Y00180476D01*
X00636665Y00181428D01*
X00637141Y00182380D01*
X00642331Y00189998D02*
X00640902Y00189522D01*
X00640426Y00188570D01*
Y00187617D01*
X00640902Y00186665D01*
X00641855Y00186189D01*
X00643759Y00185713D01*
X00645187Y00185237D01*
X00646139Y00184285D01*
X00646616Y00183333D01*
Y00181904D01*
X00646139Y00180952D01*
X00645663Y00180476D01*
X00644235Y00180000D01*
X00642331D01*
X00640902Y00180476D01*
X00640426Y00180952D01*
X00639950Y00181904D01*
Y00183333D01*
X00640426Y00184285D01*
X00641378Y00185237D01*
X00642807Y00185713D01*
X00644711Y00186189D01*
X00645663Y00186665D01*
X00646139Y00187617D01*
Y00188570D01*
X00645663Y00189522D01*
X00644235Y00189998D01*
X00642331D01*
X00889941Y00054617D02*
X00889465Y00055570D01*
X00888513Y00056522D01*
X00887561Y00056998D01*
X00885657D01*
X00884704Y00056522D01*
X00883752Y00055570D01*
X00883276Y00054617D01*
X00882800Y00053189D01*
Y00050809D01*
X00883276Y00049380D01*
X00883752Y00048428D01*
X00884704Y00047476D01*
X00885657Y00047000D01*
X00887561D01*
X00888513Y00047476D01*
X00889465Y00048428D01*
X00889941Y00049380D01*
X00893702Y00056998D02*
X00898939D01*
X00896083Y00053189D01*
X00897511D01*
X00898463Y00052713D01*
X00898939Y00052237D01*
X00899416Y00050809D01*
Y00049857D01*
X00898939Y00048428D01*
X00897987Y00047476D01*
X00896559Y00047000D01*
X00895131D01*
X00893702Y00047476D01*
X00893226Y00047952D01*
X00892750Y00048904D01*
X00812383Y00100041D02*
X00811430Y00099565D01*
X00810478Y00098613D01*
X00810002Y00097661D01*
Y00095757D01*
X00810478Y00094804D01*
X00811430Y00093852D01*
X00812383Y00093376D01*
X00813811Y00092900D01*
X00816191D01*
X00817620Y00093376D01*
X00818572Y00093852D01*
X00819524Y00094804D01*
X00820000Y00095757D01*
Y00097661D01*
X00819524Y00098613D01*
X00818572Y00099565D01*
X00817620Y00100041D01*
X00811430Y00108563D02*
X00810478Y00108087D01*
X00810002Y00106659D01*
Y00105707D01*
X00810478Y00104278D01*
X00811907Y00103326D01*
X00814287Y00102850D01*
X00816667D01*
X00818572Y00103326D01*
X00819524Y00104278D01*
X00820000Y00105707D01*
Y00106183D01*
X00819524Y00107611D01*
X00818572Y00108563D01*
X00817143Y00109039D01*
X00816667D01*
X00815239Y00108563D01*
X00814287Y00107611D01*
X00813811Y00106183D01*
Y00105707D01*
X00814287Y00104278D01*
X00815239Y00103326D01*
X00816667Y00102850D01*
X00836141Y00153617D02*
X00835665Y00154570D01*
X00834713Y00155522D01*
X00833761Y00155998D01*
X00831857D01*
X00830904Y00155522D01*
X00829952Y00154570D01*
X00829476Y00153617D01*
X00829000Y00152189D01*
Y00149809D01*
X00829476Y00148380D01*
X00829952Y00147428D01*
X00830904Y00146476D01*
X00831857Y00146000D01*
X00833761D01*
X00834713Y00146476D01*
X00835665Y00147428D01*
X00836141Y00148380D01*
X00845139Y00152665D02*
X00844663Y00151237D01*
X00843711Y00150285D01*
X00842283Y00149809D01*
X00841807D01*
X00840378Y00150285D01*
X00839426Y00151237D01*
X00838950Y00152665D01*
Y00153141D01*
X00839426Y00154570D01*
X00840378Y00155522D01*
X00841807Y00155998D01*
X00842283D01*
X00843711Y00155522D01*
X00844663Y00154570D01*
X00845139Y00152665D01*
Y00150285D01*
X00844663Y00147904D01*
X00843711Y00146476D01*
X00842283Y00146000D01*
X00841331D01*
X00839902Y00146476D01*
X00839426Y00147428D01*
X00867141Y00224617D02*
X00866665Y00225570D01*
X00865713Y00226522D01*
X00864761Y00226998D01*
X00862857D01*
X00861904Y00226522D01*
X00860952Y00225570D01*
X00860476Y00224617D01*
X00860000Y00223189D01*
Y00220809D01*
X00860476Y00219380D01*
X00860952Y00218428D01*
X00861904Y00217476D01*
X00862857Y00217000D01*
X00864761D01*
X00865713Y00217476D01*
X00866665Y00218428D01*
X00867141Y00219380D01*
X00875663Y00226998D02*
X00870902D01*
X00870426Y00222713D01*
X00870902Y00223189D01*
X00872331Y00223665D01*
X00873759D01*
X00875187Y00223189D01*
X00876139Y00222237D01*
X00876616Y00220809D01*
Y00219856D01*
X00876139Y00218428D01*
X00875187Y00217476D01*
X00873759Y00217000D01*
X00872331D01*
X00870902Y00217476D01*
X00870426Y00217952D01*
X00869950Y00218904D01*
X00807400Y00253109D02*
X00806924Y00254061D01*
X00805972Y00255013D01*
X00805019Y00255489D01*
X00803115D01*
X00802163Y00255013D01*
X00801211Y00254061D01*
X00800735Y00253109D01*
X00800258Y00251680D01*
Y00249300D01*
X00800735Y00247871D01*
X00801211Y00246919D01*
X00802163Y00245967D01*
X00803115Y00245491D01*
X00805019D01*
X00805972Y00245967D01*
X00806924Y00246919D01*
X00807400Y00247871D01*
X00814970Y00255489D02*
X00810209Y00248824D01*
X00817350D01*
X00814970Y00255489D02*
Y00245491D01*
X00954883Y00337141D02*
X00953930Y00336665D01*
X00952978Y00335713D01*
X00952502Y00334761D01*
Y00332856D01*
X00952978Y00331904D01*
X00953930Y00330952D01*
X00954883Y00330476D01*
X00956311Y00330000D01*
X00958691D01*
X00960120Y00330476D01*
X00961072Y00330952D01*
X00962024Y00331904D01*
X00962500Y00332856D01*
Y00334761D01*
X00962024Y00335713D01*
X00961072Y00336665D01*
X00960120Y00337141D01*
X00954407Y00339950D02*
X00953930Y00340902D01*
X00952502Y00342331D01*
X00962500D01*
X00495038Y00172651D02*
X00494562Y00173604D01*
X00493610Y00174556D01*
X00492657Y00175032D01*
X00490753D01*
X00489801Y00174556D01*
X00488849Y00173604D01*
X00488372Y00172651D01*
X00487896Y00171223D01*
Y00168843D01*
X00488372Y00167414D01*
X00488849Y00166462D01*
X00489801Y00165510D01*
X00490753Y00165034D01*
X00492657D01*
X00493610Y00165510D01*
X00494562Y00166462D01*
X00495038Y00167414D01*
X00497847Y00173127D02*
X00498799Y00173604D01*
X00500227Y00175032D01*
Y00165034D01*
X00506131Y00175032D02*
X00511368D01*
X00508511Y00171223D01*
X00509939D01*
X00510891Y00170747D01*
X00511368Y00170271D01*
X00511844Y00168843D01*
Y00167890D01*
X00511368Y00166462D01*
X00510415Y00165510D01*
X00508987Y00165034D01*
X00507559D01*
X00506131Y00165510D01*
X00505654Y00165986D01*
X00505178Y00166938D01*
X00495038Y00187637D02*
X00494562Y00188590D01*
X00493610Y00189542D01*
X00492657Y00190018D01*
X00490753D01*
X00489801Y00189542D01*
X00488849Y00188590D01*
X00488372Y00187637D01*
X00487896Y00186209D01*
Y00183829D01*
X00488372Y00182400D01*
X00488849Y00181448D01*
X00489801Y00180496D01*
X00490753Y00180020D01*
X00492657D01*
X00493610Y00180496D01*
X00494562Y00181448D01*
X00495038Y00182400D01*
X00497847Y00188113D02*
X00498799Y00188590D01*
X00500227Y00190018D01*
Y00180020D01*
X00508035Y00190018D02*
X00506607Y00189542D01*
X00505654Y00188113D01*
X00505178Y00185733D01*
Y00184305D01*
X00505654Y00181924D01*
X00506607Y00180496D01*
X00508035Y00180020D01*
X00508987D01*
X00510415Y00180496D01*
X00511368Y00181924D01*
X00511844Y00184305D01*
Y00185733D01*
X00511368Y00188113D01*
X00510415Y00189542D01*
X00508987Y00190018D01*
X00508035D01*
X00413324Y00208748D02*
X00412848Y00209700D01*
X00411895Y00210652D01*
X00410943Y00211128D01*
X00409039D01*
X00408087Y00210652D01*
X00407135Y00209700D01*
X00406658Y00208748D01*
X00406182Y00207319D01*
Y00204939D01*
X00406658Y00203510D01*
X00407135Y00202558D01*
X00408087Y00201606D01*
X00409039Y00201130D01*
X00410943D01*
X00411895Y00201606D01*
X00412848Y00202558D01*
X00413324Y00203510D01*
X00422798Y00211128D02*
X00418037Y00201130D01*
X00416133Y00211128D02*
X00422798D01*
X00939883Y00244641D02*
X00938930Y00244165D01*
X00937978Y00243213D01*
X00937502Y00242261D01*
Y00240357D01*
X00937978Y00239404D01*
X00938930Y00238452D01*
X00939883Y00237976D01*
X00941311Y00237500D01*
X00943691D01*
X00945120Y00237976D01*
X00946072Y00238452D01*
X00947024Y00239404D01*
X00947500Y00240357D01*
Y00242261D01*
X00947024Y00243213D01*
X00946072Y00244165D01*
X00945120Y00244641D01*
X00939883Y00247926D02*
X00939407D01*
X00938454Y00248402D01*
X00937978Y00248878D01*
X00937502Y00249831D01*
Y00251735D01*
X00937978Y00252687D01*
X00938454Y00253163D01*
X00939407Y00253639D01*
X00940359D01*
X00941311Y00253163D01*
X00942739Y00252211D01*
X00947500Y00247450D01*
Y00254116D01*
M02*
