G04*
G04 #@! TF.GenerationSoftware,Altium Limited,Altium Designer,21.8.1 (53)*
G04*
G04 Layer_Physical_Order=1*
G04 Layer_Color=255*
%FSAX44Y44*%
%MOMM*%
G71*
G04*
G04 #@! TF.SameCoordinates,FA5E87E6-E1E0-4C40-9374-903DC783770A*
G04*
G04*
G04 #@! TF.FilePolarity,Positive*
G04*
G01*
G75*
%ADD13C,0.3000*%
%ADD14C,0.4000*%
G04:AMPARAMS|DCode=36|XSize=0.65mm|YSize=1.2mm|CornerRadius=0.0488mm|HoleSize=0mm|Usage=FLASHONLY|Rotation=270.000|XOffset=0mm|YOffset=0mm|HoleType=Round|Shape=RoundedRectangle|*
%AMROUNDEDRECTD36*
21,1,0.6500,1.1025,0,0,270.0*
21,1,0.5525,1.2000,0,0,270.0*
1,1,0.0975,-0.5513,-0.2763*
1,1,0.0975,-0.5513,0.2763*
1,1,0.0975,0.5513,0.2763*
1,1,0.0975,0.5513,-0.2763*
%
%ADD36ROUNDEDRECTD36*%
G04:AMPARAMS|DCode=37|XSize=0.55mm|YSize=0.65mm|CornerRadius=0.1375mm|HoleSize=0mm|Usage=FLASHONLY|Rotation=270.000|XOffset=0mm|YOffset=0mm|HoleType=Round|Shape=RoundedRectangle|*
%AMROUNDEDRECTD37*
21,1,0.5500,0.3750,0,0,270.0*
21,1,0.2750,0.6500,0,0,270.0*
1,1,0.2750,-0.1875,-0.1375*
1,1,0.2750,-0.1875,0.1375*
1,1,0.2750,0.1875,0.1375*
1,1,0.2750,0.1875,-0.1375*
%
%ADD37ROUNDEDRECTD37*%
G04:AMPARAMS|DCode=38|XSize=0.9mm|YSize=1.4mm|CornerRadius=0.225mm|HoleSize=0mm|Usage=FLASHONLY|Rotation=0.000|XOffset=0mm|YOffset=0mm|HoleType=Round|Shape=RoundedRectangle|*
%AMROUNDEDRECTD38*
21,1,0.9000,0.9500,0,0,0.0*
21,1,0.4500,1.4000,0,0,0.0*
1,1,0.4500,0.2250,-0.4750*
1,1,0.4500,-0.2250,-0.4750*
1,1,0.4500,-0.2250,0.4750*
1,1,0.4500,0.2250,0.4750*
%
%ADD38ROUNDEDRECTD38*%
G04:AMPARAMS|DCode=39|XSize=0.7mm|YSize=0.8mm|CornerRadius=0.175mm|HoleSize=0mm|Usage=FLASHONLY|Rotation=270.000|XOffset=0mm|YOffset=0mm|HoleType=Round|Shape=RoundedRectangle|*
%AMROUNDEDRECTD39*
21,1,0.7000,0.4500,0,0,270.0*
21,1,0.3500,0.8000,0,0,270.0*
1,1,0.3500,-0.2250,-0.1750*
1,1,0.3500,-0.2250,0.1750*
1,1,0.3500,0.2250,0.1750*
1,1,0.3500,0.2250,-0.1750*
%
%ADD39ROUNDEDRECTD39*%
G04:AMPARAMS|DCode=40|XSize=1.55mm|YSize=0.6mm|CornerRadius=0.15mm|HoleSize=0mm|Usage=FLASHONLY|Rotation=180.000|XOffset=0mm|YOffset=0mm|HoleType=Round|Shape=RoundedRectangle|*
%AMROUNDEDRECTD40*
21,1,1.5500,0.3000,0,0,180.0*
21,1,1.2500,0.6000,0,0,180.0*
1,1,0.3000,-0.6250,0.1500*
1,1,0.3000,0.6250,0.1500*
1,1,0.3000,0.6250,-0.1500*
1,1,0.3000,-0.6250,-0.1500*
%
%ADD40ROUNDEDRECTD40*%
G04:AMPARAMS|DCode=41|XSize=0.4mm|YSize=0.9mm|CornerRadius=0.1mm|HoleSize=0mm|Usage=FLASHONLY|Rotation=0.000|XOffset=0mm|YOffset=0mm|HoleType=Round|Shape=RoundedRectangle|*
%AMROUNDEDRECTD41*
21,1,0.4000,0.7000,0,0,0.0*
21,1,0.2000,0.9000,0,0,0.0*
1,1,0.2000,0.1000,-0.3500*
1,1,0.2000,-0.1000,-0.3500*
1,1,0.2000,-0.1000,0.3500*
1,1,0.2000,0.1000,0.3500*
%
%ADD41ROUNDEDRECTD41*%
G04:AMPARAMS|DCode=42|XSize=0.65mm|YSize=1.2mm|CornerRadius=0.0488mm|HoleSize=0mm|Usage=FLASHONLY|Rotation=180.000|XOffset=0mm|YOffset=0mm|HoleType=Round|Shape=RoundedRectangle|*
%AMROUNDEDRECTD42*
21,1,0.6500,1.1025,0,0,180.0*
21,1,0.5525,1.2000,0,0,180.0*
1,1,0.0975,-0.2763,0.5513*
1,1,0.0975,0.2763,0.5513*
1,1,0.0975,0.2763,-0.5513*
1,1,0.0975,-0.2763,-0.5513*
%
%ADD42ROUNDEDRECTD42*%
%ADD43R,3.1000X2.4000*%
G04:AMPARAMS|DCode=44|XSize=0.5mm|YSize=1.45mm|CornerRadius=0.125mm|HoleSize=0mm|Usage=FLASHONLY|Rotation=0.000|XOffset=0mm|YOffset=0mm|HoleType=Round|Shape=RoundedRectangle|*
%AMROUNDEDRECTD44*
21,1,0.5000,1.2000,0,0,0.0*
21,1,0.2500,1.4500,0,0,0.0*
1,1,0.2500,0.1250,-0.6000*
1,1,0.2500,-0.1250,-0.6000*
1,1,0.2500,-0.1250,0.6000*
1,1,0.2500,0.1250,0.6000*
%
%ADD44ROUNDEDRECTD44*%
G04:AMPARAMS|DCode=45|XSize=1.8mm|YSize=1.25mm|CornerRadius=0.3125mm|HoleSize=0mm|Usage=FLASHONLY|Rotation=0.000|XOffset=0mm|YOffset=0mm|HoleType=Round|Shape=RoundedRectangle|*
%AMROUNDEDRECTD45*
21,1,1.8000,0.6250,0,0,0.0*
21,1,1.1750,1.2500,0,0,0.0*
1,1,0.6250,0.5875,-0.3125*
1,1,0.6250,-0.5875,-0.3125*
1,1,0.6250,-0.5875,0.3125*
1,1,0.6250,0.5875,0.3125*
%
%ADD45ROUNDEDRECTD45*%
G04:AMPARAMS|DCode=46|XSize=0.7mm|YSize=0.85mm|CornerRadius=0.175mm|HoleSize=0mm|Usage=FLASHONLY|Rotation=0.000|XOffset=0mm|YOffset=0mm|HoleType=Round|Shape=RoundedRectangle|*
%AMROUNDEDRECTD46*
21,1,0.7000,0.5000,0,0,0.0*
21,1,0.3500,0.8500,0,0,0.0*
1,1,0.3500,0.1750,-0.2500*
1,1,0.3500,-0.1750,-0.2500*
1,1,0.3500,-0.1750,0.2500*
1,1,0.3500,0.1750,0.2500*
%
%ADD46ROUNDEDRECTD46*%
G04:AMPARAMS|DCode=47|XSize=0.7mm|YSize=0.85mm|CornerRadius=0.175mm|HoleSize=0mm|Usage=FLASHONLY|Rotation=270.000|XOffset=0mm|YOffset=0mm|HoleType=Round|Shape=RoundedRectangle|*
%AMROUNDEDRECTD47*
21,1,0.7000,0.5000,0,0,270.0*
21,1,0.3500,0.8500,0,0,270.0*
1,1,0.3500,-0.2500,-0.1750*
1,1,0.3500,-0.2500,0.1750*
1,1,0.3500,0.2500,0.1750*
1,1,0.3500,0.2500,-0.1750*
%
%ADD47ROUNDEDRECTD47*%
%ADD48C,0.1460*%
%ADD49C,0.1458*%
%ADD50C,0.2060*%
%ADD51C,0.1623*%
%ADD52C,0.5000*%
%ADD53R,1.0000X1.0000*%
%ADD54O,1.3000X1.0000*%
%ADD55R,1.0000X1.0000*%
%ADD56O,1.0000X1.3000*%
%ADD57C,1.7000*%
%ADD58R,1.7000X1.7000*%
%ADD59C,6.0000*%
%ADD60C,0.6000*%
G36*
X00527161Y00404578D02*
X00526014Y00401199D01*
X00525257Y00401100D01*
X00525232Y00401132D01*
X00523143Y00402735D01*
X00520710Y00403743D01*
X00518100Y00404086D01*
X00515490Y00403743D01*
X00513057Y00402735D01*
X00511750Y00401732D01*
X00510443Y00402735D01*
X00508010Y00403743D01*
X00505400Y00404086D01*
X00502789Y00403743D01*
X00500357Y00402735D01*
X00499050Y00401732D01*
X00497743Y00402735D01*
X00495311Y00403743D01*
X00492700Y00404086D01*
X00490089Y00403743D01*
X00487657Y00402735D01*
X00486350Y00401732D01*
X00485043Y00402735D01*
X00482611Y00403743D01*
X00480000Y00404086D01*
X00477389Y00403743D01*
X00474957Y00402735D01*
X00472868Y00401132D01*
X00471265Y00399043D01*
X00470257Y00396610D01*
X00469914Y00394000D01*
Y00391000D01*
X00470257Y00388390D01*
X00470677Y00387376D01*
X00469785Y00385708D01*
X00467890Y00384441D01*
X00467890Y00384441D01*
X00458059Y00374610D01*
X00456792Y00372715D01*
X00456348Y00370480D01*
X00456348Y00370479D01*
Y00352825D01*
X00456348Y00352825D01*
X00456792Y00350589D01*
X00458059Y00348694D01*
X00480894Y00325859D01*
Y00301712D01*
X00478988Y00300492D01*
X00477694Y00300016D01*
X00476447Y00300533D01*
X00474750Y00300756D01*
X00466393D01*
X00465270Y00301770D01*
X00463956Y00303671D01*
X00464147Y00305122D01*
X00463872Y00307210D01*
X00463066Y00309156D01*
X00461784Y00310828D01*
X00460113Y00312110D01*
X00458167Y00312916D01*
X00456078Y00313191D01*
X00453990Y00312916D01*
X00452511Y00312303D01*
X00450854Y00312953D01*
X00449311Y00314046D01*
Y00385687D01*
X00472553Y00408930D01*
X00522809D01*
X00527161Y00404578D01*
D02*
G37*
G36*
X00869241Y00405115D02*
Y00391343D01*
X00866032Y00388134D01*
X00862400D01*
Y00390700D01*
X00855400D01*
Y00392700D01*
X00853400D01*
Y00399700D01*
X00851084D01*
X00849832Y00401332D01*
X00847743Y00402935D01*
X00845311Y00403943D01*
X00842700Y00404286D01*
X00840089Y00403943D01*
X00837657Y00402935D01*
X00836350Y00401932D01*
X00835043Y00402935D01*
X00832610Y00403943D01*
X00830000Y00404286D01*
X00827390Y00403943D01*
X00824957Y00402935D01*
X00823650Y00401932D01*
X00822343Y00402935D01*
X00819911Y00403943D01*
X00817300Y00404286D01*
X00814689Y00403943D01*
X00812257Y00402935D01*
X00810950Y00401932D01*
X00809643Y00402935D01*
X00807210Y00403943D01*
X00804600Y00404286D01*
X00801990Y00403943D01*
X00799557Y00402935D01*
X00797468Y00401332D01*
X00795865Y00399243D01*
X00794857Y00396810D01*
X00794514Y00394200D01*
Y00391200D01*
X00794857Y00388590D01*
X00795865Y00386157D01*
X00796540Y00385277D01*
X00733348Y00322085D01*
X00732082Y00320190D01*
X00731637Y00317954D01*
X00731637Y00317954D01*
Y00283757D01*
X00725711Y00277831D01*
X00722197Y00278486D01*
X00721534Y00280373D01*
X00721988Y00280965D01*
X00722794Y00282912D01*
X00723069Y00285000D01*
X00722794Y00287088D01*
X00721988Y00289035D01*
X00720706Y00290706D01*
X00719035Y00291988D01*
X00717088Y00292794D01*
X00715000Y00293069D01*
X00712912Y00292794D01*
X00710965Y00291988D01*
X00709871Y00291148D01*
X00699322D01*
X00681123Y00309347D01*
X00679128Y00310680D01*
X00676776Y00311148D01*
X00676776Y00311148D01*
X00641596D01*
X00639244Y00310680D01*
X00637249Y00309347D01*
X00637249Y00309347D01*
X00625999Y00298098D01*
X00621370D01*
X00620028Y00299128D01*
X00618447Y00299783D01*
X00616750Y00300006D01*
X00604250D01*
X00602553Y00299783D01*
X00600972Y00299128D01*
X00599614Y00298086D01*
X00598572Y00296728D01*
X00597917Y00295147D01*
X00597694Y00293450D01*
Y00290450D01*
X00597917Y00288753D01*
X00598572Y00287172D01*
X00599489Y00285600D01*
X00598572Y00284028D01*
X00597917Y00282447D01*
X00597694Y00280750D01*
Y00280105D01*
X00586893D01*
X00586892Y00280105D01*
X00584657Y00279661D01*
X00582762Y00278395D01*
X00582762Y00278395D01*
X00553798Y00249431D01*
X00550841Y00250655D01*
Y00256599D01*
X00610983Y00316741D01*
X00696557D01*
X00696558Y00316741D01*
X00698793Y00317186D01*
X00700688Y00318452D01*
X00796477Y00414241D01*
X00860115D01*
X00869241Y00405115D01*
D02*
G37*
G36*
X00947538Y00442722D02*
X00944061Y00441282D01*
X00939364Y00438403D01*
X00935175Y00434825D01*
X00931597Y00430636D01*
X00928718Y00425939D01*
X00926610Y00420849D01*
X00925324Y00415492D01*
X00924892Y00410000D01*
X00925324Y00404508D01*
X00926610Y00399151D01*
X00928718Y00394061D01*
X00931597Y00389364D01*
X00935175Y00385175D01*
X00939364Y00381597D01*
X00944061Y00378718D01*
X00949151Y00376610D01*
X00954508Y00375324D01*
X00960000Y00374892D01*
X00965492Y00375324D01*
X00970849Y00376610D01*
X00975939Y00378718D01*
X00980636Y00381597D01*
X00984825Y00385175D01*
X00988403Y00389364D01*
X00991282Y00394061D01*
X00992722Y00397538D01*
X00995922Y00396901D01*
Y00053099D01*
X00992722Y00052462D01*
X00991282Y00055939D01*
X00988403Y00060636D01*
X00984825Y00064825D01*
X00980636Y00068403D01*
X00975939Y00071282D01*
X00970849Y00073390D01*
X00965492Y00074676D01*
X00960000Y00075108D01*
X00954508Y00074676D01*
X00949151Y00073390D01*
X00944061Y00071282D01*
X00939364Y00068403D01*
X00935175Y00064825D01*
X00931597Y00060636D01*
X00928718Y00055939D01*
X00926610Y00050849D01*
X00925324Y00045492D01*
X00924892Y00040000D01*
X00925324Y00034508D01*
X00926610Y00029151D01*
X00928718Y00024061D01*
X00931597Y00019364D01*
X00935175Y00015175D01*
X00939364Y00011597D01*
X00944061Y00008718D01*
X00947538Y00007278D01*
X00946901Y00004078D01*
X00053099D01*
X00052462Y00007278D01*
X00055939Y00008718D01*
X00060636Y00011597D01*
X00064825Y00015175D01*
X00068403Y00019364D01*
X00071282Y00024061D01*
X00073390Y00029151D01*
X00074676Y00034508D01*
X00075108Y00040000D01*
X00074676Y00045492D01*
X00073390Y00050849D01*
X00071282Y00055939D01*
X00068403Y00060636D01*
X00064825Y00064825D01*
X00060636Y00068403D01*
X00055939Y00071282D01*
X00050849Y00073390D01*
X00045492Y00074676D01*
X00040000Y00075108D01*
X00034508Y00074676D01*
X00029151Y00073390D01*
X00024061Y00071282D01*
X00019364Y00068403D01*
X00015175Y00064825D01*
X00011597Y00060636D01*
X00008718Y00055939D01*
X00007278Y00052462D01*
X00004078Y00053099D01*
Y00297582D01*
X00004375Y00298068D01*
X00006695Y00300076D01*
X00027290D01*
X00028514Y00297119D01*
X00023198Y00291802D01*
X00022645Y00290975D01*
X00022451Y00290000D01*
Y00242500D01*
X00022645Y00241525D01*
X00023198Y00240698D01*
X00034246Y00229649D01*
X00035073Y00229097D01*
X00036049Y00228902D01*
X00039859D01*
X00041440Y00227100D01*
X00041680Y00225273D01*
X00042386Y00223570D01*
X00043508Y00222108D01*
Y00219392D01*
X00042386Y00217930D01*
X00041680Y00216227D01*
X00041440Y00214400D01*
X00041680Y00212573D01*
X00042386Y00210870D01*
X00043508Y00209408D01*
Y00206692D01*
X00042386Y00205230D01*
X00041680Y00203527D01*
X00041440Y00201700D01*
X00041680Y00199873D01*
X00042386Y00198170D01*
X00043508Y00196708D01*
X00044970Y00195585D01*
X00046673Y00194880D01*
X00048500Y00194640D01*
X00051500D01*
X00053327Y00194880D01*
X00055030Y00195585D01*
X00056492Y00196708D01*
X00057614Y00198170D01*
X00058320Y00199873D01*
X00058560Y00201700D01*
X00058320Y00203527D01*
X00057614Y00205230D01*
X00056492Y00206692D01*
Y00209408D01*
X00057614Y00210870D01*
X00058320Y00212573D01*
X00058560Y00214400D01*
X00058320Y00216227D01*
X00057614Y00217930D01*
X00056492Y00219392D01*
Y00222108D01*
X00057614Y00223570D01*
X00058320Y00225273D01*
X00058560Y00227100D01*
X00060141Y00228902D01*
X00065259D01*
X00066840Y00227100D01*
X00067080Y00225273D01*
X00067786Y00223570D01*
X00068908Y00222108D01*
Y00219392D01*
X00067786Y00217930D01*
X00067080Y00216227D01*
X00066840Y00214400D01*
X00067080Y00212573D01*
X00067786Y00210870D01*
X00068908Y00209408D01*
Y00206692D01*
X00067786Y00205230D01*
X00067080Y00203527D01*
X00066840Y00201700D01*
X00067080Y00199873D01*
X00067786Y00198170D01*
X00068908Y00196708D01*
X00070370Y00195585D01*
X00072073Y00194880D01*
X00073900Y00194640D01*
X00076900D01*
X00078727Y00194880D01*
X00080430Y00195585D01*
X00081892Y00196708D01*
X00083014Y00198170D01*
X00083720Y00199873D01*
X00083960Y00201700D01*
X00083720Y00203527D01*
X00083014Y00205230D01*
X00081892Y00206692D01*
Y00209408D01*
X00083014Y00210870D01*
X00083720Y00212573D01*
X00083960Y00214400D01*
X00083720Y00216227D01*
X00083014Y00217930D01*
X00081892Y00219392D01*
Y00222108D01*
X00083014Y00223570D01*
X00083720Y00225273D01*
X00083960Y00227100D01*
X00085541Y00228902D01*
X00103303D01*
X00104278Y00229097D01*
X00105105Y00229649D01*
X00111802Y00236346D01*
X00112355Y00237173D01*
X00112549Y00238148D01*
Y00278944D01*
X00117176Y00283571D01*
X00124326D01*
X00125297Y00280371D01*
X00125046Y00280204D01*
X00124218Y00278963D01*
X00123926Y00277500D01*
Y00277000D01*
X00129500D01*
Y00273000D01*
X00123926D01*
Y00272500D01*
X00124218Y00271037D01*
X00125046Y00269796D01*
X00125909Y00269220D01*
X00126113Y00267500D01*
X00125909Y00265780D01*
X00125046Y00265204D01*
X00124218Y00263963D01*
X00123926Y00262500D01*
Y00262000D01*
X00129500D01*
Y00260000D01*
X00131500D01*
Y00253726D01*
X00132097Y00253845D01*
X00134280Y00252681D01*
X00135297Y00251846D01*
Y00251497D01*
X00135301Y00251480D01*
X00135297Y00251463D01*
X00135398Y00250993D01*
X00135491Y00250521D01*
X00135501Y00250507D01*
X00135504Y00250490D01*
X00135778Y00250093D01*
X00136044Y00249694D01*
X00134246Y00247064D01*
X00133700Y00246564D01*
X00131200D01*
X00129932Y00246311D01*
X00128857Y00245593D01*
X00128139Y00244518D01*
X00127886Y00243250D01*
Y00231250D01*
X00128139Y00229982D01*
X00128857Y00228907D01*
X00129932Y00228189D01*
X00131200Y00227936D01*
X00133700D01*
X00134968Y00228189D01*
X00136043Y00228907D01*
X00136761Y00229982D01*
Y00229982D01*
X00137463Y00231065D01*
X00139234Y00231170D01*
X00140611Y00231124D01*
X00140839Y00229982D01*
X00141557Y00228907D01*
X00142632Y00228189D01*
X00143900Y00227936D01*
X00146400D01*
X00147668Y00228189D01*
X00148743Y00228907D01*
X00149461Y00229982D01*
X00149714Y00231250D01*
Y00231535D01*
X00152859D01*
X00152923Y00231548D01*
X00153286Y00231250D01*
X00153539Y00229982D01*
X00154257Y00228907D01*
X00155332Y00228189D01*
X00156600Y00227936D01*
X00159100D01*
X00160368Y00228189D01*
X00161443Y00228907D01*
X00162161Y00229982D01*
X00162414Y00231250D01*
Y00238580D01*
X00162786Y00238829D01*
X00165986Y00237119D01*
Y00231250D01*
X00166239Y00229982D01*
X00166957Y00228907D01*
X00168032Y00228189D01*
X00169300Y00227936D01*
X00171800D01*
X00173068Y00228189D01*
X00174143Y00228907D01*
X00174861Y00229982D01*
X00175114Y00231250D01*
Y00243250D01*
X00174861Y00244518D01*
X00174143Y00245593D01*
X00173068Y00246311D01*
X00171955Y00246533D01*
X00171646Y00246997D01*
X00170660Y00249764D01*
X00172678Y00251781D01*
X00173451Y00252939D01*
X00173598Y00253677D01*
X00173750D01*
X00175213Y00253968D01*
X00176454Y00254796D01*
X00177282Y00256037D01*
X00177574Y00257500D01*
Y00262500D01*
X00177282Y00263963D01*
X00176454Y00265204D01*
X00175213Y00266032D01*
X00173750Y00266324D01*
X00170749D01*
X00169893Y00266646D01*
X00167549Y00268761D01*
X00167549Y00276562D01*
X00167355Y00277537D01*
X00166802Y00278364D01*
X00160782Y00284385D01*
X00160877Y00287675D01*
X00161549Y00288235D01*
X00163761Y00289421D01*
X00165125Y00289150D01*
X00169000D01*
Y00297500D01*
Y00305850D01*
X00165125D01*
X00163678Y00305562D01*
X00161591Y00306649D01*
X00160467Y00307525D01*
X00160420Y00316152D01*
X00160321Y00316635D01*
X00160226Y00317113D01*
X00160222Y00317119D01*
X00160221Y00317126D01*
X00159947Y00317530D01*
X00159673Y00317940D01*
X00151537Y00326077D01*
X00152074Y00327889D01*
X00152981Y00329158D01*
X00186099D01*
X00211428Y00303829D01*
Y00183300D01*
X00211428Y00183300D01*
X00211873Y00181065D01*
X00213139Y00179169D01*
X00221893Y00170415D01*
X00278920Y00113388D01*
X00278920Y00113388D01*
X00280816Y00112121D01*
X00283051Y00111677D01*
X00296087D01*
X00296297Y00108477D01*
X00295559Y00108380D01*
X00293005Y00107322D01*
X00290811Y00105639D01*
X00289128Y00103445D01*
X00288070Y00100891D01*
X00287973Y00100150D01*
X00298300D01*
X00308627D01*
X00308530Y00100891D01*
X00307472Y00103445D01*
X00305789Y00105639D01*
X00303595Y00107322D01*
X00301041Y00108380D01*
X00300303Y00108477D01*
X00300513Y00111677D01*
X00321487D01*
X00321697Y00108477D01*
X00320959Y00108380D01*
X00318405Y00107322D01*
X00316211Y00105639D01*
X00314528Y00103445D01*
X00313470Y00100891D01*
X00313109Y00098150D01*
X00313470Y00095409D01*
X00314528Y00092855D01*
X00316211Y00090661D01*
X00318405Y00088978D01*
X00320959Y00087920D01*
X00323700Y00087559D01*
X00326441Y00087920D01*
X00328995Y00088978D01*
X00331189Y00090661D01*
X00332872Y00092855D01*
X00333930Y00095409D01*
X00334291Y00098150D01*
X00333930Y00100891D01*
X00332872Y00103445D01*
X00331189Y00105639D01*
X00328995Y00107322D01*
X00326441Y00108380D01*
X00325703Y00108477D01*
X00325913Y00111677D01*
X00346887D01*
X00347097Y00108477D01*
X00346359Y00108380D01*
X00343805Y00107322D01*
X00341611Y00105639D01*
X00339928Y00103445D01*
X00338870Y00100891D01*
X00338509Y00098150D01*
X00338870Y00095409D01*
X00339928Y00092855D01*
X00341611Y00090661D01*
X00343805Y00088978D01*
X00346359Y00087920D01*
X00349100Y00087559D01*
X00351841Y00087920D01*
X00354395Y00088978D01*
X00356589Y00090661D01*
X00358272Y00092855D01*
X00359330Y00095409D01*
X00359691Y00098150D01*
X00359330Y00100891D01*
X00358272Y00103445D01*
X00356589Y00105639D01*
X00354395Y00107322D01*
X00351841Y00108380D01*
X00351103Y00108477D01*
X00351313Y00111677D01*
X00372287D01*
X00372497Y00108477D01*
X00371759Y00108380D01*
X00369205Y00107322D01*
X00367011Y00105639D01*
X00365328Y00103445D01*
X00364270Y00100891D01*
X00363909Y00098150D01*
X00364270Y00095409D01*
X00365328Y00092855D01*
X00367011Y00090661D01*
X00369205Y00088978D01*
X00371759Y00087920D01*
X00374500Y00087559D01*
X00377241Y00087920D01*
X00379795Y00088978D01*
X00381989Y00090661D01*
X00383672Y00092855D01*
X00384730Y00095409D01*
X00385091Y00098150D01*
X00384730Y00100891D01*
X00383672Y00103445D01*
X00381989Y00105639D01*
X00379795Y00107322D01*
X00377241Y00108380D01*
X00376503Y00108477D01*
X00376713Y00111677D01*
X00397687D01*
X00397897Y00108477D01*
X00397159Y00108380D01*
X00394605Y00107322D01*
X00392411Y00105639D01*
X00390728Y00103445D01*
X00389670Y00100891D01*
X00389309Y00098150D01*
X00389670Y00095409D01*
X00390728Y00092855D01*
X00392411Y00090661D01*
X00394605Y00088978D01*
X00397159Y00087920D01*
X00399900Y00087559D01*
X00402641Y00087920D01*
X00405195Y00088978D01*
X00407389Y00090661D01*
X00409072Y00092855D01*
X00409245Y00093272D01*
X00412708Y00093272D01*
X00413508Y00091342D01*
X00415672Y00088522D01*
X00417153Y00087385D01*
X00417289Y00087097D01*
Y00083803D01*
X00417153Y00083515D01*
X00415672Y00082378D01*
X00413508Y00079558D01*
X00412708Y00077628D01*
X00409245Y00077628D01*
X00409072Y00078045D01*
X00407389Y00080239D01*
X00405195Y00081922D01*
X00402641Y00082980D01*
X00399900Y00083341D01*
X00397159Y00082980D01*
X00394605Y00081922D01*
X00392411Y00080239D01*
X00390728Y00078045D01*
X00389670Y00075491D01*
X00389309Y00072750D01*
X00389670Y00070009D01*
X00390728Y00067455D01*
X00392411Y00065261D01*
X00394605Y00063578D01*
X00397159Y00062520D01*
X00399900Y00062159D01*
X00402641Y00062520D01*
X00405195Y00063578D01*
X00407389Y00065261D01*
X00409072Y00067455D01*
X00409245Y00067872D01*
X00412708Y00067872D01*
X00413508Y00065942D01*
X00415672Y00063122D01*
X00418492Y00060958D01*
X00421776Y00059598D01*
X00425300Y00059134D01*
X00428824Y00059598D01*
X00432108Y00060958D01*
X00434928Y00063122D01*
X00436065Y00064603D01*
X00436353Y00064739D01*
X00439647D01*
X00439935Y00064603D01*
X00441072Y00063122D01*
X00443892Y00060958D01*
X00447176Y00059598D01*
X00450700Y00059134D01*
X00454224Y00059598D01*
X00457508Y00060958D01*
X00460328Y00063122D01*
X00461465Y00064603D01*
X00461754Y00064739D01*
X00465047D01*
X00465335Y00064603D01*
X00466472Y00063122D01*
X00469292Y00060958D01*
X00472576Y00059598D01*
X00476100Y00059134D01*
X00479624Y00059598D01*
X00482908Y00060958D01*
X00485728Y00063122D01*
X00486865Y00064603D01*
X00487154Y00064739D01*
X00490447D01*
X00490735Y00064603D01*
X00491872Y00063122D01*
X00494692Y00060958D01*
X00497976Y00059598D01*
X00501500Y00059134D01*
X00505024Y00059598D01*
X00508308Y00060958D01*
X00511128Y00063122D01*
X00512265Y00064603D01*
X00512553Y00064739D01*
X00515847D01*
X00516135Y00064603D01*
X00517272Y00063122D01*
X00520092Y00060958D01*
X00523376Y00059598D01*
X00526900Y00059134D01*
X00530424Y00059598D01*
X00533708Y00060958D01*
X00536528Y00063122D01*
X00537665Y00064603D01*
X00537953Y00064739D01*
X00541247D01*
X00541535Y00064603D01*
X00542672Y00063122D01*
X00545492Y00060958D01*
X00548776Y00059598D01*
X00552300Y00059134D01*
X00555824Y00059598D01*
X00559108Y00060958D01*
X00561928Y00063122D01*
X00563065Y00064603D01*
X00563354Y00064739D01*
X00566647D01*
X00566935Y00064603D01*
X00568072Y00063122D01*
X00570892Y00060958D01*
X00574176Y00059598D01*
X00577700Y00059134D01*
X00581224Y00059598D01*
X00584508Y00060958D01*
X00587328Y00063122D01*
X00588465Y00064603D01*
X00588754Y00064739D01*
X00592047D01*
X00592335Y00064603D01*
X00593472Y00063122D01*
X00596292Y00060958D01*
X00599576Y00059598D01*
X00603100Y00059134D01*
X00606624Y00059598D01*
X00609908Y00060958D01*
X00612728Y00063122D01*
X00613865Y00064603D01*
X00614154Y00064739D01*
X00617447D01*
X00617735Y00064603D01*
X00618872Y00063122D01*
X00621692Y00060958D01*
X00624976Y00059598D01*
X00628500Y00059134D01*
X00632024Y00059598D01*
X00635308Y00060958D01*
X00638128Y00063122D01*
X00639265Y00064603D01*
X00639553Y00064739D01*
X00642847D01*
X00643135Y00064603D01*
X00644272Y00063122D01*
X00647092Y00060958D01*
X00650376Y00059598D01*
X00653900Y00059134D01*
X00657424Y00059598D01*
X00660708Y00060958D01*
X00663528Y00063122D01*
X00664665Y00064603D01*
X00664954Y00064739D01*
X00668247D01*
X00668535Y00064603D01*
X00669672Y00063122D01*
X00672492Y00060958D01*
X00675776Y00059598D01*
X00679300Y00059134D01*
X00682824Y00059598D01*
X00686108Y00060958D01*
X00688928Y00063122D01*
X00690065Y00064603D01*
X00690353Y00064739D01*
X00693647D01*
X00693935Y00064603D01*
X00695072Y00063122D01*
X00697892Y00060958D01*
X00701176Y00059598D01*
X00704700Y00059134D01*
X00708224Y00059598D01*
X00711508Y00060958D01*
X00714328Y00063122D01*
X00715465Y00064603D01*
X00715753Y00064739D01*
X00719047D01*
X00719335Y00064603D01*
X00720472Y00063122D01*
X00723292Y00060958D01*
X00726576Y00059598D01*
X00730100Y00059134D01*
X00733624Y00059598D01*
X00736908Y00060958D01*
X00739728Y00063122D01*
X00741892Y00065942D01*
X00742692Y00067872D01*
X00746155Y00067872D01*
X00746328Y00067455D01*
X00748011Y00065261D01*
X00750205Y00063578D01*
X00752759Y00062520D01*
X00755500Y00062159D01*
X00758241Y00062520D01*
X00760795Y00063578D01*
X00762989Y00065261D01*
X00764672Y00067455D01*
X00765730Y00070009D01*
X00766091Y00072750D01*
X00765730Y00075491D01*
X00764672Y00078045D01*
X00762989Y00080239D01*
X00760795Y00081922D01*
X00758241Y00082980D01*
X00755500Y00083341D01*
X00752759Y00082980D01*
X00750205Y00081922D01*
X00748011Y00080239D01*
X00746328Y00078045D01*
X00746155Y00077628D01*
X00742692Y00077628D01*
X00741892Y00079558D01*
X00739728Y00082378D01*
X00738247Y00083515D01*
X00738111Y00083804D01*
X00738111Y00087097D01*
X00738247Y00087384D01*
X00739729Y00088522D01*
X00741800Y00091221D01*
X00742119Y00091250D01*
X00745000Y00090311D01*
Y00087650D01*
X00753500D01*
Y00098150D01*
X00755500D01*
Y00100150D01*
X00766000D01*
Y00108650D01*
X00768288Y00110852D01*
X00777040D01*
X00833352Y00054540D01*
Y00044459D01*
X00832186Y00043564D01*
X00831104Y00042154D01*
X00830424Y00040512D01*
X00830192Y00038750D01*
Y00035250D01*
X00830424Y00033488D01*
X00831104Y00031846D01*
X00831979Y00030000D01*
X00831104Y00028154D01*
X00830424Y00026512D01*
X00830192Y00024750D01*
Y00021250D01*
X00830424Y00019488D01*
X00831104Y00017846D01*
X00832186Y00016436D01*
X00833596Y00015354D01*
X00835238Y00014674D01*
X00837000Y00014442D01*
X00842000D01*
X00843762Y00014674D01*
X00845404Y00015354D01*
X00846814Y00016436D01*
X00847057Y00016752D01*
X00850714D01*
X00851686Y00015486D01*
X00853096Y00014404D01*
X00854738Y00013724D01*
X00856500Y00013492D01*
X00860000D01*
X00861762Y00013724D01*
X00863404Y00014404D01*
X00864814Y00015486D01*
X00865105Y00015865D01*
X00866659Y00016865D01*
X00869037Y00016767D01*
X00870250Y00016526D01*
Y00022800D01*
X00872250D01*
Y00024800D01*
X00877823D01*
Y00025300D01*
X00877532Y00026763D01*
X00876704Y00028004D01*
X00876152Y00028372D01*
X00875900Y00029502D01*
Y00030798D01*
X00876152Y00031928D01*
X00876704Y00032296D01*
X00877532Y00033537D01*
X00877823Y00035000D01*
Y00035500D01*
X00872250D01*
Y00039500D01*
X00877823D01*
Y00040000D01*
X00877532Y00041463D01*
X00876704Y00042703D01*
X00875841Y00043280D01*
X00875637Y00045000D01*
X00875841Y00046720D01*
X00876704Y00047296D01*
X00877532Y00048537D01*
X00877823Y00050000D01*
Y00050500D01*
X00872250D01*
Y00052500D01*
X00870250D01*
Y00058774D01*
X00869037Y00058532D01*
X00868025Y00058491D01*
X00865273Y00060992D01*
Y00064815D01*
X00866719Y00065781D01*
X00867668Y00067201D01*
X00867668D01*
X00867932Y00067596D01*
X00868358Y00069737D01*
Y00075250D01*
Y00080762D01*
X00867932Y00082904D01*
X00867668Y00083299D01*
X00867668D01*
X00866719Y00084719D01*
X00864904Y00085932D01*
X00862763Y00086357D01*
X00857237D01*
X00855096Y00085932D01*
X00853281Y00084719D01*
X00852332Y00083299D01*
X00847738D01*
X00846767Y00083106D01*
X00845944Y00082556D01*
X00845394Y00081733D01*
X00845201Y00080763D01*
Y00069738D01*
X00845394Y00068767D01*
X00845944Y00067944D01*
X00846767Y00067394D01*
X00847738Y00067201D01*
X00852332D01*
X00852977Y00066237D01*
Y00060805D01*
X00851686Y00059814D01*
X00850604Y00058404D01*
X00849924Y00056762D01*
X00849692Y00055000D01*
Y00050000D01*
X00849924Y00048238D01*
X00850604Y00046596D01*
X00850644Y00046530D01*
X00850284Y00045882D01*
X00846274Y00045247D01*
X00845648Y00045831D01*
Y00057087D01*
X00845180Y00059439D01*
X00843847Y00061434D01*
X00843847Y00061434D01*
X00783934Y00121347D01*
X00781939Y00122680D01*
X00779587Y00123148D01*
X00779586Y00123148D01*
X00748951D01*
X00748951Y00123148D01*
X00746598Y00122680D01*
X00744603Y00121347D01*
X00744603Y00121347D01*
X00734285Y00111029D01*
X00733625Y00111302D01*
X00730101Y00111767D01*
X00729133Y00111639D01*
X00725979Y00114028D01*
X00725761Y00116066D01*
X00737547Y00127852D01*
X00767750D01*
X00767750Y00127852D01*
X00770103Y00128320D01*
X00772097Y00129653D01*
X00778847Y00136403D01*
X00778847Y00136403D01*
X00780180Y00138397D01*
X00780648Y00140750D01*
Y00144867D01*
X00781064Y00145186D01*
X00782146Y00146596D01*
X00782826Y00148238D01*
X00783058Y00150000D01*
Y00155000D01*
X00782826Y00156762D01*
X00782146Y00158404D01*
X00781064Y00159814D01*
X00780923Y00159923D01*
X00779680Y00161421D01*
X00779782Y00163537D01*
X00779782Y00163537D01*
X00779859Y00163923D01*
X00780073Y00165000D01*
Y00165500D01*
X00774500D01*
Y00169500D01*
X00780073D01*
Y00170000D01*
X00779782Y00171463D01*
X00778954Y00172704D01*
X00778091Y00173280D01*
X00777887Y00175000D01*
X00778091Y00176720D01*
X00778954Y00177296D01*
X00779782Y00178537D01*
X00780073Y00180000D01*
Y00180500D01*
X00774500D01*
Y00184500D01*
X00780073D01*
Y00185000D01*
X00779782Y00186463D01*
X00778954Y00187704D01*
X00778091Y00188280D01*
X00777887Y00190000D01*
X00778091Y00191720D01*
X00778954Y00192296D01*
X00779782Y00193537D01*
X00780073Y00195000D01*
Y00195500D01*
X00774500D01*
Y00197500D01*
X00772500D01*
Y00203774D01*
X00771287Y00203532D01*
X00769149Y00203445D01*
X00766648Y00205646D01*
Y00217000D01*
X00766648Y00217000D01*
X00766180Y00219353D01*
X00764847Y00221347D01*
X00764847Y00221347D01*
X00761969Y00224225D01*
X00762077Y00227569D01*
X00762238Y00227701D01*
X00773262D01*
X00774233Y00227894D01*
X00775056Y00228444D01*
X00775606Y00229267D01*
X00775799Y00230237D01*
Y00234832D01*
X00777219Y00235781D01*
X00778432Y00237596D01*
X00778857Y00239737D01*
Y00244458D01*
X00780820Y00245632D01*
X00781989Y00245852D01*
X00798852Y00228989D01*
Y00205133D01*
X00798436Y00204814D01*
X00797354Y00203404D01*
X00796674Y00201762D01*
X00796442Y00200000D01*
Y00195000D01*
X00796674Y00193238D01*
X00797354Y00191596D01*
X00798436Y00190186D01*
X00797354Y00188404D01*
X00796674Y00186762D01*
X00796442Y00185000D01*
Y00180000D01*
X00796674Y00178238D01*
X00797354Y00176596D01*
X00798436Y00175186D01*
X00798852Y00174867D01*
Y00142500D01*
X00798852Y00142500D01*
X00799320Y00140147D01*
X00800653Y00138153D01*
X00811852Y00126953D01*
X00811837Y00126802D01*
X00808447Y00123413D01*
X00807895Y00122586D01*
X00807895Y00122586D01*
X00807895Y00122585D01*
X00807701Y00121610D01*
X00807701Y00109250D01*
X00807895Y00108274D01*
X00807895Y00108274D01*
X00808448Y00107447D01*
X00812948Y00102948D01*
X00813775Y00102395D01*
X00814750Y00102201D01*
X00821072Y00102201D01*
X00822773Y00100601D01*
X00823112Y00100000D01*
X00830000D01*
Y00098000D01*
X00832000D01*
Y00092427D01*
X00832500D01*
X00833963Y00092718D01*
X00835204Y00093546D01*
X00838670Y00092975D01*
X00840948Y00090698D01*
X00841775Y00090145D01*
X00842750Y00089951D01*
X00857250D01*
X00858225Y00090145D01*
X00859052Y00090698D01*
X00861162Y00092807D01*
X00862052Y00093698D01*
X00862053Y00093698D01*
X00862605Y00094525D01*
X00864596Y00094068D01*
X00866738Y00093643D01*
X00872262D01*
X00874404Y00094068D01*
X00876219Y00095281D01*
X00877432Y00097096D01*
X00877858Y00099237D01*
Y00110262D01*
X00877432Y00112404D01*
X00876219Y00114219D01*
X00875648Y00114600D01*
Y00119867D01*
X00876064Y00120186D01*
X00877146Y00121596D01*
X00877826Y00123238D01*
X00878058Y00125000D01*
Y00130000D01*
X00877826Y00131762D01*
X00877146Y00133404D01*
X00876064Y00134814D01*
X00874654Y00135896D01*
X00873012Y00136576D01*
X00871250Y00136808D01*
X00869637D01*
X00866228Y00140217D01*
X00866210Y00140236D01*
X00865587Y00141037D01*
X00867180Y00143790D01*
X00867500Y00143726D01*
Y00150000D01*
X00869500D01*
Y00152000D01*
X00875073D01*
Y00152500D01*
X00874782Y00153963D01*
X00873954Y00155204D01*
X00872713Y00156032D01*
X00871250Y00156323D01*
X00870405D01*
X00869080Y00159523D01*
X00870254Y00160698D01*
X00870807Y00161525D01*
X00871001Y00162500D01*
X00871001Y00177500D01*
X00871001Y00177500D01*
X00871001Y00177500D01*
X00870885Y00178082D01*
X00870807Y00178475D01*
X00870807Y00178475D01*
X00870807Y00178476D01*
X00870391Y00179098D01*
X00870254Y00179302D01*
X00870254Y00179302D01*
X00870254Y00179303D01*
X00867754Y00181802D01*
X00867183Y00182183D01*
X00866927Y00182355D01*
X00866927Y00182355D01*
X00866927Y00182355D01*
X00866367Y00182466D01*
X00865952Y00182549D01*
X00852978Y00182549D01*
X00852973Y00182548D01*
X00852967Y00182549D01*
X00852488Y00182451D01*
X00852003Y00182355D01*
X00851998Y00182352D01*
X00851993Y00182351D01*
X00851584Y00182075D01*
X00851176Y00181802D01*
X00851173Y00181798D01*
X00851168Y00181795D01*
X00848895Y00179502D01*
X00848817Y00179383D01*
X00848708Y00179291D01*
X00848601Y00179081D01*
X00847969Y00178861D01*
X00846360Y00178551D01*
X00845063Y00178650D01*
X00844597Y00179347D01*
X00837097Y00186847D01*
X00835103Y00188180D01*
X00835560Y00191352D01*
X00844250D01*
X00844250Y00191352D01*
X00846603Y00191820D01*
X00848597Y00193153D01*
X00851097Y00195653D01*
X00851097Y00195653D01*
X00852327Y00197492D01*
X00852584Y00197693D01*
X00855900Y00198688D01*
X00856409Y00198348D01*
X00858750Y00197882D01*
X00860750D01*
X00863091Y00198348D01*
X00865076Y00199674D01*
X00866402Y00201659D01*
X00866868Y00204000D01*
Y00211000D01*
X00866402Y00213341D01*
X00865898Y00214095D01*
Y00249586D01*
X00865898Y00249586D01*
X00865430Y00251938D01*
X00864097Y00253933D01*
X00864097Y00253933D01*
X00860636Y00257395D01*
X00861860Y00260351D01*
X00867262D01*
X00868233Y00260544D01*
X00869056Y00261094D01*
X00869606Y00261917D01*
X00869799Y00262887D01*
Y00267482D01*
X00871219Y00268431D01*
X00874530Y00268576D01*
X00883802Y00259303D01*
X00883802Y00259303D01*
X00885797Y00257970D01*
X00888150Y00257502D01*
X00888150Y00257502D01*
X00890117D01*
X00890436Y00257086D01*
X00891846Y00256004D01*
X00893488Y00255324D01*
X00895250Y00255092D01*
X00900250D01*
X00902012Y00255324D01*
X00903654Y00256004D01*
X00905064Y00257086D01*
X00905173Y00257227D01*
X00906671Y00258470D01*
X00908787Y00258368D01*
X00908787Y00258368D01*
X00909174Y00258291D01*
X00910250Y00258077D01*
X00910750D01*
Y00263650D01*
X00914750D01*
Y00258077D01*
X00915250D01*
X00916713Y00258368D01*
X00917954Y00259196D01*
X00918530Y00260059D01*
X00919966Y00260229D01*
X00922784Y00258354D01*
X00923040Y00255801D01*
X00922652Y00253850D01*
X00923040Y00251899D01*
X00924145Y00250245D01*
X00925799Y00249140D01*
X00927750Y00248752D01*
X00929701Y00249140D01*
X00931355Y00250245D01*
X00932460Y00251899D01*
X00932848Y00253850D01*
X00932581Y00255195D01*
X00935239Y00256964D01*
X00935538Y00257007D01*
X00936846Y00256004D01*
X00938488Y00255324D01*
X00940250Y00255092D01*
X00945250D01*
X00947012Y00255324D01*
X00948654Y00256004D01*
X00950436Y00257086D01*
X00951846Y00256004D01*
X00953488Y00255324D01*
X00955250Y00255092D01*
X00960250D01*
X00962012Y00255324D01*
X00963402Y00255900D01*
X00964433Y00255536D01*
X00966602Y00254232D01*
Y00157297D01*
X00960664Y00151358D01*
X00957475Y00152211D01*
X00956954Y00153509D01*
X00957615Y00154370D01*
X00958320Y00156073D01*
X00958560Y00157900D01*
X00958320Y00159727D01*
X00957615Y00161430D01*
X00956492Y00162892D01*
Y00165608D01*
X00957615Y00167070D01*
X00958320Y00168773D01*
X00958560Y00170600D01*
X00958320Y00172427D01*
X00957615Y00174130D01*
X00956492Y00175592D01*
Y00178308D01*
X00957615Y00179770D01*
X00958320Y00181473D01*
X00958560Y00183300D01*
X00958320Y00185127D01*
X00957615Y00186830D01*
X00956492Y00188292D01*
X00955030Y00189415D01*
X00953327Y00190120D01*
X00951500Y00190360D01*
X00948500D01*
X00946673Y00190120D01*
X00944970Y00189415D01*
X00943508Y00188292D01*
X00942385Y00186830D01*
X00941680Y00185127D01*
X00941440Y00183300D01*
X00941680Y00181473D01*
X00942385Y00179770D01*
X00943508Y00178307D01*
Y00175592D01*
X00942385Y00174130D01*
X00941680Y00172427D01*
X00941440Y00170600D01*
X00941680Y00168773D01*
X00942385Y00167070D01*
X00943508Y00165607D01*
Y00162892D01*
X00942385Y00161430D01*
X00941680Y00159727D01*
X00941440Y00157900D01*
X00941680Y00156073D01*
X00942385Y00154370D01*
X00943508Y00152907D01*
Y00150192D01*
X00942385Y00148730D01*
X00941680Y00147027D01*
X00941440Y00145200D01*
X00940000Y00142500D01*
X00940000D01*
Y00122500D01*
X00960000D01*
Y00133305D01*
X00977097Y00150403D01*
X00977097Y00150403D01*
X00978430Y00152397D01*
X00978898Y00154750D01*
X00978898Y00154750D01*
Y00256191D01*
X00980064Y00257086D01*
X00981146Y00258496D01*
X00981826Y00260138D01*
X00982058Y00261900D01*
Y00265400D01*
X00981826Y00267162D01*
X00981146Y00268804D01*
X00980064Y00270214D01*
X00979685Y00270505D01*
X00978685Y00272059D01*
X00978783Y00274437D01*
X00979024Y00275650D01*
X00972750D01*
Y00277650D01*
X00970750D01*
Y00283223D01*
X00970250D01*
X00968787Y00282932D01*
X00967546Y00282104D01*
X00966970Y00281241D01*
X00965250Y00281037D01*
X00963530Y00281241D01*
X00962954Y00282104D01*
X00961713Y00282932D01*
X00960250Y00283223D01*
X00959750D01*
Y00277650D01*
X00955750D01*
Y00283223D01*
X00955250D01*
X00953787Y00282932D01*
X00953787Y00282932D01*
X00951671Y00282830D01*
X00950173Y00284073D01*
X00950064Y00284214D01*
X00948654Y00285296D01*
X00947012Y00285976D01*
X00945250Y00286208D01*
X00940250D01*
X00938488Y00285976D01*
X00936846Y00285296D01*
X00935064Y00284214D01*
X00933654Y00285296D01*
X00932012Y00285976D01*
X00930250Y00286208D01*
X00925250D01*
X00923488Y00285976D01*
X00921846Y00285296D01*
X00920436Y00284214D01*
X00920064D01*
X00918654Y00285296D01*
X00917012Y00285976D01*
X00915250Y00286208D01*
X00910250D01*
X00908488Y00285976D01*
X00906846Y00285296D01*
X00905436Y00284214D01*
X00903654Y00285296D01*
X00902012Y00285976D01*
X00900850Y00286129D01*
X00899176Y00288981D01*
X00902347Y00292153D01*
X00903680Y00294147D01*
X00903957Y00295537D01*
X00906107Y00296890D01*
X00906132Y00296901D01*
X00907348Y00297146D01*
X00908488Y00296674D01*
X00910250Y00296442D01*
X00913750D01*
X00915512Y00296674D01*
X00917154Y00297354D01*
X00917807Y00297855D01*
X00920209Y00299528D01*
X00921846Y00298604D01*
X00923488Y00297924D01*
X00925250Y00297692D01*
X00929750D01*
X00931512Y00297924D01*
X00933154Y00298604D01*
X00934564Y00299686D01*
X00935646Y00301096D01*
X00936299Y00301294D01*
X00936787Y00300968D01*
X00938250Y00300677D01*
X00942750D01*
X00944213Y00300968D01*
X00945454Y00301796D01*
X00945454Y00301797D01*
X00951795D01*
X00952296Y00301046D01*
X00953537Y00300218D01*
X00955000Y00299926D01*
X00960000D01*
X00961463Y00300218D01*
X00962704Y00301046D01*
X00962787Y00301172D01*
X00968222D01*
X00969308Y00300446D01*
X00970625Y00300184D01*
X00974375D01*
X00975692Y00300446D01*
X00976808Y00301192D01*
X00977554Y00302308D01*
X00977816Y00303625D01*
Y00306375D01*
X00978330Y00307001D01*
X00989922D01*
X00990898Y00307195D01*
X00991725Y00307747D01*
X00992277Y00308574D01*
X00992471Y00309550D01*
Y00332590D01*
X00992277Y00333566D01*
X00991725Y00334393D01*
X00984315Y00341802D01*
X00983488Y00342355D01*
X00982513Y00342549D01*
X00967037D01*
X00966061Y00342355D01*
X00965234Y00341802D01*
X00964682Y00340975D01*
X00964488Y00340000D01*
Y00326605D01*
X00961511Y00324811D01*
X00961288Y00324817D01*
X00960000Y00325073D01*
X00959500D01*
Y00319500D01*
X00957500D01*
Y00317500D01*
X00951226D01*
X00951468Y00316287D01*
X00952296Y00315046D01*
X00952334Y00315021D01*
X00952715Y00311547D01*
X00952629Y00311268D01*
X00951150Y00309953D01*
X00948017D01*
X00946283Y00313037D01*
X00946574Y00314500D01*
Y00318000D01*
X00946283Y00319463D01*
X00945454Y00320704D01*
X00944213Y00321533D01*
X00942750Y00321824D01*
X00938250D01*
X00936787Y00321533D01*
X00935866Y00320917D01*
X00935487Y00320704D01*
X00932514D01*
X00932134Y00320917D01*
X00931213Y00321533D01*
X00929750Y00321824D01*
X00929500D01*
Y00316250D01*
X00927500D01*
Y00314809D01*
X00925250D01*
X00923488Y00314577D01*
X00922699Y00314250D01*
X00919919D01*
X00918685Y00313483D01*
X00917358Y00313990D01*
X00917154Y00314146D01*
X00915512Y00314826D01*
X00913750Y00315058D01*
X00910250D01*
X00908488Y00314826D01*
X00906846Y00314146D01*
X00905000Y00313271D01*
X00903154Y00314146D01*
X00901512Y00314826D01*
X00899750Y00315058D01*
X00896250D01*
X00894488Y00314826D01*
X00892846Y00314146D01*
X00891436Y00313064D01*
X00890541Y00311898D01*
X00883697D01*
X00875708Y00319887D01*
Y00323000D01*
X00875476Y00324762D01*
X00874796Y00326404D01*
X00873714Y00327814D01*
X00872304Y00328896D01*
X00870662Y00329576D01*
X00868900Y00329808D01*
X00865400D01*
X00863638Y00329576D01*
X00861996Y00328896D01*
X00860586Y00327814D01*
X00859714D01*
X00858304Y00328896D01*
X00856662Y00329576D01*
X00854900Y00329808D01*
X00851400D01*
X00849638Y00329576D01*
X00847996Y00328896D01*
X00846586Y00327814D01*
X00845504Y00326404D01*
X00844824Y00324762D01*
X00844592Y00323000D01*
Y00319886D01*
X00827903Y00303197D01*
X00826570Y00301203D01*
X00826102Y00298850D01*
X00826102Y00298850D01*
Y00292881D01*
X00824596Y00292582D01*
X00822781Y00291369D01*
X00822400Y00290798D01*
X00760629D01*
X00759535Y00291638D01*
X00757588Y00292444D01*
X00755500Y00292719D01*
X00753412Y00292444D01*
X00751466Y00291638D01*
X00749794Y00290356D01*
X00749248Y00289644D01*
X00746048Y00290730D01*
Y00314405D01*
X00794824Y00363180D01*
X00798472Y00362303D01*
X00798485Y00362270D01*
X00799607Y00360807D01*
X00801070Y00359686D01*
X00802600Y00359052D01*
Y00367300D01*
X00806600D01*
Y00359052D01*
X00808130Y00359686D01*
X00808921Y00360293D01*
X00810168Y00358668D01*
X00812257Y00357065D01*
X00814689Y00356057D01*
X00817300Y00355714D01*
X00819911Y00356057D01*
X00822343Y00357065D01*
X00823650Y00358068D01*
X00824957Y00357065D01*
X00827390Y00356057D01*
X00830000Y00355714D01*
X00832610Y00356057D01*
X00835043Y00357065D01*
X00836350Y00358068D01*
X00837657Y00357065D01*
X00840089Y00356057D01*
X00842700Y00355714D01*
X00845311Y00356057D01*
X00847743Y00357065D01*
X00849050Y00358068D01*
X00850357Y00357065D01*
X00852790Y00356057D01*
X00855400Y00355714D01*
X00858010Y00356057D01*
X00860443Y00357065D01*
X00862532Y00358668D01*
X00864135Y00360757D01*
X00865143Y00363190D01*
X00865486Y00365800D01*
Y00368800D01*
X00865259Y00370523D01*
X00867221Y00373723D01*
X00869582D01*
X00869582Y00373723D01*
X00871817Y00374167D01*
X00873712Y00375434D01*
X00881941Y00383663D01*
X00881941Y00383663D01*
X00883208Y00385558D01*
X00883652Y00387793D01*
Y00408664D01*
X00883208Y00410900D01*
X00881941Y00412795D01*
X00881941Y00412795D01*
X00867795Y00426941D01*
X00865900Y00428208D01*
X00863664Y00428652D01*
X00863664Y00428652D01*
X00792928D01*
X00792927Y00428652D01*
X00790692Y00428208D01*
X00788797Y00426941D01*
X00788797Y00426941D01*
X00693008Y00331152D01*
X00607434D01*
X00605198Y00330708D01*
X00603303Y00329441D01*
X00603303Y00329441D01*
X00550818Y00276956D01*
X00549837Y00277273D01*
X00547954Y00278618D01*
X00548136Y00280000D01*
X00547861Y00282088D01*
X00547055Y00284035D01*
X00545773Y00285706D01*
X00544102Y00286988D01*
X00542156Y00287794D01*
X00540067Y00288069D01*
X00537979Y00287794D01*
X00536033Y00286988D01*
X00534938Y00286148D01*
X00534571D01*
X00532040Y00288797D01*
X00532047Y00289834D01*
X00532219Y00290700D01*
X00522500D01*
X00512781D01*
X00512953Y00289834D01*
X00512968Y00287736D01*
X00511782Y00286265D01*
X00511614Y00286136D01*
X00510572Y00284778D01*
X00509917Y00283197D01*
X00509694Y00281500D01*
Y00278500D01*
X00509694Y00278498D01*
X00506710Y00276652D01*
X00505759Y00277295D01*
Y00297615D01*
X00544885Y00336741D01*
X00691536D01*
X00691536Y00336741D01*
X00693772Y00337186D01*
X00695667Y00338452D01*
X00710263Y00353048D01*
X00710263Y00353048D01*
X00711529Y00354943D01*
X00711974Y00357179D01*
Y00373736D01*
X00711529Y00375971D01*
X00710263Y00377866D01*
X00710263Y00377866D01*
X00700857Y00387272D01*
X00700300Y00387644D01*
Y00390500D01*
X00693300D01*
Y00392500D01*
X00691300D01*
Y00399500D01*
X00688984D01*
X00687732Y00401132D01*
X00685643Y00402735D01*
X00683211Y00403743D01*
X00680600Y00404086D01*
X00677990Y00403743D01*
X00675557Y00402735D01*
X00674250Y00401732D01*
X00672943Y00402735D01*
X00670510Y00403743D01*
X00667900Y00404086D01*
X00665290Y00403743D01*
X00662857Y00402735D01*
X00661550Y00401732D01*
X00660243Y00402735D01*
X00657811Y00403743D01*
X00655200Y00404086D01*
X00652589Y00403743D01*
X00650157Y00402735D01*
X00648850Y00401732D01*
X00647543Y00402735D01*
X00645110Y00403743D01*
X00642500Y00404086D01*
X00639889Y00403743D01*
X00637457Y00402735D01*
X00635368Y00401132D01*
X00633765Y00399043D01*
X00632757Y00396610D01*
X00632414Y00394000D01*
Y00391000D01*
X00632729Y00388605D01*
X00632706Y00388321D01*
X00630530Y00385406D01*
X00604331D01*
X00555606Y00434131D01*
X00553711Y00435397D01*
X00551475Y00435841D01*
X00551475Y00435841D01*
X00457132D01*
X00454896Y00435397D01*
X00453001Y00434131D01*
X00453001Y00434130D01*
X00420952Y00402081D01*
X00419686Y00400186D01*
X00419241Y00397951D01*
X00419241Y00397951D01*
Y00261385D01*
X00387161Y00229305D01*
X00369806D01*
Y00229950D01*
X00369583Y00231647D01*
X00368928Y00233228D01*
X00367886Y00234586D01*
X00367718Y00234715D01*
X00366532Y00236185D01*
X00366547Y00238284D01*
X00366819Y00239650D01*
Y00242650D01*
X00366547Y00244016D01*
X00366532Y00246114D01*
X00367718Y00247585D01*
X00367886Y00247714D01*
X00368928Y00249072D01*
X00369583Y00250653D01*
X00369806Y00252350D01*
Y00252994D01*
X00384836D01*
X00384836Y00252994D01*
X00387071Y00253439D01*
X00388966Y00254705D01*
X00403495Y00269234D01*
X00403495Y00269234D01*
X00404761Y00271129D01*
X00405206Y00273364D01*
X00405205Y00273364D01*
Y00319958D01*
X00407088Y00320206D01*
X00409035Y00321012D01*
X00410706Y00322294D01*
X00411988Y00323965D01*
X00412794Y00325912D01*
X00413069Y00328000D01*
X00412794Y00330088D01*
X00411988Y00332034D01*
X00410706Y00333706D01*
X00409035Y00334988D01*
X00407088Y00335794D01*
X00405000Y00336069D01*
X00402912Y00335794D01*
X00400965Y00334988D01*
X00400330Y00334500D01*
X00395671D01*
X00395034Y00334988D01*
X00393088Y00335794D01*
X00391000Y00336069D01*
X00388912Y00335794D01*
X00388888Y00335784D01*
X00387076Y00338497D01*
X00392083Y00343505D01*
X00392083Y00343505D01*
X00393368Y00345427D01*
X00393819Y00347695D01*
X00393819Y00347695D01*
Y00374198D01*
X00393819Y00374198D01*
X00393368Y00376466D01*
X00392083Y00378388D01*
X00392083Y00378388D01*
X00383430Y00387042D01*
X00381507Y00388327D01*
X00379240Y00388778D01*
X00379239Y00388778D01*
X00374500D01*
Y00390500D01*
X00367500D01*
Y00392500D01*
X00365500D01*
Y00399500D01*
X00363184D01*
X00361932Y00401132D01*
X00359843Y00402735D01*
X00357411Y00403743D01*
X00354800Y00404086D01*
X00352189Y00403743D01*
X00349757Y00402735D01*
X00348450Y00401732D01*
X00347143Y00402735D01*
X00344711Y00403743D01*
X00342100Y00404086D01*
X00339490Y00403743D01*
X00337057Y00402735D01*
X00335750Y00401732D01*
X00334443Y00402735D01*
X00332010Y00403743D01*
X00329400Y00404086D01*
X00326790Y00403743D01*
X00324357Y00402735D01*
X00323050Y00401732D01*
X00321743Y00402735D01*
X00319310Y00403743D01*
X00316700Y00404086D01*
X00314090Y00403743D01*
X00311657Y00402735D01*
X00309568Y00401132D01*
X00307965Y00399043D01*
X00306957Y00396610D01*
X00306614Y00394000D01*
Y00391000D01*
X00306831Y00389352D01*
X00304835Y00386152D01*
X00290723D01*
X00290723Y00386152D01*
X00288488Y00385708D01*
X00286593Y00384441D01*
X00268891Y00366740D01*
X00267625Y00364845D01*
X00267180Y00362609D01*
X00267180Y00362609D01*
Y00286120D01*
X00267180Y00286120D01*
X00267625Y00283885D01*
X00268891Y00281989D01*
X00283475Y00267405D01*
X00283475Y00267405D01*
X00285370Y00266139D01*
X00287606Y00265694D01*
X00290313Y00264148D01*
X00290417Y00263353D01*
X00291072Y00261772D01*
X00292114Y00260414D01*
X00292282Y00260285D01*
X00293468Y00258814D01*
X00293453Y00256716D01*
X00293281Y00255850D01*
X00303000D01*
X00312719D01*
X00312547Y00256716D01*
X00312532Y00258814D01*
X00313718Y00260285D01*
X00313886Y00260414D01*
X00314928Y00261772D01*
X00315583Y00263353D01*
X00315806Y00265050D01*
Y00268050D01*
X00315583Y00269747D01*
X00314928Y00271328D01*
X00314011Y00272900D01*
X00314928Y00274472D01*
X00315583Y00276053D01*
X00315806Y00277750D01*
Y00280750D01*
X00315583Y00282447D01*
X00314928Y00284028D01*
X00314011Y00285600D01*
X00314928Y00287172D01*
X00315583Y00288753D01*
X00315806Y00290450D01*
Y00293450D01*
X00315583Y00295147D01*
X00314928Y00296728D01*
X00313886Y00298086D01*
X00312528Y00299128D01*
X00310947Y00299783D01*
X00309250Y00300006D01*
X00296750D01*
X00295053Y00299783D01*
X00293472Y00299128D01*
X00292130Y00298098D01*
X00290129D01*
X00289035Y00298938D01*
X00287088Y00299744D01*
X00285000Y00300019D01*
X00284791Y00299991D01*
X00281591Y00302396D01*
Y00359060D01*
X00294273Y00371741D01*
X00307225D01*
X00309255Y00369100D01*
X00316700D01*
Y00367100D01*
X00318700D01*
Y00358852D01*
X00320230Y00359486D01*
X00321021Y00360093D01*
X00322268Y00358468D01*
X00324357Y00356865D01*
X00326790Y00355857D01*
X00329400Y00355514D01*
X00332010Y00355857D01*
X00334443Y00356865D01*
X00335750Y00357868D01*
X00337057Y00356865D01*
X00339490Y00355857D01*
X00342100Y00355514D01*
X00344711Y00355857D01*
X00347143Y00356865D01*
X00348450Y00357868D01*
X00349757Y00356865D01*
X00352189Y00355857D01*
X00354800Y00355514D01*
X00357411Y00355857D01*
X00359843Y00356865D01*
X00361150Y00357868D01*
X00362457Y00356865D01*
X00364889Y00355857D01*
X00367500Y00355514D01*
X00370111Y00355857D01*
X00372543Y00356865D01*
X00374632Y00358468D01*
X00375874Y00360087D01*
X00377646Y00359890D01*
X00379075Y00359215D01*
Y00351348D01*
X00373546Y00345819D01*
X00353801D01*
X00351534Y00345368D01*
X00349612Y00344083D01*
X00349612Y00344083D01*
X00322917Y00317388D01*
X00321632Y00315466D01*
X00321181Y00313199D01*
X00321181Y00313198D01*
Y00226885D01*
X00318441Y00224906D01*
X00316086Y00225949D01*
X00315803Y00226929D01*
X00315806Y00226950D01*
Y00229950D01*
X00315583Y00231647D01*
X00314928Y00233228D01*
X00314011Y00234800D01*
X00314928Y00236372D01*
X00315583Y00237953D01*
X00315806Y00239650D01*
Y00242650D01*
X00315583Y00244347D01*
X00314928Y00245928D01*
X00313886Y00247286D01*
X00313718Y00247415D01*
X00312532Y00248885D01*
X00312547Y00250984D01*
X00312719Y00251850D01*
X00303000D01*
X00293281D01*
X00293453Y00250984D01*
X00293468Y00248885D01*
X00292282Y00247415D01*
X00292114Y00247286D01*
X00291072Y00245928D01*
X00290417Y00244347D01*
X00290194Y00242650D01*
Y00242172D01*
X00281498D01*
X00280342Y00243328D01*
X00280294Y00243694D01*
X00279488Y00245640D01*
X00278206Y00247311D01*
X00276535Y00248594D01*
X00274588Y00249400D01*
X00272500Y00249675D01*
X00270412Y00249400D01*
X00268465Y00248594D01*
X00266794Y00247311D01*
X00265512Y00245640D01*
X00264706Y00243694D01*
X00264431Y00241606D01*
X00264706Y00239517D01*
X00265512Y00237571D01*
X00266000Y00236935D01*
Y00232276D01*
X00265512Y00231640D01*
X00264706Y00229694D01*
X00264431Y00227606D01*
X00264706Y00225517D01*
X00265512Y00223571D01*
X00266794Y00221900D01*
X00268465Y00220618D01*
X00270412Y00219812D01*
X00272500Y00219537D01*
X00274588Y00219812D01*
X00276535Y00220618D01*
X00278206Y00221900D01*
X00279488Y00223571D01*
X00280294Y00225517D01*
X00280403Y00226346D01*
X00281485Y00227428D01*
X00290194D01*
Y00226950D01*
X00290417Y00225253D01*
X00291072Y00223672D01*
X00291989Y00222100D01*
X00291072Y00220528D01*
X00290417Y00218947D01*
X00290194Y00217250D01*
Y00214250D01*
X00290255Y00213786D01*
X00289628Y00212043D01*
X00289407Y00211705D01*
X00287847Y00210397D01*
X00287483Y00210330D01*
X00287237Y00210233D01*
X00286978Y00210182D01*
X00286969Y00210176D01*
X00286966Y00210175D01*
X00286779Y00210050D01*
X00286559Y00209963D01*
X00286369Y00209779D01*
X00286149Y00209633D01*
X00286146Y00209630D01*
X00286143Y00209625D01*
X00286139Y00209622D01*
X00275707Y00199191D01*
X00275707Y00199190D01*
X00275707Y00199190D01*
X00275672Y00199139D01*
X00275623Y00199103D01*
X00275623Y00199102D01*
X00275397Y00198727D01*
X00275154Y00198363D01*
X00275142Y00198303D01*
X00275110Y00198250D01*
X00275045Y00197818D01*
X00274960Y00197388D01*
X00274960Y00196253D01*
X00274960Y00164943D01*
X00272003Y00163718D01*
X00248032Y00187689D01*
Y00317893D01*
X00248032Y00317893D01*
X00247581Y00320161D01*
X00246297Y00322083D01*
X00246297Y00322083D01*
X00238727Y00329653D01*
Y00364058D01*
X00238727Y00364058D01*
X00238276Y00366325D01*
X00236992Y00368248D01*
X00236992Y00368248D01*
X00233199Y00372041D01*
X00233198Y00372041D01*
X00218499Y00386740D01*
X00216577Y00388025D01*
X00214309Y00388476D01*
X00212991Y00390700D01*
X00205800D01*
Y00392700D01*
X00203800D01*
Y00399700D01*
X00201484D01*
X00200232Y00401332D01*
X00198143Y00402935D01*
X00195711Y00403943D01*
X00193100Y00404286D01*
X00190490Y00403943D01*
X00188057Y00402935D01*
X00186750Y00401932D01*
X00185443Y00402935D01*
X00183011Y00403943D01*
X00180400Y00404286D01*
X00177789Y00403943D01*
X00175357Y00402935D01*
X00174050Y00401932D01*
X00172743Y00402935D01*
X00170310Y00403943D01*
X00167700Y00404286D01*
X00165089Y00403943D01*
X00162657Y00402935D01*
X00161350Y00401932D01*
X00160043Y00402935D01*
X00157611Y00403943D01*
X00155000Y00404286D01*
X00152389Y00403943D01*
X00149957Y00402935D01*
X00147868Y00401332D01*
X00146265Y00399243D01*
X00145257Y00396810D01*
X00144914Y00394200D01*
Y00391200D01*
X00145257Y00388590D01*
X00145408Y00388226D01*
X00145779Y00385651D01*
X00144022Y00383823D01*
X00143970Y00383788D01*
X00143969Y00383788D01*
X00134738Y00374556D01*
X00133472Y00372661D01*
X00133027Y00370425D01*
X00133027Y00370425D01*
Y00348581D01*
X00133027Y00348581D01*
X00133472Y00346345D01*
X00134738Y00344450D01*
X00135538Y00343650D01*
X00135538Y00343650D01*
X00135709Y00343479D01*
X00134383Y00340279D01*
X00050230Y00340279D01*
X00049254Y00340085D01*
X00048428Y00339532D01*
X00041250Y00332355D01*
X00034766Y00338839D01*
X00034302Y00339533D01*
X00033475Y00340085D01*
X00032500Y00340279D01*
X00010230D01*
X00009255Y00340085D01*
X00008428Y00339533D01*
X00007035Y00338139D01*
X00004078Y00339364D01*
Y00396901D01*
X00007278Y00397538D01*
X00008718Y00394061D01*
X00011597Y00389364D01*
X00015175Y00385175D01*
X00019364Y00381597D01*
X00024061Y00378718D01*
X00029151Y00376610D01*
X00034508Y00375324D01*
X00040000Y00374892D01*
X00045492Y00375324D01*
X00050849Y00376610D01*
X00055939Y00378718D01*
X00060636Y00381597D01*
X00064825Y00385175D01*
X00068403Y00389364D01*
X00071282Y00394061D01*
X00073390Y00399151D01*
X00074676Y00404508D01*
X00075108Y00410000D01*
X00074676Y00415492D01*
X00073390Y00420849D01*
X00071282Y00425939D01*
X00068403Y00430636D01*
X00064825Y00434825D01*
X00060636Y00438403D01*
X00055939Y00441282D01*
X00052462Y00442722D01*
X00053099Y00445922D01*
X00946901D01*
X00947538Y00442722D01*
D02*
G37*
G36*
X00157000Y00359052D02*
X00158530Y00359686D01*
X00159321Y00360293D01*
X00160568Y00358668D01*
X00162657Y00357065D01*
X00165089Y00356057D01*
X00167700Y00355714D01*
X00170310Y00356057D01*
X00172743Y00357065D01*
X00174050Y00358068D01*
X00175357Y00357065D01*
X00177789Y00356057D01*
X00180400Y00355714D01*
X00183011Y00356057D01*
X00185443Y00357065D01*
X00186750Y00358068D01*
X00188057Y00357065D01*
X00190490Y00356057D01*
X00193100Y00355714D01*
X00195711Y00356057D01*
X00198143Y00357065D01*
X00199450Y00358068D01*
X00200757Y00357065D01*
X00203190Y00356057D01*
X00205800Y00355714D01*
X00208410Y00356057D01*
X00210843Y00357065D01*
X00212932Y00358668D01*
X00214535Y00360757D01*
X00215543Y00363190D01*
X00215674Y00364188D01*
X00219053Y00365335D01*
X00223983Y00360405D01*
Y00326000D01*
X00223983Y00326000D01*
X00224434Y00323732D01*
X00225718Y00321810D01*
X00233288Y00314240D01*
Y00184037D01*
X00233288Y00184037D01*
X00233314Y00183905D01*
X00230365Y00182328D01*
X00225842Y00186851D01*
Y00307379D01*
X00225842Y00307379D01*
X00225398Y00309615D01*
X00224131Y00311511D01*
X00193781Y00341861D01*
X00191885Y00343128D01*
X00189650Y00343572D01*
X00189650Y00343572D01*
X00156001D01*
X00147441Y00352132D01*
Y00358895D01*
X00148455Y00359650D01*
X00150641Y00360321D01*
X00151470Y00359686D01*
X00153000Y00359052D01*
Y00367300D01*
X00157000D01*
Y00359052D01*
D02*
G37*
G36*
X00596650Y00372705D02*
X00596650Y00372705D01*
X00598545Y00371439D01*
X00600781Y00370994D01*
X00632594D01*
X00634845Y00369100D01*
X00642500D01*
Y00367100D01*
X00644500D01*
Y00358852D01*
X00646030Y00359486D01*
X00646821Y00360093D01*
X00648068Y00358468D01*
X00650157Y00356865D01*
X00652589Y00355857D01*
X00655200Y00355514D01*
X00657811Y00355857D01*
X00660243Y00356865D01*
X00661550Y00357868D01*
X00662857Y00356865D01*
X00665290Y00355857D01*
X00667900Y00355514D01*
X00670510Y00355857D01*
X00672943Y00356865D01*
X00674250Y00357868D01*
X00675557Y00356865D01*
X00677990Y00355857D01*
X00680600Y00355514D01*
X00683211Y00355857D01*
X00685643Y00356865D01*
X00685999Y00357138D01*
X00687977Y00356218D01*
X00688732Y00352750D01*
X00687351Y00351152D01*
X00541336D01*
X00539100Y00350708D01*
X00537205Y00349441D01*
X00537205Y00349441D01*
X00498261Y00310497D01*
X00495305Y00311722D01*
Y00329408D01*
X00495305Y00329409D01*
X00494860Y00331644D01*
X00493594Y00333539D01*
X00493594Y00333539D01*
X00470759Y00356374D01*
Y00361256D01*
X00473646Y00362008D01*
X00473959Y00361974D01*
X00475008Y00360607D01*
X00476470Y00359486D01*
X00478000Y00358852D01*
Y00367100D01*
X00482000D01*
Y00358852D01*
X00483530Y00359486D01*
X00484321Y00360093D01*
X00485568Y00358468D01*
X00487657Y00356865D01*
X00490089Y00355857D01*
X00492700Y00355514D01*
X00495311Y00355857D01*
X00497743Y00356865D01*
X00499050Y00357868D01*
X00500357Y00356865D01*
X00502789Y00355857D01*
X00505400Y00355514D01*
X00508010Y00355857D01*
X00510443Y00356865D01*
X00511750Y00357868D01*
X00513057Y00356865D01*
X00515490Y00355857D01*
X00518100Y00355514D01*
X00520710Y00355857D01*
X00523143Y00356865D01*
X00524450Y00357868D01*
X00525757Y00356865D01*
X00528190Y00355857D01*
X00530800Y00355514D01*
X00533410Y00355857D01*
X00535843Y00356865D01*
X00537932Y00358468D01*
X00539535Y00360557D01*
X00540543Y00362990D01*
X00540886Y00365600D01*
Y00368600D01*
X00540543Y00371211D01*
X00540476Y00371372D01*
X00540514Y00371859D01*
X00542446Y00374913D01*
X00542965Y00375016D01*
X00544860Y00376283D01*
X00548167Y00379589D01*
X00548167Y00379589D01*
X00549433Y00381484D01*
X00549878Y00383720D01*
Y00399822D01*
X00549878Y00399822D01*
X00549433Y00402057D01*
X00548167Y00403952D01*
X00533646Y00418474D01*
X00534870Y00421430D01*
X00547925D01*
X00596650Y00372705D01*
D02*
G37*
G36*
X00383337Y00330405D02*
X00383206Y00330088D01*
X00382931Y00328000D01*
X00383206Y00325912D01*
X00384012Y00323965D01*
X00385294Y00322294D01*
X00386965Y00321012D01*
X00388912Y00320206D01*
X00390794Y00319958D01*
Y00276914D01*
X00384084Y00270203D01*
X00381488Y00271938D01*
X00382294Y00273884D01*
X00382569Y00275973D01*
X00382294Y00278061D01*
X00381488Y00280007D01*
X00380206Y00281678D01*
X00378535Y00282961D01*
X00376588Y00283767D01*
X00374500Y00284042D01*
X00372412Y00283767D01*
X00370466Y00282961D01*
X00368928Y00284028D01*
X00367886Y00285386D01*
X00367718Y00285515D01*
X00366532Y00286985D01*
X00366547Y00289084D01*
X00366719Y00289950D01*
X00357000D01*
X00347281D01*
X00347453Y00289084D01*
X00347468Y00286985D01*
X00346282Y00285515D01*
X00346114Y00285386D01*
X00345072Y00284028D01*
X00344417Y00282447D01*
X00344194Y00280750D01*
Y00277750D01*
X00344417Y00276053D01*
X00345072Y00274472D01*
X00345989Y00272900D01*
X00345072Y00271328D01*
X00344417Y00269747D01*
X00344194Y00268050D01*
Y00265050D01*
X00344417Y00263353D01*
X00345072Y00261772D01*
X00345989Y00260200D01*
X00345072Y00258628D01*
X00344417Y00257047D01*
X00344194Y00255350D01*
Y00252350D01*
X00344417Y00250653D01*
X00345072Y00249072D01*
X00345666Y00248298D01*
X00345543Y00248018D01*
X00343751Y00245665D01*
X00342500Y00245914D01*
X00340549Y00245526D01*
X00339126Y00244574D01*
X00337946Y00244841D01*
X00335925Y00245736D01*
Y00309546D01*
X00357454Y00331074D01*
X00377198D01*
X00377198Y00331074D01*
X00379466Y00331525D01*
X00380671Y00332331D01*
X00383337Y00330405D01*
D02*
G37*
G36*
X00032500Y00337500D02*
X00039694Y00330306D01*
X00039592Y00329334D01*
X00038451Y00328585D01*
X00037500Y00328774D01*
Y00322500D01*
Y00316226D01*
X00038713Y00316468D01*
X00038750Y00316492D01*
X00040000Y00315824D01*
Y00306249D01*
X00036376Y00302625D01*
X00006695D01*
X00004078Y00305242D01*
Y00331578D01*
X00010230Y00337730D01*
X00032500D01*
Y00337500D01*
D02*
G37*
G36*
X00989922Y00332590D02*
Y00309550D01*
X00976601D01*
X00976221Y00310800D01*
X00976808Y00311192D01*
X00977554Y00312308D01*
X00977692Y00313000D01*
X00972500D01*
Y00315000D01*
X00970500D01*
Y00319791D01*
X00969308Y00319554D01*
X00968287Y00318872D01*
X00967808Y00318981D01*
X00967037Y00319329D01*
Y00340000D01*
X00982513D01*
X00989922Y00332590D01*
D02*
G37*
G36*
X00655143Y00297131D02*
X00655512Y00295652D01*
X00654953Y00294816D01*
X00654781Y00293950D01*
X00664500D01*
Y00289950D01*
X00654781D01*
X00654953Y00289084D01*
X00654960Y00288047D01*
X00652429Y00285398D01*
X00650000D01*
X00650000Y00285398D01*
X00647647Y00284930D01*
X00645653Y00283597D01*
X00645653Y00283597D01*
X00626447Y00264392D01*
X00625034Y00264688D01*
X00623306Y00265776D01*
Y00268050D01*
X00623083Y00269747D01*
X00622428Y00271328D01*
X00621511Y00272900D01*
X00622428Y00274472D01*
X00623083Y00276053D01*
X00623306Y00277750D01*
Y00280750D01*
X00623083Y00282447D01*
X00623018Y00282602D01*
X00624721Y00285602D01*
X00625013Y00285802D01*
X00628546D01*
X00628546Y00285802D01*
X00630899Y00286270D01*
X00632894Y00287603D01*
X00644143Y00298852D01*
X00654275D01*
X00655143Y00297131D01*
D02*
G37*
G36*
X00878544Y00300239D02*
X00878797Y00300070D01*
X00881150Y00299602D01*
X00887882D01*
X00889207Y00296402D01*
X00874530Y00281724D01*
X00871219Y00281869D01*
X00869799Y00282818D01*
Y00282818D01*
X00869404Y00283082D01*
X00867262Y00283508D01*
X00861750D01*
Y00286650D01*
X00869799D01*
Y00287412D01*
X00869606Y00288383D01*
X00869056Y00289206D01*
X00868233Y00289756D01*
X00867262Y00289949D01*
X00865624D01*
X00864400Y00292905D01*
X00867287Y00295792D01*
X00868900D01*
X00870662Y00296024D01*
X00872304Y00296704D01*
X00873714Y00297786D01*
X00874702Y00299073D01*
X00874819Y00299203D01*
X00878328Y00300281D01*
X00878544Y00300239D01*
D02*
G37*
G36*
X00804980Y00278065D02*
X00804995Y00278051D01*
X00805434Y00277454D01*
X00805899Y00276463D01*
X00806181Y00275604D01*
X00806195Y00275302D01*
X00806167Y00275079D01*
X00806086Y00274675D01*
X00806104Y00274588D01*
X00806092Y00274501D01*
X00806167Y00273411D01*
X00806193Y00273316D01*
X00806188Y00273218D01*
X00805847Y00272422D01*
X00802927Y00271784D01*
X00802237Y00271886D01*
X00801213Y00272570D01*
X00800000Y00272812D01*
Y00266538D01*
Y00260264D01*
X00801213Y00260506D01*
X00801683Y00260820D01*
X00803285Y00260974D01*
X00803808Y00260866D01*
X00805579Y00260252D01*
X00805714Y00259934D01*
X00805719Y00259711D01*
X00805675Y00259492D01*
Y00244274D01*
X00805723Y00244033D01*
X00803081Y00242149D01*
X00769929Y00275302D01*
X00770512Y00277572D01*
X00771153Y00278502D01*
X00804471D01*
X00804980Y00278065D01*
D02*
G37*
G36*
X00157871Y00316138D02*
X00158012Y00290262D01*
X00158012Y00283550D01*
X00165000Y00276562D01*
X00165000Y00254976D01*
X00152859Y00246307D01*
Y00234084D01*
X00149714D01*
Y00235250D01*
X00140586D01*
Y00234084D01*
X00138869D01*
Y00250500D01*
X00137846Y00251497D01*
Y00254343D01*
X00138805Y00254705D01*
X00139096Y00254763D01*
X00140287Y00253968D01*
X00141500Y00253726D01*
Y00260000D01*
Y00266274D01*
X00140287Y00266032D01*
X00139096Y00265237D01*
X00138805Y00265295D01*
X00137846Y00265657D01*
Y00269343D01*
X00138805Y00269705D01*
X00139096Y00269763D01*
X00140287Y00268968D01*
X00141500Y00268726D01*
Y00275000D01*
Y00281274D01*
X00140287Y00281033D01*
X00139096Y00280237D01*
X00138805Y00280295D01*
X00137846Y00280657D01*
Y00282130D01*
X00133856Y00286120D01*
X00116120D01*
X00110000Y00280000D01*
Y00238148D01*
X00103303Y00231451D01*
X00082384D01*
X00081892Y00232092D01*
X00081130Y00232677D01*
Y00234223D01*
X00081892Y00234808D01*
X00083014Y00236270D01*
X00083720Y00237973D01*
X00083960Y00239800D01*
X00083720Y00241627D01*
X00083014Y00243330D01*
X00081892Y00244792D01*
X00081130Y00245378D01*
Y00246922D01*
X00081892Y00247508D01*
X00083014Y00248970D01*
X00083720Y00250673D01*
X00083960Y00252500D01*
X00083720Y00254327D01*
X00083014Y00256030D01*
X00081892Y00257492D01*
X00080430Y00258615D01*
X00078727Y00259320D01*
X00076900Y00259560D01*
X00073900D01*
X00072073Y00259320D01*
X00070370Y00258615D01*
X00068908Y00257492D01*
X00067786Y00256030D01*
X00067080Y00254327D01*
X00066840Y00252500D01*
X00067080Y00250673D01*
X00067786Y00248970D01*
X00068908Y00247508D01*
X00069670Y00246922D01*
Y00245378D01*
X00068908Y00244792D01*
X00067786Y00243330D01*
X00067080Y00241627D01*
X00066840Y00239800D01*
X00067080Y00237973D01*
X00067786Y00236270D01*
X00068908Y00234808D01*
X00069670Y00234223D01*
Y00232677D01*
X00068908Y00232092D01*
X00068416Y00231451D01*
X00056984D01*
X00056492Y00232092D01*
X00055730Y00232677D01*
Y00234223D01*
X00056492Y00234808D01*
X00057614Y00236270D01*
X00058320Y00237973D01*
X00058560Y00239800D01*
X00058320Y00241627D01*
X00057614Y00243330D01*
X00056909Y00244250D01*
X00057000Y00245500D01*
X00057000Y00245500D01*
X00057000Y00245500D01*
Y00250500D01*
X00050000D01*
X00043000D01*
Y00245500D01*
X00043000Y00245500D01*
X00043000D01*
X00043091Y00244250D01*
X00042386Y00243330D01*
X00041680Y00241627D01*
X00041440Y00239800D01*
X00041680Y00237973D01*
X00042386Y00236270D01*
X00043508Y00234808D01*
X00044270Y00234223D01*
Y00232677D01*
X00043508Y00232092D01*
X00043016Y00231451D01*
X00036049D01*
X00025000Y00242500D01*
Y00290000D01*
X00035076Y00300076D01*
X00036376D01*
X00037351Y00300270D01*
X00038178Y00300822D01*
X00041802Y00304446D01*
X00042355Y00305273D01*
X00042549Y00306249D01*
Y00315824D01*
X00042500Y00316070D01*
Y00330000D01*
X00050230Y00337730D01*
X00136279Y00337730D01*
X00157871Y00316138D01*
D02*
G37*
G36*
X00838852Y00273994D02*
Y00272007D01*
X00837763Y00270949D01*
X00834250D01*
Y00265650D01*
Y00260351D01*
X00837389D01*
X00837905Y00259395D01*
X00837943Y00259138D01*
X00821988Y00243182D01*
X00809315Y00243182D01*
X00808224Y00244274D01*
Y00259492D01*
X00809474Y00260369D01*
X00810000Y00260264D01*
Y00266538D01*
Y00272812D01*
X00809801Y00272772D01*
X00808710Y00273585D01*
X00808635Y00274675D01*
X00809933Y00275973D01*
X00836874Y00275973D01*
X00838852Y00273994D01*
D02*
G37*
G36*
X00739000Y00266214D02*
X00739294Y00265830D01*
X00740965Y00264548D01*
X00742912Y00263742D01*
X00745000Y00263467D01*
X00747088Y00263742D01*
X00749035Y00264548D01*
X00750129Y00265388D01*
X00762453D01*
X00767586Y00260255D01*
X00766361Y00257299D01*
X00762237D01*
X00761267Y00257106D01*
X00760444Y00256556D01*
X00759894Y00255733D01*
X00759701Y00254762D01*
Y00254000D01*
X00767750D01*
Y00250858D01*
X00762238D01*
X00760096Y00250432D01*
X00759701Y00250168D01*
Y00250168D01*
X00758281Y00249219D01*
X00757068Y00247404D01*
X00756981Y00246965D01*
X00755561Y00246683D01*
X00753566Y00245350D01*
X00753566Y00245350D01*
X00751153Y00242936D01*
X00750252Y00242848D01*
X00748055Y00244958D01*
X00747808Y00245415D01*
X00748932Y00247096D01*
X00749358Y00249237D01*
Y00254762D01*
X00748932Y00256904D01*
X00747719Y00258719D01*
X00745904Y00259932D01*
X00743763Y00260357D01*
X00733144D01*
X00732402Y00261316D01*
X00731668Y00263407D01*
X00735123Y00266862D01*
X00739000Y00266214D01*
D02*
G37*
G36*
X00452094Y00268155D02*
X00452094Y00268155D01*
X00453989Y00266889D01*
X00455694Y00266550D01*
Y00265800D01*
X00455917Y00264103D01*
X00456572Y00262522D01*
X00457614Y00261164D01*
X00457783Y00261035D01*
X00458968Y00259564D01*
X00458953Y00257466D01*
X00458781Y00256600D01*
X00468500D01*
Y00252600D01*
X00458781D01*
X00458953Y00251734D01*
X00458968Y00249636D01*
X00457783Y00248165D01*
X00457614Y00248036D01*
X00456572Y00246678D01*
X00455917Y00245097D01*
X00455694Y00243400D01*
Y00242728D01*
X00446231D01*
X00445794Y00244444D01*
X00444988Y00246390D01*
X00443706Y00248061D01*
X00442034Y00249344D01*
X00440088Y00250150D01*
X00438000Y00250425D01*
X00435912Y00250150D01*
X00433965Y00249344D01*
X00432294Y00248061D01*
X00431012Y00246390D01*
X00430206Y00244444D01*
X00429931Y00242356D01*
X00430206Y00240267D01*
X00431012Y00238321D01*
X00431500Y00237685D01*
Y00233026D01*
X00431012Y00232390D01*
X00430206Y00230444D01*
X00429931Y00228356D01*
X00430206Y00226267D01*
X00431012Y00224321D01*
X00432294Y00222650D01*
X00433965Y00221368D01*
X00435912Y00220562D01*
X00438000Y00220287D01*
X00438590Y00220364D01*
X00440084Y00217334D01*
X00437053Y00214302D01*
X00436501Y00213475D01*
X00436307Y00212500D01*
X00434682Y00210618D01*
Y00204005D01*
Y00197296D01*
X00436307Y00194792D01*
Y00184069D01*
X00433350Y00182844D01*
X00408797Y00207397D01*
X00406803Y00208730D01*
X00404450Y00209198D01*
X00404450Y00209198D01*
X00379696D01*
X00378602Y00210038D01*
X00376656Y00210844D01*
X00374567Y00211119D01*
X00374138Y00211062D01*
X00371939Y00213946D01*
X00372373Y00214894D01*
X00390711D01*
X00390711Y00214894D01*
X00392946Y00215339D01*
X00394841Y00216605D01*
X00431941Y00253705D01*
X00431941Y00253705D01*
X00433208Y00255600D01*
X00433652Y00257836D01*
Y00282306D01*
X00435831Y00283288D01*
X00436852Y00283397D01*
X00452094Y00268155D01*
D02*
G37*
G36*
X00597694Y00265050D02*
X00597917Y00263353D01*
X00598572Y00261772D01*
X00599614Y00260414D01*
X00599782Y00260285D01*
X00600968Y00258814D01*
X00600953Y00256716D01*
X00600781Y00255850D01*
X00610500D01*
Y00251850D01*
X00600781D01*
X00600953Y00250984D01*
X00600968Y00248885D01*
X00599782Y00247415D01*
X00599614Y00247286D01*
X00598572Y00245928D01*
X00597917Y00244347D01*
X00597694Y00242650D01*
Y00242172D01*
X00591979D01*
X00590905Y00243246D01*
X00590794Y00244088D01*
X00589988Y00246035D01*
X00588706Y00247706D01*
X00587034Y00248988D01*
X00585088Y00249794D01*
X00583000Y00250069D01*
X00580912Y00249794D01*
X00578965Y00248988D01*
X00577294Y00247706D01*
X00576012Y00246035D01*
X00575206Y00244088D01*
X00574931Y00242000D01*
X00575206Y00239912D01*
X00576012Y00237966D01*
X00576500Y00237330D01*
Y00232670D01*
X00576012Y00232034D01*
X00575206Y00230088D01*
X00574931Y00228000D01*
X00575206Y00225912D01*
X00576012Y00223965D01*
X00577294Y00222294D01*
X00578965Y00221012D01*
X00580912Y00220206D01*
X00581828Y00220085D01*
X00583099Y00217131D01*
X00583109Y00216841D01*
X00576217Y00209948D01*
X00570636D01*
X00569542Y00210788D01*
X00567596Y00211594D01*
X00565508Y00211869D01*
X00563376Y00214816D01*
Y00238628D01*
X00590442Y00265694D01*
X00597694D01*
Y00265050D01*
D02*
G37*
G36*
X00853602Y00247039D02*
Y00240527D01*
X00850402Y00238312D01*
X00850150Y00238362D01*
X00848199Y00237974D01*
X00846545Y00236869D01*
X00845440Y00235215D01*
X00845052Y00233264D01*
X00845440Y00231313D01*
X00845576Y00231109D01*
X00845655Y00228867D01*
X00844375Y00227381D01*
X00844102Y00227296D01*
X00840634Y00227658D01*
X00840604Y00227704D01*
X00839363Y00228532D01*
X00838150Y00228774D01*
Y00222500D01*
X00836150D01*
Y00220500D01*
X00830576D01*
Y00220000D01*
X00830868Y00218537D01*
X00831696Y00217296D01*
X00832937Y00216468D01*
X00834400Y00216176D01*
X00835837D01*
X00836746Y00213985D01*
X00836963Y00212976D01*
X00836424Y00212171D01*
X00836191Y00211000D01*
Y00204000D01*
X00835902Y00203648D01*
X00826459D01*
X00825564Y00204814D01*
X00824154Y00205896D01*
X00822512Y00206576D01*
X00820750Y00206808D01*
X00817250D01*
X00815488Y00206576D01*
X00814348Y00206104D01*
X00812607Y00206798D01*
X00811148Y00207859D01*
Y00225388D01*
X00819036D01*
X00819036Y00225388D01*
X00821389Y00225856D01*
X00823383Y00227188D01*
X00848418Y00252223D01*
X00853602Y00247039D01*
D02*
G37*
G36*
X00749392Y00238790D02*
X00749352Y00238589D01*
X00749352Y00238589D01*
Y00222000D01*
X00749352Y00222000D01*
X00749820Y00219647D01*
X00751153Y00217653D01*
X00752500Y00216305D01*
Y00202550D01*
X00752174Y00201762D01*
X00751942Y00200000D01*
Y00195000D01*
X00752174Y00193238D01*
X00752500Y00192450D01*
Y00187550D01*
X00752174Y00186762D01*
X00751942Y00185000D01*
Y00180000D01*
X00752174Y00178238D01*
X00752500Y00177450D01*
Y00172550D01*
X00752174Y00171762D01*
X00751942Y00170000D01*
Y00169521D01*
X00747736Y00165315D01*
X00732185Y00165315D01*
X00730099Y00167401D01*
X00730100Y00218199D01*
X00723101Y00225198D01*
Y00230906D01*
X00729167Y00236973D01*
X00730320Y00236357D01*
X00730201Y00235762D01*
Y00235000D01*
X00736250D01*
Y00238299D01*
X00732738D01*
X00732143Y00238180D01*
X00731527Y00239333D01*
X00735377Y00243182D01*
X00745000D01*
X00749392Y00238790D01*
D02*
G37*
G36*
X00688367Y00267188D02*
X00688367Y00267188D01*
X00690361Y00265856D01*
X00692714Y00265388D01*
X00692714Y00265388D01*
X00707514D01*
X00709742Y00262601D01*
X00709705Y00261825D01*
X00680142Y00232261D01*
X00679865Y00232206D01*
X00676473Y00233118D01*
X00676428Y00233228D01*
X00675386Y00234586D01*
X00675218Y00234715D01*
X00674032Y00236185D01*
X00674047Y00238284D01*
X00674319Y00239650D01*
Y00242650D01*
X00674047Y00244016D01*
X00674032Y00246114D01*
X00675218Y00247585D01*
X00675386Y00247714D01*
X00676428Y00249072D01*
X00677083Y00250653D01*
X00677306Y00252350D01*
Y00255350D01*
X00677083Y00257047D01*
X00676428Y00258628D01*
X00675511Y00260200D01*
X00676428Y00261772D01*
X00677083Y00263353D01*
X00677306Y00265050D01*
Y00268050D01*
X00677083Y00269747D01*
X00677019Y00269902D01*
X00678721Y00272901D01*
X00679013Y00273102D01*
X00682453D01*
X00688367Y00267188D01*
D02*
G37*
G36*
X00482605Y00254353D02*
X00490197Y00246760D01*
Y00226912D01*
X00489591Y00226134D01*
X00486997Y00224447D01*
X00486067Y00224569D01*
X00483979Y00224294D01*
X00483809Y00224224D01*
X00482420Y00225131D01*
X00481160Y00226590D01*
X00481306Y00227700D01*
Y00230700D01*
X00481083Y00232397D01*
X00480428Y00233978D01*
X00479386Y00235336D01*
Y00235764D01*
X00480428Y00237122D01*
X00481083Y00238703D01*
X00481306Y00240400D01*
Y00243400D01*
X00481083Y00245097D01*
X00480428Y00246678D01*
X00479386Y00248036D01*
X00479218Y00248165D01*
X00478032Y00249636D01*
X00478047Y00251734D01*
X00478319Y00253100D01*
Y00255446D01*
X00481338Y00256248D01*
X00482605Y00254353D01*
D02*
G37*
G36*
X00314612Y00207956D02*
X00316700Y00207681D01*
X00317000Y00207418D01*
Y00198110D01*
X00310204Y00191314D01*
X00308787Y00191032D01*
X00307546Y00190204D01*
X00306718Y00188963D01*
X00306436Y00187546D01*
X00305000Y00186110D01*
X00305000Y00153725D01*
X00304823Y00153652D01*
X00303573Y00154487D01*
Y00157500D01*
X00303282Y00158963D01*
X00302454Y00160204D01*
X00301213Y00161032D01*
X00300000Y00161274D01*
Y00155000D01*
X00298000D01*
Y00153000D01*
X00292426D01*
Y00152500D01*
X00292426Y00152500D01*
X00285000Y00152500D01*
X00277509Y00159991D01*
X00277509Y00196253D01*
X00277509Y00197388D01*
X00277509Y00197388D01*
X00287941Y00207820D01*
X00287944Y00207823D01*
X00289104Y00208037D01*
X00293482D01*
X00293683Y00207777D01*
X00294035Y00206787D01*
X00293453Y00205916D01*
X00293281Y00205050D01*
X00303000D01*
X00312719D01*
X00312547Y00205916D01*
X00311965Y00206787D01*
X00312317Y00207777D01*
X00312519Y00208037D01*
X00314416D01*
X00314612Y00207956D01*
D02*
G37*
G36*
X00625000Y00198110D02*
X00618204Y00191314D01*
X00616787Y00191032D01*
X00615546Y00190204D01*
X00614718Y00188963D01*
X00614436Y00187546D01*
X00613000Y00186110D01*
X00613000Y00130305D01*
X00608025Y00125330D01*
X00584420Y00125330D01*
X00576385Y00133365D01*
X00576385Y00193935D01*
X00580434Y00197984D01*
X00581116Y00198120D01*
X00583111Y00199453D01*
X00591695Y00208037D01*
X00600981Y00208037D01*
X00601183Y00207777D01*
X00601535Y00206787D01*
X00600953Y00205916D01*
X00600781Y00205050D01*
X00610500D01*
X00620219D01*
X00620047Y00205916D01*
X00619465Y00206787D01*
X00619818Y00207777D01*
X00620019Y00208037D01*
X00625000D01*
Y00198110D01*
D02*
G37*
G36*
X00720132Y00224569D02*
X00720705Y00224245D01*
X00720825Y00224104D01*
X00721298Y00223396D01*
X00723170Y00221523D01*
X00721845Y00218323D01*
X00721351D01*
X00719888Y00218032D01*
X00718647Y00217204D01*
X00717818Y00215963D01*
X00717527Y00214500D01*
Y00214000D01*
X00723101D01*
Y00212000D01*
X00725101D01*
Y00205394D01*
X00725209Y00205353D01*
X00727551Y00203238D01*
X00727551Y00167401D01*
X00727642Y00166939D01*
X00727744Y00166425D01*
X00727745Y00166425D01*
X00727745Y00166425D01*
X00728001Y00166042D01*
X00728297Y00165598D01*
X00730382Y00163513D01*
X00730382Y00163512D01*
X00730382Y00163512D01*
X00730655Y00163330D01*
X00731209Y00162960D01*
X00731209Y00162960D01*
X00731209Y00162960D01*
X00731700Y00162862D01*
X00732185Y00162766D01*
X00732185Y00162766D01*
X00732185Y00162766D01*
X00747736Y00162766D01*
X00748711Y00162960D01*
X00748711Y00162960D01*
X00749044Y00163183D01*
X00749674Y00163194D01*
X00750805Y00162935D01*
X00752271Y00162267D01*
X00753397Y00159111D01*
X00752854Y00158404D01*
X00752174Y00156762D01*
X00751942Y00155000D01*
Y00150000D01*
X00752174Y00148238D01*
X00752854Y00146596D01*
X00753936Y00145186D01*
X00755346Y00144104D01*
X00756988Y00143424D01*
X00757562Y00143348D01*
X00757353Y00140148D01*
X00735000D01*
X00732647Y00139680D01*
X00730653Y00138347D01*
X00730653Y00138347D01*
X00713653Y00121347D01*
X00712320Y00119353D01*
X00711852Y00117000D01*
X00711852Y00117000D01*
Y00113264D01*
X00708652Y00111125D01*
X00708224Y00111302D01*
X00704700Y00111767D01*
X00701549Y00111352D01*
X00700385Y00111651D01*
X00698349Y00113012D01*
Y00122361D01*
X00697904Y00124596D01*
X00696638Y00126491D01*
X00696638Y00126491D01*
X00645841Y00177288D01*
Y00192650D01*
X00646475Y00193447D01*
X00649041Y00195107D01*
X00650000Y00194981D01*
X00652088Y00195256D01*
X00654035Y00196062D01*
X00654380Y00196327D01*
X00654972Y00195872D01*
X00656553Y00195217D01*
X00658250Y00194994D01*
X00670750D01*
X00672447Y00195217D01*
X00674028Y00195872D01*
X00675370Y00196902D01*
X00686550D01*
X00686550Y00196902D01*
X00688903Y00197370D01*
X00690897Y00198703D01*
X00717573Y00225379D01*
X00720132Y00224569D01*
D02*
G37*
G36*
X00548965Y00196997D02*
Y00166557D01*
X00545765Y00166242D01*
X00545504Y00167550D01*
X00544238Y00169445D01*
X00520896Y00192787D01*
X00522121Y00195744D01*
X00528750D01*
X00530447Y00195967D01*
X00532028Y00196622D01*
X00533370Y00197652D01*
X00534938D01*
X00536033Y00196812D01*
X00537979Y00196006D01*
X00540067Y00195731D01*
X00542156Y00196006D01*
X00544102Y00196812D01*
X00545773Y00198094D01*
X00548965Y00196997D01*
D02*
G37*
G36*
X00833534Y00173021D02*
X00833132Y00171000D01*
Y00164000D01*
X00833598Y00161659D01*
X00834924Y00159674D01*
X00835066Y00158231D01*
X00833803Y00156967D01*
X00832470Y00154973D01*
X00832002Y00152620D01*
X00832002Y00152620D01*
Y00141620D01*
X00832002Y00141620D01*
X00832470Y00139267D01*
X00833803Y00137272D01*
X00834471Y00136604D01*
X00833246Y00133648D01*
X00822547D01*
X00811148Y00145047D01*
Y00172140D01*
X00812607Y00173202D01*
X00814348Y00173896D01*
X00815488Y00173424D01*
X00817250Y00173192D01*
X00820750D01*
X00822512Y00173424D01*
X00824154Y00174104D01*
X00825564Y00175186D01*
X00826459Y00176352D01*
X00830203D01*
X00833534Y00173021D01*
D02*
G37*
G36*
X00865952Y00180000D02*
X00868452Y00177500D01*
X00868452Y00162500D01*
X00862922Y00156970D01*
X00862500D01*
Y00144490D01*
X00861560Y00143726D01*
X00860644Y00143925D01*
X00860210Y00145180D01*
X00860782Y00146037D01*
X00861073Y00147500D01*
Y00148000D01*
X00855500D01*
Y00150000D01*
X00853500D01*
Y00156274D01*
X00852287Y00156032D01*
X00851258Y00155345D01*
X00850357Y00156246D01*
X00851460Y00157897D01*
X00851774Y00159472D01*
X00852076Y00159674D01*
X00852922Y00160941D01*
X00854250D01*
X00855421Y00161174D01*
X00855494Y00161223D01*
X00856500Y00161788D01*
X00857506Y00161223D01*
X00857579Y00161174D01*
X00857750Y00161140D01*
Y00167500D01*
Y00173860D01*
X00857579Y00173826D01*
X00857506Y00173777D01*
X00856500Y00173212D01*
X00855494Y00173777D01*
X00855421Y00173826D01*
X00854250Y00174059D01*
X00852922D01*
X00852076Y00175326D01*
X00850889Y00176119D01*
X00850705Y00177707D01*
X00852978Y00180000D01*
X00865952Y00180000D01*
D02*
G37*
G36*
X00451535Y00220736D02*
X00455694Y00216577D01*
Y00215000D01*
X00455917Y00213303D01*
X00456572Y00211722D01*
X00457614Y00210364D01*
X00458972Y00209322D01*
X00459434Y00209131D01*
X00459675Y00208054D01*
X00459639Y00207693D01*
X00458953Y00206666D01*
X00458781Y00205800D01*
X00468500D01*
X00478219D01*
X00478047Y00206666D01*
X00477361Y00207693D01*
X00477325Y00208054D01*
X00477566Y00209131D01*
X00478028Y00209322D01*
X00478911Y00210000D01*
X00481397D01*
X00482033Y00209512D01*
X00483979Y00208706D01*
X00484918Y00208582D01*
X00485000Y00208500D01*
Y00202500D01*
X00480000Y00197500D01*
X00471220Y00188720D01*
X00471221Y00162255D01*
X00466920Y00157954D01*
X00458241Y00157954D01*
X00438856Y00177339D01*
Y00212500D01*
X00447092Y00220736D01*
X00451535Y00220736D01*
D02*
G37*
G36*
X00490749Y00203130D02*
X00491908Y00201395D01*
X00522855Y00170448D01*
X00522860Y00168900D01*
X00522257Y00166521D01*
X00521771Y00166148D01*
X00507500D01*
X00505147Y00165680D01*
X00503153Y00164347D01*
X00503153Y00164347D01*
X00489953Y00151148D01*
X00466626D01*
X00465836Y00152205D01*
X00466519Y00154222D01*
X00467372Y00155495D01*
X00467895Y00155599D01*
X00468722Y00156152D01*
X00473023Y00160452D01*
X00473575Y00161279D01*
X00474222Y00162493D01*
X00475218Y00163017D01*
X00476221Y00163395D01*
Y00170000D01*
X00478220D01*
Y00172000D01*
X00483794D01*
Y00172500D01*
X00483503Y00173963D01*
X00482674Y00175204D01*
X00481811Y00175780D01*
X00481608Y00177500D01*
X00481811Y00179220D01*
X00482674Y00179796D01*
X00483503Y00181037D01*
X00483794Y00182500D01*
Y00183000D01*
X00478220D01*
Y00187000D01*
X00483794D01*
Y00187500D01*
X00483503Y00188963D01*
X00482674Y00190204D01*
X00481571Y00190941D01*
X00481423Y00191075D01*
X00480560Y00194455D01*
X00481802Y00195698D01*
X00481802Y00195698D01*
X00486802Y00200698D01*
X00487355Y00201525D01*
X00487549Y00202500D01*
X00490511Y00203171D01*
X00490749Y00203130D01*
D02*
G37*
G36*
X00319408Y00194081D02*
X00321301Y00193199D01*
X00321632Y00191534D01*
X00322917Y00189612D01*
X00329612Y00182917D01*
X00329612Y00182917D01*
X00331534Y00181632D01*
X00333802Y00181181D01*
X00333802Y00181181D01*
X00394517D01*
X00425832Y00149866D01*
X00424506Y00146666D01*
X00317529D01*
X00316582Y00149422D01*
X00316500Y00149866D01*
X00317282Y00151037D01*
X00317574Y00152500D01*
Y00153000D01*
X00312000D01*
Y00157000D01*
X00317574D01*
Y00157500D01*
X00317282Y00158963D01*
X00316454Y00160204D01*
X00315591Y00160780D01*
X00315387Y00162500D01*
X00315591Y00164220D01*
X00316454Y00164796D01*
X00317282Y00166037D01*
X00317574Y00167500D01*
Y00168000D01*
X00312000D01*
Y00172000D01*
X00317574D01*
Y00172500D01*
X00317282Y00173963D01*
X00316454Y00175204D01*
X00315591Y00175780D01*
X00315387Y00177500D01*
X00315591Y00179220D01*
X00316454Y00179796D01*
X00317282Y00181037D01*
X00317574Y00182500D01*
Y00183000D01*
X00312000D01*
Y00187000D01*
X00317574D01*
Y00187500D01*
X00317282Y00188963D01*
X00316454Y00190203D01*
X00316352Y00192970D01*
X00317981Y00194307D01*
X00319408Y00194081D01*
D02*
G37*
G36*
X00631430Y00209684D02*
Y00173738D01*
X00631430Y00173738D01*
X00631875Y00171503D01*
X00633141Y00169608D01*
X00683938Y00118811D01*
Y00114073D01*
X00680738Y00111577D01*
X00679300Y00111767D01*
X00675776Y00111302D01*
X00672492Y00109942D01*
X00669672Y00107778D01*
X00668535Y00106297D01*
X00668247Y00106161D01*
X00664954D01*
X00664665Y00106297D01*
X00663528Y00107778D01*
X00660708Y00109942D01*
X00657424Y00111302D01*
X00653900Y00111767D01*
X00650376Y00111302D01*
X00647092Y00109942D01*
X00644272Y00107778D01*
X00643135Y00106297D01*
X00642847Y00106161D01*
X00639553D01*
X00639265Y00106297D01*
X00638128Y00107778D01*
X00635308Y00109942D01*
X00632024Y00111302D01*
X00628500Y00111767D01*
X00624976Y00111302D01*
X00621692Y00109942D01*
X00618872Y00107778D01*
X00617735Y00106297D01*
X00617447Y00106161D01*
X00614154D01*
X00613865Y00106297D01*
X00612728Y00107778D01*
X00609908Y00109942D01*
X00606624Y00111302D01*
X00603100Y00111767D01*
X00599576Y00111302D01*
X00596292Y00109942D01*
X00593472Y00107778D01*
X00592335Y00106297D01*
X00592047Y00106161D01*
X00588754D01*
X00588465Y00106297D01*
X00587328Y00107778D01*
X00584508Y00109942D01*
X00581224Y00111302D01*
X00577700Y00111767D01*
X00574176Y00111302D01*
X00570904Y00112578D01*
X00569638Y00114473D01*
X00569638Y00114473D01*
X00563376Y00120735D01*
Y00192784D01*
X00565508Y00195731D01*
X00567596Y00196006D01*
X00569542Y00196812D01*
X00571694Y00196413D01*
X00573836Y00193935D01*
X00573836Y00133365D01*
X00574030Y00132390D01*
X00574582Y00131563D01*
X00582618Y00123528D01*
X00583445Y00122975D01*
X00584420Y00122781D01*
X00608025Y00122781D01*
X00609000Y00122975D01*
X00609827Y00123527D01*
X00614802Y00128503D01*
X00615355Y00129330D01*
X00615549Y00130305D01*
Y00146239D01*
X00618000Y00148451D01*
Y00155000D01*
X00620000D01*
Y00157000D01*
X00625574D01*
Y00157500D01*
X00625283Y00158963D01*
X00624454Y00160204D01*
X00623591Y00160780D01*
X00623387Y00162500D01*
X00623591Y00164220D01*
X00624454Y00164796D01*
X00625283Y00166037D01*
X00625574Y00167500D01*
Y00168000D01*
X00620000D01*
Y00172000D01*
X00625574D01*
Y00172500D01*
X00625283Y00173963D01*
X00624454Y00175204D01*
X00623591Y00175780D01*
X00623387Y00177500D01*
X00623591Y00179220D01*
X00624454Y00179796D01*
X00625282Y00181037D01*
X00625574Y00182500D01*
Y00183000D01*
X00620000D01*
Y00187000D01*
X00625574D01*
Y00187500D01*
X00625282Y00188963D01*
X00624454Y00190203D01*
X00624321Y00193826D01*
X00626802Y00196308D01*
X00627355Y00197135D01*
X00627549Y00198110D01*
Y00208037D01*
X00627355Y00209012D01*
X00626927Y00210290D01*
X00627126Y00211006D01*
X00628230Y00211599D01*
X00631430Y00209684D01*
D02*
G37*
G36*
X00522865Y00153012D02*
X00524812Y00152206D01*
X00526900Y00151931D01*
X00528338Y00152120D01*
X00530206Y00151056D01*
X00531538Y00149798D01*
Y00114073D01*
X00528338Y00111577D01*
X00526900Y00111767D01*
X00523500Y00111319D01*
X00522835Y00111304D01*
X00520300Y00113273D01*
Y00118717D01*
X00520300Y00118717D01*
X00519849Y00120985D01*
X00518564Y00122907D01*
X00518564Y00122908D01*
X00502388Y00139083D01*
X00500839Y00140119D01*
X00500329Y00141233D01*
X00499932Y00143737D01*
X00510047Y00153852D01*
X00521771D01*
X00522865Y00153012D01*
D02*
G37*
G36*
X00503707Y00116913D02*
X00503617Y00114339D01*
X00501500Y00111767D01*
X00497976Y00111302D01*
X00494692Y00109942D01*
X00491872Y00107778D01*
X00490735Y00106297D01*
X00490447Y00106161D01*
X00487154D01*
X00486865Y00106297D01*
X00485728Y00107778D01*
X00482908Y00109942D01*
X00479624Y00111302D01*
X00476100Y00111767D01*
X00472688Y00111317D01*
X00472022Y00111293D01*
X00469488Y00113272D01*
Y00114272D01*
X00469488Y00114272D01*
X00469037Y00116540D01*
X00467753Y00118462D01*
X00467753Y00118462D01*
X00463097Y00123118D01*
X00464322Y00126074D01*
X00494546D01*
X00503707Y00116913D01*
D02*
G37*
G36*
X00815652Y00123153D02*
X00815653Y00123153D01*
X00817647Y00121820D01*
X00820000Y00121352D01*
X00848041D01*
X00848936Y00120186D01*
X00850346Y00119104D01*
X00851988Y00118424D01*
X00853241Y00118259D01*
X00860250Y00111250D01*
Y00095500D01*
X00857250Y00092500D01*
X00842750D01*
X00837891Y00097359D01*
Y00104750D01*
X00814750Y00104750D01*
X00810250Y00109250D01*
X00810250Y00121610D01*
X00813640Y00125000D01*
X00813805D01*
X00815652Y00123153D01*
D02*
G37*
%LPC*%
G36*
X00862400Y00399700D02*
X00857400D01*
Y00394700D01*
X00862400D01*
Y00399700D01*
D02*
G37*
G36*
X00212800D02*
X00207800D01*
Y00394700D01*
X00212800D01*
Y00399700D01*
D02*
G37*
G36*
X00374500Y00399500D02*
X00369500D01*
Y00394500D01*
X00374500D01*
Y00399500D01*
D02*
G37*
G36*
X00700300D02*
X00695300D01*
Y00394500D01*
X00700300D01*
Y00399500D01*
D02*
G37*
G36*
X00314700Y00365100D02*
X00309706D01*
X00309880Y00363773D01*
X00310585Y00362070D01*
X00311708Y00360607D01*
X00313170Y00359486D01*
X00314700Y00358852D01*
Y00365100D01*
D02*
G37*
G36*
X00955500Y00325073D02*
X00955000D01*
X00953537Y00324782D01*
X00952296Y00323954D01*
X00951468Y00322713D01*
X00951226Y00321500D01*
X00955500D01*
Y00325073D01*
D02*
G37*
G36*
X00925500Y00321824D02*
X00925250D01*
X00923787Y00321533D01*
X00922546Y00320704D01*
X00921718Y00319463D01*
X00921476Y00318250D01*
X00925500D01*
Y00321824D01*
D02*
G37*
G36*
X00176875Y00305850D02*
X00173000D01*
Y00299500D01*
X00182100D01*
Y00300625D01*
X00181703Y00302625D01*
X00180570Y00304320D01*
X00178875Y00305453D01*
X00176875Y00305850D01*
D02*
G37*
G36*
X00528750Y00297768D02*
X00524500D01*
Y00294700D01*
X00532219D01*
X00532047Y00295566D01*
X00531273Y00296723D01*
X00530116Y00297497D01*
X00528750Y00297768D01*
D02*
G37*
G36*
X00520500D02*
X00516250D01*
X00514884Y00297497D01*
X00513727Y00296723D01*
X00512953Y00295566D01*
X00512781Y00294700D01*
X00520500D01*
Y00297768D01*
D02*
G37*
G36*
X00182100Y00295500D02*
X00173000D01*
Y00289150D01*
X00176875D01*
X00178875Y00289547D01*
X00180570Y00290680D01*
X00181703Y00292375D01*
X00182100Y00294375D01*
Y00295500D01*
D02*
G37*
G36*
X00975250Y00283223D02*
X00974750D01*
Y00279650D01*
X00979024D01*
X00978783Y00280863D01*
X00977954Y00282104D01*
X00976713Y00282932D01*
X00975250Y00283223D01*
D02*
G37*
G36*
X00127500Y00258000D02*
X00123926D01*
Y00257500D01*
X00124218Y00256037D01*
X00125046Y00254796D01*
X00126287Y00253968D01*
X00127500Y00253726D01*
Y00258000D01*
D02*
G37*
G36*
X00169000Y00224000D02*
X00153500D01*
Y00212000D01*
X00169000D01*
Y00224000D01*
D02*
G37*
G36*
X00149500D02*
X00134000D01*
Y00212000D01*
X00149500D01*
Y00224000D01*
D02*
G37*
G36*
X00776500Y00203774D02*
Y00199500D01*
X00780073D01*
Y00200000D01*
X00779782Y00201463D01*
X00778954Y00202704D01*
X00777713Y00203532D01*
X00776500Y00203774D01*
D02*
G37*
G36*
X00169000Y00208000D02*
X00153500D01*
Y00196000D01*
X00169000D01*
Y00208000D01*
D02*
G37*
G36*
X00149500D02*
X00134000D01*
Y00196000D01*
X00149500D01*
Y00208000D01*
D02*
G37*
G36*
X00159100Y00192064D02*
X00156600D01*
X00155332Y00191811D01*
X00154257Y00191093D01*
X00153539Y00190018D01*
X00153286Y00188750D01*
X00153029Y00188539D01*
X00152427Y00188659D01*
X00150598D01*
X00149714Y00188750D01*
X00149461Y00190018D01*
X00148743Y00191093D01*
X00147668Y00191811D01*
X00146400Y00192064D01*
X00143900D01*
X00142632Y00191811D01*
X00141557Y00191093D01*
X00140839Y00190018D01*
X00140586Y00188750D01*
X00140495Y00188659D01*
X00137014Y00188659D01*
X00137014Y00188750D01*
X00136761Y00190018D01*
X00136043Y00191093D01*
X00134968Y00191811D01*
X00133700Y00192064D01*
X00131200D01*
X00129932Y00191811D01*
X00128857Y00191093D01*
X00128139Y00190018D01*
X00127886Y00188750D01*
Y00188659D01*
X00103775Y00188659D01*
X00103417Y00188588D01*
X00103053Y00188555D01*
X00102933Y00188492D01*
X00102800Y00188465D01*
X00102496Y00188262D01*
X00102172Y00188092D01*
X00088397Y00176955D01*
X00088310Y00176851D01*
X00088198Y00176775D01*
X00087995Y00176471D01*
X00087761Y00176191D01*
X00087720Y00176061D01*
X00087645Y00175948D01*
X00087574Y00175590D01*
X00087465Y00175241D01*
X00087478Y00175106D01*
X00087451Y00174973D01*
X00087451Y00060000D01*
X00087645Y00059025D01*
X00088198Y00058198D01*
X00093198Y00053198D01*
X00094024Y00052645D01*
X00095000Y00052451D01*
X00136500D01*
X00137475Y00052645D01*
X00138302Y00053198D01*
X00141802Y00056698D01*
X00142355Y00057524D01*
X00142549Y00058500D01*
X00144750Y00061177D01*
X00148250D01*
X00149713Y00061468D01*
X00150954Y00062296D01*
X00151782Y00063537D01*
X00151861Y00063931D01*
X00161521D01*
X00162186Y00062936D01*
X00163592Y00061997D01*
X00165250Y00061667D01*
X00169750D01*
X00171408Y00061997D01*
X00172814Y00062936D01*
X00173753Y00064342D01*
X00174083Y00066000D01*
Y00075500D01*
X00173753Y00077158D01*
X00172814Y00078564D01*
X00171408Y00079503D01*
X00169750Y00079833D01*
X00165250D01*
X00163592Y00079503D01*
X00162186Y00078564D01*
X00161247Y00077158D01*
X00160917Y00075500D01*
Y00071069D01*
X00151861D01*
X00151782Y00071463D01*
X00150954Y00072704D01*
X00149713Y00073532D01*
X00148250Y00073823D01*
X00144750D01*
X00142823Y00076250D01*
X00144500Y00078362D01*
Y00085000D01*
X00146500D01*
Y00087000D01*
X00152073D01*
Y00087500D01*
X00151782Y00088963D01*
X00150954Y00090204D01*
X00150840Y00091360D01*
X00154229Y00094749D01*
X00154782Y00095576D01*
X00154976Y00096552D01*
Y00097803D01*
X00158125Y00099547D01*
X00160125Y00099150D01*
X00164000D01*
Y00107500D01*
Y00115850D01*
X00160125D01*
X00158125Y00115453D01*
X00154976Y00117197D01*
Y00122803D01*
X00158125Y00124547D01*
X00160125Y00124150D01*
X00164000D01*
Y00132500D01*
Y00140850D01*
X00160125D01*
X00158125Y00140453D01*
X00154976Y00142197D01*
Y00142500D01*
X00154782Y00143476D01*
X00154229Y00144302D01*
X00149401Y00149131D01*
X00148489Y00150477D01*
X00148802Y00151795D01*
X00150075Y00153841D01*
X00150713Y00153968D01*
X00151954Y00154796D01*
X00152322Y00155348D01*
X00153452Y00155599D01*
X00154748D01*
X00155878Y00155348D01*
X00156246Y00154796D01*
X00157487Y00153968D01*
X00158950Y00153677D01*
X00162450D01*
X00163913Y00153968D01*
X00165154Y00154796D01*
X00165982Y00156037D01*
X00166069Y00156470D01*
X00169331D01*
X00169418Y00156037D01*
X00170246Y00154796D01*
X00171487Y00153968D01*
X00172700Y00153726D01*
Y00160000D01*
Y00166274D01*
X00171487Y00166032D01*
X00170246Y00165204D01*
X00169418Y00163963D01*
X00169331Y00163529D01*
X00166069D01*
X00165982Y00163963D01*
X00165154Y00165204D01*
X00163913Y00166032D01*
X00162498Y00166314D01*
Y00170000D01*
X00162418Y00170399D01*
Y00181750D01*
X00162414Y00181775D01*
Y00188750D01*
X00162161Y00190018D01*
X00161443Y00191093D01*
X00160368Y00191811D01*
X00159100Y00192064D01*
D02*
G37*
G36*
X00172550Y00191915D02*
Y00184750D01*
X00175114D01*
Y00188750D01*
X00174861Y00190018D01*
X00174143Y00191093D01*
X00173068Y00191811D01*
X00172550Y00191915D01*
D02*
G37*
G36*
X00168550D02*
X00168032Y00191811D01*
X00166957Y00191093D01*
X00166239Y00190018D01*
X00165986Y00188750D01*
Y00184750D01*
X00168550D01*
Y00191915D01*
D02*
G37*
G36*
X00175114Y00180750D02*
X00172550D01*
Y00173585D01*
X00173068Y00173689D01*
X00174143Y00174407D01*
X00174861Y00175482D01*
X00175114Y00176750D01*
Y00180750D01*
D02*
G37*
G36*
X00168550D02*
X00165986D01*
Y00176750D01*
X00166239Y00175482D01*
X00166957Y00174407D01*
X00168032Y00173689D01*
X00168550Y00173585D01*
Y00180750D01*
D02*
G37*
G36*
X00176700Y00166274D02*
Y00162000D01*
X00180273D01*
Y00162500D01*
X00179982Y00163963D01*
X00179154Y00165204D01*
X00177913Y00166032D01*
X00176700Y00166274D01*
D02*
G37*
G36*
X00180273Y00158000D02*
X00176700D01*
Y00153726D01*
X00177913Y00153968D01*
X00179154Y00154796D01*
X00179982Y00156037D01*
X00180273Y00157500D01*
Y00158000D01*
D02*
G37*
G36*
X00875073Y00148000D02*
X00871500D01*
Y00143726D01*
X00872713Y00143968D01*
X00873954Y00144796D01*
X00874782Y00146037D01*
X00875073Y00147500D01*
Y00148000D01*
D02*
G37*
G36*
X00171875Y00140850D02*
X00168000D01*
Y00134500D01*
X00177100D01*
Y00135625D01*
X00176703Y00137625D01*
X00175570Y00139320D01*
X00173875Y00140453D01*
X00171875Y00140850D01*
D02*
G37*
G36*
X00926100Y00190360D02*
X00923100D01*
X00921273Y00190120D01*
X00919570Y00189415D01*
X00918108Y00188292D01*
X00916985Y00186830D01*
X00916280Y00185127D01*
X00916040Y00183300D01*
X00916280Y00181473D01*
X00916985Y00179770D01*
X00918108Y00178307D01*
Y00175592D01*
X00916985Y00174130D01*
X00916280Y00172427D01*
X00916040Y00170600D01*
X00916280Y00168773D01*
X00916985Y00167070D01*
X00918108Y00165607D01*
Y00162892D01*
X00916985Y00161430D01*
X00916280Y00159727D01*
X00916040Y00157900D01*
X00916280Y00156073D01*
X00916985Y00154370D01*
X00918108Y00152907D01*
Y00150192D01*
X00916985Y00148730D01*
X00916280Y00147027D01*
X00916040Y00145200D01*
X00916280Y00143373D01*
X00916985Y00141670D01*
X00918108Y00140208D01*
Y00137492D01*
X00916985Y00136030D01*
X00916352Y00134500D01*
X00924600D01*
X00932848D01*
X00932215Y00136030D01*
X00931092Y00137492D01*
Y00140208D01*
X00932215Y00141670D01*
X00932920Y00143373D01*
X00933160Y00145200D01*
X00932920Y00147027D01*
X00932215Y00148730D01*
X00931092Y00150192D01*
Y00152908D01*
X00932215Y00154370D01*
X00932920Y00156073D01*
X00933160Y00157900D01*
X00932920Y00159727D01*
X00932215Y00161430D01*
X00931092Y00162892D01*
Y00165608D01*
X00932215Y00167070D01*
X00932920Y00168773D01*
X00933160Y00170600D01*
X00932920Y00172427D01*
X00932215Y00174130D01*
X00931092Y00175592D01*
Y00178308D01*
X00932215Y00179770D01*
X00932920Y00181473D01*
X00933160Y00183300D01*
X00932920Y00185127D01*
X00932215Y00186830D01*
X00931092Y00188292D01*
X00929630Y00189415D01*
X00927927Y00190120D01*
X00926100Y00190360D01*
D02*
G37*
G36*
X00932848Y00130500D02*
X00926600D01*
Y00125506D01*
X00927927Y00125680D01*
X00929630Y00126385D01*
X00931092Y00127507D01*
X00932215Y00128970D01*
X00932848Y00130500D01*
D02*
G37*
G36*
X00922600D02*
X00916352D01*
X00916985Y00128970D01*
X00918108Y00127507D01*
X00919570Y00126385D01*
X00921273Y00125680D01*
X00922600Y00125505D01*
Y00130500D01*
D02*
G37*
G36*
X00177100Y00130500D02*
X00168000D01*
Y00124150D01*
X00171875D01*
X00173875Y00124547D01*
X00175570Y00125680D01*
X00176703Y00127375D01*
X00177100Y00129375D01*
Y00130500D01*
D02*
G37*
G36*
X00171875Y00115850D02*
X00168000D01*
Y00109500D01*
X00177100D01*
Y00110625D01*
X00176703Y00112625D01*
X00175570Y00114320D01*
X00173875Y00115453D01*
X00171875Y00115850D01*
D02*
G37*
G36*
X00177100Y00105500D02*
X00168000D01*
Y00099150D01*
X00171875D01*
X00173875Y00099547D01*
X00175570Y00100680D01*
X00176703Y00102375D01*
X00177100Y00104375D01*
Y00105500D01*
D02*
G37*
G36*
X00828000Y00096000D02*
X00823726D01*
X00823968Y00094787D01*
X00824796Y00093546D01*
X00826037Y00092718D01*
X00827500Y00092427D01*
X00828000D01*
Y00096000D01*
D02*
G37*
G36*
X00296300Y00096150D02*
X00287973D01*
X00288070Y00095409D01*
X00289128Y00092855D01*
X00290811Y00090661D01*
X00293005Y00088978D01*
X00295559Y00087920D01*
X00296300Y00087823D01*
Y00096150D01*
D02*
G37*
G36*
X00308627D02*
X00300300D01*
Y00087823D01*
X00301041Y00087920D01*
X00303595Y00088978D01*
X00305789Y00090661D01*
X00307472Y00092855D01*
X00308530Y00095409D01*
X00308627Y00096150D01*
D02*
G37*
G36*
X00766000D02*
X00757500D01*
Y00087650D01*
X00766000D01*
Y00096150D01*
D02*
G37*
G36*
X00272900Y00108741D02*
X00270159Y00108380D01*
X00267605Y00107322D01*
X00265411Y00105639D01*
X00263728Y00103445D01*
X00262670Y00100891D01*
X00262309Y00098150D01*
X00262670Y00095409D01*
X00263728Y00092855D01*
X00265411Y00090661D01*
X00267605Y00088978D01*
X00270159Y00087920D01*
X00272900Y00087559D01*
X00275641Y00087920D01*
X00278195Y00088978D01*
X00280389Y00090661D01*
X00282072Y00092855D01*
X00283130Y00095409D01*
X00283491Y00098150D01*
X00283130Y00100891D01*
X00282072Y00103445D01*
X00280389Y00105639D01*
X00278195Y00107322D01*
X00275641Y00108380D01*
X00272900Y00108741D01*
D02*
G37*
G36*
X00152073Y00083000D02*
X00148500D01*
Y00078726D01*
X00149713Y00078968D01*
X00150954Y00079796D01*
X00151782Y00081037D01*
X00152073Y00082500D01*
Y00083000D01*
D02*
G37*
G36*
X00872262Y00083299D02*
X00871500D01*
Y00077250D01*
X00874799D01*
Y00080763D01*
X00874606Y00081733D01*
X00874056Y00082556D01*
X00873233Y00083106D01*
X00872262Y00083299D01*
D02*
G37*
G36*
X00300300Y00083077D02*
Y00074750D01*
X00308627D01*
X00308530Y00075491D01*
X00307472Y00078045D01*
X00305789Y00080239D01*
X00303595Y00081922D01*
X00301041Y00082980D01*
X00300300Y00083077D01*
D02*
G37*
G36*
X00296300Y00083077D02*
X00295559Y00082980D01*
X00293005Y00081922D01*
X00290811Y00080239D01*
X00289128Y00078045D01*
X00288070Y00075491D01*
X00287973Y00074750D01*
X00296300D01*
Y00083077D01*
D02*
G37*
G36*
X00189750Y00079833D02*
X00189500D01*
Y00072750D01*
X00194083D01*
Y00075500D01*
X00193753Y00077158D01*
X00192814Y00078564D01*
X00191408Y00079503D01*
X00189750Y00079833D01*
D02*
G37*
G36*
X00185500D02*
X00185250D01*
X00183592Y00079503D01*
X00182186Y00078564D01*
X00181247Y00077158D01*
X00180917Y00075500D01*
Y00072750D01*
X00185500D01*
Y00079833D01*
D02*
G37*
G36*
X00874799Y00073250D02*
X00871500D01*
Y00067201D01*
X00872262D01*
X00873233Y00067394D01*
X00874056Y00067944D01*
X00874606Y00068767D01*
X00874799Y00069738D01*
Y00073250D01*
D02*
G37*
G36*
X00296300Y00070750D02*
X00287973D01*
X00288070Y00070009D01*
X00289128Y00067455D01*
X00290811Y00065261D01*
X00293005Y00063578D01*
X00295559Y00062520D01*
X00296300Y00062423D01*
Y00070750D01*
D02*
G37*
G36*
X00308627D02*
X00300300D01*
Y00062423D01*
X00301041Y00062520D01*
X00303595Y00063578D01*
X00305789Y00065261D01*
X00307472Y00067455D01*
X00308530Y00070009D01*
X00308627Y00070750D01*
D02*
G37*
G36*
X00374500Y00083341D02*
X00371759Y00082980D01*
X00369205Y00081922D01*
X00367011Y00080239D01*
X00365328Y00078045D01*
X00364270Y00075491D01*
X00363909Y00072750D01*
X00364270Y00070009D01*
X00365328Y00067455D01*
X00367011Y00065261D01*
X00369205Y00063578D01*
X00371759Y00062520D01*
X00374500Y00062159D01*
X00377241Y00062520D01*
X00379795Y00063578D01*
X00381989Y00065261D01*
X00383672Y00067455D01*
X00384730Y00070009D01*
X00385091Y00072750D01*
X00384730Y00075491D01*
X00383672Y00078045D01*
X00381989Y00080239D01*
X00379795Y00081922D01*
X00377241Y00082980D01*
X00374500Y00083341D01*
D02*
G37*
G36*
X00349100D02*
X00346359Y00082980D01*
X00343805Y00081922D01*
X00341611Y00080239D01*
X00339928Y00078045D01*
X00338870Y00075491D01*
X00338509Y00072750D01*
X00338870Y00070009D01*
X00339928Y00067455D01*
X00341611Y00065261D01*
X00343805Y00063578D01*
X00346359Y00062520D01*
X00349100Y00062159D01*
X00351841Y00062520D01*
X00354395Y00063578D01*
X00356589Y00065261D01*
X00358272Y00067455D01*
X00359330Y00070009D01*
X00359691Y00072750D01*
X00359330Y00075491D01*
X00358272Y00078045D01*
X00356589Y00080239D01*
X00354395Y00081922D01*
X00351841Y00082980D01*
X00349100Y00083341D01*
D02*
G37*
G36*
X00323700D02*
X00320959Y00082980D01*
X00318405Y00081922D01*
X00316211Y00080239D01*
X00314528Y00078045D01*
X00313470Y00075491D01*
X00313109Y00072750D01*
X00313470Y00070009D01*
X00314528Y00067455D01*
X00316211Y00065261D01*
X00318405Y00063578D01*
X00320959Y00062520D01*
X00323700Y00062159D01*
X00326441Y00062520D01*
X00328995Y00063578D01*
X00331189Y00065261D01*
X00332872Y00067455D01*
X00333930Y00070009D01*
X00334291Y00072750D01*
X00333930Y00075491D01*
X00332872Y00078045D01*
X00331189Y00080239D01*
X00328995Y00081922D01*
X00326441Y00082980D01*
X00323700Y00083341D01*
D02*
G37*
G36*
X00272900D02*
X00270159Y00082980D01*
X00267605Y00081922D01*
X00265411Y00080239D01*
X00263728Y00078045D01*
X00262670Y00075491D01*
X00262309Y00072750D01*
X00262670Y00070009D01*
X00263728Y00067455D01*
X00265411Y00065261D01*
X00267605Y00063578D01*
X00270159Y00062520D01*
X00272900Y00062159D01*
X00275641Y00062520D01*
X00278195Y00063578D01*
X00280389Y00065261D01*
X00282072Y00067455D01*
X00283130Y00070009D01*
X00283491Y00072750D01*
X00283130Y00075491D01*
X00282072Y00078045D01*
X00280389Y00080239D01*
X00278195Y00081922D01*
X00275641Y00082980D01*
X00272900Y00083341D01*
D02*
G37*
G36*
X00194083Y00068750D02*
X00189500D01*
Y00061667D01*
X00189750D01*
X00191408Y00061997D01*
X00192814Y00062936D01*
X00193753Y00064342D01*
X00194083Y00066000D01*
Y00068750D01*
D02*
G37*
G36*
X00185500D02*
X00180917D01*
Y00066000D01*
X00181247Y00064342D01*
X00182186Y00062936D01*
X00183592Y00061997D01*
X00185250Y00061667D01*
X00185500D01*
Y00068750D01*
D02*
G37*
G36*
X00874250Y00058774D02*
Y00054500D01*
X00877823D01*
Y00055000D01*
X00877532Y00056463D01*
X00876704Y00057703D01*
X00875463Y00058532D01*
X00874250Y00058774D01*
D02*
G37*
G36*
X00877823Y00020800D02*
X00874250D01*
Y00016526D01*
X00875463Y00016767D01*
X00876704Y00017596D01*
X00877532Y00018837D01*
X00877823Y00020300D01*
Y00020800D01*
D02*
G37*
%LPD*%
G36*
X00127886Y00186110D02*
Y00176750D01*
X00128139Y00175482D01*
X00128857Y00174407D01*
X00129932Y00173689D01*
X00131200Y00173436D01*
X00133700D01*
X00134968Y00173689D01*
X00136043Y00174407D01*
X00136761Y00175482D01*
X00137014Y00176750D01*
Y00186110D01*
X00140586Y00186110D01*
Y00184750D01*
X00149714D01*
Y00185226D01*
X00150597Y00186110D01*
X00152427D01*
X00152427Y00170079D01*
X00150514Y00166072D01*
X00149250Y00166323D01*
X00145750D01*
X00144287Y00166032D01*
X00143046Y00165204D01*
X00142218Y00163963D01*
X00141927Y00162500D01*
Y00157500D01*
X00142218Y00156037D01*
X00143046Y00154796D01*
X00144287Y00153968D01*
X00144519Y00153505D01*
X00144039Y00152500D01*
X00147427Y00147500D01*
X00152427Y00142500D01*
Y00096552D01*
X00148375Y00092500D01*
X00140000D01*
Y00058500D01*
X00136500Y00055000D01*
X00095000D01*
X00090000Y00060000D01*
X00090000Y00174973D01*
X00103775Y00186110D01*
X00127886Y00186110D01*
D02*
G37*
%LPC*%
G36*
X00149714Y00180750D02*
X00147150D01*
Y00173585D01*
X00147668Y00173689D01*
X00148743Y00174407D01*
X00149461Y00175482D01*
X00149714Y00176750D01*
Y00180750D01*
D02*
G37*
G36*
X00143150D02*
X00140586D01*
Y00176750D01*
X00140839Y00175482D01*
X00141557Y00174407D01*
X00142632Y00173689D01*
X00143150Y00173585D01*
Y00180750D01*
D02*
G37*
G36*
X00135500Y00166274D02*
Y00162000D01*
X00139073D01*
Y00162500D01*
X00138782Y00163963D01*
X00137954Y00165204D01*
X00136713Y00166032D01*
X00135500Y00166274D01*
D02*
G37*
G36*
X00131500D02*
X00130287Y00166032D01*
X00129046Y00165204D01*
X00128218Y00163963D01*
X00127927Y00162500D01*
Y00162000D01*
X00131500D01*
Y00166274D01*
D02*
G37*
G36*
X00139073Y00158000D02*
X00135500D01*
Y00153726D01*
X00136713Y00153968D01*
X00137954Y00154796D01*
X00138782Y00156037D01*
X00139073Y00157500D01*
Y00158000D01*
D02*
G37*
G36*
X00131500D02*
X00127927D01*
Y00157500D01*
X00128218Y00156037D01*
X00129046Y00154796D01*
X00130287Y00153968D01*
X00131500Y00153726D01*
Y00158000D01*
D02*
G37*
G36*
X00145875Y00140850D02*
X00142000D01*
Y00134500D01*
X00151100D01*
Y00135625D01*
X00150703Y00137625D01*
X00149570Y00139320D01*
X00147875Y00140453D01*
X00145875Y00140850D01*
D02*
G37*
G36*
X00138000D02*
X00134125D01*
X00132125Y00140453D01*
X00130430Y00139320D01*
X00129297Y00137625D01*
X00128900Y00135625D01*
Y00134500D01*
X00138000D01*
Y00140850D01*
D02*
G37*
G36*
X00151100Y00130500D02*
X00142000D01*
Y00124150D01*
X00145875D01*
X00147875Y00124547D01*
X00149570Y00125680D01*
X00150703Y00127375D01*
X00151100Y00129375D01*
Y00130500D01*
D02*
G37*
G36*
X00138000D02*
X00128900D01*
Y00129375D01*
X00129297Y00127375D01*
X00130430Y00125680D01*
X00132125Y00124547D01*
X00134125Y00124150D01*
X00138000D01*
Y00130500D01*
D02*
G37*
G36*
X00145875Y00115850D02*
X00142000D01*
Y00109500D01*
X00151100D01*
Y00110625D01*
X00150703Y00112625D01*
X00149570Y00114320D01*
X00147875Y00115453D01*
X00145875Y00115850D01*
D02*
G37*
G36*
X00138000D02*
X00134125D01*
X00132125Y00115453D01*
X00130430Y00114320D01*
X00129297Y00112625D01*
X00128900Y00110625D01*
Y00109500D01*
X00138000D01*
Y00115850D01*
D02*
G37*
G36*
X00151100Y00105500D02*
X00142000D01*
Y00099150D01*
X00145875D01*
X00147875Y00099547D01*
X00149570Y00100680D01*
X00150703Y00102375D01*
X00151100Y00104375D01*
Y00105500D01*
D02*
G37*
G36*
X00138000D02*
X00128900D01*
Y00104375D01*
X00129297Y00102375D01*
X00130430Y00100680D01*
X00132125Y00099547D01*
X00134125Y00099150D01*
X00138000D01*
Y00105500D01*
D02*
G37*
G36*
X00134500Y00091274D02*
Y00087000D01*
X00138073D01*
Y00087500D01*
X00137782Y00088963D01*
X00136953Y00090204D01*
X00135713Y00091032D01*
X00134500Y00091274D01*
D02*
G37*
G36*
X00130500D02*
X00129287Y00091032D01*
X00128046Y00090204D01*
X00127218Y00088963D01*
X00126926Y00087500D01*
Y00087000D01*
X00130500D01*
Y00091274D01*
D02*
G37*
G36*
X00138073Y00083000D02*
X00134500D01*
Y00078726D01*
X00135713Y00078968D01*
X00136953Y00079796D01*
X00137782Y00081037D01*
X00138073Y00082500D01*
Y00083000D01*
D02*
G37*
G36*
X00130500D02*
X00126926D01*
Y00082500D01*
X00127218Y00081037D01*
X00128046Y00079796D01*
X00129287Y00078968D01*
X00130500Y00078726D01*
Y00083000D01*
D02*
G37*
G36*
X00134500Y00073774D02*
Y00069500D01*
X00138073D01*
Y00070000D01*
X00137782Y00071463D01*
X00136953Y00072704D01*
X00135713Y00073532D01*
X00134500Y00073774D01*
D02*
G37*
G36*
X00130500D02*
X00129287Y00073532D01*
X00128046Y00072704D01*
X00127218Y00071463D01*
X00126926Y00070000D01*
Y00069500D01*
X00130500D01*
Y00073774D01*
D02*
G37*
G36*
X00138073Y00065500D02*
X00134500D01*
Y00061226D01*
X00135713Y00061468D01*
X00136953Y00062296D01*
X00137782Y00063537D01*
X00138073Y00065000D01*
Y00065500D01*
D02*
G37*
G36*
X00130500D02*
X00126926D01*
Y00065000D01*
X00127218Y00063537D01*
X00128046Y00062296D01*
X00129287Y00061468D01*
X00130500Y00061226D01*
Y00065500D01*
D02*
G37*
G36*
X00640500Y00365100D02*
X00635505D01*
X00635680Y00363773D01*
X00636385Y00362070D01*
X00637508Y00360607D01*
X00638970Y00359486D01*
X00640500Y00358852D01*
Y00365100D01*
D02*
G37*
G36*
X00363250Y00297019D02*
X00359000D01*
Y00293950D01*
X00366719D01*
X00366547Y00294816D01*
X00365773Y00295973D01*
X00364616Y00296747D01*
X00363250Y00297019D01*
D02*
G37*
G36*
X00355000D02*
X00350750D01*
X00349384Y00296747D01*
X00348227Y00295973D01*
X00347453Y00294816D01*
X00347281Y00293950D01*
X00355000D01*
Y00297019D01*
D02*
G37*
G36*
X00033500Y00328774D02*
X00032287Y00328532D01*
X00031046Y00327704D01*
X00030218Y00326463D01*
X00029927Y00325000D01*
Y00324500D01*
X00033500D01*
Y00328774D01*
D02*
G37*
G36*
Y00320500D02*
X00029927D01*
Y00320000D01*
X00030218Y00318537D01*
X00031046Y00317296D01*
X00032287Y00316468D01*
X00033500Y00316226D01*
Y00320500D01*
D02*
G37*
G36*
X00974500Y00319791D02*
Y00317000D01*
X00977692D01*
X00977554Y00317692D01*
X00976808Y00318808D01*
X00975692Y00319554D01*
X00974500Y00319791D01*
D02*
G37*
G36*
X00796000Y00272812D02*
X00794787Y00272570D01*
X00793546Y00271742D01*
X00792718Y00270501D01*
X00792427Y00269038D01*
Y00268538D01*
X00796000D01*
Y00272812D01*
D02*
G37*
G36*
Y00264538D02*
X00792427D01*
Y00264038D01*
X00792718Y00262575D01*
X00793546Y00261334D01*
X00794787Y00260506D01*
X00796000Y00260264D01*
Y00264538D01*
D02*
G37*
G36*
X00051500Y00328774D02*
Y00324500D01*
X00055073D01*
Y00325000D01*
X00054782Y00326463D01*
X00053954Y00327704D01*
X00052713Y00328532D01*
X00051500Y00328774D01*
D02*
G37*
G36*
X00047500D02*
X00046287Y00328532D01*
X00045046Y00327704D01*
X00044218Y00326463D01*
X00043927Y00325000D01*
Y00324500D01*
X00047500D01*
Y00328774D01*
D02*
G37*
G36*
X00055073Y00320500D02*
X00051500D01*
Y00316226D01*
X00052713Y00316468D01*
X00053954Y00317296D01*
X00054782Y00318537D01*
X00055073Y00320000D01*
Y00320500D01*
D02*
G37*
G36*
X00047500D02*
X00043927D01*
Y00320000D01*
X00044218Y00318537D01*
X00045046Y00317296D01*
X00046287Y00316468D01*
X00047500Y00316226D01*
Y00320500D01*
D02*
G37*
G36*
X00150875Y00305850D02*
X00147000D01*
Y00299500D01*
X00156100D01*
Y00300625D01*
X00155703Y00302625D01*
X00154570Y00304320D01*
X00152875Y00305453D01*
X00150875Y00305850D01*
D02*
G37*
G36*
X00143000D02*
X00139125D01*
X00137125Y00305453D01*
X00135430Y00304320D01*
X00134297Y00302625D01*
X00133900Y00300625D01*
Y00299500D01*
X00143000D01*
Y00305850D01*
D02*
G37*
G36*
X00156100Y00295500D02*
X00147000D01*
Y00289150D01*
X00150875D01*
X00152875Y00289547D01*
X00154570Y00290680D01*
X00155703Y00292375D01*
X00156100Y00294375D01*
Y00295500D01*
D02*
G37*
G36*
X00143000D02*
X00133900D01*
Y00294375D01*
X00134297Y00292375D01*
X00135430Y00290680D01*
X00137125Y00289547D01*
X00139125Y00289150D01*
X00143000D01*
Y00295500D01*
D02*
G37*
G36*
X00145500Y00281274D02*
Y00277000D01*
X00149073D01*
Y00277500D01*
X00148782Y00278963D01*
X00147954Y00280204D01*
X00146713Y00281033D01*
X00145500Y00281274D01*
D02*
G37*
G36*
X00149073Y00273000D02*
X00145500D01*
Y00268726D01*
X00146713Y00268968D01*
X00147954Y00269796D01*
X00148782Y00271037D01*
X00149073Y00272500D01*
Y00273000D01*
D02*
G37*
G36*
X00160000Y00266274D02*
Y00262000D01*
X00163573D01*
Y00262500D01*
X00163282Y00263963D01*
X00162454Y00265204D01*
X00161213Y00266032D01*
X00160000Y00266274D01*
D02*
G37*
G36*
X00156000D02*
X00154787Y00266032D01*
X00153546Y00265204D01*
X00152718Y00263963D01*
X00152427Y00262500D01*
Y00262000D01*
X00156000D01*
Y00266274D01*
D02*
G37*
G36*
X00145500Y00266274D02*
Y00262000D01*
X00149073D01*
Y00262500D01*
X00148782Y00263963D01*
X00147954Y00265204D01*
X00146713Y00266032D01*
X00145500Y00266274D01*
D02*
G37*
G36*
X00057000Y00259500D02*
X00052000D01*
Y00254500D01*
X00057000D01*
Y00259500D01*
D02*
G37*
G36*
X00048000D02*
X00043000D01*
Y00254500D01*
X00048000D01*
Y00259500D01*
D02*
G37*
G36*
X00163573Y00258000D02*
X00160000D01*
Y00253726D01*
X00161213Y00253968D01*
X00162454Y00254796D01*
X00163282Y00256037D01*
X00163573Y00257500D01*
Y00258000D01*
D02*
G37*
G36*
X00156000D02*
X00152427D01*
Y00257500D01*
X00152718Y00256037D01*
X00153546Y00254796D01*
X00154787Y00253968D01*
X00156000Y00253726D01*
Y00258000D01*
D02*
G37*
G36*
X00149073Y00258000D02*
X00145500D01*
Y00253726D01*
X00146713Y00253968D01*
X00147954Y00254796D01*
X00148782Y00256037D01*
X00149073Y00257500D01*
Y00258000D01*
D02*
G37*
G36*
X00147150Y00246415D02*
Y00239250D01*
X00149714D01*
Y00243250D01*
X00149461Y00244518D01*
X00148743Y00245593D01*
X00147668Y00246311D01*
X00147150Y00246415D01*
D02*
G37*
G36*
X00143150D02*
X00142632Y00246311D01*
X00141557Y00245593D01*
X00140839Y00244518D01*
X00140586Y00243250D01*
Y00239250D01*
X00143150D01*
Y00246415D01*
D02*
G37*
G36*
X00814000Y00272812D02*
Y00268538D01*
X00817573D01*
Y00269038D01*
X00817282Y00270501D01*
X00816454Y00271742D01*
X00815213Y00272570D01*
X00814000Y00272812D01*
D02*
G37*
G36*
X00830250Y00270949D02*
X00826738D01*
X00825767Y00270756D01*
X00824944Y00270206D01*
X00824394Y00269383D01*
X00824201Y00268412D01*
Y00267650D01*
X00830250D01*
Y00270949D01*
D02*
G37*
G36*
Y00263650D02*
X00824201D01*
Y00262887D01*
X00824394Y00261917D01*
X00824944Y00261094D01*
X00825767Y00260544D01*
X00826738Y00260351D01*
X00830250D01*
Y00263650D01*
D02*
G37*
G36*
X00817573Y00264538D02*
X00814000D01*
Y00260264D01*
X00815213Y00260506D01*
X00816454Y00261334D01*
X00817282Y00262575D01*
X00817573Y00264038D01*
Y00264538D01*
D02*
G37*
G36*
X00430682Y00210279D02*
X00429469Y00210037D01*
X00428229Y00209209D01*
X00427400Y00207968D01*
X00427109Y00206505D01*
Y00206005D01*
X00430682D01*
Y00210279D01*
D02*
G37*
G36*
Y00202005D02*
X00427109D01*
Y00201505D01*
X00427400Y00200042D01*
X00428229Y00198801D01*
X00429469Y00197973D01*
X00430682Y00197731D01*
Y00202005D01*
D02*
G37*
G36*
X00834150Y00228774D02*
X00832937Y00228532D01*
X00831696Y00227704D01*
X00830868Y00226463D01*
X00830576Y00225000D01*
Y00224500D01*
X00834150D01*
Y00228774D01*
D02*
G37*
G36*
X00743763Y00238299D02*
X00740250D01*
Y00235000D01*
X00746299D01*
Y00235762D01*
X00746106Y00236733D01*
X00745556Y00237556D01*
X00744733Y00238106D01*
X00743763Y00238299D01*
D02*
G37*
G36*
X00746299Y00231000D02*
X00740250D01*
Y00227701D01*
X00743763D01*
X00744733Y00227894D01*
X00745556Y00228444D01*
X00746106Y00229267D01*
X00746299Y00230237D01*
Y00231000D01*
D02*
G37*
G36*
X00736250D02*
X00730201D01*
Y00230237D01*
X00730394Y00229267D01*
X00730944Y00228444D01*
X00731767Y00227894D01*
X00732738Y00227701D01*
X00736250D01*
Y00231000D01*
D02*
G37*
G36*
X00739101Y00218274D02*
Y00214000D01*
X00742674D01*
Y00214500D01*
X00742383Y00215963D01*
X00741554Y00217204D01*
X00740314Y00218032D01*
X00739101Y00218274D01*
D02*
G37*
G36*
X00735101Y00218274D02*
X00733888Y00218032D01*
X00732647Y00217204D01*
X00731818Y00215963D01*
X00731527Y00214500D01*
Y00214000D01*
X00735101D01*
Y00218274D01*
D02*
G37*
G36*
Y00210000D02*
X00731527D01*
Y00209500D01*
X00731818Y00208037D01*
X00732647Y00206796D01*
X00733888Y00205968D01*
X00735101Y00205726D01*
Y00210000D01*
D02*
G37*
G36*
X00742674D02*
X00739101D01*
Y00205726D01*
X00740314Y00205968D01*
X00741554Y00206796D01*
X00742383Y00208037D01*
X00742674Y00209500D01*
Y00210000D01*
D02*
G37*
G36*
X00312719Y00201050D02*
X00305000D01*
Y00197981D01*
X00309250D01*
X00310616Y00198253D01*
X00311773Y00199027D01*
X00312547Y00200184D01*
X00312719Y00201050D01*
D02*
G37*
G36*
X00301000D02*
X00293281D01*
X00293453Y00200184D01*
X00294227Y00199027D01*
X00295384Y00198253D01*
X00296750Y00197981D01*
X00301000D01*
Y00201050D01*
D02*
G37*
G36*
X00300000Y00191274D02*
Y00187000D01*
X00303573D01*
Y00187500D01*
X00303282Y00188963D01*
X00302454Y00190204D01*
X00301213Y00191032D01*
X00300000Y00191274D01*
D02*
G37*
G36*
X00296000D02*
X00294787Y00191032D01*
X00293546Y00190204D01*
X00292718Y00188963D01*
X00292426Y00187500D01*
Y00187000D01*
X00296000D01*
Y00191274D01*
D02*
G37*
G36*
X00303573Y00183000D02*
X00300000D01*
Y00178726D01*
X00301213Y00178967D01*
X00302454Y00179796D01*
X00303282Y00181037D01*
X00303573Y00182500D01*
Y00183000D01*
D02*
G37*
G36*
X00296000D02*
X00292426D01*
Y00182500D01*
X00292718Y00181037D01*
X00293546Y00179796D01*
X00294787Y00178967D01*
X00296000Y00178726D01*
Y00183000D01*
D02*
G37*
G36*
X00300000Y00176274D02*
Y00172000D01*
X00303573D01*
Y00172500D01*
X00303282Y00173963D01*
X00302454Y00175204D01*
X00301213Y00176032D01*
X00300000Y00176274D01*
D02*
G37*
G36*
X00296000D02*
X00294787Y00176032D01*
X00293546Y00175204D01*
X00292718Y00173963D01*
X00292426Y00172500D01*
Y00172000D01*
X00296000D01*
Y00176274D01*
D02*
G37*
G36*
X00303573Y00168000D02*
X00300000D01*
Y00163726D01*
X00301213Y00163967D01*
X00302454Y00164796D01*
X00303282Y00166037D01*
X00303573Y00167500D01*
Y00168000D01*
D02*
G37*
G36*
X00296000D02*
X00292426D01*
Y00167500D01*
X00292718Y00166037D01*
X00293546Y00164796D01*
X00294787Y00163967D01*
X00296000Y00163726D01*
Y00168000D01*
D02*
G37*
G36*
Y00161274D02*
X00294787Y00161032D01*
X00293546Y00160204D01*
X00292718Y00158963D01*
X00292426Y00157500D01*
Y00157000D01*
X00296000D01*
Y00161274D01*
D02*
G37*
G36*
X00620219Y00201050D02*
X00612500D01*
Y00197981D01*
X00616750D01*
X00618116Y00198253D01*
X00619273Y00199027D01*
X00620047Y00200184D01*
X00620219Y00201050D01*
D02*
G37*
G36*
X00608500D02*
X00600781D01*
X00600953Y00200184D01*
X00601727Y00199027D01*
X00602884Y00198253D01*
X00604250Y00197981D01*
X00608500D01*
Y00201050D01*
D02*
G37*
G36*
X00608000Y00191274D02*
Y00187000D01*
X00611573D01*
Y00187500D01*
X00611282Y00188963D01*
X00610454Y00190204D01*
X00609213Y00191032D01*
X00608000Y00191274D01*
D02*
G37*
G36*
X00604000D02*
X00602787Y00191032D01*
X00601546Y00190204D01*
X00600718Y00188963D01*
X00600427Y00187500D01*
Y00187000D01*
X00604000D01*
Y00191274D01*
D02*
G37*
G36*
X00611573Y00183000D02*
X00608000D01*
Y00178726D01*
X00609213Y00178967D01*
X00610454Y00179796D01*
X00611282Y00181037D01*
X00611573Y00182500D01*
Y00183000D01*
D02*
G37*
G36*
X00604000D02*
X00600427D01*
Y00182500D01*
X00600718Y00181037D01*
X00601546Y00179796D01*
X00602787Y00178967D01*
X00604000Y00178726D01*
Y00183000D01*
D02*
G37*
G36*
X00608000Y00176274D02*
Y00172000D01*
X00611573D01*
Y00172500D01*
X00611282Y00173963D01*
X00610454Y00175204D01*
X00609213Y00176032D01*
X00608000Y00176274D01*
D02*
G37*
G36*
X00604000D02*
X00602787Y00176032D01*
X00601546Y00175204D01*
X00600718Y00173963D01*
X00600427Y00172500D01*
Y00172000D01*
X00604000D01*
Y00176274D01*
D02*
G37*
G36*
X00611573Y00168000D02*
X00608000D01*
Y00163726D01*
X00609213Y00163967D01*
X00610454Y00164796D01*
X00611282Y00166037D01*
X00611573Y00167500D01*
Y00168000D01*
D02*
G37*
G36*
X00604000D02*
X00600427D01*
Y00167500D01*
X00600718Y00166037D01*
X00601546Y00164796D01*
X00602787Y00163967D01*
X00604000Y00163726D01*
Y00168000D01*
D02*
G37*
G36*
X00608000Y00161274D02*
Y00157000D01*
X00611573D01*
Y00157500D01*
X00611282Y00158963D01*
X00610454Y00160204D01*
X00609213Y00161032D01*
X00608000Y00161274D01*
D02*
G37*
G36*
X00604000D02*
X00602787Y00161032D01*
X00601546Y00160204D01*
X00600718Y00158963D01*
X00600427Y00157500D01*
Y00157000D01*
X00604000D01*
Y00161274D01*
D02*
G37*
G36*
X00611573Y00153000D02*
X00608000D01*
Y00148726D01*
X00609213Y00148968D01*
X00610454Y00149796D01*
X00611282Y00151037D01*
X00611573Y00152500D01*
Y00153000D01*
D02*
G37*
G36*
X00604000D02*
X00600427D01*
Y00152500D01*
X00600718Y00151037D01*
X00601546Y00149796D01*
X00602787Y00148968D01*
X00604000Y00148726D01*
Y00153000D01*
D02*
G37*
G36*
X00721101Y00210000D02*
X00717527D01*
Y00209500D01*
X00717818Y00208037D01*
X00718647Y00206796D01*
X00719888Y00205968D01*
X00721101Y00205726D01*
Y00210000D01*
D02*
G37*
G36*
X00861750Y00173860D02*
Y00169500D01*
X00863809D01*
Y00171000D01*
X00863576Y00172171D01*
X00862913Y00173163D01*
X00861921Y00173826D01*
X00861750Y00173860D01*
D02*
G37*
G36*
X00863809Y00165500D02*
X00861750D01*
Y00161140D01*
X00861921Y00161174D01*
X00862913Y00161837D01*
X00863576Y00162829D01*
X00863809Y00164000D01*
Y00165500D01*
D02*
G37*
G36*
X00857500Y00156274D02*
Y00152000D01*
X00861073D01*
Y00152500D01*
X00860782Y00153963D01*
X00859954Y00155204D01*
X00858713Y00156032D01*
X00857500Y00156274D01*
D02*
G37*
G36*
X00448683Y00210279D02*
Y00206005D01*
X00452256D01*
Y00206505D01*
X00451965Y00207968D01*
X00451136Y00209209D01*
X00449896Y00210037D01*
X00448683Y00210279D01*
D02*
G37*
G36*
X00444683Y00210279D02*
X00443469Y00210037D01*
X00442229Y00209209D01*
X00441400Y00207968D01*
X00441109Y00206505D01*
Y00206005D01*
X00444683D01*
Y00210279D01*
D02*
G37*
G36*
X00478219Y00201800D02*
X00470500D01*
Y00198731D01*
X00474750D01*
X00476116Y00199003D01*
X00477273Y00199777D01*
X00478047Y00200934D01*
X00478219Y00201800D01*
D02*
G37*
G36*
X00466500D02*
X00458781D01*
X00458953Y00200934D01*
X00459727Y00199777D01*
X00460884Y00199003D01*
X00462250Y00198731D01*
X00466500D01*
Y00201800D01*
D02*
G37*
G36*
X00452256Y00202005D02*
X00448683D01*
Y00197731D01*
X00449896Y00197973D01*
X00451136Y00198801D01*
X00451965Y00200042D01*
X00452256Y00201505D01*
Y00202005D01*
D02*
G37*
G36*
X00444683D02*
X00441109D01*
Y00201505D01*
X00441400Y00200042D01*
X00442229Y00198801D01*
X00443469Y00197973D01*
X00444683Y00197731D01*
Y00202005D01*
D02*
G37*
G36*
X00466221Y00191274D02*
Y00187000D01*
X00469794D01*
Y00187500D01*
X00469503Y00188963D01*
X00468674Y00190204D01*
X00467434Y00191032D01*
X00466221Y00191274D01*
D02*
G37*
G36*
X00462220D02*
X00461007Y00191032D01*
X00459767Y00190204D01*
X00458938Y00188963D01*
X00458647Y00187500D01*
Y00187000D01*
X00462220D01*
Y00191274D01*
D02*
G37*
G36*
X00469794Y00183000D02*
X00466221D01*
Y00178726D01*
X00467434Y00178967D01*
X00468674Y00179796D01*
X00469503Y00181037D01*
X00469794Y00182500D01*
Y00183000D01*
D02*
G37*
G36*
X00462220D02*
X00458647D01*
Y00182500D01*
X00458938Y00181037D01*
X00459767Y00179796D01*
X00461007Y00178967D01*
X00462220Y00178726D01*
Y00183000D01*
D02*
G37*
G36*
X00466221Y00176274D02*
Y00172000D01*
X00469794D01*
Y00172500D01*
X00469503Y00173963D01*
X00468674Y00175204D01*
X00467434Y00176032D01*
X00466221Y00176274D01*
D02*
G37*
G36*
X00462220D02*
X00461007Y00176032D01*
X00459767Y00175204D01*
X00458938Y00173963D01*
X00458647Y00172500D01*
Y00172000D01*
X00462220D01*
Y00176274D01*
D02*
G37*
G36*
X00469794Y00168000D02*
X00466221D01*
Y00163726D01*
X00467434Y00163967D01*
X00468674Y00164796D01*
X00469503Y00166037D01*
X00469794Y00167500D01*
Y00168000D01*
D02*
G37*
G36*
X00462220D02*
X00458647D01*
Y00167500D01*
X00458938Y00166037D01*
X00459767Y00164796D01*
X00461007Y00163967D01*
X00462220Y00163726D01*
Y00168000D01*
D02*
G37*
G36*
X00483794D02*
X00480220D01*
Y00163726D01*
X00481434Y00163967D01*
X00482674Y00164796D01*
X00483503Y00166037D01*
X00483794Y00167500D01*
Y00168000D01*
D02*
G37*
G36*
X00625574Y00153000D02*
X00622000D01*
Y00148726D01*
X00623213Y00148968D01*
X00624454Y00149796D01*
X00625283Y00151037D01*
X00625574Y00152500D01*
Y00153000D01*
D02*
G37*
G36*
X00832500Y00117573D02*
X00832000D01*
Y00114000D01*
X00836274D01*
X00836032Y00115213D01*
X00835204Y00116454D01*
X00833963Y00117282D01*
X00832500Y00117573D01*
D02*
G37*
G36*
X00828000D02*
X00827500D01*
X00826037Y00117282D01*
X00824796Y00116454D01*
X00823968Y00115213D01*
X00823726Y00114000D01*
X00828000D01*
Y00117573D01*
D02*
G37*
G36*
X00853262Y00112799D02*
X00852500D01*
Y00106750D01*
X00855799D01*
Y00110262D01*
X00855606Y00111233D01*
X00855056Y00112056D01*
X00854233Y00112606D01*
X00853262Y00112799D01*
D02*
G37*
G36*
X00848500D02*
X00847738D01*
X00846767Y00112606D01*
X00845944Y00112056D01*
X00845394Y00111233D01*
X00845201Y00110262D01*
Y00106750D01*
X00848500D01*
Y00112799D01*
D02*
G37*
G36*
X00836274Y00110000D02*
X00832000D01*
Y00106427D01*
X00832500D01*
X00833963Y00106718D01*
X00835204Y00107546D01*
X00836032Y00108787D01*
X00836274Y00110000D01*
D02*
G37*
G36*
X00828000D02*
X00823726D01*
X00823968Y00108787D01*
X00824796Y00107546D01*
X00826037Y00106718D01*
X00827500Y00106427D01*
X00828000D01*
Y00110000D01*
D02*
G37*
G36*
X00855799Y00102750D02*
X00852500D01*
Y00096701D01*
X00853262D01*
X00854233Y00096894D01*
X00855056Y00097444D01*
X00855606Y00098267D01*
X00855799Y00099237D01*
Y00102750D01*
D02*
G37*
G36*
X00848500D02*
X00845201D01*
Y00099237D01*
X00845394Y00098267D01*
X00845944Y00097444D01*
X00846767Y00096894D01*
X00847738Y00096701D01*
X00848500D01*
Y00102750D01*
D02*
G37*
%LPD*%
D13*
X00836424Y00213826D02*
Y00222226D01*
X00836150Y00222500D02*
X00836424Y00222226D01*
X00839750Y00208000D02*
X00840250Y00207500D01*
X00839750Y00208000D02*
Y00210500D01*
X00836424Y00213826D02*
X00839750Y00210500D01*
X00129500Y00260000D02*
Y00275000D01*
X00855338Y00149838D02*
X00855500Y00150000D01*
X00845780Y00149675D02*
X00845943Y00149838D01*
X00855421Y00150079D02*
X00855500Y00150000D01*
X00855421Y00150079D02*
Y00157900D01*
X00853250Y00167500D02*
X00853250Y00167500D01*
Y00160070D02*
Y00167500D01*
Y00160070D02*
X00855421Y00157900D01*
X00664500Y00291950D02*
X00679300D01*
X00146500Y00067500D02*
X00164557D01*
X00167500Y00070443D01*
Y00070750D01*
X00157850Y00182750D02*
X00158850Y00181750D01*
Y00170079D02*
Y00181750D01*
Y00170079D02*
X00158929Y00170000D01*
Y00161770D02*
X00160700Y00160000D01*
X00158929Y00161770D02*
Y00170000D01*
X00147500Y00160000D02*
X00160700D01*
X00157850Y00237250D02*
Y00242000D01*
X00170154Y00254304D01*
Y00258154D01*
X00172000Y00260000D01*
X00664325Y00241325D02*
X00664500Y00241150D01*
X00650175Y00241325D02*
X00664325D01*
X00650000Y00241500D02*
X00650175Y00241325D01*
X00522478Y00241878D02*
X00522500Y00241900D01*
X00507522Y00241878D02*
X00522478D01*
X00507500Y00241856D02*
X00507522Y00241878D01*
X00356833Y00240983D02*
X00357000Y00241150D01*
X00342667Y00240983D02*
X00356833D01*
X00342500Y00240816D02*
X00342667Y00240983D01*
X00850150Y00222500D02*
Y00233264D01*
Y00222500D02*
X00851996Y00220654D01*
Y00217004D02*
Y00220654D01*
Y00217004D02*
X00853250Y00215750D01*
Y00207500D02*
Y00215750D01*
D14*
X00845943Y00149838D02*
X00855338D01*
X00132500Y00067500D02*
Y00085000D01*
X00957500Y00305500D02*
X00957750Y00305250D01*
X00972250D01*
X00972500Y00305000D01*
X00940500Y00306250D02*
X00940875Y00305875D01*
X00957125D01*
X00957500Y00305500D01*
D36*
X00738250Y00233000D02*
D03*
X00738250Y00252000D02*
D03*
X00767750Y00252000D02*
D03*
Y00242500D02*
D03*
Y00233000D02*
D03*
X00832250Y00265650D02*
D03*
Y00284650D02*
D03*
X00861750D02*
D03*
Y00275150D02*
D03*
Y00265650D02*
D03*
D37*
X00972500Y00315000D02*
D03*
Y00305000D02*
D03*
D38*
X00167500Y00070750D02*
D03*
X00187500D02*
D03*
D39*
X00940500Y00306250D02*
D03*
X00927500D02*
D03*
X00940500Y00316250D02*
D03*
X00927500D02*
D03*
D40*
X00357000Y00215750D02*
D03*
Y00228450D02*
D03*
Y00241150D02*
D03*
Y00253850D02*
D03*
Y00266550D02*
D03*
Y00279250D02*
D03*
Y00203050D02*
D03*
Y00291950D02*
D03*
X00303000D02*
D03*
Y00279250D02*
D03*
Y00266550D02*
D03*
Y00253850D02*
D03*
Y00241150D02*
D03*
Y00228450D02*
D03*
Y00215750D02*
D03*
Y00203050D02*
D03*
X00664500Y00215750D02*
D03*
Y00228450D02*
D03*
Y00241150D02*
D03*
Y00253850D02*
D03*
Y00266550D02*
D03*
Y00279250D02*
D03*
Y00203050D02*
D03*
Y00291950D02*
D03*
X00610500D02*
D03*
Y00279250D02*
D03*
Y00266550D02*
D03*
Y00253850D02*
D03*
Y00241150D02*
D03*
Y00228450D02*
D03*
Y00215750D02*
D03*
Y00203050D02*
D03*
X00522500Y00216500D02*
D03*
Y00229200D02*
D03*
Y00241900D02*
D03*
Y00254600D02*
D03*
Y00267300D02*
D03*
Y00280000D02*
D03*
Y00203800D02*
D03*
Y00292700D02*
D03*
X00468500D02*
D03*
Y00280000D02*
D03*
Y00267300D02*
D03*
Y00254600D02*
D03*
Y00241900D02*
D03*
Y00229200D02*
D03*
Y00216500D02*
D03*
Y00203800D02*
D03*
D41*
X00859750Y00207500D02*
D03*
X00853250D02*
D03*
X00846750D02*
D03*
X00840250D02*
D03*
X00859750Y00167500D02*
D03*
X00853250D02*
D03*
X00846750D02*
D03*
X00840250D02*
D03*
D42*
X00850500Y00104750D02*
D03*
X00869500D02*
D03*
Y00075250D02*
D03*
X00860000D02*
D03*
X00850500D02*
D03*
D43*
X00151500Y00210000D02*
D03*
D44*
X00132450Y00182750D02*
D03*
X00145150D02*
D03*
X00157850D02*
D03*
X00170550D02*
D03*
X00132450Y00237250D02*
D03*
X00145150D02*
D03*
X00157850D02*
D03*
X00170550D02*
D03*
D45*
X00166000Y00107500D02*
D03*
X00140000D02*
D03*
X00166000Y00132500D02*
D03*
X00140000D02*
D03*
X00171000Y00297500D02*
D03*
X00145000D02*
D03*
D46*
X00132500Y00085000D02*
D03*
X00146500D02*
D03*
X00143500Y00260000D02*
D03*
X00129500D02*
D03*
X00143500Y00275000D02*
D03*
X00129500D02*
D03*
X00298000Y00155000D02*
D03*
X00312000D02*
D03*
X00737101Y00212000D02*
D03*
X00723101D02*
D03*
X00298000Y00170000D02*
D03*
X00312000D02*
D03*
X00298000Y00185000D02*
D03*
X00312000D02*
D03*
X00760500Y00197500D02*
D03*
X00774500D02*
D03*
X00464221Y00170000D02*
D03*
X00478220D02*
D03*
X00606000Y00155000D02*
D03*
X00620000D02*
D03*
X00606000Y00170000D02*
D03*
X00620000D02*
D03*
X00464221Y00185000D02*
D03*
X00478220D02*
D03*
X00855500Y00150000D02*
D03*
X00869500D02*
D03*
X00606000Y00185000D02*
D03*
X00620000D02*
D03*
X00446682Y00204005D02*
D03*
X00432682D02*
D03*
X00850150Y00222500D02*
D03*
X00836150D02*
D03*
X00812000Y00266538D02*
D03*
X00798000D02*
D03*
X00858250Y00052500D02*
D03*
X00872250D02*
D03*
X00146500Y00067500D02*
D03*
X00132500D02*
D03*
X00174700Y00160000D02*
D03*
X00160700D02*
D03*
X00147500D02*
D03*
X00133500D02*
D03*
X00172000Y00260000D02*
D03*
X00158000D02*
D03*
X00049500Y00322500D02*
D03*
X00035500D02*
D03*
X00774500Y00167500D02*
D03*
X00760500D02*
D03*
X00774500Y00182500D02*
D03*
X00760500D02*
D03*
X00760500Y00152500D02*
D03*
X00774500D02*
D03*
X00805000Y00197500D02*
D03*
X00819000D02*
D03*
X00805000Y00182500D02*
D03*
X00819000D02*
D03*
X00853150Y00305100D02*
D03*
X00867150D02*
D03*
X00855500Y00127500D02*
D03*
X00869500D02*
D03*
X00853150Y00320500D02*
D03*
X00867150D02*
D03*
X00872250Y00037500D02*
D03*
X00858250D02*
D03*
X00898000Y00305750D02*
D03*
X00912000D02*
D03*
X00872250Y00022800D02*
D03*
X00858250D02*
D03*
D47*
X00830000Y00112000D02*
D03*
Y00098000D02*
D03*
X00942750Y00263650D02*
D03*
Y00277650D02*
D03*
X00957500Y00305500D02*
D03*
Y00319500D02*
D03*
X00897750Y00263650D02*
D03*
Y00277650D02*
D03*
X00912750Y00263650D02*
D03*
Y00277650D02*
D03*
X00927750D02*
D03*
Y00263650D02*
D03*
X00839500Y00023000D02*
D03*
Y00037000D02*
D03*
X00957750Y00277650D02*
D03*
Y00263650D02*
D03*
X00972750Y00277650D02*
D03*
Y00263650D02*
D03*
D48*
X00283051Y00117519D02*
X00427891D01*
X00284182Y00120249D02*
X00429022D01*
X00188519Y00335000D02*
X00217270Y00306249D01*
X00226024Y00174547D02*
X00283051Y00117519D01*
X00149232Y00376927D02*
X00171273D01*
X00180400Y00367800D01*
X00141599Y00369295D02*
X00149232Y00376927D01*
X00148101Y00379657D02*
X00165989D01*
X00167700Y00381367D02*
Y00392700D01*
X00165989Y00379657D02*
X00167700Y00381367D01*
X00138869Y00370425D02*
X00148101Y00379657D01*
X00138869Y00348581D02*
Y00370425D01*
Y00348581D02*
X00139669Y00347781D01*
Y00347781D02*
X00152450Y00335000D01*
X00139669Y00347781D02*
Y00347781D01*
X00141599Y00349712D02*
X00153581Y00337730D01*
X00141599Y00349712D02*
Y00369295D01*
X00152450Y00335000D02*
X00152450D01*
X00427891Y00117519D02*
X00435410Y00110000D01*
Y00104868D02*
Y00110000D01*
X00428692Y00098150D02*
X00435410Y00104868D01*
X00425300Y00098150D02*
X00428692D01*
X00217270Y00183300D02*
X00226024Y00174547D01*
X00438140Y00096169D02*
Y00111131D01*
X00428274Y00086302D02*
X00438140Y00096169D01*
X00429022Y00120249D02*
X00438140Y00111131D01*
X00425300Y00072750D02*
X00428274Y00075723D01*
Y00086302D01*
X00226935Y00177496D02*
X00226935D01*
X00284182Y00120249D01*
X00220000Y00184431D02*
X00226935Y00177496D01*
X00180400Y00367300D02*
Y00367800D01*
X00153581Y00337730D02*
X00189650D01*
X00152450Y00335000D02*
X00188519D01*
X00189650Y00337730D02*
X00220000Y00307379D01*
Y00184431D02*
Y00307379D01*
X00217270Y00183300D02*
Y00306249D01*
D49*
X00458262Y00427272D02*
X00550345D01*
X00427811Y00396821D02*
X00458262Y00427272D01*
X00550345D02*
X00600781Y00376836D01*
X00425083Y00397951D02*
X00457132Y00430000D01*
X00551475D01*
X00601911Y00379564D01*
X00440741Y00389237D02*
X00469004Y00417500D01*
X00440741Y00287769D02*
X00456224Y00272286D01*
X00440741Y00287769D02*
Y00389237D01*
X00443469Y00288899D02*
X00457355Y00275014D01*
X00443469Y00388107D02*
X00470134Y00414772D01*
X00443469Y00288899D02*
Y00388107D01*
X00470134Y00414772D02*
X00525228D01*
X00541308Y00398692D01*
X00469004Y00417500D02*
X00526358D01*
X00544037Y00399822D01*
X00694508Y00375668D02*
X00696217Y00377377D01*
X00691536Y00342583D02*
X00706132Y00357179D01*
Y00373736D01*
X00541336Y00345311D02*
X00690406D01*
X00696217Y00377377D02*
X00698633D01*
X00703404Y00372605D01*
X00690406Y00345311D02*
X00703404Y00358309D01*
X00693300Y00367100D02*
X00694508Y00368308D01*
X00542466Y00342583D02*
X00691536D01*
X00703404Y00358309D02*
Y00372605D01*
X00694508Y00368308D02*
Y00375668D01*
X00290723Y00380311D02*
X00314991D01*
X00291853Y00377583D02*
X00319417D01*
X00275750Y00361479D02*
X00291853Y00377583D01*
X00273022Y00362609D02*
X00290723Y00380311D01*
X00486735Y00258483D02*
X00496039Y00249179D01*
Y00205525D02*
X00537379Y00164185D01*
X00496039Y00205525D02*
Y00249179D01*
X00498767Y00206655D02*
X00540107Y00165315D01*
X00498767Y00206655D02*
Y00250309D01*
X00489463Y00259613D02*
X00498767Y00250309D01*
X00554806Y00117186D02*
Y00242178D01*
X00586892Y00274264D01*
X00554806Y00117186D02*
X00562779Y00109212D01*
X00557534Y00118316D02*
X00565508Y00110343D01*
X00557534Y00241047D02*
X00588022Y00271536D01*
X00557534Y00118316D02*
Y00241047D01*
X00565508Y00102780D02*
Y00110343D01*
X00567216Y00101072D02*
X00574778D01*
X00562779Y00098251D02*
X00576385Y00084646D01*
X00562779Y00098251D02*
Y00109212D01*
X00576385Y00074065D02*
X00577700Y00072750D01*
X00565508Y00102780D02*
X00567216Y00101072D01*
X00576385Y00074065D02*
Y00084646D01*
X00574778Y00101072D02*
X00577700Y00098150D01*
X00534064Y00224214D02*
X00542272Y00232422D01*
Y00260149D01*
X00607434Y00325311D01*
X00545000Y00259019D02*
X00608564Y00322583D01*
X00545000Y00231292D02*
Y00259019D01*
X00535194Y00221486D02*
X00545000Y00231292D01*
X00273022Y00286120D02*
X00287606Y00271536D01*
X00273022Y00286120D02*
Y00362609D01*
X00275750Y00287250D02*
X00288736Y00274264D01*
X00275750Y00287250D02*
Y00361479D01*
X00396636Y00274494D02*
Y00323711D01*
X00399364Y00273364D02*
Y00323711D01*
X00391000Y00328000D02*
X00392229D01*
X00357000Y00266550D02*
X00361494D01*
X00384836Y00258836D02*
X00399364Y00273364D01*
X00361494Y00253850D02*
X00366480Y00258836D01*
X00403771Y00328000D02*
X00405000D01*
X00394927Y00325420D02*
X00396636Y00323711D01*
X00383706Y00261564D02*
X00396636Y00274494D01*
X00357000Y00253850D02*
X00361494D01*
X00394809Y00325420D02*
X00394927D01*
X00361494Y00266550D02*
X00366480Y00261564D01*
X00399364Y00323711D02*
X00401073Y00325420D01*
X00366480Y00261564D02*
X00383706D01*
X00392229Y00328000D02*
X00394809Y00325420D01*
X00401073D02*
X00401191D01*
X00366480Y00258836D02*
X00384836D01*
X00401191Y00325420D02*
X00403771Y00328000D01*
X00540107Y00102780D02*
Y00165315D01*
X00537379Y00097710D02*
Y00164185D01*
X00637272Y00246611D02*
X00652224Y00261564D01*
X00637272Y00173738D02*
Y00246611D01*
Y00173738D02*
X00689779Y00121230D01*
X00640000Y00245481D02*
X00653354Y00258836D01*
X00640000Y00174868D02*
X00692507Y00122361D01*
X00640000Y00174868D02*
Y00245481D01*
X00668994Y00215750D02*
X00673980Y00220736D01*
X00680736D01*
X00737479Y00281337D02*
Y00317954D01*
X00680736Y00220736D02*
X00740207Y00280207D01*
X00679606Y00223464D02*
X00737479Y00281337D01*
X00664500Y00228450D02*
X00668994D01*
X00673980Y00223464D02*
X00679606D01*
X00664500Y00215750D02*
X00668994D01*
X00740207Y00280207D02*
Y00316824D01*
X00668994Y00228450D02*
X00673980Y00223464D01*
X00314991Y00380311D02*
X00316700Y00382019D01*
Y00392500D01*
X00319417Y00377583D02*
X00329400Y00367600D01*
X00472020Y00380311D02*
X00503691D01*
X00505400Y00382019D01*
X00508117Y00377583D02*
X00518100Y00367600D01*
X00505400Y00382019D02*
Y00392500D01*
X00473150Y00377583D02*
X00508117D01*
X00544037Y00383720D02*
Y00399822D01*
X00541308Y00384850D02*
Y00398692D01*
X00540730Y00380413D02*
X00544037Y00383720D01*
X00530800Y00367100D02*
Y00378705D01*
X00539600Y00383141D02*
X00541308Y00384850D01*
X00532509Y00380413D02*
X00540730D01*
X00518100Y00391901D02*
X00526860Y00383141D01*
X00530800Y00378705D02*
X00532509Y00380413D01*
X00526860Y00383141D02*
X00539600D01*
X00518100Y00391901D02*
Y00392500D01*
X00601911Y00379564D02*
X00640791D01*
X00600781Y00376836D02*
X00645964D01*
X00640791Y00379564D02*
X00642500Y00381273D01*
Y00392500D01*
X00645964Y00376836D02*
X00655200Y00367600D01*
X00689360Y00383141D02*
X00696727D01*
X00706132Y00373736D01*
X00680600Y00391901D02*
X00689360Y00383141D01*
X00803934Y00384410D02*
Y00392034D01*
X00737479Y00317954D02*
X00803934Y00384410D01*
X00800258Y00376876D02*
X00808224D01*
X00803934Y00392034D02*
X00804600Y00392700D01*
X00808224Y00376876D02*
X00817300Y00367800D01*
X00740207Y00316824D02*
X00800258Y00376876D01*
X00857109Y00379564D02*
X00869582D01*
X00877811Y00387793D01*
X00852508Y00382293D02*
X00868452D01*
X00877811Y00387793D02*
Y00408664D01*
X00875082Y00388923D02*
Y00407534D01*
X00842700Y00392101D02*
X00852508Y00382293D01*
X00855400Y00367300D02*
Y00377856D01*
X00857109Y00379564D01*
X00868452Y00382293D02*
X00875082Y00388923D01*
X00294271Y00271536D02*
X00295979Y00269827D01*
Y00269238D02*
Y00269827D01*
X00298667Y00266550D02*
X00303000D01*
X00295979Y00269238D02*
X00298667Y00266550D01*
X00287606Y00271536D02*
X00294271D01*
X00295979Y00276562D02*
X00298667Y00279250D01*
X00303000D01*
X00295979Y00275973D02*
Y00276562D01*
X00294271Y00274264D02*
X00295979Y00275973D01*
X00288736Y00274264D02*
X00294271D01*
X00329400Y00367100D02*
Y00367600D01*
X00540107Y00102780D02*
X00541816Y00101072D01*
X00549378D01*
X00694216D02*
X00701778D01*
X00692507Y00102780D02*
Y00122361D01*
Y00102780D02*
X00694216Y00101072D01*
X00689779Y00097710D02*
Y00121230D01*
X00537379Y00097710D02*
X00549326Y00085763D01*
X00660167Y00266550D02*
X00664500D01*
X00464917Y00369350D02*
X00473150Y00377583D01*
X00601771Y00274264D02*
X00603479Y00275973D01*
X00390711Y00220736D02*
X00427811Y00257836D01*
X00361333Y00215750D02*
X00364021Y00218438D01*
X00603479Y00269238D02*
X00606167Y00266550D01*
X00464917Y00353955D02*
X00489463Y00329409D01*
X00701778Y00101072D02*
X00704700Y00098150D01*
X00657479Y00256538D02*
Y00257127D01*
Y00256538D02*
X00660167Y00253850D01*
X00653354Y00258836D02*
X00655771D01*
X00657479Y00263862D02*
X00660167Y00266550D01*
X00652224Y00261564D02*
X00655771D01*
X00701726Y00075724D02*
X00704700Y00072750D01*
X00701726Y00075724D02*
Y00085763D01*
X00689779Y00097710D02*
X00701726Y00085763D01*
X00655771Y00261564D02*
X00657479Y00263273D01*
Y00263862D01*
X00660167Y00253850D02*
X00664500D01*
X00655771Y00258836D02*
X00657479Y00257127D01*
X00606167Y00279250D02*
X00610500D01*
X00603479Y00269238D02*
Y00269827D01*
X00601771Y00271536D02*
X00603479Y00269827D01*
X00606167Y00266550D02*
X00610500D01*
X00364021Y00219027D02*
X00365729Y00220736D01*
Y00223464D02*
X00389581D01*
X00364021Y00218438D02*
Y00219027D01*
X00357000Y00215750D02*
X00361333D01*
X00364021Y00225173D02*
X00365729Y00223464D01*
X00425083Y00258966D02*
Y00397951D01*
X00459771Y00272286D02*
X00461479Y00270577D01*
Y00269988D02*
X00464167Y00267300D01*
Y00280000D02*
X00468500D01*
X00461479Y00276723D02*
Y00277312D01*
X00464167Y00267300D02*
X00468500D01*
X00459771Y00275014D02*
X00461479Y00276723D01*
Y00277312D02*
X00464167Y00280000D01*
X00456224Y00272286D02*
X00459771D01*
X00461479Y00269988D02*
Y00270577D01*
X00457355Y00275014D02*
X00459771D01*
X00549326Y00075724D02*
Y00085763D01*
X00464917Y00353955D02*
Y00369350D01*
X00549378Y00101072D02*
X00552300Y00098150D01*
X00486735Y00258483D02*
Y00328279D01*
X00462189Y00370480D02*
X00472020Y00380311D01*
X00462189Y00352825D02*
X00486735Y00328279D01*
X00549326Y00075724D02*
X00552300Y00072750D01*
X00518100Y00367100D02*
Y00367600D01*
X00489463Y00259613D02*
Y00329409D01*
X00462189Y00352825D02*
Y00370480D01*
X00526833Y00216500D02*
X00529521Y00219188D01*
X00608564Y00322583D02*
X00696558D01*
X00586892Y00274264D02*
X00601771D01*
X00603479Y00276562D02*
X00606167Y00279250D01*
X00603479Y00275973D02*
Y00276562D01*
X00588022Y00271536D02*
X00601771D01*
X00513771Y00262314D02*
X00515479Y00264023D01*
Y00264612D02*
X00518167Y00267300D01*
X00499917Y00273751D02*
X00511354Y00262314D01*
X00513771D01*
X00497189Y00301164D02*
X00541336Y00345311D01*
X00515479Y00257288D02*
X00518167Y00254600D01*
X00522500D01*
X00518167Y00267300D02*
X00522500D01*
X00515479Y00257288D02*
Y00257877D01*
X00680600Y00391901D02*
Y00392500D01*
X00497189Y00272621D02*
Y00301164D01*
X00510224Y00259586D02*
X00513771D01*
X00515479Y00257877D01*
X00497189Y00272621D02*
X00510224Y00259586D01*
X00499917Y00273751D02*
Y00300034D01*
X00515479Y00264023D02*
Y00264612D01*
X00499917Y00300034D02*
X00542466Y00342583D01*
X00427811Y00257836D02*
Y00396821D01*
X00365729Y00220736D02*
X00390711D01*
X00389581Y00223464D02*
X00425083Y00258966D01*
X00364021Y00225173D02*
Y00225762D01*
X00655200Y00367100D02*
Y00367600D01*
X00361333Y00228450D02*
X00364021Y00225762D01*
X00357000Y00228450D02*
X00361333D01*
X00522500Y00216500D02*
X00526833D01*
X00863664Y00422811D02*
X00877811Y00408664D01*
X00529521Y00225923D02*
X00531229Y00224214D01*
X00529521Y00225923D02*
Y00226512D01*
X00531229Y00224214D02*
X00534064D01*
X00792927Y00422811D02*
X00863664D01*
X00695427Y00325311D02*
X00792927Y00422811D01*
X00522500Y00229200D02*
X00526833D01*
X00696558Y00322583D02*
X00794058Y00420083D01*
X00529521Y00219188D02*
Y00219777D01*
X00794058Y00420083D02*
X00862534D01*
X00842700Y00392101D02*
Y00392700D01*
X00529521Y00219777D02*
X00531229Y00221486D01*
X00607434Y00325311D02*
X00695427D01*
X00531229Y00221486D02*
X00535194D01*
X00526833Y00229200D02*
X00529521Y00226512D01*
X00862534Y00420083D02*
X00875082Y00407534D01*
X00817300Y00367300D02*
Y00367800D01*
D50*
X00842270Y00137500D02*
X00860250D01*
X00838150Y00141620D02*
Y00152620D01*
Y00141620D02*
X00842270Y00137500D01*
X00838150Y00152620D02*
X00845780Y00160250D01*
X00565508Y00203800D02*
X00578763D01*
X00590908Y00215944D02*
X00610694D01*
X00578763Y00203800D02*
X00590908Y00215944D01*
X00303000Y00215750D02*
X00316700D01*
X00374567Y00203050D02*
X00404450D01*
X00462500Y00145000D02*
X00492500D01*
X00404450Y00203050D02*
X00462500Y00145000D01*
X00507500Y00160000D02*
X00526900D01*
X00492500Y00145000D02*
X00507500Y00160000D01*
X00839500Y00023000D02*
X00839600Y00022900D01*
X00858150D01*
X00858250Y00022800D01*
Y00052500D02*
X00859125Y00053375D01*
Y00074375D01*
X00860000Y00075250D01*
X00858250Y00037500D02*
Y00052500D01*
Y00022800D02*
Y00037500D01*
X00805000Y00231536D02*
X00819036D01*
X00845000Y00257500D02*
Y00296200D01*
X00819036Y00231536D02*
X00845000Y00257500D01*
X00766253Y00241003D02*
X00767750Y00242500D01*
X00757913Y00241003D02*
X00766253D01*
X00755500Y00238589D02*
X00757913Y00241003D01*
X00755500Y00222000D02*
Y00238589D01*
X00760500Y00197500D02*
Y00217000D01*
X00755500Y00222000D02*
X00760500Y00217000D01*
Y00182500D02*
Y00197500D01*
Y00152500D02*
Y00182500D01*
Y00152500D02*
X00760500Y00152500D01*
X00845780Y00160250D02*
Y00166530D01*
X00846750Y00167500D01*
X00869500Y00127500D02*
X00869500Y00127500D01*
X00869500Y00104750D02*
Y00127500D01*
X00869500Y00127500D02*
Y00128250D01*
X00860250Y00137500D02*
X00869500Y00128250D01*
X00820000Y00127500D02*
X00855500D01*
X00805000Y00142500D02*
Y00182500D01*
Y00142500D02*
X00820000Y00127500D01*
X00805000Y00182500D02*
Y00197500D01*
X00840250Y00167500D02*
Y00175000D01*
X00819000Y00182500D02*
X00832750D01*
X00840250Y00175000D01*
X00846750Y00200000D02*
Y00207500D01*
X00819000Y00197500D02*
X00844250D01*
X00846750Y00200000D01*
X00950000Y00132500D02*
X00950500D01*
X00972750Y00154750D01*
Y00263650D01*
X00957750D02*
X00972750D01*
X00942750D02*
X00957750D01*
X00927750Y00277650D02*
X00942750D01*
X00912750D02*
X00927750D01*
X00897750D02*
X00912750D01*
X00898000Y00296500D02*
Y00305750D01*
X00876650Y00275150D02*
X00898000Y00296500D01*
X00888150Y00263650D02*
X00897750D01*
X00861750Y00275150D02*
X00876650D01*
X00888150Y00263650D01*
X00912000Y00305750D02*
X00912250Y00306000D01*
X00927250D01*
X00927500Y00306250D01*
X00867150Y00319750D02*
Y00320500D01*
Y00319750D02*
X00881150Y00305750D01*
X00898000D01*
X00859750Y00207500D02*
Y00249586D01*
X00850500Y00258836D02*
X00859750Y00249586D01*
X00850500Y00258836D02*
Y00287700D01*
X00867150Y00304350D02*
Y00305100D01*
X00850500Y00287700D02*
X00867150Y00304350D01*
X00853150D02*
Y00305100D01*
X00845000Y00296200D02*
X00853150Y00304350D01*
Y00319800D02*
Y00320500D01*
Y00319750D02*
Y00319800D01*
X00832250Y00298850D02*
X00853150Y00319750D01*
X00832250Y00284650D02*
Y00298850D01*
X00853150Y00319800D02*
X00867150Y00305800D01*
Y00305100D02*
Y00305800D01*
X00745000Y00271536D02*
X00765000D01*
X00805000Y00231536D01*
Y00197500D02*
Y00231536D01*
X00468500Y00216500D02*
X00486067D01*
X00464004Y00292700D02*
X00468500D01*
X00456832Y00299872D02*
X00464004Y00292700D01*
X00456832Y00299872D02*
Y00304368D01*
X00456078Y00305122D02*
X00456832Y00304368D01*
X00522500Y00280000D02*
X00540067D01*
X00522500Y00203800D02*
X00540067D01*
X00357000Y00203050D02*
X00374567D01*
X00357000Y00279250D02*
X00362004D01*
X00365282Y00275973D01*
X00374500D01*
X00285000Y00291950D02*
X00303000D01*
X00650000Y00203050D02*
X00664500D01*
X00628546Y00222607D02*
Y00257796D01*
X00610889Y00216139D02*
X00622078D01*
X00628546Y00222607D01*
Y00257796D02*
X00650000Y00279250D01*
X00664500D02*
X00685000D01*
X00692714Y00271536D02*
X00715000D01*
X00685000Y00279250D02*
X00692714Y00271536D01*
X00610500Y00291950D02*
X00628546D01*
X00641596Y00305000D02*
X00676776D01*
X00628546Y00291950D02*
X00641596Y00305000D01*
X00696776Y00285000D02*
X00715000D01*
X00676776Y00305000D02*
X00696776Y00285000D01*
X00755500Y00284650D02*
X00832250D01*
X00748951Y00117000D02*
X00779587D01*
X00839500Y00037000D02*
Y00057087D01*
X00779587Y00117000D02*
X00839500Y00057087D01*
X00730101Y00098150D02*
X00748951Y00117000D01*
X00774500Y00140750D02*
Y00152500D01*
X00767750Y00134000D02*
X00774500Y00140750D01*
X00718000Y00117000D02*
X00735000Y00134000D01*
X00767750D01*
X00718000Y00084850D02*
X00730100Y00072750D01*
X00718000Y00084850D02*
Y00117000D01*
X00686550Y00203050D02*
X00735500Y00252000D01*
X00738250D01*
X00664500Y00203050D02*
X00686550D01*
X00650000Y00279250D02*
X00664500D01*
D51*
X00286601Y00140741D02*
X00426351D01*
X00242107Y00185235D02*
Y00317893D01*
X00239213Y00184037D02*
X00285403Y00137847D01*
X00425153D01*
X00239213Y00184037D02*
Y00316695D01*
X00242107Y00185235D02*
X00286601Y00140741D01*
X00327107Y00193802D02*
X00333802Y00187107D01*
X00327107Y00193802D02*
Y00313199D01*
X00333802Y00187107D02*
X00396971D01*
X00335000Y00190000D02*
X00398170D01*
X00330000Y00195000D02*
Y00312000D01*
Y00195000D02*
X00335000Y00190000D01*
X00327107Y00313199D02*
X00353801Y00339893D01*
X00330000Y00312000D02*
X00355000Y00337000D01*
X00396971Y00187107D02*
X00452078Y00132000D01*
X00497000D01*
X00453276Y00134893D02*
X00498199D01*
X00398170Y00190000D02*
X00453276Y00134893D01*
X00443949Y00123142D02*
X00454693D01*
X00426351Y00140741D02*
X00443949Y00123142D01*
X00442751Y00120249D02*
X00453494D01*
X00425153Y00137847D02*
X00442751Y00120249D01*
X00498199Y00134893D02*
X00514374Y00118717D01*
X00497000Y00132000D02*
X00511481Y00117519D01*
X00454693Y00123142D02*
X00463563Y00114272D01*
X00453494Y00120249D02*
X00460670Y00113074D01*
X00463563Y00096076D02*
Y00114272D01*
X00460670Y00105547D02*
Y00113074D01*
X00229908Y00326000D02*
X00239213Y00316695D01*
X00232802Y00327198D02*
X00242107Y00317893D01*
X00193100Y00367300D02*
Y00377755D01*
X00195002Y00379657D01*
X00180400Y00392200D02*
X00190050Y00382550D01*
X00213111Y00379657D02*
X00227954Y00364813D01*
X00190050Y00382550D02*
X00214309D01*
X00229009Y00367851D01*
X00195002Y00379657D02*
X00213111D01*
X00356702Y00379959D02*
X00378041D01*
X00342100Y00392000D02*
X00351248Y00382852D01*
X00379240D02*
X00387893Y00374198D01*
X00378041Y00379959D02*
X00385000Y00373000D01*
X00354800Y00378057D02*
X00356702Y00379959D01*
X00351248Y00382852D02*
X00379240D01*
X00354800Y00367100D02*
Y00378057D01*
X00296062Y00238589D02*
X00298622Y00241150D01*
X00303000D01*
X00296062Y00238148D02*
Y00238589D01*
X00294160Y00236247D02*
X00296062Y00238148D01*
X00279043Y00236247D02*
X00294160D01*
X00273684Y00241606D02*
X00279043Y00236247D01*
X00272500Y00241606D02*
X00273684D01*
X00294160Y00233353D02*
X00296062Y00231451D01*
Y00231011D02*
Y00231451D01*
X00279030Y00233353D02*
X00294160D01*
X00298622Y00228450D02*
X00303000D01*
X00296062Y00231011D02*
X00298622Y00228450D01*
X00273283Y00227606D02*
X00279030Y00233353D01*
X00272500Y00227606D02*
X00273283D01*
X00453642Y00086156D02*
X00463563Y00096076D01*
X00453642Y00075692D02*
Y00086156D01*
X00450700Y00072750D02*
X00453642Y00075692D01*
X00453273Y00098150D02*
X00460670Y00105547D01*
X00450700Y00098150D02*
X00453273D01*
X00180400Y00392200D02*
Y00392700D01*
X00227954Y00364813D02*
X00229908Y00362859D01*
X00229009Y00367851D02*
X00229009D01*
X00232802Y00364058D01*
Y00327198D02*
Y00364058D01*
X00229908Y00326000D02*
Y00362859D01*
X00387893Y00347695D02*
Y00374198D01*
X00377198Y00337000D02*
X00387893Y00347695D01*
X00514374Y00096088D02*
Y00118717D01*
X00504442Y00086156D02*
X00514374Y00096088D01*
X00504442Y00075692D02*
Y00086156D01*
X00501500Y00072750D02*
X00504442Y00075692D01*
X00342100Y00392000D02*
Y00392500D01*
X00355000Y00337000D02*
X00377198D01*
X00376000Y00339893D02*
X00385000Y00348893D01*
Y00373000D01*
X00511481Y00105535D02*
Y00117519D01*
X00504096Y00098150D02*
X00511481Y00105535D01*
X00501500Y00098150D02*
X00504096D01*
X00353801Y00339893D02*
X00376000D01*
X00603562Y00238589D02*
X00606123Y00241150D01*
X00610500D01*
X00603562Y00238148D02*
Y00238589D01*
X00601660Y00236247D02*
X00603562Y00238148D01*
X00589524Y00236247D02*
X00601660D01*
X00583771Y00242000D02*
X00589524Y00236247D01*
X00583000Y00242000D02*
X00583771D01*
X00601660Y00233353D02*
X00603562Y00231451D01*
Y00231011D02*
Y00231451D01*
X00589538Y00233353D02*
X00601660D01*
X00606123Y00228450D02*
X00610500D01*
X00603562Y00231011D02*
X00606123Y00228450D01*
X00584184Y00228000D02*
X00589538Y00233353D01*
X00583000Y00228000D02*
X00584184D01*
X00447429Y00233909D02*
X00447429Y00233909D01*
X00458668D01*
X00443541Y00233909D02*
X00447429D01*
X00463377Y00229200D02*
X00468500D01*
X00458668Y00233909D02*
X00463377Y00229200D01*
X00438000Y00228368D02*
X00443541Y00233909D01*
X00438000Y00228356D02*
Y00228368D01*
X00463377Y00241900D02*
X00468500D01*
X00458280Y00236802D02*
X00463377Y00241900D01*
X00446231Y00236802D02*
X00446231Y00236802D01*
X00458280D01*
X00443541Y00236802D02*
X00446231D01*
X00438000Y00242343D02*
X00443541Y00236802D01*
X00438000Y00242343D02*
Y00242356D01*
D52*
X00927750Y00254711D02*
Y00263650D01*
D53*
X00050000Y00252500D02*
D03*
X00950000Y00132500D02*
D03*
D54*
X00075400Y00252500D02*
D03*
Y00239800D02*
D03*
X00050000D02*
D03*
X00075400Y00227100D02*
D03*
X00050000D02*
D03*
X00075400Y00214400D02*
D03*
X00050000D02*
D03*
X00075400Y00201700D02*
D03*
X00050000D02*
D03*
X00924600Y00132500D02*
D03*
Y00145200D02*
D03*
X00950000D02*
D03*
X00924600Y00157900D02*
D03*
X00950000D02*
D03*
X00924600Y00170600D02*
D03*
X00950000D02*
D03*
X00924600Y00183300D02*
D03*
X00950000D02*
D03*
D55*
X00205800Y00392700D02*
D03*
X00367500Y00392500D02*
D03*
X00530800D02*
D03*
X00693300D02*
D03*
X00855400Y00392700D02*
D03*
D56*
X00205800Y00367300D02*
D03*
X00193100D02*
D03*
Y00392700D02*
D03*
X00180400Y00367300D02*
D03*
Y00392700D02*
D03*
X00167700Y00367300D02*
D03*
Y00392700D02*
D03*
X00155000Y00367300D02*
D03*
Y00392700D02*
D03*
X00367500Y00367100D02*
D03*
X00354800D02*
D03*
Y00392500D02*
D03*
X00342100Y00367100D02*
D03*
Y00392500D02*
D03*
X00329400Y00367100D02*
D03*
Y00392500D02*
D03*
X00316700Y00367100D02*
D03*
Y00392500D02*
D03*
X00530800Y00367100D02*
D03*
X00518100D02*
D03*
Y00392500D02*
D03*
X00505400Y00367100D02*
D03*
Y00392500D02*
D03*
X00492700Y00367100D02*
D03*
Y00392500D02*
D03*
X00480000Y00367100D02*
D03*
Y00392500D02*
D03*
X00693300Y00367100D02*
D03*
X00680600D02*
D03*
Y00392500D02*
D03*
X00667900Y00367100D02*
D03*
Y00392500D02*
D03*
X00655200Y00367100D02*
D03*
Y00392500D02*
D03*
X00642500Y00367100D02*
D03*
Y00392500D02*
D03*
X00855400Y00367300D02*
D03*
X00842700D02*
D03*
Y00392700D02*
D03*
X00830000Y00367300D02*
D03*
Y00392700D02*
D03*
X00817300Y00367300D02*
D03*
Y00392700D02*
D03*
X00804600Y00367300D02*
D03*
Y00392700D02*
D03*
D57*
X00272900Y00072750D02*
D03*
Y00098150D02*
D03*
X00298300Y00072750D02*
D03*
Y00098150D02*
D03*
X00323700Y00072750D02*
D03*
Y00098150D02*
D03*
X00349100Y00072750D02*
D03*
Y00098150D02*
D03*
X00730101D02*
D03*
X00755500Y00072750D02*
D03*
X00628500Y00098150D02*
D03*
X00653900Y00072750D02*
D03*
Y00098150D02*
D03*
X00374500Y00072750D02*
D03*
X00679300Y00098150D02*
D03*
Y00072750D02*
D03*
X00704700Y00098150D02*
D03*
Y00072750D02*
D03*
X00730100D02*
D03*
X00628500D02*
D03*
X00603100Y00098150D02*
D03*
Y00072750D02*
D03*
X00577700Y00098150D02*
D03*
Y00072750D02*
D03*
X00552300Y00098150D02*
D03*
Y00072750D02*
D03*
X00526900Y00098150D02*
D03*
Y00072750D02*
D03*
X00501500Y00098150D02*
D03*
Y00072750D02*
D03*
X00476100Y00098150D02*
D03*
Y00072750D02*
D03*
X00450700Y00098150D02*
D03*
Y00072750D02*
D03*
X00425300Y00098150D02*
D03*
Y00072750D02*
D03*
X00399900Y00098150D02*
D03*
X00374500D02*
D03*
X00399900Y00072750D02*
D03*
D58*
X00755500Y00098150D02*
D03*
D59*
X00960000Y00040000D02*
D03*
Y00410000D02*
D03*
X00040000D02*
D03*
Y00040000D02*
D03*
D60*
X00628500Y00115000D02*
D03*
Y00057087D02*
D03*
X00502500Y00142500D02*
D03*
X00662500Y00175000D02*
D03*
X00712500Y00147500D02*
D03*
X00260000Y00365000D02*
D03*
Y00395000D02*
D03*
X00897500Y00182500D02*
D03*
X00960000Y00222500D02*
D03*
X00897500D02*
D03*
X00173300Y00405000D02*
D03*
X00148300D02*
D03*
X00185800D02*
D03*
X00160800D02*
D03*
X00310000Y00406000D02*
D03*
X00322500D02*
D03*
X00335000D02*
D03*
X00347500D02*
D03*
X00473300D02*
D03*
X00485800D02*
D03*
X00498300D02*
D03*
X00510800D02*
D03*
X00673300D02*
D03*
X00648300D02*
D03*
X00660800D02*
D03*
X00635800D02*
D03*
X00845780Y00149675D02*
D03*
X00972500Y00325189D02*
D03*
X00826018Y00254756D02*
D03*
X00820767Y00248211D02*
D03*
X00645110Y00291950D02*
D03*
X00135501Y00393000D02*
D03*
X00297201Y00392800D02*
D03*
X00460501D02*
D03*
X00623001D02*
D03*
X00825000Y00150000D02*
D03*
X00101000Y00024145D02*
D03*
X00175500Y00024573D02*
D03*
X00250500D02*
D03*
X00325500D02*
D03*
X00400000Y00025000D02*
D03*
X00475000D02*
D03*
X00550000D02*
D03*
X00625000D02*
D03*
X00700000D02*
D03*
X00774500Y00025427D02*
D03*
X00686550Y00254353D02*
D03*
X00255000Y00330000D02*
D03*
X00260000Y00274494D02*
D03*
X00569638Y00318452D02*
D03*
X00569112Y00143968D02*
D03*
X00798500Y00313037D02*
D03*
X00714911Y00312500D02*
D03*
X00730800Y00338452D02*
D03*
X00785101Y00393000D02*
D03*
X00892900Y00365200D02*
D03*
Y00395200D02*
D03*
X00730800Y00395000D02*
D03*
X00568300Y00365000D02*
D03*
Y00395000D02*
D03*
X00405000D02*
D03*
Y00365000D02*
D03*
X00359330Y00328000D02*
D03*
X00412147Y00269652D02*
D03*
X00380821Y00243182D02*
D03*
X00360000Y00170000D02*
D03*
X00398170Y00154487D02*
D03*
X00230000Y00190204D02*
D03*
Y00250000D02*
D03*
Y00300000D02*
D03*
X00612500Y00057500D02*
D03*
X00607500Y00115000D02*
D03*
X00476100Y00057087D02*
D03*
Y00115000D02*
D03*
X00515000Y00057500D02*
D03*
X00525000Y00115000D02*
D03*
X00653900Y00057087D02*
D03*
Y00115000D02*
D03*
X00679300D02*
D03*
Y00057087D02*
D03*
X00849233Y00354200D02*
D03*
X00835400D02*
D03*
X00822900D02*
D03*
X00835400Y00406200D02*
D03*
X00822900D02*
D03*
X00810400D02*
D03*
X00797900D02*
D03*
X00861733Y00354200D02*
D03*
X00687133Y00354000D02*
D03*
X00673300D02*
D03*
X00660800D02*
D03*
X00537133D02*
D03*
X00212133Y00354200D02*
D03*
X00498300Y00354000D02*
D03*
X00510800D02*
D03*
X00524633D02*
D03*
X00173300Y00354200D02*
D03*
X00185800D02*
D03*
X00199633D02*
D03*
X00361333Y00354000D02*
D03*
X00347500D02*
D03*
X00335000D02*
D03*
X00115000Y00097500D02*
D03*
X00121046Y00085000D02*
D03*
X00121167Y00108750D02*
D03*
X00108833D02*
D03*
Y00085000D02*
D03*
X00156100Y00085000D02*
D03*
X00197500Y00070000D02*
D03*
X00166000Y00147500D02*
D03*
Y00092500D02*
D03*
X00182500Y00107500D02*
D03*
Y00132500D02*
D03*
X00185000Y00160204D02*
D03*
X00182500Y00182500D02*
D03*
X00174700Y00170079D02*
D03*
X00170000Y00280000D02*
D03*
X00187500Y00297500D02*
D03*
X00118899Y00260000D02*
D03*
Y00275000D02*
D03*
X00018833Y00310000D02*
D03*
Y00333750D02*
D03*
X00031167D02*
D03*
X00031046Y00310000D02*
D03*
X00025000Y00322500D02*
D03*
X00650000Y00241500D02*
D03*
X00590908Y00203800D02*
D03*
X00450000Y00217500D02*
D03*
X00507500Y00241856D02*
D03*
X00342500Y00240816D02*
D03*
X00288098Y00203050D02*
D03*
X00316700Y00215750D02*
D03*
X00679300Y00291950D02*
D03*
X00522500Y00304368D02*
D03*
X00342500Y00297500D02*
D03*
X00630601Y00174547D02*
D03*
Y00185000D02*
D03*
X00489463Y00192800D02*
D03*
X00478220Y00159399D02*
D03*
X00422081Y00204005D02*
D03*
X00322601Y00185000D02*
D03*
Y00170000D02*
D03*
X00322601Y00155000D02*
D03*
X00281254Y00162255D02*
D03*
X00287422Y00155000D02*
D03*
Y00170000D02*
D03*
X00606167Y00143968D02*
D03*
X00595422Y00170000D02*
D03*
Y00155000D02*
D03*
X00446231Y00174547D02*
D03*
X00453494Y00178676D02*
D03*
X00453642Y00170000D02*
D03*
X00816462Y00111250D02*
D03*
X00816454Y00120000D02*
D03*
X00830000Y00087399D02*
D03*
X00882851Y00052500D02*
D03*
Y00037500D02*
D03*
X00882851Y00022500D02*
D03*
X00869500Y00062811D02*
D03*
X00967500Y00132500D02*
D03*
X00785101Y00167500D02*
D03*
X00785101Y00182500D02*
D03*
Y00197500D02*
D03*
X00745904Y00168773D02*
D03*
X00735806Y00168443D02*
D03*
X00745904Y00178974D02*
D03*
X00712500Y00212000D02*
D03*
X00755500Y00252000D02*
D03*
X00826350Y00210000D02*
D03*
X00880000Y00150000D02*
D03*
X00850150Y00233264D02*
D03*
X00826350Y00222500D02*
D03*
X00927750Y00253850D02*
D03*
X00912750D02*
D03*
X00972750Y00287700D02*
D03*
X00957750D02*
D03*
X00798500Y00278000D02*
D03*
X00874189Y00284650D02*
D03*
X00982500Y00315000D02*
D03*
X00957500Y00330000D02*
D03*
X00927500Y00325311D02*
D03*
X00456078Y00313939D02*
D03*
X00540067Y00288939D02*
D03*
X00565508Y00194861D02*
D03*
X00540067D02*
D03*
X00486067Y00225439D02*
D03*
X00565508Y00203800D02*
D03*
X00486067Y00216500D02*
D03*
X00456078Y00305122D02*
D03*
X00540067Y00280000D02*
D03*
Y00203800D02*
D03*
X00738679Y00265215D02*
D03*
X00721321Y00277857D02*
D03*
X00755500Y00293589D02*
D03*
X00715000Y00293939D02*
D03*
X00526900Y00151061D02*
D03*
X00380821Y00269652D02*
D03*
X00380854Y00209405D02*
D03*
X00285000Y00300889D02*
D03*
Y00224689D02*
D03*
Y00291950D02*
D03*
X00374500Y00275973D02*
D03*
X00391000Y00328000D02*
D03*
X00405000D02*
D03*
X00374567Y00203050D02*
D03*
X00526900Y00160000D02*
D03*
X00650000Y00203050D02*
D03*
X00715000Y00271536D02*
D03*
X00745000D02*
D03*
X00715000Y00285000D02*
D03*
X00755500Y00284650D02*
D03*
X00272500Y00227606D02*
D03*
Y00241606D02*
D03*
Y00218666D02*
D03*
Y00250606D02*
D03*
X00583000Y00228000D02*
D03*
Y00242000D02*
D03*
X00438000Y00228356D02*
D03*
Y00242356D02*
D03*
Y00251356D02*
D03*
Y00219417D02*
D03*
X00414000Y00328000D02*
D03*
X00382061D02*
D03*
X00583000Y00219061D02*
D03*
Y00251000D02*
D03*
X00140500Y00203500D02*
D03*
Y00216500D02*
D03*
X00151500Y00203500D02*
D03*
Y00216500D02*
D03*
X00162500Y00203500D02*
D03*
Y00216500D02*
D03*
M02*
