G04*
G04 #@! TF.GenerationSoftware,Altium Limited,Altium Designer,21.8.1 (53)*
G04*
G04 Layer_Physical_Order=4*
G04 Layer_Color=16711680*
%FSAX44Y44*%
%MOMM*%
G71*
G04*
G04 #@! TF.SameCoordinates,FA5E87E6-E1E0-4C40-9374-903DC783770A*
G04*
G04*
G04 #@! TF.FilePolarity,Positive*
G04*
G01*
G75*
%ADD13C,0.3000*%
%ADD49C,0.1458*%
%ADD50C,0.2060*%
%ADD51C,0.1623*%
%ADD53R,1.0000X1.0000*%
%ADD54O,1.3000X1.0000*%
%ADD55R,1.0000X1.0000*%
%ADD56O,1.0000X1.3000*%
%ADD57C,1.7000*%
%ADD58R,1.7000X1.7000*%
%ADD59C,6.0000*%
%ADD60C,0.6000*%
G36*
X00954508Y00444676D02*
X00949151Y00443390D01*
X00944061Y00441282D01*
X00939364Y00438403D01*
X00935175Y00434825D01*
X00931597Y00430636D01*
X00928718Y00425939D01*
X00926610Y00420849D01*
X00925324Y00415492D01*
X00924892Y00410000D01*
X00925324Y00404508D01*
X00926610Y00399151D01*
X00928718Y00394061D01*
X00931597Y00389364D01*
X00935175Y00385175D01*
X00939364Y00381597D01*
X00944061Y00378718D01*
X00949151Y00376610D01*
X00954508Y00375324D01*
X00960000Y00374892D01*
X00965492Y00375324D01*
X00970849Y00376610D01*
X00975939Y00378718D01*
X00980636Y00381597D01*
X00984825Y00385175D01*
X00988403Y00389364D01*
X00991282Y00394061D01*
X00993390Y00399151D01*
X00994676Y00404508D01*
X00995922Y00404409D01*
Y00045591D01*
X00994676Y00045492D01*
X00993390Y00050849D01*
X00991282Y00055939D01*
X00988403Y00060636D01*
X00984825Y00064825D01*
X00980636Y00068403D01*
X00975939Y00071282D01*
X00970849Y00073390D01*
X00965492Y00074676D01*
X00960000Y00075108D01*
X00954508Y00074676D01*
X00949151Y00073390D01*
X00944061Y00071282D01*
X00939364Y00068403D01*
X00935175Y00064825D01*
X00931597Y00060636D01*
X00928718Y00055939D01*
X00926610Y00050849D01*
X00925324Y00045492D01*
X00924892Y00040000D01*
X00925324Y00034508D01*
X00926610Y00029151D01*
X00928718Y00024061D01*
X00931597Y00019364D01*
X00935175Y00015175D01*
X00939364Y00011597D01*
X00944061Y00008718D01*
X00949151Y00006610D01*
X00954508Y00005324D01*
X00954409Y00004078D01*
X00787625D01*
X00787147Y00005233D01*
X00793457Y00011543D01*
X00793853Y00012500D01*
Y00117500D01*
X00793457Y00118457D01*
X00788457Y00123457D01*
X00787500Y00123853D01*
X00723821D01*
X00722864Y00123457D01*
X00716543Y00117136D01*
X00716147Y00116179D01*
Y00107353D01*
X00714963Y00106951D01*
X00714328Y00107778D01*
X00711508Y00109942D01*
X00708224Y00111302D01*
X00704700Y00111767D01*
X00701312Y00111320D01*
X00700879Y00111420D01*
X00700062Y00111966D01*
Y00146598D01*
X00878320Y00324855D01*
X00878320Y00324855D01*
X00879586Y00326750D01*
X00880031Y00328986D01*
X00880031Y00328986D01*
Y00366628D01*
X00880031Y00366628D01*
X00879586Y00368863D01*
X00878320Y00370758D01*
X00863350Y00385727D01*
X00862400Y00386362D01*
Y00390700D01*
X00855400D01*
Y00392700D01*
X00853400D01*
Y00399700D01*
X00851084D01*
X00849832Y00401332D01*
X00847743Y00402935D01*
X00845311Y00403943D01*
X00842700Y00404286D01*
X00840089Y00403943D01*
X00837657Y00402935D01*
X00836350Y00401932D01*
X00835043Y00402935D01*
X00832610Y00403943D01*
X00830000Y00404286D01*
X00827390Y00403943D01*
X00824957Y00402935D01*
X00823650Y00401932D01*
X00822343Y00402935D01*
X00819911Y00403943D01*
X00817300Y00404286D01*
X00814689Y00403943D01*
X00812257Y00402935D01*
X00810950Y00401932D01*
X00809643Y00402935D01*
X00807210Y00403943D01*
X00804600Y00404286D01*
X00801990Y00403943D01*
X00799557Y00402935D01*
X00797468Y00401332D01*
X00795865Y00399243D01*
X00794857Y00396810D01*
X00794514Y00394200D01*
Y00391200D01*
X00794857Y00388590D01*
X00795323Y00387465D01*
X00794629Y00386425D01*
X00791518D01*
X00789283Y00385981D01*
X00787387Y00384714D01*
X00787387Y00384714D01*
X00763141Y00360468D01*
X00761875Y00358573D01*
X00761430Y00356338D01*
X00761430Y00356338D01*
Y00291759D01*
X00760180Y00291143D01*
X00759535Y00291638D01*
X00757588Y00292444D01*
X00755500Y00292719D01*
X00753412Y00292444D01*
X00751466Y00291638D01*
X00750827Y00291148D01*
X00720129D01*
X00719035Y00291988D01*
X00717088Y00292794D01*
X00715000Y00293069D01*
X00712912Y00292794D01*
X00712091Y00292454D01*
X00710841Y00293290D01*
Y00372403D01*
X00710397Y00374639D01*
X00709130Y00376534D01*
X00709130Y00376534D01*
X00708332Y00377333D01*
X00708331Y00377333D01*
X00708331Y00377333D01*
X00701088Y00384576D01*
X00700300Y00385500D01*
Y00390500D01*
X00693300D01*
Y00392500D01*
X00691300D01*
Y00399500D01*
X00688984D01*
X00687732Y00401132D01*
X00685643Y00402735D01*
X00683211Y00403743D01*
X00680600Y00404086D01*
X00677990Y00403743D01*
X00675557Y00402735D01*
X00674250Y00401732D01*
X00672943Y00402735D01*
X00670510Y00403743D01*
X00667900Y00404086D01*
X00665290Y00403743D01*
X00662857Y00402735D01*
X00661550Y00401732D01*
X00660243Y00402735D01*
X00657811Y00403743D01*
X00655200Y00404086D01*
X00652589Y00403743D01*
X00650157Y00402735D01*
X00648850Y00401732D01*
X00647543Y00402735D01*
X00645110Y00403743D01*
X00642500Y00404086D01*
X00639889Y00403743D01*
X00637457Y00402735D01*
X00635368Y00401132D01*
X00633765Y00399043D01*
X00632757Y00396610D01*
X00632414Y00394000D01*
Y00391000D01*
X00632757Y00388390D01*
X00633063Y00387651D01*
X00633016Y00387413D01*
X00632264Y00386315D01*
X00630585Y00385981D01*
X00628690Y00384714D01*
X00618452Y00374477D01*
X00617186Y00372581D01*
X00616741Y00370346D01*
X00616741Y00370346D01*
Y00288870D01*
X00616741Y00288870D01*
X00617186Y00286634D01*
X00618452Y00284739D01*
X00619251Y00283940D01*
X00619251Y00283940D01*
X00655814Y00247377D01*
Y00243877D01*
X00655595Y00243792D01*
X00654564Y00243669D01*
X00653605Y00245105D01*
X00651951Y00246210D01*
X00650000Y00246598D01*
X00648049Y00246210D01*
X00646395Y00245105D01*
X00646371Y00245069D01*
X00628608D01*
X00627242Y00244797D01*
X00626084Y00244023D01*
X00590950Y00208889D01*
X00590908Y00208898D01*
X00588957Y00208510D01*
X00587303Y00207405D01*
X00586198Y00205751D01*
X00585810Y00203800D01*
X00586198Y00201849D01*
X00587303Y00200195D01*
X00588957Y00199090D01*
X00590767Y00198730D01*
X00591065Y00198239D01*
X00591314Y00197508D01*
X00582795Y00188990D01*
X00581824Y00189787D01*
X00582296Y00190493D01*
X00582741Y00192728D01*
Y00210044D01*
X00582296Y00212279D01*
X00581030Y00214174D01*
X00581030Y00214174D01*
X00560042Y00235162D01*
Y00365235D01*
X00560042Y00365235D01*
X00559598Y00367470D01*
X00558331Y00369365D01*
X00558331Y00369365D01*
X00542133Y00385563D01*
X00540238Y00386830D01*
X00538003Y00387274D01*
X00537800Y00388492D01*
Y00390500D01*
X00530800D01*
Y00392500D01*
X00528800D01*
Y00399500D01*
X00526484D01*
X00525232Y00401132D01*
X00523143Y00402735D01*
X00520710Y00403743D01*
X00518100Y00404086D01*
X00515490Y00403743D01*
X00513057Y00402735D01*
X00511750Y00401732D01*
X00510443Y00402735D01*
X00508010Y00403743D01*
X00505400Y00404086D01*
X00502789Y00403743D01*
X00500357Y00402735D01*
X00499050Y00401732D01*
X00497743Y00402735D01*
X00495311Y00403743D01*
X00492700Y00404086D01*
X00490089Y00403743D01*
X00487657Y00402735D01*
X00486350Y00401732D01*
X00485043Y00402735D01*
X00482611Y00403743D01*
X00480000Y00404086D01*
X00477389Y00403743D01*
X00474957Y00402735D01*
X00472868Y00401132D01*
X00471265Y00399043D01*
X00470257Y00396610D01*
X00469914Y00394000D01*
Y00391000D01*
X00470257Y00388390D01*
X00470682Y00387364D01*
X00469988Y00386325D01*
X00465584D01*
X00465584Y00386325D01*
X00463349Y00385880D01*
X00461454Y00384614D01*
X00440570Y00363730D01*
X00439304Y00361835D01*
X00438859Y00359600D01*
X00438859Y00359600D01*
Y00313111D01*
X00436589Y00310841D01*
X00408985D01*
X00405206Y00314620D01*
Y00319958D01*
X00407088Y00320206D01*
X00409035Y00321012D01*
X00410706Y00322294D01*
X00411988Y00323965D01*
X00412794Y00325912D01*
X00413069Y00328000D01*
X00412794Y00330088D01*
X00411988Y00332034D01*
X00410706Y00333706D01*
X00409035Y00334988D01*
X00407088Y00335794D01*
X00405000Y00336069D01*
X00402912Y00335794D01*
X00400965Y00334988D01*
X00400330Y00334500D01*
X00395671D01*
X00395034Y00334988D01*
X00393088Y00335794D01*
X00391000Y00336069D01*
X00388912Y00335794D01*
X00386965Y00334988D01*
X00385294Y00333706D01*
X00384012Y00332034D01*
X00383206Y00330088D01*
X00382931Y00328000D01*
X00383206Y00325912D01*
X00384012Y00323965D01*
X00385294Y00322294D01*
X00386965Y00321012D01*
X00388912Y00320206D01*
X00390794Y00319958D01*
Y00313050D01*
X00389640Y00312571D01*
X00376727Y00325484D01*
Y00337838D01*
X00392546Y00353657D01*
X00393831Y00355580D01*
X00394282Y00357847D01*
X00394282Y00357848D01*
Y00375379D01*
X00394282Y00375379D01*
X00393831Y00377646D01*
X00392546Y00379569D01*
X00392546Y00379569D01*
X00386327Y00385788D01*
X00384405Y00387072D01*
X00382137Y00387523D01*
X00382137Y00387523D01*
X00374500D01*
Y00390500D01*
X00367500D01*
Y00392500D01*
X00365500D01*
Y00399500D01*
X00363184D01*
X00361932Y00401132D01*
X00359843Y00402735D01*
X00357411Y00403743D01*
X00354800Y00404086D01*
X00352189Y00403743D01*
X00349757Y00402735D01*
X00348450Y00401732D01*
X00347143Y00402735D01*
X00344711Y00403743D01*
X00342100Y00404086D01*
X00339490Y00403743D01*
X00337057Y00402735D01*
X00335750Y00401732D01*
X00334443Y00402735D01*
X00332010Y00403743D01*
X00329400Y00404086D01*
X00326790Y00403743D01*
X00324357Y00402735D01*
X00323050Y00401732D01*
X00321743Y00402735D01*
X00319310Y00403743D01*
X00316700Y00404086D01*
X00314090Y00403743D01*
X00311657Y00402735D01*
X00309568Y00401132D01*
X00307965Y00399043D01*
X00306957Y00396610D01*
X00306614Y00394000D01*
Y00391000D01*
X00306957Y00388390D01*
X00307965Y00385957D01*
X00308293Y00385529D01*
X00308142Y00384614D01*
X00308142Y00384614D01*
X00298869Y00375341D01*
X00297603Y00373446D01*
X00297159Y00371211D01*
X00297159Y00371211D01*
Y00359558D01*
X00297159Y00359558D01*
X00297603Y00357322D01*
X00298869Y00355427D01*
X00370209Y00284088D01*
X00369958Y00282571D01*
X00369371Y00282121D01*
X00349645D01*
X00335468Y00296297D01*
X00333474Y00297630D01*
X00331121Y00298098D01*
X00331121Y00298098D01*
X00290129D01*
X00289035Y00298938D01*
X00287088Y00299744D01*
X00285000Y00300019D01*
X00282912Y00299744D01*
X00280965Y00298938D01*
X00279294Y00297656D01*
X00278012Y00295984D01*
X00277206Y00294038D01*
X00276931Y00291950D01*
X00277206Y00289862D01*
X00278012Y00287915D01*
X00279294Y00286244D01*
X00280965Y00284962D01*
X00282912Y00284156D01*
X00285000Y00283881D01*
X00287088Y00284156D01*
X00289035Y00284962D01*
X00290129Y00285802D01*
X00328574D01*
X00342751Y00271625D01*
X00344745Y00270292D01*
X00347098Y00269825D01*
X00347098Y00269825D01*
X00368386D01*
Y00209198D01*
X00331947D01*
X00324674Y00216471D01*
X00324494Y00217838D01*
X00323688Y00219784D01*
X00322406Y00221456D01*
X00320734Y00222738D01*
X00318788Y00223544D01*
X00316700Y00223819D01*
X00315527Y00223665D01*
X00314943Y00224848D01*
X00327342Y00237247D01*
X00338871D01*
X00338895Y00237211D01*
X00340549Y00236106D01*
X00342500Y00235718D01*
X00344451Y00236106D01*
X00346105Y00237211D01*
X00347210Y00238865D01*
X00347598Y00240816D01*
X00347210Y00242767D01*
X00346105Y00244421D01*
X00344451Y00245526D01*
X00342500Y00245914D01*
X00340549Y00245526D01*
X00338895Y00244421D01*
X00338871Y00244384D01*
X00325864D01*
X00324498Y00244113D01*
X00323340Y00243339D01*
X00288141Y00208139D01*
X00288098Y00208148D01*
X00286147Y00207760D01*
X00284493Y00206655D01*
X00283388Y00205001D01*
X00283000Y00203050D01*
X00283388Y00201099D01*
X00284493Y00199445D01*
X00286147Y00198340D01*
X00288098Y00197952D01*
X00290049Y00198340D01*
X00291703Y00199445D01*
X00292808Y00201099D01*
X00293196Y00203050D01*
X00293188Y00203093D01*
X00307601Y00217507D01*
X00308785Y00216923D01*
X00308631Y00215750D01*
X00308906Y00213661D01*
X00309712Y00211715D01*
X00310994Y00210044D01*
X00312666Y00208762D01*
X00314612Y00207956D01*
X00315979Y00207776D01*
X00325053Y00198703D01*
X00325053Y00198703D01*
X00327047Y00197370D01*
X00329400Y00196902D01*
X00329400Y00196902D01*
X00369438D01*
X00370533Y00196062D01*
X00372479Y00195256D01*
X00374567Y00194981D01*
X00376656Y00195256D01*
X00378602Y00196062D01*
X00380273Y00197344D01*
X00381555Y00199015D01*
X00382361Y00200961D01*
X00382636Y00203050D01*
X00382361Y00205138D01*
X00381555Y00207084D01*
X00380682Y00208223D01*
Y00270887D01*
X00381099Y00271430D01*
X00382615Y00271682D01*
X00402195Y00252102D01*
Y00229649D01*
X00402195Y00229649D01*
X00402640Y00227413D01*
X00403906Y00225518D01*
X00443783Y00185641D01*
X00443783Y00185641D01*
X00445678Y00184375D01*
X00447914Y00183930D01*
X00450107D01*
X00450487Y00182680D01*
X00449890Y00182281D01*
X00448784Y00180627D01*
X00448717Y00180288D01*
X00447273Y00179437D01*
X00446231Y00179645D01*
X00444280Y00179256D01*
X00442626Y00178151D01*
X00441521Y00176497D01*
X00441133Y00174547D01*
X00441521Y00172596D01*
X00442626Y00170942D01*
X00444280Y00169837D01*
X00446231Y00169449D01*
X00447429Y00169687D01*
X00448181Y00169837D01*
X00448787Y00168780D01*
X00448932Y00168049D01*
X00450037Y00166395D01*
X00451691Y00165290D01*
X00453642Y00164902D01*
X00455593Y00165290D01*
X00457247Y00166395D01*
X00458352Y00168049D01*
X00458740Y00170000D01*
X00458352Y00171951D01*
X00457247Y00173605D01*
X00457011Y00173763D01*
Y00175013D01*
X00457099Y00175072D01*
X00458204Y00176726D01*
X00458592Y00178676D01*
X00458204Y00180627D01*
X00457099Y00182281D01*
X00456502Y00182680D01*
X00456881Y00183930D01*
X00470686D01*
X00480894Y00173722D01*
Y00111902D01*
X00479854Y00111207D01*
X00479624Y00111302D01*
X00476100Y00111767D01*
X00472576Y00111302D01*
X00469292Y00109942D01*
X00466472Y00107778D01*
X00464308Y00104958D01*
X00464025Y00104276D01*
X00462775D01*
X00462492Y00104958D01*
X00460328Y00107778D01*
X00457508Y00109942D01*
X00454224Y00111302D01*
X00450700Y00111767D01*
X00447176Y00111302D01*
X00443892Y00109942D01*
X00441072Y00107778D01*
X00438908Y00104958D01*
X00438625Y00104276D01*
X00437375D01*
X00437092Y00104958D01*
X00434928Y00107778D01*
X00432108Y00109942D01*
X00428824Y00111302D01*
X00425300Y00111767D01*
X00421776Y00111302D01*
X00418492Y00109942D01*
X00415672Y00107778D01*
X00413508Y00104958D01*
X00412147Y00101674D01*
X00411809Y00099104D01*
X00411717Y00098408D01*
X00410457D01*
X00410365Y00099104D01*
X00410130Y00100891D01*
X00409072Y00103445D01*
X00407389Y00105639D01*
X00405195Y00107322D01*
X00402641Y00108380D01*
X00399900Y00108741D01*
X00397159Y00108380D01*
X00394605Y00107322D01*
X00392411Y00105639D01*
X00390728Y00103445D01*
X00389670Y00100891D01*
X00389309Y00098150D01*
X00389670Y00095409D01*
X00390728Y00092855D01*
X00392411Y00090661D01*
X00394605Y00088978D01*
X00397159Y00087920D01*
X00399900Y00087559D01*
X00402641Y00087920D01*
X00405195Y00088978D01*
X00407389Y00090661D01*
X00409072Y00092855D01*
X00410130Y00095409D01*
X00410365Y00097196D01*
X00410457Y00097892D01*
X00411717D01*
X00411809Y00097196D01*
X00412147Y00094626D01*
X00413508Y00091342D01*
X00415672Y00088522D01*
X00418492Y00086358D01*
X00419174Y00086075D01*
Y00084825D01*
X00418492Y00084542D01*
X00415672Y00082378D01*
X00413508Y00079558D01*
X00412147Y00076274D01*
X00411809Y00073704D01*
X00411717Y00073008D01*
X00410457D01*
X00410365Y00073704D01*
X00410130Y00075491D01*
X00409072Y00078045D01*
X00407389Y00080239D01*
X00405195Y00081922D01*
X00402641Y00082980D01*
X00399900Y00083341D01*
X00397159Y00082980D01*
X00394605Y00081922D01*
X00392411Y00080239D01*
X00390728Y00078045D01*
X00389670Y00075491D01*
X00389309Y00072750D01*
X00389670Y00070009D01*
X00390728Y00067455D01*
X00392411Y00065261D01*
X00394605Y00063578D01*
X00397159Y00062520D01*
X00399900Y00062159D01*
X00402641Y00062520D01*
X00405195Y00063578D01*
X00407389Y00065261D01*
X00409072Y00067455D01*
X00410130Y00070009D01*
X00410365Y00071796D01*
X00410457Y00072492D01*
X00411717D01*
X00411809Y00071796D01*
X00412147Y00069226D01*
X00413508Y00065942D01*
X00415672Y00063122D01*
X00418492Y00060958D01*
X00421776Y00059598D01*
X00425300Y00059134D01*
X00428824Y00059598D01*
X00432108Y00060958D01*
X00434928Y00063122D01*
X00437092Y00065942D01*
X00437375Y00066624D01*
X00438625D01*
X00438908Y00065942D01*
X00441072Y00063122D01*
X00443892Y00060958D01*
X00447176Y00059598D01*
X00450700Y00059134D01*
X00454224Y00059598D01*
X00457508Y00060958D01*
X00460328Y00063122D01*
X00462492Y00065942D01*
X00462775Y00066624D01*
X00464025D01*
X00464308Y00065942D01*
X00466472Y00063122D01*
X00469292Y00060958D01*
X00472576Y00059598D01*
X00476100Y00059134D01*
X00479624Y00059598D01*
X00482908Y00060958D01*
X00485728Y00063122D01*
X00487892Y00065942D01*
X00488175Y00066624D01*
X00489425D01*
X00489708Y00065942D01*
X00491872Y00063122D01*
X00494692Y00060958D01*
X00497976Y00059598D01*
X00501500Y00059134D01*
X00505024Y00059598D01*
X00508308Y00060958D01*
X00511128Y00063122D01*
X00513292Y00065942D01*
X00513575Y00066624D01*
X00514825D01*
X00515108Y00065942D01*
X00517272Y00063122D01*
X00520092Y00060958D01*
X00523376Y00059598D01*
X00526900Y00059134D01*
X00530424Y00059598D01*
X00533708Y00060958D01*
X00536528Y00063122D01*
X00538692Y00065942D01*
X00538975Y00066624D01*
X00540225D01*
X00540508Y00065942D01*
X00542672Y00063122D01*
X00545492Y00060958D01*
X00548776Y00059598D01*
X00552300Y00059134D01*
X00555824Y00059598D01*
X00559108Y00060958D01*
X00561928Y00063122D01*
X00564092Y00065942D01*
X00564375Y00066624D01*
X00565625D01*
X00565908Y00065942D01*
X00568072Y00063122D01*
X00570892Y00060958D01*
X00574176Y00059598D01*
X00577700Y00059134D01*
X00581224Y00059598D01*
X00584508Y00060958D01*
X00587328Y00063122D01*
X00589492Y00065942D01*
X00589775Y00066624D01*
X00591025D01*
X00591308Y00065942D01*
X00593472Y00063122D01*
X00596292Y00060958D01*
X00599576Y00059598D01*
X00603100Y00059134D01*
X00606624Y00059598D01*
X00609908Y00060958D01*
X00612728Y00063122D01*
X00614892Y00065942D01*
X00615175Y00066624D01*
X00616425D01*
X00616708Y00065942D01*
X00618872Y00063122D01*
X00621692Y00060958D01*
X00624976Y00059598D01*
X00628500Y00059134D01*
X00632024Y00059598D01*
X00635308Y00060958D01*
X00638128Y00063122D01*
X00640292Y00065942D01*
X00640575Y00066624D01*
X00641825D01*
X00642108Y00065942D01*
X00644272Y00063122D01*
X00647092Y00060958D01*
X00650376Y00059598D01*
X00653900Y00059134D01*
X00657424Y00059598D01*
X00660708Y00060958D01*
X00663528Y00063122D01*
X00665692Y00065942D01*
X00665975Y00066624D01*
X00667225D01*
X00667508Y00065942D01*
X00669672Y00063122D01*
X00672492Y00060958D01*
X00675776Y00059598D01*
X00679300Y00059134D01*
X00682824Y00059598D01*
X00686108Y00060958D01*
X00688928Y00063122D01*
X00691092Y00065942D01*
X00691375Y00066624D01*
X00692625D01*
X00692908Y00065942D01*
X00695072Y00063122D01*
X00697892Y00060958D01*
X00701176Y00059598D01*
X00704700Y00059134D01*
X00708224Y00059598D01*
X00711508Y00060958D01*
X00714328Y00063122D01*
X00714963Y00063949D01*
X00716147Y00063548D01*
Y00057453D01*
X00712547Y00053853D01*
X00185560D01*
X00108853Y00130560D01*
Y00250000D01*
X00108457Y00250957D01*
X00043853Y00315560D01*
Y00332500D01*
X00043457Y00333457D01*
X00035957Y00340957D01*
X00035000Y00341353D01*
X00012500D01*
X00011543Y00340957D01*
X00005233Y00334646D01*
X00004078Y00335125D01*
Y00404409D01*
X00005324Y00404508D01*
X00006610Y00399151D01*
X00008718Y00394061D01*
X00011597Y00389364D01*
X00015175Y00385175D01*
X00019364Y00381597D01*
X00024061Y00378718D01*
X00029151Y00376610D01*
X00034508Y00375324D01*
X00040000Y00374892D01*
X00045492Y00375324D01*
X00050849Y00376610D01*
X00055939Y00378718D01*
X00060636Y00381597D01*
X00064825Y00385175D01*
X00068403Y00389364D01*
X00071282Y00394061D01*
X00073390Y00399151D01*
X00074676Y00404508D01*
X00075108Y00410000D01*
X00074676Y00415492D01*
X00073390Y00420849D01*
X00071282Y00425939D01*
X00068403Y00430636D01*
X00064825Y00434825D01*
X00060636Y00438403D01*
X00055939Y00441282D01*
X00050849Y00443390D01*
X00045492Y00444676D01*
X00045591Y00445922D01*
X00954409D01*
X00954508Y00444676D01*
D02*
G37*
G36*
X00379537Y00371501D02*
Y00361500D01*
X00363718Y00345681D01*
X00362434Y00343759D01*
X00361983Y00341491D01*
X00361983Y00341491D01*
Y00321831D01*
X00361983Y00321831D01*
X00362434Y00319563D01*
X00363718Y00317641D01*
X00397755Y00283604D01*
X00399678Y00282320D01*
X00401945Y00281868D01*
X00401945Y00281868D01*
X00426582D01*
X00443157Y00265294D01*
Y00249895D01*
X00442833Y00249736D01*
X00441907Y00249396D01*
X00440088Y00250150D01*
X00438000Y00250425D01*
X00435912Y00250150D01*
X00433965Y00249344D01*
X00432294Y00248061D01*
X00431012Y00246390D01*
X00430206Y00244444D01*
X00429931Y00242356D01*
X00430206Y00240267D01*
X00431012Y00238321D01*
X00431500Y00237685D01*
Y00233026D01*
X00431012Y00232390D01*
X00430206Y00230444D01*
X00429931Y00228356D01*
X00430206Y00226267D01*
X00431012Y00224321D01*
X00432294Y00222650D01*
X00433965Y00221368D01*
X00435912Y00220562D01*
X00438000Y00220287D01*
X00440088Y00220562D01*
X00442034Y00221368D01*
X00443706Y00222650D01*
X00444988Y00224321D01*
X00445794Y00226267D01*
X00446023Y00228003D01*
X00448190Y00228435D01*
X00450113Y00229719D01*
X00456166Y00235772D01*
X00456166Y00235772D01*
X00457450Y00237695D01*
X00457901Y00239962D01*
X00457901Y00239962D01*
Y00268947D01*
X00457901Y00268947D01*
X00457450Y00271214D01*
X00456166Y00273137D01*
X00456166Y00273137D01*
X00434425Y00294877D01*
X00433972Y00295180D01*
X00434351Y00296430D01*
X00440139D01*
X00440139Y00296430D01*
X00442374Y00296875D01*
X00444269Y00298141D01*
X00447746Y00301617D01*
X00448972Y00301374D01*
X00449090Y00301087D01*
X00450373Y00299416D01*
X00452044Y00298134D01*
X00453990Y00297328D01*
X00455358Y00297148D01*
X00476853Y00275653D01*
X00478847Y00274320D01*
X00481200Y00273852D01*
X00481200Y00273852D01*
X00533919D01*
Y00209948D01*
X00501314D01*
X00494041Y00217221D01*
X00493861Y00218588D01*
X00493055Y00220534D01*
X00491773Y00222206D01*
X00490102Y00223488D01*
X00488156Y00224294D01*
X00486067Y00224569D01*
X00483979Y00224294D01*
X00482033Y00223488D01*
X00480362Y00222206D01*
X00479079Y00220534D01*
X00478273Y00218588D01*
X00477998Y00216500D01*
X00478273Y00214412D01*
X00479079Y00212465D01*
X00480362Y00210794D01*
X00482033Y00209512D01*
X00483979Y00208706D01*
X00485347Y00208526D01*
X00494420Y00199453D01*
X00494420Y00199453D01*
X00496414Y00198120D01*
X00498767Y00197652D01*
X00498767Y00197652D01*
X00534938D01*
X00536033Y00196812D01*
X00537979Y00196006D01*
X00540067Y00195731D01*
X00542156Y00196006D01*
X00544102Y00196812D01*
X00545196Y00197652D01*
X00560378D01*
X00561473Y00196812D01*
X00563419Y00196006D01*
X00565508Y00195731D01*
X00566092Y00195808D01*
X00566676Y00194624D01*
X00557893Y00185841D01*
X00525706D01*
X00525705Y00185841D01*
X00523470Y00185397D01*
X00521575Y00184130D01*
X00510090Y00172646D01*
X00508824Y00170751D01*
X00508379Y00168515D01*
X00508379Y00168515D01*
Y00111266D01*
X00507129Y00110430D01*
X00505024Y00111302D01*
X00501500Y00111767D01*
X00497976Y00111302D01*
X00496344Y00110627D01*
X00495305Y00111321D01*
Y00177272D01*
X00495305Y00177272D01*
X00494860Y00179507D01*
X00493594Y00181402D01*
X00493594Y00181402D01*
X00478366Y00196630D01*
X00476471Y00197897D01*
X00474235Y00198341D01*
X00474235Y00198341D01*
X00451463D01*
X00416606Y00233198D01*
Y00255651D01*
X00416606Y00255651D01*
X00416162Y00257887D01*
X00414895Y00259782D01*
X00414895Y00259782D01*
X00317317Y00357360D01*
X00317765Y00358680D01*
X00318527Y00358780D01*
X00320230Y00359486D01*
X00321021Y00360093D01*
X00322268Y00358468D01*
X00324357Y00356865D01*
X00326790Y00355857D01*
X00329400Y00355514D01*
X00332010Y00355857D01*
X00334443Y00356865D01*
X00335750Y00357868D01*
X00337057Y00356865D01*
X00339490Y00355857D01*
X00342100Y00355514D01*
X00344711Y00355857D01*
X00347143Y00356865D01*
X00348450Y00357868D01*
X00349757Y00356865D01*
X00352189Y00355857D01*
X00354800Y00355514D01*
X00357411Y00355857D01*
X00359843Y00356865D01*
X00361150Y00357868D01*
X00362457Y00356865D01*
X00364889Y00355857D01*
X00367500Y00355514D01*
X00370111Y00355857D01*
X00372543Y00356865D01*
X00374632Y00358468D01*
X00376235Y00360557D01*
X00377243Y00362990D01*
X00377586Y00365600D01*
Y00368600D01*
X00377248Y00371173D01*
X00377262Y00371239D01*
X00378020Y00372377D01*
X00378574Y00372417D01*
X00379537Y00371501D01*
D02*
G37*
G36*
X00473365Y00370874D02*
X00473180Y00370427D01*
X00473005Y00369100D01*
X00480000D01*
Y00367100D01*
X00482000D01*
Y00358852D01*
X00483530Y00359486D01*
X00484321Y00360093D01*
X00485568Y00358468D01*
X00487657Y00356865D01*
X00490089Y00355857D01*
X00492700Y00355514D01*
X00495311Y00355857D01*
X00497743Y00356865D01*
X00499050Y00357868D01*
X00500357Y00356865D01*
X00502789Y00355857D01*
X00505400Y00355514D01*
X00508010Y00355857D01*
X00510443Y00356865D01*
X00511750Y00357868D01*
X00513057Y00356865D01*
X00515490Y00355857D01*
X00518100Y00355514D01*
X00520710Y00355857D01*
X00523143Y00356865D01*
X00524450Y00357868D01*
X00525757Y00356865D01*
X00528190Y00355857D01*
X00530800Y00355514D01*
X00533410Y00355857D01*
X00535843Y00356865D01*
X00537932Y00358468D01*
X00539535Y00360557D01*
X00540543Y00362990D01*
X00540777Y00364771D01*
X00542097Y00365219D01*
X00545631Y00361685D01*
Y00287227D01*
X00544510Y00286674D01*
X00544102Y00286988D01*
X00542156Y00287794D01*
X00540067Y00288069D01*
X00537979Y00287794D01*
X00536033Y00286988D01*
X00534938Y00286148D01*
X00483747D01*
X00464052Y00305842D01*
X00463872Y00307210D01*
X00463066Y00309156D01*
X00461784Y00310828D01*
X00460113Y00312110D01*
X00458167Y00312916D01*
X00456078Y00313191D01*
X00454520Y00312986D01*
X00453270Y00313834D01*
Y00356050D01*
X00469134Y00371914D01*
X00472671D01*
X00473365Y00370874D01*
D02*
G37*
G36*
X00761430Y00277541D02*
Y00247191D01*
X00712091Y00197852D01*
X00710841Y00198370D01*
Y00263246D01*
X00712091Y00264081D01*
X00712912Y00263742D01*
X00715000Y00263467D01*
X00717088Y00263742D01*
X00719035Y00264548D01*
X00720129Y00265388D01*
X00739871D01*
X00740965Y00264548D01*
X00742912Y00263742D01*
X00745000Y00263467D01*
X00747088Y00263742D01*
X00749035Y00264548D01*
X00750706Y00265830D01*
X00751988Y00267501D01*
X00752794Y00269447D01*
X00753069Y00271536D01*
X00752794Y00273624D01*
X00751988Y00275570D01*
X00751400Y00276336D01*
X00752188Y00277363D01*
X00753412Y00276856D01*
X00755500Y00276581D01*
X00757588Y00276856D01*
X00759535Y00277662D01*
X00760180Y00278158D01*
X00761430Y00277541D01*
D02*
G37*
G36*
X00797924Y00370975D02*
X00797780Y00370627D01*
X00797605Y00369300D01*
X00804600D01*
Y00367300D01*
X00806600D01*
Y00359052D01*
X00808130Y00359686D01*
X00808921Y00360293D01*
X00810168Y00358668D01*
X00812257Y00357065D01*
X00814689Y00356057D01*
X00817300Y00355714D01*
X00819911Y00356057D01*
X00822343Y00357065D01*
X00823650Y00358068D01*
X00824957Y00357065D01*
X00827390Y00356057D01*
X00830000Y00355714D01*
X00832610Y00356057D01*
X00835043Y00357065D01*
X00836350Y00358068D01*
X00837657Y00357065D01*
X00840089Y00356057D01*
X00842700Y00355714D01*
X00845311Y00356057D01*
X00847743Y00357065D01*
X00849050Y00358068D01*
X00850357Y00357065D01*
X00852790Y00356057D01*
X00855400Y00355714D01*
X00858010Y00356057D01*
X00860443Y00357065D01*
X00862532Y00358668D01*
X00864135Y00360757D01*
X00864369Y00361323D01*
X00865619Y00361074D01*
Y00332536D01*
X00777091Y00244007D01*
X00775841Y00244525D01*
Y00352788D01*
X00795068Y00372014D01*
X00797230D01*
X00797924Y00370975D01*
D02*
G37*
G36*
X00645965Y00196062D02*
X00647912Y00195256D01*
X00650000Y00194981D01*
X00652088Y00195256D01*
X00653686Y00195918D01*
X00654394Y00194858D01*
X00611162Y00151626D01*
X00609896Y00149731D01*
X00609722Y00148856D01*
X00608567Y00148378D01*
X00608118Y00148678D01*
X00606167Y00149066D01*
X00604216Y00148678D01*
X00602562Y00147572D01*
X00601457Y00145919D01*
X00601069Y00143968D01*
X00601457Y00142017D01*
X00602562Y00140363D01*
X00604216Y00139258D01*
X00606167Y00138870D01*
X00608118Y00139258D01*
X00608349Y00139412D01*
X00609451Y00138822D01*
Y00111257D01*
X00608412Y00110562D01*
X00606624Y00111302D01*
X00603100Y00111767D01*
X00599576Y00111302D01*
X00596292Y00109942D01*
X00593472Y00107778D01*
X00591308Y00104958D01*
X00591025Y00104276D01*
X00589775D01*
X00589492Y00104958D01*
X00587328Y00107778D01*
X00584508Y00109942D01*
X00581224Y00111302D01*
X00577700Y00111767D01*
X00574176Y00111302D01*
X00570892Y00109942D01*
X00568072Y00107778D01*
X00565908Y00104958D01*
X00565625Y00104276D01*
X00564375D01*
X00564092Y00104958D01*
X00561928Y00107778D01*
X00559108Y00109942D01*
X00555824Y00111302D01*
X00552300Y00111767D01*
X00548776Y00111302D01*
X00545492Y00109942D01*
X00542672Y00107778D01*
X00540508Y00104958D01*
X00540225Y00104276D01*
X00538975D01*
X00538692Y00104958D01*
X00536528Y00107778D01*
X00533708Y00109942D01*
X00530424Y00111302D01*
X00526900Y00111767D01*
X00524041Y00111390D01*
X00522790Y00112298D01*
Y00151690D01*
X00524041Y00152525D01*
X00524812Y00152206D01*
X00526900Y00151931D01*
X00528988Y00152206D01*
X00530934Y00153012D01*
X00532029Y00153852D01*
X00562500D01*
X00562500Y00153852D01*
X00564853Y00154320D01*
X00566847Y00155653D01*
X00608097Y00196902D01*
X00644871D01*
X00645965Y00196062D01*
D02*
G37*
G36*
X00685651Y00149264D02*
Y00111257D01*
X00684612Y00110562D01*
X00682824Y00111302D01*
X00679300Y00111767D01*
X00675912Y00111320D01*
X00675479Y00111420D01*
X00674662Y00111966D01*
Y00140043D01*
X00684401Y00149782D01*
X00685651Y00149264D01*
D02*
G37*
G36*
X00660251Y00142951D02*
Y00111257D01*
X00659212Y00110562D01*
X00657424Y00111302D01*
X00653900Y00111767D01*
X00650512Y00111320D01*
X00650079Y00111420D01*
X00649262Y00111966D01*
Y00133729D01*
X00659001Y00143468D01*
X00660251Y00142951D01*
D02*
G37*
G36*
X00635548Y00369424D02*
X00635505Y00369100D01*
X00642500D01*
Y00367100D01*
X00644500D01*
Y00358852D01*
X00646030Y00359486D01*
X00646821Y00360093D01*
X00648068Y00358468D01*
X00650157Y00356865D01*
X00652589Y00355857D01*
X00655200Y00355514D01*
X00657811Y00355857D01*
X00660243Y00356865D01*
X00661550Y00357868D01*
X00662857Y00356865D01*
X00665290Y00355857D01*
X00667900Y00355514D01*
X00670510Y00355857D01*
X00672943Y00356865D01*
X00674250Y00357868D01*
X00675557Y00356865D01*
X00677990Y00355857D01*
X00680600Y00355514D01*
X00683211Y00355857D01*
X00685643Y00356865D01*
X00686950Y00357868D01*
X00688257Y00356865D01*
X00690689Y00355857D01*
X00693300Y00355514D01*
X00695180Y00355761D01*
X00696430Y00354824D01*
Y00201278D01*
X00636562Y00141410D01*
X00635296Y00139515D01*
X00634851Y00137279D01*
X00634851Y00137279D01*
Y00111257D01*
X00633812Y00110562D01*
X00632024Y00111302D01*
X00628500Y00111767D01*
X00625112Y00111320D01*
X00624679Y00111420D01*
X00623862Y00111966D01*
Y00143946D01*
X00668514Y00188598D01*
X00668514Y00188598D01*
X00669781Y00190493D01*
X00670225Y00192728D01*
X00670225Y00192728D01*
Y00250927D01*
X00670225Y00250927D01*
X00669781Y00253162D01*
X00668514Y00255057D01*
X00631152Y00292420D01*
Y00366796D01*
X00634364Y00370008D01*
X00635548Y00369424D01*
D02*
G37*
G36*
X00041147Y00331940D02*
Y00315000D01*
X00041543Y00314043D01*
X00106147Y00249440D01*
Y00130000D01*
X00106543Y00129043D01*
X00120581Y00115006D01*
X00120169Y00113649D01*
X00119216Y00113460D01*
X00117563Y00112355D01*
X00116458Y00110701D01*
X00116069Y00108750D01*
X00116458Y00106799D01*
X00117563Y00105145D01*
X00119216Y00104040D01*
X00121167Y00103652D01*
X00123118Y00104040D01*
X00124772Y00105145D01*
X00125877Y00106799D01*
X00126067Y00107752D01*
X00127423Y00108163D01*
X00151106Y00084481D01*
X00151390Y00083049D01*
X00152496Y00081395D01*
X00154150Y00080290D01*
X00155581Y00080005D01*
X00184043Y00051543D01*
X00185000Y00051147D01*
X00713108D01*
X00714064Y00051543D01*
X00718457Y00055935D01*
X00718853Y00056892D01*
Y00063287D01*
X00720037Y00063689D01*
X00720472Y00063122D01*
X00723292Y00060958D01*
X00726576Y00059598D01*
X00730100Y00059134D01*
X00733624Y00059598D01*
X00736908Y00060958D01*
X00739728Y00063122D01*
X00741892Y00065942D01*
X00743252Y00069226D01*
X00743591Y00071796D01*
X00743683Y00072492D01*
X00744943D01*
X00745035Y00071796D01*
X00745270Y00070009D01*
X00746328Y00067455D01*
X00748011Y00065261D01*
X00750205Y00063578D01*
X00752759Y00062520D01*
X00753500Y00062423D01*
Y00072750D01*
Y00083077D01*
X00752759Y00082980D01*
X00750205Y00081922D01*
X00748011Y00080239D01*
X00746328Y00078045D01*
X00745270Y00075491D01*
X00745035Y00073704D01*
X00744943Y00073008D01*
X00743683D01*
X00743591Y00073704D01*
X00743252Y00076274D01*
X00741892Y00079558D01*
X00739728Y00082378D01*
X00736908Y00084542D01*
X00736226Y00084825D01*
Y00086075D01*
X00736909Y00086358D01*
X00739729Y00088522D01*
X00741893Y00091342D01*
X00743253Y00094626D01*
X00743717Y00098150D01*
X00743253Y00101674D01*
X00741893Y00104958D01*
X00739729Y00107778D01*
X00736909Y00109942D01*
X00733625Y00111302D01*
X00730101Y00111767D01*
X00726577Y00111302D01*
X00723293Y00109942D01*
X00720472Y00107778D01*
X00720037Y00107210D01*
X00718853Y00107612D01*
Y00115619D01*
X00724381Y00121147D01*
X00786940D01*
X00791147Y00116940D01*
Y00013060D01*
X00784440Y00006353D01*
X00053495D01*
X00053246Y00007603D01*
X00055939Y00008718D01*
X00060636Y00011597D01*
X00064825Y00015175D01*
X00068403Y00019364D01*
X00071282Y00024061D01*
X00073390Y00029151D01*
X00074676Y00034508D01*
X00075108Y00040000D01*
X00074676Y00045492D01*
X00073390Y00050849D01*
X00071282Y00055939D01*
X00068403Y00060636D01*
X00064825Y00064825D01*
X00060636Y00068403D01*
X00055939Y00071282D01*
X00050849Y00073390D01*
X00045492Y00074676D01*
X00040000Y00075108D01*
X00034508Y00074676D01*
X00029151Y00073390D01*
X00024061Y00071282D01*
X00019364Y00068403D01*
X00015175Y00064825D01*
X00011597Y00060636D01*
X00008718Y00055939D01*
X00006610Y00050849D01*
X00005324Y00045492D01*
X00004078Y00045591D01*
Y00329665D01*
X00013060Y00338647D01*
X00034440D01*
X00041147Y00331940D01*
D02*
G37*
%LPC*%
G36*
X00565360Y00426600D02*
X00565360Y00426600D01*
X00264000D01*
X00264000Y00426600D01*
X00261732Y00426149D01*
X00259810Y00424864D01*
X00259810Y00424864D01*
X00223421Y00388476D01*
X00212800D01*
Y00390700D01*
X00205800D01*
Y00392700D01*
X00203800D01*
Y00399700D01*
X00201484D01*
X00200232Y00401332D01*
X00198143Y00402935D01*
X00195711Y00403943D01*
X00193100Y00404286D01*
X00190490Y00403943D01*
X00188057Y00402935D01*
X00186750Y00401932D01*
X00185443Y00402935D01*
X00183011Y00403943D01*
X00180400Y00404286D01*
X00177789Y00403943D01*
X00175357Y00402935D01*
X00174050Y00401932D01*
X00172743Y00402935D01*
X00170310Y00403943D01*
X00167700Y00404286D01*
X00165089Y00403943D01*
X00162657Y00402935D01*
X00161350Y00401932D01*
X00160043Y00402935D01*
X00157611Y00403943D01*
X00155000Y00404286D01*
X00152389Y00403943D01*
X00149957Y00402935D01*
X00147868Y00401332D01*
X00146265Y00399243D01*
X00145257Y00396810D01*
X00144914Y00394200D01*
Y00391200D01*
X00145257Y00388590D01*
X00146191Y00386335D01*
X00145373Y00385788D01*
X00145373Y00385788D01*
X00137917Y00378332D01*
X00136632Y00376409D01*
X00136181Y00374142D01*
X00136181Y00374142D01*
Y00356695D01*
X00136181Y00356695D01*
X00136632Y00354427D01*
X00137917Y00352505D01*
X00155005Y00335417D01*
X00156927Y00334132D01*
X00159195Y00333681D01*
X00159195Y00333681D01*
X00207939D01*
X00284074Y00257546D01*
Y00241978D01*
X00280520D01*
X00280294Y00243694D01*
X00279488Y00245640D01*
X00278206Y00247311D01*
X00276535Y00248594D01*
X00274588Y00249400D01*
X00272500Y00249675D01*
X00270412Y00249400D01*
X00268465Y00248594D01*
X00266794Y00247311D01*
X00265512Y00245640D01*
X00264706Y00243694D01*
X00264431Y00241606D01*
X00264706Y00239517D01*
X00265512Y00237571D01*
X00266000Y00236935D01*
Y00232276D01*
X00265512Y00231640D01*
X00264706Y00229694D01*
X00264431Y00227606D01*
X00264706Y00225517D01*
X00265512Y00223571D01*
X00266794Y00221900D01*
X00268465Y00220618D01*
X00270412Y00219812D01*
X00272500Y00219537D01*
X00274588Y00219812D01*
X00276535Y00220618D01*
X00278206Y00221900D01*
X00279488Y00223571D01*
X00280294Y00225517D01*
X00280391Y00226253D01*
X00281002Y00227234D01*
X00281002Y00227234D01*
X00289296D01*
X00289297Y00227234D01*
X00291564Y00227685D01*
X00293487Y00228969D01*
X00297083Y00232566D01*
X00297083Y00232566D01*
X00298368Y00234488D01*
X00298819Y00236756D01*
X00298819Y00236756D01*
Y00261198D01*
X00298819Y00261198D01*
X00298368Y00263466D01*
X00297083Y00265388D01*
X00297083Y00265389D01*
X00215782Y00346690D01*
X00213859Y00347975D01*
X00211592Y00348425D01*
X00211592Y00348425D01*
X00162848D01*
X00153612Y00357662D01*
X00154196Y00358845D01*
X00155000Y00358740D01*
X00156827Y00358980D01*
X00158530Y00359686D01*
X00159321Y00360293D01*
X00160568Y00358668D01*
X00162657Y00357065D01*
X00165089Y00356057D01*
X00167700Y00355714D01*
X00170310Y00356057D01*
X00172743Y00357065D01*
X00174050Y00358068D01*
X00175357Y00357065D01*
X00177789Y00356057D01*
X00180400Y00355714D01*
X00183011Y00356057D01*
X00185443Y00357065D01*
X00186750Y00358068D01*
X00188057Y00357065D01*
X00190490Y00356057D01*
X00193100Y00355714D01*
X00195711Y00356057D01*
X00198143Y00357065D01*
X00199450Y00358068D01*
X00200757Y00357065D01*
X00203190Y00356057D01*
X00205800Y00355714D01*
X00208410Y00356057D01*
X00210843Y00357065D01*
X00212932Y00358668D01*
X00214535Y00360757D01*
X00215543Y00363190D01*
X00215886Y00365800D01*
Y00368800D01*
X00215543Y00371410D01*
X00215012Y00372692D01*
X00215706Y00373731D01*
X00227074D01*
X00227074Y00373731D01*
X00229342Y00374182D01*
X00231264Y00375467D01*
X00267653Y00411855D01*
X00561708D01*
X00572753Y00400810D01*
X00594075Y00379488D01*
Y00243901D01*
X00592546Y00242372D01*
X00591020D01*
X00590794Y00244088D01*
X00589988Y00246035D01*
X00588706Y00247706D01*
X00587034Y00248988D01*
X00585088Y00249794D01*
X00583000Y00250069D01*
X00580912Y00249794D01*
X00578965Y00248988D01*
X00577294Y00247706D01*
X00576012Y00246035D01*
X00575206Y00244088D01*
X00574931Y00242000D01*
X00575206Y00239912D01*
X00576012Y00237966D01*
X00576500Y00237330D01*
Y00232670D01*
X00576012Y00232034D01*
X00575206Y00230088D01*
X00574931Y00228000D01*
X00575206Y00225912D01*
X00576012Y00223965D01*
X00577294Y00222294D01*
X00578965Y00221012D01*
X00580912Y00220206D01*
X00583000Y00219931D01*
X00585088Y00220206D01*
X00587034Y00221012D01*
X00588706Y00222294D01*
X00589988Y00223965D01*
X00590794Y00225912D01*
X00591020Y00227628D01*
X00596198D01*
X00596199Y00227628D01*
X00598466Y00228079D01*
X00600388Y00229363D01*
X00607083Y00236058D01*
X00608368Y00237981D01*
X00608819Y00240248D01*
X00608819Y00240248D01*
Y00383141D01*
X00608368Y00385409D01*
X00607083Y00387331D01*
X00607083Y00387331D01*
X00582187Y00412227D01*
X00582187Y00412228D01*
X00569551Y00424864D01*
X00567628Y00426149D01*
X00565360Y00426600D01*
D02*
G37*
G36*
X00212800Y00399700D02*
X00207800D01*
Y00394700D01*
X00212800D01*
Y00399700D01*
D02*
G37*
G36*
X00862400D02*
X00857400D01*
Y00394700D01*
X00862400D01*
Y00399700D01*
D02*
G37*
G36*
X00374500Y00399500D02*
X00369500D01*
Y00394500D01*
X00374500D01*
Y00399500D01*
D02*
G37*
G36*
X00700300D02*
X00695300D01*
Y00394500D01*
X00700300D01*
Y00399500D01*
D02*
G37*
G36*
X00537800D02*
X00532800D01*
Y00394500D01*
X00537800D01*
Y00399500D01*
D02*
G37*
G36*
X00972500Y00330287D02*
X00970549Y00329899D01*
X00968895Y00328794D01*
X00967790Y00327140D01*
X00967402Y00325189D01*
X00967790Y00323238D01*
X00968895Y00321584D01*
X00970549Y00320479D01*
X00972500Y00320091D01*
X00974451Y00320479D01*
X00976105Y00321584D01*
X00977210Y00323238D01*
X00977598Y00325189D01*
X00977210Y00327140D01*
X00976105Y00328794D01*
X00974451Y00329899D01*
X00972500Y00330287D01*
D02*
G37*
G36*
X00982500Y00320098D02*
X00980549Y00319710D01*
X00978895Y00318605D01*
X00977790Y00316951D01*
X00977402Y00315000D01*
X00977790Y00313049D01*
X00978895Y00311395D01*
X00980549Y00310290D01*
X00982500Y00309902D01*
X00984451Y00310290D01*
X00986105Y00311395D01*
X00987210Y00313049D01*
X00987598Y00315000D01*
X00987210Y00316951D01*
X00986105Y00318605D01*
X00984451Y00319710D01*
X00982500Y00320098D01*
D02*
G37*
G36*
X00927750Y00258948D02*
X00925799Y00258560D01*
X00924145Y00257455D01*
X00923040Y00255801D01*
X00922652Y00253850D01*
X00923040Y00251899D01*
X00924145Y00250245D01*
X00925799Y00249140D01*
X00927750Y00248752D01*
X00929701Y00249140D01*
X00931355Y00250245D01*
X00932460Y00251899D01*
X00932848Y00253850D01*
X00932460Y00255801D01*
X00931355Y00257455D01*
X00929701Y00258560D01*
X00927750Y00258948D01*
D02*
G37*
G36*
X00826018Y00259854D02*
X00824067Y00259466D01*
X00822413Y00258361D01*
X00821308Y00256707D01*
X00820920Y00254756D01*
X00821135Y00253677D01*
X00820767Y00253309D01*
X00818816Y00252921D01*
X00817162Y00251816D01*
X00816057Y00250162D01*
X00815669Y00248211D01*
X00816057Y00246260D01*
X00817162Y00244606D01*
X00818816Y00243501D01*
X00820767Y00243113D01*
X00822718Y00243501D01*
X00824372Y00244606D01*
X00825477Y00246260D01*
X00825865Y00248211D01*
X00825650Y00249290D01*
X00826018Y00249658D01*
X00827969Y00250046D01*
X00829623Y00251151D01*
X00830728Y00252805D01*
X00831116Y00254756D01*
X00830728Y00256707D01*
X00829623Y00258361D01*
X00827969Y00259466D01*
X00826018Y00259854D01*
D02*
G37*
G36*
X00850150Y00238362D02*
X00848199Y00237974D01*
X00846545Y00236869D01*
X00845440Y00235215D01*
X00845052Y00233264D01*
X00845440Y00231313D01*
X00846545Y00229659D01*
X00848199Y00228554D01*
X00850150Y00228166D01*
X00852101Y00228554D01*
X00853755Y00229659D01*
X00854860Y00231313D01*
X00855248Y00233264D01*
X00854860Y00235215D01*
X00853755Y00236869D01*
X00852101Y00237974D01*
X00850150Y00238362D01*
D02*
G37*
G36*
X00745904Y00184072D02*
X00743953Y00183684D01*
X00742299Y00182579D01*
X00741194Y00180925D01*
X00740806Y00178974D01*
X00741194Y00177023D01*
X00742299Y00175369D01*
X00743496Y00174569D01*
Y00173178D01*
X00742299Y00172377D01*
X00741496Y00171176D01*
X00740166Y00171054D01*
X00740050Y00171091D01*
X00739410Y00172048D01*
X00737757Y00173153D01*
X00735806Y00173541D01*
X00733855Y00173153D01*
X00732201Y00172048D01*
X00731096Y00170394D01*
X00730708Y00168443D01*
X00731096Y00166492D01*
X00732201Y00164839D01*
X00733855Y00163733D01*
X00735806Y00163345D01*
X00737757Y00163733D01*
X00739410Y00164839D01*
X00740213Y00166040D01*
X00741543Y00166162D01*
X00741659Y00166125D01*
X00742299Y00165168D01*
X00743953Y00164063D01*
X00745904Y00163675D01*
X00747855Y00164063D01*
X00749508Y00165168D01*
X00750613Y00166822D01*
X00751002Y00168773D01*
X00750613Y00170723D01*
X00749508Y00172377D01*
X00748311Y00173178D01*
Y00174569D01*
X00749508Y00175369D01*
X00750613Y00177023D01*
X00751002Y00178974D01*
X00750613Y00180925D01*
X00749508Y00182579D01*
X00747855Y00183684D01*
X00745904Y00184072D01*
D02*
G37*
G36*
X00287422Y00175098D02*
X00285471Y00174710D01*
X00283817Y00173605D01*
X00282712Y00171951D01*
X00282324Y00170000D01*
X00282652Y00168349D01*
X00282087Y00167540D01*
X00281738Y00167256D01*
X00281254Y00167353D01*
X00279303Y00166965D01*
X00277649Y00165860D01*
X00276544Y00164206D01*
X00276156Y00162255D01*
X00276544Y00160304D01*
X00277649Y00158650D01*
X00279303Y00157545D01*
X00281254Y00157157D01*
X00281492Y00157204D01*
X00282551Y00156140D01*
X00282324Y00155000D01*
X00282712Y00153049D01*
X00283817Y00151395D01*
X00285471Y00150290D01*
X00287422Y00149902D01*
X00289373Y00150290D01*
X00291026Y00151395D01*
X00292132Y00153049D01*
X00292520Y00155000D01*
X00292132Y00156951D01*
X00291026Y00158605D01*
X00289373Y00159710D01*
X00287422Y00160098D01*
X00287184Y00160051D01*
X00286126Y00161115D01*
X00286352Y00162255D01*
X00286024Y00163906D01*
X00286589Y00164714D01*
X00286938Y00164998D01*
X00287422Y00164902D01*
X00289373Y00165290D01*
X00291026Y00166395D01*
X00292132Y00168049D01*
X00292520Y00170000D01*
X00292132Y00171951D01*
X00291026Y00173605D01*
X00289373Y00174710D01*
X00287422Y00175098D01*
D02*
G37*
G36*
X00845780Y00154773D02*
X00843829Y00154385D01*
X00842175Y00153280D01*
X00841070Y00151626D01*
X00840682Y00149675D01*
X00841070Y00147724D01*
X00842175Y00146070D01*
X00843829Y00144965D01*
X00845780Y00144577D01*
X00847731Y00144965D01*
X00849385Y00146070D01*
X00850490Y00147724D01*
X00850878Y00149675D01*
X00850490Y00151626D01*
X00849385Y00153280D01*
X00847731Y00154385D01*
X00845780Y00154773D01*
D02*
G37*
G36*
X00926100Y00190360D02*
X00923100D01*
X00921273Y00190120D01*
X00919570Y00189415D01*
X00918108Y00188292D01*
X00916985Y00186830D01*
X00916280Y00185127D01*
X00916040Y00183300D01*
X00916280Y00181473D01*
X00916985Y00179770D01*
X00918108Y00178307D01*
X00918870Y00177722D01*
Y00176177D01*
X00918108Y00175592D01*
X00916985Y00174130D01*
X00916280Y00172427D01*
X00916040Y00170600D01*
X00916280Y00168773D01*
X00916985Y00167070D01*
X00918108Y00165607D01*
X00918870Y00165023D01*
Y00163477D01*
X00918108Y00162892D01*
X00916985Y00161430D01*
X00916280Y00159727D01*
X00916040Y00157900D01*
X00916280Y00156073D01*
X00916985Y00154370D01*
X00918108Y00152907D01*
X00918870Y00152323D01*
Y00150777D01*
X00918108Y00150192D01*
X00916985Y00148730D01*
X00916280Y00147027D01*
X00916040Y00145200D01*
X00916280Y00143373D01*
X00916985Y00141670D01*
X00918108Y00140208D01*
X00918870Y00139622D01*
Y00138077D01*
X00918108Y00137492D01*
X00916985Y00136030D01*
X00916352Y00134500D01*
X00924600D01*
X00932848D01*
X00932215Y00136030D01*
X00931092Y00137492D01*
X00930330Y00138077D01*
Y00139622D01*
X00931092Y00140208D01*
X00932215Y00141670D01*
X00932920Y00143373D01*
X00933160Y00145200D01*
X00932920Y00147027D01*
X00932215Y00148730D01*
X00931092Y00150192D01*
X00930330Y00150777D01*
Y00152323D01*
X00931092Y00152907D01*
X00932215Y00154370D01*
X00932920Y00156073D01*
X00933160Y00157900D01*
X00932920Y00159727D01*
X00932215Y00161430D01*
X00931092Y00162892D01*
X00930330Y00163477D01*
Y00165023D01*
X00931092Y00165607D01*
X00932215Y00167070D01*
X00932920Y00168773D01*
X00933160Y00170600D01*
X00932920Y00172427D01*
X00932215Y00174130D01*
X00931092Y00175592D01*
X00930330Y00176177D01*
Y00177722D01*
X00931092Y00178307D01*
X00932215Y00179770D01*
X00932920Y00181473D01*
X00933160Y00183300D01*
X00932920Y00185127D01*
X00932215Y00186830D01*
X00931092Y00188292D01*
X00929630Y00189415D01*
X00927927Y00190120D01*
X00926100Y00190360D01*
D02*
G37*
G36*
X00932848Y00130500D02*
X00926600D01*
Y00125506D01*
X00927927Y00125680D01*
X00929630Y00126385D01*
X00931092Y00127507D01*
X00932215Y00128970D01*
X00932848Y00130500D01*
D02*
G37*
G36*
X00922600D02*
X00916352D01*
X00916985Y00128970D01*
X00918108Y00127507D01*
X00919570Y00126385D01*
X00921273Y00125680D01*
X00922600Y00125505D01*
Y00130500D01*
D02*
G37*
G36*
X00951500Y00190360D02*
X00948500D01*
X00946673Y00190120D01*
X00944970Y00189415D01*
X00943508Y00188292D01*
X00942385Y00186830D01*
X00941680Y00185127D01*
X00941440Y00183300D01*
X00941680Y00181473D01*
X00942385Y00179770D01*
X00943508Y00178307D01*
X00944270Y00177722D01*
Y00176177D01*
X00943508Y00175592D01*
X00942385Y00174130D01*
X00941680Y00172427D01*
X00941440Y00170600D01*
X00941680Y00168773D01*
X00942385Y00167070D01*
X00943508Y00165607D01*
X00944270Y00165023D01*
Y00163477D01*
X00943508Y00162892D01*
X00942385Y00161430D01*
X00941680Y00159727D01*
X00941440Y00157900D01*
X00941680Y00156073D01*
X00942385Y00154370D01*
X00943508Y00152907D01*
X00944270Y00152323D01*
Y00150777D01*
X00943508Y00150192D01*
X00942385Y00148730D01*
X00941680Y00147027D01*
X00941440Y00145200D01*
X00941630Y00143750D01*
X00940851Y00142500D01*
X00940000D01*
Y00122500D01*
X00960000D01*
Y00142500D01*
X00959149D01*
X00958370Y00143750D01*
X00958560Y00145200D01*
X00958320Y00147027D01*
X00957615Y00148730D01*
X00956492Y00150192D01*
X00955730Y00150777D01*
Y00152323D01*
X00956492Y00152907D01*
X00957615Y00154370D01*
X00958320Y00156073D01*
X00958560Y00157900D01*
X00958320Y00159727D01*
X00957615Y00161430D01*
X00956492Y00162892D01*
X00955730Y00163477D01*
Y00165023D01*
X00956492Y00165607D01*
X00957615Y00167070D01*
X00958320Y00168773D01*
X00958560Y00170600D01*
X00958320Y00172427D01*
X00957615Y00174130D01*
X00956492Y00175592D01*
X00955730Y00176177D01*
Y00177722D01*
X00956492Y00178307D01*
X00957615Y00179770D01*
X00958320Y00181473D01*
X00958560Y00183300D01*
X00958320Y00185127D01*
X00957615Y00186830D01*
X00956492Y00188292D01*
X00955030Y00189415D01*
X00953327Y00190120D01*
X00951500Y00190360D01*
D02*
G37*
G36*
X00816454Y00125098D02*
X00814503Y00124710D01*
X00812849Y00123605D01*
X00811744Y00121951D01*
X00811356Y00120000D01*
X00811744Y00118049D01*
X00812849Y00116395D01*
X00813070Y00116247D01*
Y00114997D01*
X00812857Y00114855D01*
X00811752Y00113201D01*
X00811364Y00111250D01*
X00811752Y00109299D01*
X00812857Y00107645D01*
X00814511Y00106540D01*
X00816462Y00106152D01*
X00818413Y00106540D01*
X00820067Y00107645D01*
X00821172Y00109299D01*
X00821560Y00111250D01*
X00821172Y00113201D01*
X00820067Y00114855D01*
X00819845Y00115003D01*
Y00116253D01*
X00820058Y00116395D01*
X00821163Y00118049D01*
X00821552Y00120000D01*
X00821163Y00121951D01*
X00820058Y00123605D01*
X00818404Y00124710D01*
X00816454Y00125098D01*
D02*
G37*
G36*
X00300300Y00108477D02*
Y00100150D01*
X00308627D01*
X00308530Y00100891D01*
X00307472Y00103445D01*
X00305789Y00105639D01*
X00303595Y00107322D01*
X00301041Y00108380D01*
X00300300Y00108477D01*
D02*
G37*
G36*
X00296300Y00108477D02*
X00295559Y00108380D01*
X00293005Y00107322D01*
X00290811Y00105639D01*
X00289128Y00103445D01*
X00288070Y00100891D01*
X00287973Y00100150D01*
X00296300D01*
Y00108477D01*
D02*
G37*
G36*
Y00096150D02*
X00287973D01*
X00288070Y00095409D01*
X00289128Y00092855D01*
X00290811Y00090661D01*
X00293005Y00088978D01*
X00295559Y00087920D01*
X00296300Y00087823D01*
Y00096150D01*
D02*
G37*
G36*
X00308627D02*
X00300300D01*
Y00087823D01*
X00301041Y00087920D01*
X00303595Y00088978D01*
X00305789Y00090661D01*
X00307472Y00092855D01*
X00308530Y00095409D01*
X00308627Y00096150D01*
D02*
G37*
G36*
X00374500Y00108741D02*
X00371759Y00108380D01*
X00369205Y00107322D01*
X00367011Y00105639D01*
X00365328Y00103445D01*
X00364270Y00100891D01*
X00363909Y00098150D01*
X00364270Y00095409D01*
X00365328Y00092855D01*
X00367011Y00090661D01*
X00369205Y00088978D01*
X00371759Y00087920D01*
X00374500Y00087559D01*
X00377241Y00087920D01*
X00379795Y00088978D01*
X00381989Y00090661D01*
X00383672Y00092855D01*
X00384730Y00095409D01*
X00385091Y00098150D01*
X00384730Y00100891D01*
X00383672Y00103445D01*
X00381989Y00105639D01*
X00379795Y00107322D01*
X00377241Y00108380D01*
X00374500Y00108741D01*
D02*
G37*
G36*
X00349100D02*
X00346359Y00108380D01*
X00343805Y00107322D01*
X00341611Y00105639D01*
X00339928Y00103445D01*
X00338870Y00100891D01*
X00338509Y00098150D01*
X00338870Y00095409D01*
X00339928Y00092855D01*
X00341611Y00090661D01*
X00343805Y00088978D01*
X00346359Y00087920D01*
X00349100Y00087559D01*
X00351841Y00087920D01*
X00354395Y00088978D01*
X00356589Y00090661D01*
X00358272Y00092855D01*
X00359330Y00095409D01*
X00359691Y00098150D01*
X00359330Y00100891D01*
X00358272Y00103445D01*
X00356589Y00105639D01*
X00354395Y00107322D01*
X00351841Y00108380D01*
X00349100Y00108741D01*
D02*
G37*
G36*
X00323700D02*
X00320959Y00108380D01*
X00318405Y00107322D01*
X00316211Y00105639D01*
X00314528Y00103445D01*
X00313470Y00100891D01*
X00313109Y00098150D01*
X00313470Y00095409D01*
X00314528Y00092855D01*
X00316211Y00090661D01*
X00318405Y00088978D01*
X00320959Y00087920D01*
X00323700Y00087559D01*
X00326441Y00087920D01*
X00328995Y00088978D01*
X00331189Y00090661D01*
X00332872Y00092855D01*
X00333930Y00095409D01*
X00334291Y00098150D01*
X00333930Y00100891D01*
X00332872Y00103445D01*
X00331189Y00105639D01*
X00328995Y00107322D01*
X00326441Y00108380D01*
X00323700Y00108741D01*
D02*
G37*
G36*
X00272900D02*
X00270159Y00108380D01*
X00267605Y00107322D01*
X00265411Y00105639D01*
X00263728Y00103445D01*
X00262670Y00100891D01*
X00262309Y00098150D01*
X00262670Y00095409D01*
X00263728Y00092855D01*
X00265411Y00090661D01*
X00267605Y00088978D01*
X00270159Y00087920D01*
X00272900Y00087559D01*
X00275641Y00087920D01*
X00278195Y00088978D01*
X00280389Y00090661D01*
X00282072Y00092855D01*
X00283130Y00095409D01*
X00283491Y00098150D01*
X00283130Y00100891D01*
X00282072Y00103445D01*
X00280389Y00105639D01*
X00278195Y00107322D01*
X00275641Y00108380D01*
X00272900Y00108741D01*
D02*
G37*
G36*
X00300300Y00083077D02*
Y00074750D01*
X00308627D01*
X00308530Y00075491D01*
X00307472Y00078045D01*
X00305789Y00080239D01*
X00303595Y00081922D01*
X00301041Y00082980D01*
X00300300Y00083077D01*
D02*
G37*
G36*
X00296300Y00083077D02*
X00295559Y00082980D01*
X00293005Y00081922D01*
X00290811Y00080239D01*
X00289128Y00078045D01*
X00288070Y00075491D01*
X00287973Y00074750D01*
X00296300D01*
Y00083077D01*
D02*
G37*
G36*
Y00070750D02*
X00287973D01*
X00288070Y00070009D01*
X00289128Y00067455D01*
X00290811Y00065261D01*
X00293005Y00063578D01*
X00295559Y00062520D01*
X00296300Y00062423D01*
Y00070750D01*
D02*
G37*
G36*
X00308627D02*
X00300300D01*
Y00062423D01*
X00301041Y00062520D01*
X00303595Y00063578D01*
X00305789Y00065261D01*
X00307472Y00067455D01*
X00308530Y00070009D01*
X00308627Y00070750D01*
D02*
G37*
G36*
X00374500Y00083341D02*
X00371759Y00082980D01*
X00369205Y00081922D01*
X00367011Y00080239D01*
X00365328Y00078045D01*
X00364270Y00075491D01*
X00363909Y00072750D01*
X00364270Y00070009D01*
X00365328Y00067455D01*
X00367011Y00065261D01*
X00369205Y00063578D01*
X00371759Y00062520D01*
X00374500Y00062159D01*
X00377241Y00062520D01*
X00379795Y00063578D01*
X00381989Y00065261D01*
X00383672Y00067455D01*
X00384730Y00070009D01*
X00385091Y00072750D01*
X00384730Y00075491D01*
X00383672Y00078045D01*
X00381989Y00080239D01*
X00379795Y00081922D01*
X00377241Y00082980D01*
X00374500Y00083341D01*
D02*
G37*
G36*
X00349100D02*
X00346359Y00082980D01*
X00343805Y00081922D01*
X00341611Y00080239D01*
X00339928Y00078045D01*
X00338870Y00075491D01*
X00338509Y00072750D01*
X00338870Y00070009D01*
X00339928Y00067455D01*
X00341611Y00065261D01*
X00343805Y00063578D01*
X00346359Y00062520D01*
X00349100Y00062159D01*
X00351841Y00062520D01*
X00354395Y00063578D01*
X00356589Y00065261D01*
X00358272Y00067455D01*
X00359330Y00070009D01*
X00359691Y00072750D01*
X00359330Y00075491D01*
X00358272Y00078045D01*
X00356589Y00080239D01*
X00354395Y00081922D01*
X00351841Y00082980D01*
X00349100Y00083341D01*
D02*
G37*
G36*
X00323700D02*
X00320959Y00082980D01*
X00318405Y00081922D01*
X00316211Y00080239D01*
X00314528Y00078045D01*
X00313470Y00075491D01*
X00313109Y00072750D01*
X00313470Y00070009D01*
X00314528Y00067455D01*
X00316211Y00065261D01*
X00318405Y00063578D01*
X00320959Y00062520D01*
X00323700Y00062159D01*
X00326441Y00062520D01*
X00328995Y00063578D01*
X00331189Y00065261D01*
X00332872Y00067455D01*
X00333930Y00070009D01*
X00334291Y00072750D01*
X00333930Y00075491D01*
X00332872Y00078045D01*
X00331189Y00080239D01*
X00328995Y00081922D01*
X00326441Y00082980D01*
X00323700Y00083341D01*
D02*
G37*
G36*
X00272900D02*
X00270159Y00082980D01*
X00267605Y00081922D01*
X00265411Y00080239D01*
X00263728Y00078045D01*
X00262670Y00075491D01*
X00262309Y00072750D01*
X00262670Y00070009D01*
X00263728Y00067455D01*
X00265411Y00065261D01*
X00267605Y00063578D01*
X00270159Y00062520D01*
X00272900Y00062159D01*
X00275641Y00062520D01*
X00278195Y00063578D01*
X00280389Y00065261D01*
X00282072Y00067455D01*
X00283130Y00070009D01*
X00283491Y00072750D01*
X00283130Y00075491D01*
X00282072Y00078045D01*
X00280389Y00080239D01*
X00278195Y00081922D01*
X00275641Y00082980D01*
X00272900Y00083341D01*
D02*
G37*
G36*
X00507500Y00246954D02*
X00505549Y00246566D01*
X00503895Y00245460D01*
X00503871Y00245424D01*
X00490928D01*
X00489562Y00245153D01*
X00488405Y00244379D01*
X00465094Y00221069D01*
X00453629D01*
X00453605Y00221105D01*
X00451951Y00222210D01*
X00450000Y00222598D01*
X00448049Y00222210D01*
X00446395Y00221105D01*
X00445290Y00219451D01*
X00444902Y00217500D01*
X00445290Y00215549D01*
X00446395Y00213895D01*
X00448049Y00212790D01*
X00450000Y00212402D01*
X00451951Y00212790D01*
X00453605Y00213895D01*
X00453629Y00213931D01*
X00466572D01*
X00467938Y00214203D01*
X00469095Y00214977D01*
X00492406Y00238287D01*
X00503871D01*
X00503895Y00238251D01*
X00505549Y00237146D01*
X00507500Y00236758D01*
X00509451Y00237146D01*
X00511105Y00238251D01*
X00512210Y00239905D01*
X00512598Y00241856D01*
X00512210Y00243807D01*
X00511105Y00245460D01*
X00509451Y00246566D01*
X00507500Y00246954D01*
D02*
G37*
G36*
X00478000Y00365100D02*
X00473005D01*
X00473180Y00363773D01*
X00473885Y00362070D01*
X00475008Y00360607D01*
X00476470Y00359486D01*
X00478000Y00358852D01*
Y00365100D01*
D02*
G37*
G36*
X00802600Y00365300D02*
X00797606D01*
X00797780Y00363973D01*
X00798485Y00362270D01*
X00799607Y00360807D01*
X00801070Y00359686D01*
X00802600Y00359052D01*
Y00365300D01*
D02*
G37*
G36*
X00595422Y00175098D02*
X00593471Y00174710D01*
X00591817Y00173605D01*
X00590712Y00171951D01*
X00590324Y00170000D01*
X00590712Y00168049D01*
X00591817Y00166395D01*
X00593471Y00165290D01*
X00595422Y00164902D01*
X00597373Y00165290D01*
X00599027Y00166395D01*
X00600132Y00168049D01*
X00600520Y00170000D01*
X00600132Y00171951D01*
X00599027Y00173605D01*
X00597373Y00174710D01*
X00595422Y00175098D01*
D02*
G37*
G36*
Y00160098D02*
X00593471Y00159710D01*
X00591817Y00158605D01*
X00590712Y00156951D01*
X00590324Y00155000D01*
X00590712Y00153049D01*
X00591817Y00151395D01*
X00593471Y00150290D01*
X00595422Y00149902D01*
X00597373Y00150290D01*
X00599027Y00151395D01*
X00600132Y00153049D01*
X00600520Y00155000D01*
X00600132Y00156951D01*
X00599027Y00158605D01*
X00597373Y00159710D01*
X00595422Y00160098D01*
D02*
G37*
G36*
X00640500Y00365100D02*
X00635505D01*
X00635680Y00363773D01*
X00636385Y00362070D01*
X00637508Y00360607D01*
X00638970Y00359486D01*
X00640500Y00358852D01*
Y00365100D01*
D02*
G37*
G36*
X00076900Y00259560D02*
X00073900D01*
X00072073Y00259320D01*
X00070370Y00258615D01*
X00068908Y00257492D01*
X00067786Y00256030D01*
X00067080Y00254327D01*
X00066840Y00252500D01*
X00067080Y00250673D01*
X00067786Y00248970D01*
X00068908Y00247508D01*
X00069670Y00246922D01*
Y00245378D01*
X00068908Y00244792D01*
X00067786Y00243330D01*
X00067080Y00241627D01*
X00066840Y00239800D01*
X00067080Y00237973D01*
X00067786Y00236270D01*
X00068908Y00234808D01*
X00069670Y00234223D01*
Y00232677D01*
X00068908Y00232092D01*
X00067786Y00230630D01*
X00067080Y00228927D01*
X00066840Y00227100D01*
X00067080Y00225273D01*
X00067786Y00223570D01*
X00068908Y00222108D01*
X00069670Y00221523D01*
Y00219977D01*
X00068908Y00219392D01*
X00067786Y00217930D01*
X00067080Y00216227D01*
X00066840Y00214400D01*
X00067080Y00212573D01*
X00067786Y00210870D01*
X00068908Y00209408D01*
X00069670Y00208822D01*
Y00207278D01*
X00068908Y00206692D01*
X00067786Y00205230D01*
X00067080Y00203527D01*
X00066840Y00201700D01*
X00067080Y00199873D01*
X00067786Y00198170D01*
X00068908Y00196708D01*
X00070370Y00195585D01*
X00072073Y00194880D01*
X00073900Y00194640D01*
X00076900D01*
X00078727Y00194880D01*
X00080430Y00195585D01*
X00081892Y00196708D01*
X00083014Y00198170D01*
X00083720Y00199873D01*
X00083960Y00201700D01*
X00083720Y00203527D01*
X00083014Y00205230D01*
X00081892Y00206692D01*
X00081130Y00207278D01*
Y00208822D01*
X00081892Y00209408D01*
X00083014Y00210870D01*
X00083720Y00212573D01*
X00083960Y00214400D01*
X00083720Y00216227D01*
X00083014Y00217930D01*
X00081892Y00219392D01*
X00081130Y00219977D01*
Y00221523D01*
X00081892Y00222108D01*
X00083014Y00223570D01*
X00083720Y00225273D01*
X00083960Y00227100D01*
X00083720Y00228927D01*
X00083014Y00230630D01*
X00081892Y00232092D01*
X00081130Y00232677D01*
Y00234223D01*
X00081892Y00234808D01*
X00083014Y00236270D01*
X00083720Y00237973D01*
X00083960Y00239800D01*
X00083720Y00241627D01*
X00083014Y00243330D01*
X00081892Y00244792D01*
X00081130Y00245378D01*
Y00246922D01*
X00081892Y00247508D01*
X00083014Y00248970D01*
X00083720Y00250673D01*
X00083960Y00252500D01*
X00083720Y00254327D01*
X00083014Y00256030D01*
X00081892Y00257492D01*
X00080430Y00258615D01*
X00078727Y00259320D01*
X00076900Y00259560D01*
D02*
G37*
G36*
X00057000Y00259500D02*
X00043000D01*
Y00245500D01*
X00043000Y00245500D01*
X00043000D01*
X00043091Y00244250D01*
X00042386Y00243330D01*
X00041680Y00241627D01*
X00041440Y00239800D01*
X00041680Y00237973D01*
X00042386Y00236270D01*
X00043508Y00234808D01*
X00044270Y00234223D01*
Y00232677D01*
X00043508Y00232092D01*
X00042386Y00230630D01*
X00041680Y00228927D01*
X00041440Y00227100D01*
X00041680Y00225273D01*
X00042386Y00223570D01*
X00043508Y00222108D01*
X00044270Y00221523D01*
Y00219977D01*
X00043508Y00219392D01*
X00042386Y00217930D01*
X00041680Y00216227D01*
X00041440Y00214400D01*
X00041680Y00212573D01*
X00042386Y00210870D01*
X00043508Y00209408D01*
X00044270Y00208822D01*
Y00207278D01*
X00043508Y00206692D01*
X00042386Y00205230D01*
X00041680Y00203527D01*
X00041440Y00201700D01*
X00041680Y00199873D01*
X00042386Y00198170D01*
X00043508Y00196708D01*
X00044970Y00195585D01*
X00046673Y00194880D01*
X00048500Y00194640D01*
X00051500D01*
X00053327Y00194880D01*
X00055030Y00195585D01*
X00056492Y00196708D01*
X00057614Y00198170D01*
X00058320Y00199873D01*
X00058560Y00201700D01*
X00058320Y00203527D01*
X00057614Y00205230D01*
X00056492Y00206692D01*
X00055730Y00207278D01*
Y00208822D01*
X00056492Y00209408D01*
X00057614Y00210870D01*
X00058320Y00212573D01*
X00058560Y00214400D01*
X00058320Y00216227D01*
X00057614Y00217930D01*
X00056492Y00219392D01*
X00055730Y00219977D01*
Y00221523D01*
X00056492Y00222108D01*
X00057614Y00223570D01*
X00058320Y00225273D01*
X00058560Y00227100D01*
X00058320Y00228927D01*
X00057614Y00230630D01*
X00056492Y00232092D01*
X00055730Y00232677D01*
Y00234223D01*
X00056492Y00234808D01*
X00057614Y00236270D01*
X00058320Y00237973D01*
X00058560Y00239800D01*
X00058320Y00241627D01*
X00057614Y00243330D01*
X00056909Y00244250D01*
X00057000Y00245500D01*
X00057000Y00245500D01*
X00057000Y00245500D01*
Y00259500D01*
D02*
G37*
G36*
X00108833Y00113848D02*
X00106882Y00113460D01*
X00105228Y00112355D01*
X00104123Y00110701D01*
X00103735Y00108750D01*
X00104123Y00106799D01*
X00105228Y00105145D01*
X00106882Y00104040D01*
X00108833Y00103652D01*
X00110784Y00104040D01*
X00112437Y00105145D01*
X00113542Y00106799D01*
X00113931Y00108750D01*
X00113542Y00110701D01*
X00112437Y00112355D01*
X00110784Y00113460D01*
X00108833Y00113848D01*
D02*
G37*
G36*
X00115000Y00102598D02*
X00113049Y00102210D01*
X00111395Y00101105D01*
X00110290Y00099451D01*
X00109902Y00097500D01*
X00110290Y00095549D01*
X00111395Y00093895D01*
X00113049Y00092790D01*
X00115000Y00092402D01*
X00116951Y00092790D01*
X00118605Y00093895D01*
X00119710Y00095549D01*
X00120098Y00097500D01*
X00119710Y00099451D01*
X00118605Y00101105D01*
X00116951Y00102210D01*
X00115000Y00102598D01*
D02*
G37*
G36*
X00766000Y00108650D02*
X00745000D01*
Y00087650D01*
X00766000D01*
Y00108650D01*
D02*
G37*
G36*
X00121046Y00090098D02*
X00119095Y00089710D01*
X00117442Y00088605D01*
X00116336Y00086951D01*
X00115948Y00085000D01*
X00116336Y00083049D01*
X00117442Y00081395D01*
X00119095Y00080290D01*
X00121046Y00079902D01*
X00122997Y00080290D01*
X00124651Y00081395D01*
X00125756Y00083049D01*
X00126144Y00085000D01*
X00125756Y00086951D01*
X00124651Y00088605D01*
X00122997Y00089710D01*
X00121046Y00090098D01*
D02*
G37*
G36*
X00108833D02*
X00106882Y00089710D01*
X00105228Y00088605D01*
X00104123Y00086951D01*
X00103735Y00085000D01*
X00104123Y00083049D01*
X00105228Y00081395D01*
X00106882Y00080290D01*
X00108833Y00079902D01*
X00110784Y00080290D01*
X00112437Y00081395D01*
X00113542Y00083049D01*
X00113931Y00085000D01*
X00113542Y00086951D01*
X00112437Y00088605D01*
X00110784Y00089710D01*
X00108833Y00090098D01*
D02*
G37*
G36*
X00757500Y00083077D02*
Y00074750D01*
X00765827D01*
X00765730Y00075491D01*
X00764672Y00078045D01*
X00762989Y00080239D01*
X00760795Y00081922D01*
X00758241Y00082980D01*
X00757500Y00083077D01*
D02*
G37*
G36*
X00765827Y00070750D02*
X00757500D01*
Y00062423D01*
X00758241Y00062520D01*
X00760795Y00063578D01*
X00762989Y00065261D01*
X00764672Y00067455D01*
X00765730Y00070009D01*
X00765827Y00070750D01*
D02*
G37*
G36*
X00774500Y00030525D02*
X00772549Y00030137D01*
X00770895Y00029032D01*
X00769790Y00027378D01*
X00769402Y00025427D01*
X00769790Y00023477D01*
X00770895Y00021823D01*
X00772549Y00020717D01*
X00774500Y00020329D01*
X00776451Y00020717D01*
X00778105Y00021823D01*
X00779210Y00023477D01*
X00779598Y00025427D01*
X00779210Y00027378D01*
X00778105Y00029032D01*
X00776451Y00030137D01*
X00774500Y00030525D01*
D02*
G37*
G36*
X00700000Y00030098D02*
X00698049Y00029710D01*
X00696395Y00028605D01*
X00695290Y00026951D01*
X00694902Y00025000D01*
X00695290Y00023049D01*
X00696395Y00021395D01*
X00698049Y00020290D01*
X00700000Y00019902D01*
X00701951Y00020290D01*
X00703605Y00021395D01*
X00704710Y00023049D01*
X00705098Y00025000D01*
X00704710Y00026951D01*
X00703605Y00028605D01*
X00701951Y00029710D01*
X00700000Y00030098D01*
D02*
G37*
G36*
X00625000D02*
X00623049Y00029710D01*
X00621395Y00028605D01*
X00620290Y00026951D01*
X00619902Y00025000D01*
X00620290Y00023049D01*
X00621395Y00021395D01*
X00623049Y00020290D01*
X00625000Y00019902D01*
X00626951Y00020290D01*
X00628605Y00021395D01*
X00629710Y00023049D01*
X00630098Y00025000D01*
X00629710Y00026951D01*
X00628605Y00028605D01*
X00626951Y00029710D01*
X00625000Y00030098D01*
D02*
G37*
G36*
X00550000D02*
X00548049Y00029710D01*
X00546395Y00028605D01*
X00545290Y00026951D01*
X00544902Y00025000D01*
X00545290Y00023049D01*
X00546395Y00021395D01*
X00548049Y00020290D01*
X00550000Y00019902D01*
X00551951Y00020290D01*
X00553605Y00021395D01*
X00554710Y00023049D01*
X00555098Y00025000D01*
X00554710Y00026951D01*
X00553605Y00028605D01*
X00551951Y00029710D01*
X00550000Y00030098D01*
D02*
G37*
G36*
X00475000D02*
X00473049Y00029710D01*
X00471395Y00028605D01*
X00470290Y00026951D01*
X00469902Y00025000D01*
X00470290Y00023049D01*
X00471395Y00021395D01*
X00473049Y00020290D01*
X00475000Y00019902D01*
X00476951Y00020290D01*
X00478605Y00021395D01*
X00479710Y00023049D01*
X00480098Y00025000D01*
X00479710Y00026951D01*
X00478605Y00028605D01*
X00476951Y00029710D01*
X00475000Y00030098D01*
D02*
G37*
G36*
X00400000D02*
X00398049Y00029710D01*
X00396395Y00028605D01*
X00395290Y00026951D01*
X00394902Y00025000D01*
X00395290Y00023049D01*
X00396395Y00021395D01*
X00398049Y00020290D01*
X00400000Y00019902D01*
X00401951Y00020290D01*
X00403605Y00021395D01*
X00404710Y00023049D01*
X00405098Y00025000D01*
X00404710Y00026951D01*
X00403605Y00028605D01*
X00401951Y00029710D01*
X00400000Y00030098D01*
D02*
G37*
G36*
X00325500Y00029671D02*
X00323549Y00029283D01*
X00321895Y00028177D01*
X00320790Y00026523D01*
X00320402Y00024573D01*
X00320790Y00022622D01*
X00321895Y00020968D01*
X00323549Y00019863D01*
X00325500Y00019475D01*
X00327451Y00019863D01*
X00329105Y00020968D01*
X00330210Y00022622D01*
X00330598Y00024573D01*
X00330210Y00026523D01*
X00329105Y00028177D01*
X00327451Y00029283D01*
X00325500Y00029671D01*
D02*
G37*
G36*
X00250500D02*
X00248549Y00029283D01*
X00246895Y00028177D01*
X00245790Y00026523D01*
X00245402Y00024573D01*
X00245790Y00022622D01*
X00246895Y00020968D01*
X00248549Y00019863D01*
X00250500Y00019475D01*
X00252451Y00019863D01*
X00254105Y00020968D01*
X00255210Y00022622D01*
X00255598Y00024573D01*
X00255210Y00026523D01*
X00254105Y00028177D01*
X00252451Y00029283D01*
X00250500Y00029671D01*
D02*
G37*
G36*
X00175500D02*
X00173549Y00029283D01*
X00171895Y00028177D01*
X00170790Y00026523D01*
X00170402Y00024573D01*
X00170790Y00022622D01*
X00171895Y00020968D01*
X00173549Y00019863D01*
X00175500Y00019475D01*
X00177451Y00019863D01*
X00179105Y00020968D01*
X00180210Y00022622D01*
X00180598Y00024573D01*
X00180210Y00026523D01*
X00179105Y00028177D01*
X00177451Y00029283D01*
X00175500Y00029671D01*
D02*
G37*
G36*
X00101000Y00029243D02*
X00099049Y00028855D01*
X00097395Y00027750D01*
X00096290Y00026096D01*
X00095902Y00024145D01*
X00096290Y00022194D01*
X00097395Y00020540D01*
X00099049Y00019435D01*
X00101000Y00019047D01*
X00102951Y00019435D01*
X00104605Y00020540D01*
X00105710Y00022194D01*
X00106098Y00024145D01*
X00105710Y00026096D01*
X00104605Y00027750D01*
X00102951Y00028855D01*
X00101000Y00029243D01*
D02*
G37*
%LPD*%
D13*
X00590908Y00203800D02*
X00628608Y00241500D01*
X00650000D01*
X00466572Y00217500D02*
X00490928Y00241856D01*
X00450000Y00217500D02*
X00466572D01*
X00490928Y00241856D02*
X00507500D01*
X00288098Y00203050D02*
X00325864Y00240816D01*
X00342500D01*
D49*
X00615293Y00102780D02*
Y00147495D01*
X00618021Y00097710D02*
Y00146365D01*
X00664384Y00192728D01*
X00615293Y00147495D02*
X00661656Y00193858D01*
X00625311Y00369216D02*
X00633951Y00377856D01*
X00622583Y00288870D02*
Y00370346D01*
X00633951Y00377856D02*
X00657644D01*
X00625311Y00290000D02*
Y00369216D01*
X00622583Y00370346D02*
X00632821Y00380584D01*
X00653492D01*
X00447429Y00358470D02*
X00466714Y00377755D01*
X00482545D02*
X00492700Y00367600D01*
X00480000Y00382192D02*
Y00392500D01*
X00478292Y00380483D02*
X00480000Y00382192D01*
X00466714Y00377755D02*
X00482545D01*
X00465584Y00380483D02*
X00478292D01*
X00444701Y00359600D02*
X00465584Y00380483D01*
X00506582Y00376996D02*
X00508291Y00378705D01*
X00536873D02*
X00551473Y00364105D01*
X00538003Y00381433D02*
X00554201Y00365235D01*
X00508291Y00378705D02*
X00536873D01*
X00506582Y00368282D02*
Y00376996D01*
X00492700Y00392000D02*
X00503267Y00381433D01*
X00538003D01*
X00505400Y00367100D02*
X00506582Y00368282D01*
X00305728Y00370081D02*
X00313403Y00377755D01*
X00327691Y00380483D02*
X00329400Y00382192D01*
X00303000Y00371211D02*
X00312273Y00380483D01*
X00313403Y00377755D02*
X00331945D01*
X00342100Y00367600D01*
X00329400Y00382192D02*
Y00392500D01*
X00312273Y00380483D02*
X00327691D01*
X00858090Y00378868D02*
X00871461Y00365498D01*
X00842796Y00377160D02*
X00844505Y00378868D01*
X00842796Y00367396D02*
Y00377160D01*
X00859220Y00381597D02*
X00874189Y00366628D01*
X00830000Y00392200D02*
X00840603Y00381597D01*
X00859220D01*
X00842700Y00367300D02*
X00842796Y00367396D01*
X00844505Y00378868D02*
X00858090D01*
X00678303Y00381597D02*
X00695807D01*
X00696606Y00380798D02*
X00696606D01*
X00680600Y00377160D02*
X00682309Y00378868D01*
X00694677D01*
X00696606Y00380798D02*
X00704201Y00373203D01*
X00695807Y00381597D02*
X00696606Y00380798D01*
X00680600Y00367100D02*
Y00377160D01*
X00694677Y00378868D02*
X00702272Y00371273D01*
X00667900Y00392000D02*
X00678303Y00381597D01*
X00657644Y00377856D02*
X00667900Y00367600D01*
X00655200Y00382293D02*
Y00392500D01*
X00653492Y00380584D02*
X00655200Y00382293D01*
X00691492Y00150148D02*
X00871461Y00330116D01*
Y00365498D01*
X00874189Y00328986D02*
Y00366628D01*
X00694221Y00149017D02*
X00874189Y00328986D01*
X00473105Y00189772D02*
X00486735Y00176142D01*
X00447914Y00189772D02*
X00473105D01*
X00486735Y00104338D02*
Y00176142D01*
X00474235Y00192500D02*
X00489464Y00177272D01*
Y00096694D02*
Y00177272D01*
X00449044Y00192500D02*
X00474235D01*
X00408036Y00229649D02*
X00447914Y00189772D01*
X00408036Y00229649D02*
Y00254521D01*
X00410765Y00230779D02*
Y00255651D01*
Y00230779D02*
X00449044Y00192500D01*
X00668821Y00142462D02*
X00770000Y00243642D01*
Y00355208D01*
X00668821Y00097710D02*
Y00142462D01*
X00767272Y00244772D02*
Y00356338D01*
X00666093Y00143593D02*
X00767272Y00244772D01*
X00666093Y00102780D02*
Y00143593D01*
X00691492Y00102780D02*
Y00150148D01*
X00694221Y00097710D02*
Y00149017D01*
X00767272Y00356338D02*
X00791518Y00380584D01*
X00770000Y00355208D02*
X00792648Y00377856D01*
X00551473Y00231612D02*
Y00364105D01*
X00554201Y00232742D02*
Y00365235D01*
X00514221Y00168515D02*
X00525705Y00180000D01*
X00514221Y00095468D02*
Y00168515D01*
X00525705Y00180000D02*
X00560313D01*
X00516949Y00105022D02*
Y00167385D01*
X00526836Y00177272D02*
X00561443D01*
X00516949Y00167385D02*
X00526836Y00177272D01*
X00516949Y00105022D02*
X00523821Y00098150D01*
X00526900D01*
X00514221Y00095468D02*
X00523926Y00085763D01*
X00574171Y00193858D02*
Y00208913D01*
X00551473Y00231612D02*
X00574171Y00208913D01*
X00523926Y00075724D02*
Y00085763D01*
Y00075724D02*
X00526900Y00072750D01*
X00554201Y00232742D02*
X00576899Y00210044D01*
X00492700Y00392000D02*
Y00392500D01*
X00560313Y00180000D02*
X00574171Y00193858D01*
X00561443Y00177272D02*
X00576899Y00192728D01*
Y00210044D01*
X00303000Y00359558D02*
X00408036Y00254521D01*
X00303000Y00359558D02*
Y00371211D01*
X00305728Y00360688D02*
Y00370081D01*
Y00360688D02*
X00410765Y00255651D01*
X00342100Y00367100D02*
Y00367600D01*
X00476100Y00072750D02*
X00479074Y00075724D01*
Y00086304D01*
X00489464Y00096694D01*
X00485027Y00102629D02*
X00486735Y00104338D01*
X00480306Y00098150D02*
X00484785Y00102629D01*
X00476100Y00098150D02*
X00480306D01*
X00484785Y00102629D02*
X00485027D01*
X00405435Y00302272D02*
X00440139D01*
X00447429Y00309562D01*
X00396636Y00311071D02*
X00405435Y00302272D01*
X00439009Y00305000D02*
X00444701Y00310692D01*
X00406565Y00305000D02*
X00439009D01*
X00399364Y00312201D02*
X00406565Y00305000D01*
X00396636Y00311071D02*
Y00322780D01*
X00399364Y00312201D02*
Y00322780D01*
X00404584Y00328000D01*
X00391416D02*
X00396636Y00322780D01*
X00492700Y00367100D02*
Y00367600D01*
X00447429Y00309562D02*
Y00358470D01*
X00391000Y00328000D02*
X00391416D01*
X00404584D02*
X00405000D01*
X00444701Y00310692D02*
Y00359600D01*
X00661656Y00193858D02*
Y00249797D01*
X00664384Y00192728D02*
Y00250927D01*
X00623382Y00288071D02*
X00661656Y00249797D01*
X00625311Y00290000D02*
X00664384Y00250927D01*
X00603100Y00072750D02*
X00606074Y00075724D01*
X00667900Y00367100D02*
Y00367600D01*
X00606074Y00085763D02*
X00618021Y00097710D01*
X00606074Y00075724D02*
Y00085763D01*
X00606022Y00101072D02*
X00613584D01*
X00603100Y00098150D02*
X00606022Y00101072D01*
X00613584D02*
X00615293Y00102780D01*
X00622583Y00288870D02*
X00623382Y00288071D01*
X00702272Y00198858D02*
Y00371273D01*
X00640693Y00137279D02*
X00702272Y00198858D01*
X00640693Y00102780D02*
Y00137279D01*
X00643421Y00136149D02*
X00705000Y00197728D01*
X00643421Y00097710D02*
Y00136149D01*
X00705000Y00197728D02*
Y00372403D01*
X00830000Y00392200D02*
Y00392700D01*
X00682274Y00085763D02*
X00694221Y00097710D01*
X00679300Y00072750D02*
X00682274Y00075724D01*
Y00085763D01*
X00689784Y00101072D02*
X00691492Y00102780D01*
X00682222Y00101072D02*
X00689784D01*
X00679300Y00098150D02*
X00682222Y00101072D01*
X00704201Y00373203D02*
Y00373203D01*
Y00373203D02*
X00705000Y00372403D01*
X00667900Y00392000D02*
Y00392500D01*
X00631474Y00085763D02*
X00643421Y00097710D01*
X00631474Y00075724D02*
Y00085763D01*
X00628500Y00072750D02*
X00631474Y00075724D01*
X00638984Y00101072D02*
X00640693Y00102780D01*
X00631422Y00101072D02*
X00638984D01*
X00628500Y00098150D02*
X00631422Y00101072D01*
X00791518Y00380584D02*
X00815592D01*
X00792648Y00377856D02*
X00819944D01*
X00815592Y00380584D02*
X00817300Y00382293D01*
Y00392700D01*
X00819944Y00377856D02*
X00830000Y00367800D01*
X00664384Y00101072D02*
X00666093Y00102780D01*
X00653900Y00098150D02*
X00656822Y00101072D01*
X00664384D01*
X00656874Y00085763D02*
X00668821Y00097710D01*
X00656874Y00075724D02*
Y00085763D01*
X00653900Y00072750D02*
X00656874Y00075724D01*
X00830000Y00367300D02*
Y00367800D01*
D50*
X00329400Y00203050D02*
X00374567D01*
X00316700Y00215750D02*
X00329400Y00203050D01*
X00526900Y00160000D02*
X00562500D01*
X00605550Y00203050D01*
X00650000D01*
X00481200Y00280000D02*
X00540067D01*
X00456078Y00305122D02*
X00481200Y00280000D01*
X00540067Y00203800D02*
Y00280000D01*
X00498767Y00203800D02*
X00540067D01*
X00486067Y00216500D02*
X00498767Y00203800D01*
X00540067D02*
X00565508D01*
X00285000Y00291950D02*
X00331121D01*
X00347098Y00275973D02*
X00374500D01*
X00331121Y00291950D02*
X00347098Y00275973D01*
X00374534Y00203083D02*
X00374567Y00203050D01*
X00374534Y00203083D02*
Y00275939D01*
X00374500Y00275973D02*
X00374534Y00275939D01*
X00715000Y00271536D02*
X00745000D01*
X00715000Y00285000D02*
X00755150D01*
X00755500Y00284650D01*
D51*
X00403144Y00290687D02*
X00430235D01*
X00370802Y00323029D02*
X00403144Y00290687D01*
X00370802Y00323029D02*
Y00340293D01*
X00367908Y00321831D02*
X00401945Y00287794D01*
X00429037D01*
X00367908Y00321831D02*
Y00341491D01*
X00429037Y00287794D02*
X00449082Y00267748D01*
X00430235Y00290687D02*
X00451976Y00268947D01*
X00207702Y00379657D02*
X00227074D01*
X00202534Y00382550D02*
X00225876D01*
X00227074Y00379657D02*
X00265198Y00417781D01*
X00225876Y00382550D02*
X00264000Y00420674D01*
X00193100Y00391984D02*
X00202534Y00382550D01*
X00193100Y00391984D02*
Y00392700D01*
X00205800Y00377755D02*
X00207702Y00379657D01*
X00205800Y00367300D02*
Y00377755D01*
X00142107Y00374142D02*
X00149563Y00381598D01*
X00154087Y00391787D02*
X00155000Y00392700D01*
X00149563Y00381598D02*
X00152186D01*
X00154087Y00383500D02*
Y00391787D01*
X00152186Y00381598D02*
X00154087Y00383500D01*
X00145000Y00372943D02*
X00150761Y00378705D01*
X00156795D02*
X00167700Y00367800D01*
X00150761Y00378705D02*
X00156795D01*
X00145000Y00357893D02*
Y00372943D01*
Y00357893D02*
X00146798Y00356095D01*
X00160393Y00342500D01*
X00142107Y00356695D02*
Y00374142D01*
Y00356695D02*
X00159195Y00339607D01*
X00210393D01*
X00290000Y00260000D01*
X00160393Y00342500D02*
X00211592D01*
X00292893Y00261198D01*
X00264000Y00420674D02*
X00565360D01*
X00577997Y00408037D01*
X00265198Y00417781D02*
X00564162D01*
X00576943Y00405000D01*
X00449082Y00241161D02*
Y00267748D01*
X00451976Y00239962D02*
Y00268947D01*
X00367908Y00341491D02*
X00385463Y00359046D01*
X00369402Y00378705D02*
X00380939D01*
X00367500Y00376803D02*
X00369402Y00378705D01*
X00380939D02*
X00385463Y00374180D01*
X00364986Y00381598D02*
X00382137D01*
X00367500Y00367100D02*
Y00376803D01*
X00354800Y00391784D02*
X00364986Y00381598D01*
X00382137D02*
X00388356Y00375379D01*
X00167700Y00367300D02*
Y00367800D01*
X00292893Y00236756D02*
Y00261198D01*
X00279803Y00236052D02*
X00288098D01*
X00289297Y00233159D02*
X00292893Y00236756D01*
X00281002Y00233159D02*
X00289297D01*
X00290000Y00237954D02*
Y00260000D01*
X00288098Y00236052D02*
X00290000Y00237954D01*
X00272500Y00227606D02*
Y00228545D01*
X00277114Y00233159D01*
X00281002D01*
X00272500Y00240666D02*
Y00241606D01*
X00279803Y00236052D02*
X00279803Y00236052D01*
X00277114Y00236052D02*
X00279803D01*
X00272500Y00240666D02*
X00277114Y00236052D01*
X00281002Y00233159D02*
X00281002Y00233159D01*
X00576943Y00405000D02*
X00600000Y00381943D01*
X00577997Y00408037D02*
X00577997D01*
X00602893Y00383141D01*
Y00240248D02*
Y00383141D01*
X00596199Y00233553D02*
X00602893Y00240248D01*
X00600000Y00241447D02*
Y00381943D01*
X00595000Y00236447D02*
X00600000Y00241447D01*
X00590923Y00233553D02*
X00596199D01*
X00589724Y00236447D02*
X00595000D01*
X00585133Y00238349D02*
X00587035Y00236447D01*
X00585133Y00238349D02*
Y00238683D01*
X00583000Y00240816D02*
X00585133Y00238683D01*
X00583000Y00240816D02*
Y00242000D01*
Y00228000D02*
Y00229184D01*
X00585133Y00231317D01*
Y00231651D01*
X00587035Y00233553D01*
X00589724Y00236447D02*
X00589724Y00236447D01*
X00587035Y00233553D02*
X00590923D01*
X00590923Y00233553D01*
X00587035Y00236447D02*
X00589724D01*
X00354800Y00391784D02*
Y00392500D01*
X00388356Y00357847D02*
Y00375379D01*
X00370802Y00340293D02*
X00388356Y00357847D01*
X00385463Y00359046D02*
Y00374180D01*
X00438000Y00241171D02*
X00440133Y00239039D01*
X00438000Y00241171D02*
Y00242356D01*
X00440133Y00238704D02*
Y00239039D01*
X00438000Y00228356D02*
Y00229540D01*
X00440133Y00231673D01*
Y00232007D01*
X00442035Y00233909D01*
X00445923D01*
X00451976Y00239962D01*
X00444724Y00236802D02*
X00449082Y00241161D01*
X00442035Y00236802D02*
X00444724D01*
X00440133Y00238704D02*
X00442035Y00236802D01*
D53*
X00050000Y00252500D02*
D03*
X00950000Y00132500D02*
D03*
D54*
X00075400Y00252500D02*
D03*
Y00239800D02*
D03*
X00050000D02*
D03*
X00075400Y00227100D02*
D03*
X00050000D02*
D03*
X00075400Y00214400D02*
D03*
X00050000D02*
D03*
X00075400Y00201700D02*
D03*
X00050000D02*
D03*
X00924600Y00132500D02*
D03*
Y00145200D02*
D03*
X00950000D02*
D03*
X00924600Y00157900D02*
D03*
X00950000D02*
D03*
X00924600Y00170600D02*
D03*
X00950000D02*
D03*
X00924600Y00183300D02*
D03*
X00950000D02*
D03*
D55*
X00205800Y00392700D02*
D03*
X00367500Y00392500D02*
D03*
X00530800D02*
D03*
X00693300D02*
D03*
X00855400Y00392700D02*
D03*
D56*
X00205800Y00367300D02*
D03*
X00193100D02*
D03*
Y00392700D02*
D03*
X00180400Y00367300D02*
D03*
Y00392700D02*
D03*
X00167700Y00367300D02*
D03*
Y00392700D02*
D03*
X00155000Y00367300D02*
D03*
Y00392700D02*
D03*
X00367500Y00367100D02*
D03*
X00354800D02*
D03*
Y00392500D02*
D03*
X00342100Y00367100D02*
D03*
Y00392500D02*
D03*
X00329400Y00367100D02*
D03*
Y00392500D02*
D03*
X00316700Y00367100D02*
D03*
Y00392500D02*
D03*
X00530800Y00367100D02*
D03*
X00518100D02*
D03*
Y00392500D02*
D03*
X00505400Y00367100D02*
D03*
Y00392500D02*
D03*
X00492700Y00367100D02*
D03*
Y00392500D02*
D03*
X00480000Y00367100D02*
D03*
Y00392500D02*
D03*
X00693300Y00367100D02*
D03*
X00680600D02*
D03*
Y00392500D02*
D03*
X00667900Y00367100D02*
D03*
Y00392500D02*
D03*
X00655200Y00367100D02*
D03*
Y00392500D02*
D03*
X00642500Y00367100D02*
D03*
Y00392500D02*
D03*
X00855400Y00367300D02*
D03*
X00842700D02*
D03*
Y00392700D02*
D03*
X00830000Y00367300D02*
D03*
Y00392700D02*
D03*
X00817300Y00367300D02*
D03*
Y00392700D02*
D03*
X00804600Y00367300D02*
D03*
Y00392700D02*
D03*
D57*
X00272900Y00072750D02*
D03*
Y00098150D02*
D03*
X00298300Y00072750D02*
D03*
Y00098150D02*
D03*
X00323700Y00072750D02*
D03*
Y00098150D02*
D03*
X00349100Y00072750D02*
D03*
Y00098150D02*
D03*
X00730101D02*
D03*
X00755500Y00072750D02*
D03*
X00628500Y00098150D02*
D03*
X00653900Y00072750D02*
D03*
Y00098150D02*
D03*
X00374500Y00072750D02*
D03*
X00679300Y00098150D02*
D03*
Y00072750D02*
D03*
X00704700Y00098150D02*
D03*
Y00072750D02*
D03*
X00730100D02*
D03*
X00628500D02*
D03*
X00603100Y00098150D02*
D03*
Y00072750D02*
D03*
X00577700Y00098150D02*
D03*
Y00072750D02*
D03*
X00552300Y00098150D02*
D03*
Y00072750D02*
D03*
X00526900Y00098150D02*
D03*
Y00072750D02*
D03*
X00501500Y00098150D02*
D03*
Y00072750D02*
D03*
X00476100Y00098150D02*
D03*
Y00072750D02*
D03*
X00450700Y00098150D02*
D03*
Y00072750D02*
D03*
X00425300Y00098150D02*
D03*
Y00072750D02*
D03*
X00399900Y00098150D02*
D03*
X00374500D02*
D03*
X00399900Y00072750D02*
D03*
D58*
X00755500Y00098150D02*
D03*
D59*
X00960000Y00040000D02*
D03*
Y00410000D02*
D03*
X00040000D02*
D03*
Y00040000D02*
D03*
D60*
X00628500Y00115000D02*
D03*
Y00057087D02*
D03*
X00502500Y00142500D02*
D03*
X00662500Y00175000D02*
D03*
X00712500Y00147500D02*
D03*
X00260000Y00365000D02*
D03*
Y00395000D02*
D03*
X00897500Y00182500D02*
D03*
X00960000Y00222500D02*
D03*
X00897500D02*
D03*
X00173300Y00405000D02*
D03*
X00148300D02*
D03*
X00185800D02*
D03*
X00160800D02*
D03*
X00310000Y00406000D02*
D03*
X00322500D02*
D03*
X00335000D02*
D03*
X00347500D02*
D03*
X00473300D02*
D03*
X00485800D02*
D03*
X00498300D02*
D03*
X00510800D02*
D03*
X00673300D02*
D03*
X00648300D02*
D03*
X00660800D02*
D03*
X00635800D02*
D03*
X00845780Y00149675D02*
D03*
X00972500Y00325189D02*
D03*
X00826018Y00254756D02*
D03*
X00820767Y00248211D02*
D03*
X00645110Y00291950D02*
D03*
X00135501Y00393000D02*
D03*
X00297201Y00392800D02*
D03*
X00460501D02*
D03*
X00623001D02*
D03*
X00825000Y00150000D02*
D03*
X00101000Y00024145D02*
D03*
X00175500Y00024573D02*
D03*
X00250500D02*
D03*
X00325500D02*
D03*
X00400000Y00025000D02*
D03*
X00475000D02*
D03*
X00550000D02*
D03*
X00625000D02*
D03*
X00700000D02*
D03*
X00774500Y00025427D02*
D03*
X00686550Y00254353D02*
D03*
X00255000Y00330000D02*
D03*
X00260000Y00274494D02*
D03*
X00569638Y00318452D02*
D03*
X00569112Y00143968D02*
D03*
X00798500Y00313037D02*
D03*
X00714911Y00312500D02*
D03*
X00730800Y00338452D02*
D03*
X00785101Y00393000D02*
D03*
X00892900Y00365200D02*
D03*
Y00395200D02*
D03*
X00730800Y00395000D02*
D03*
X00568300Y00365000D02*
D03*
Y00395000D02*
D03*
X00405000D02*
D03*
Y00365000D02*
D03*
X00359330Y00328000D02*
D03*
X00412147Y00269652D02*
D03*
X00380821Y00243182D02*
D03*
X00360000Y00170000D02*
D03*
X00398170Y00154487D02*
D03*
X00230000Y00190204D02*
D03*
Y00250000D02*
D03*
Y00300000D02*
D03*
X00612500Y00057500D02*
D03*
X00607500Y00115000D02*
D03*
X00476100Y00057087D02*
D03*
Y00115000D02*
D03*
X00515000Y00057500D02*
D03*
X00525000Y00115000D02*
D03*
X00653900Y00057087D02*
D03*
Y00115000D02*
D03*
X00679300D02*
D03*
Y00057087D02*
D03*
X00849233Y00354200D02*
D03*
X00835400D02*
D03*
X00822900D02*
D03*
X00835400Y00406200D02*
D03*
X00822900D02*
D03*
X00810400D02*
D03*
X00797900D02*
D03*
X00861733Y00354200D02*
D03*
X00687133Y00354000D02*
D03*
X00673300D02*
D03*
X00660800D02*
D03*
X00537133D02*
D03*
X00212133Y00354200D02*
D03*
X00498300Y00354000D02*
D03*
X00510800D02*
D03*
X00524633D02*
D03*
X00173300Y00354200D02*
D03*
X00185800D02*
D03*
X00199633D02*
D03*
X00361333Y00354000D02*
D03*
X00347500D02*
D03*
X00335000D02*
D03*
X00115000Y00097500D02*
D03*
X00121046Y00085000D02*
D03*
X00121167Y00108750D02*
D03*
X00108833D02*
D03*
Y00085000D02*
D03*
X00156100Y00085000D02*
D03*
X00197500Y00070000D02*
D03*
X00166000Y00147500D02*
D03*
Y00092500D02*
D03*
X00182500Y00107500D02*
D03*
Y00132500D02*
D03*
X00185000Y00160204D02*
D03*
X00182500Y00182500D02*
D03*
X00174700Y00170079D02*
D03*
X00170000Y00280000D02*
D03*
X00187500Y00297500D02*
D03*
X00118899Y00260000D02*
D03*
Y00275000D02*
D03*
X00018833Y00310000D02*
D03*
Y00333750D02*
D03*
X00031167D02*
D03*
X00031046Y00310000D02*
D03*
X00025000Y00322500D02*
D03*
X00650000Y00241500D02*
D03*
X00590908Y00203800D02*
D03*
X00450000Y00217500D02*
D03*
X00507500Y00241856D02*
D03*
X00342500Y00240816D02*
D03*
X00288098Y00203050D02*
D03*
X00316700Y00215750D02*
D03*
X00679300Y00291950D02*
D03*
X00522500Y00304368D02*
D03*
X00342500Y00297500D02*
D03*
X00630601Y00174547D02*
D03*
Y00185000D02*
D03*
X00489463Y00192800D02*
D03*
X00478220Y00159399D02*
D03*
X00422081Y00204005D02*
D03*
X00322601Y00185000D02*
D03*
Y00170000D02*
D03*
X00322601Y00155000D02*
D03*
X00281254Y00162255D02*
D03*
X00287422Y00155000D02*
D03*
Y00170000D02*
D03*
X00606167Y00143968D02*
D03*
X00595422Y00170000D02*
D03*
Y00155000D02*
D03*
X00446231Y00174547D02*
D03*
X00453494Y00178676D02*
D03*
X00453642Y00170000D02*
D03*
X00816462Y00111250D02*
D03*
X00816454Y00120000D02*
D03*
X00830000Y00087399D02*
D03*
X00882851Y00052500D02*
D03*
Y00037500D02*
D03*
X00882851Y00022500D02*
D03*
X00869500Y00062811D02*
D03*
X00967500Y00132500D02*
D03*
X00785101Y00167500D02*
D03*
X00785101Y00182500D02*
D03*
Y00197500D02*
D03*
X00745904Y00168773D02*
D03*
X00735806Y00168443D02*
D03*
X00745904Y00178974D02*
D03*
X00712500Y00212000D02*
D03*
X00755500Y00252000D02*
D03*
X00826350Y00210000D02*
D03*
X00880000Y00150000D02*
D03*
X00850150Y00233264D02*
D03*
X00826350Y00222500D02*
D03*
X00927750Y00253850D02*
D03*
X00912750D02*
D03*
X00972750Y00287700D02*
D03*
X00957750D02*
D03*
X00798500Y00278000D02*
D03*
X00874189Y00284650D02*
D03*
X00982500Y00315000D02*
D03*
X00957500Y00330000D02*
D03*
X00927500Y00325311D02*
D03*
X00456078Y00313939D02*
D03*
X00540067Y00288939D02*
D03*
X00565508Y00194861D02*
D03*
X00540067D02*
D03*
X00486067Y00225439D02*
D03*
X00565508Y00203800D02*
D03*
X00486067Y00216500D02*
D03*
X00456078Y00305122D02*
D03*
X00540067Y00280000D02*
D03*
Y00203800D02*
D03*
X00738679Y00265215D02*
D03*
X00721321Y00277857D02*
D03*
X00755500Y00293589D02*
D03*
X00715000Y00293939D02*
D03*
X00526900Y00151061D02*
D03*
X00380821Y00269652D02*
D03*
X00380854Y00209405D02*
D03*
X00285000Y00300889D02*
D03*
Y00224689D02*
D03*
Y00291950D02*
D03*
X00374500Y00275973D02*
D03*
X00391000Y00328000D02*
D03*
X00405000D02*
D03*
X00374567Y00203050D02*
D03*
X00526900Y00160000D02*
D03*
X00650000Y00203050D02*
D03*
X00715000Y00271536D02*
D03*
X00745000D02*
D03*
X00715000Y00285000D02*
D03*
X00755500Y00284650D02*
D03*
X00272500Y00227606D02*
D03*
Y00241606D02*
D03*
Y00218666D02*
D03*
Y00250606D02*
D03*
X00583000Y00228000D02*
D03*
Y00242000D02*
D03*
X00438000Y00228356D02*
D03*
Y00242356D02*
D03*
Y00251356D02*
D03*
Y00219417D02*
D03*
X00414000Y00328000D02*
D03*
X00382061D02*
D03*
X00583000Y00219061D02*
D03*
Y00251000D02*
D03*
X00140500Y00203500D02*
D03*
Y00216500D02*
D03*
X00151500Y00203500D02*
D03*
Y00216500D02*
D03*
X00162500Y00203500D02*
D03*
Y00216500D02*
D03*
M02*
