G04*
G04 #@! TF.GenerationSoftware,Altium Limited,Altium Designer,21.8.1 (53)*
G04*
G04 Layer_Color=16711935*
%FSAX44Y44*%
%MOMM*%
G71*
G04*
G04 #@! TF.SameCoordinates,FA5E87E6-E1E0-4C40-9374-903DC783770A*
G04*
G04*
G04 #@! TF.FilePolarity,Negative*
G04*
G01*
G75*
%ADD28R,1.1000X1.1000*%
%ADD29O,1.4000X1.1000*%
%ADD30R,1.1000X1.1000*%
%ADD31O,1.1000X1.4000*%
%ADD32C,1.9000*%
%ADD33R,1.9000X1.9000*%
%ADD34C,6.1000*%
%ADD35C,0.7000*%
D28*
X00050000Y00252500D02*
D03*
X00950000Y00132500D02*
D03*
D29*
X00075400Y00252500D02*
D03*
Y00239800D02*
D03*
X00050000D02*
D03*
X00075400Y00227100D02*
D03*
X00050000D02*
D03*
X00075400Y00214400D02*
D03*
X00050000D02*
D03*
X00075400Y00201700D02*
D03*
X00050000D02*
D03*
X00924600Y00132500D02*
D03*
Y00145200D02*
D03*
X00950000D02*
D03*
X00924600Y00157900D02*
D03*
X00950000D02*
D03*
X00924600Y00170600D02*
D03*
X00950000D02*
D03*
X00924600Y00183300D02*
D03*
X00950000D02*
D03*
D30*
X00205800Y00392700D02*
D03*
X00367500Y00392500D02*
D03*
X00530800D02*
D03*
X00693300D02*
D03*
X00855400Y00392700D02*
D03*
D31*
X00205800Y00367300D02*
D03*
X00193100D02*
D03*
Y00392700D02*
D03*
X00180400Y00367300D02*
D03*
Y00392700D02*
D03*
X00167700Y00367300D02*
D03*
Y00392700D02*
D03*
X00155000Y00367300D02*
D03*
Y00392700D02*
D03*
X00367500Y00367100D02*
D03*
X00354800D02*
D03*
Y00392500D02*
D03*
X00342100Y00367100D02*
D03*
Y00392500D02*
D03*
X00329400Y00367100D02*
D03*
Y00392500D02*
D03*
X00316700Y00367100D02*
D03*
Y00392500D02*
D03*
X00530800Y00367100D02*
D03*
X00518100D02*
D03*
Y00392500D02*
D03*
X00505400Y00367100D02*
D03*
Y00392500D02*
D03*
X00492700Y00367100D02*
D03*
Y00392500D02*
D03*
X00480000Y00367100D02*
D03*
Y00392500D02*
D03*
X00693300Y00367100D02*
D03*
X00680600D02*
D03*
Y00392500D02*
D03*
X00667900Y00367100D02*
D03*
Y00392500D02*
D03*
X00655200Y00367100D02*
D03*
Y00392500D02*
D03*
X00642500Y00367100D02*
D03*
Y00392500D02*
D03*
X00855400Y00367300D02*
D03*
X00842700D02*
D03*
Y00392700D02*
D03*
X00830000Y00367300D02*
D03*
Y00392700D02*
D03*
X00817300Y00367300D02*
D03*
Y00392700D02*
D03*
X00804600Y00367300D02*
D03*
Y00392700D02*
D03*
D32*
X00272900Y00072750D02*
D03*
Y00098150D02*
D03*
X00298300Y00072750D02*
D03*
Y00098150D02*
D03*
X00323700Y00072750D02*
D03*
Y00098150D02*
D03*
X00349100Y00072750D02*
D03*
Y00098150D02*
D03*
X00730101D02*
D03*
X00755500Y00072750D02*
D03*
X00628500Y00098150D02*
D03*
X00653900Y00072750D02*
D03*
Y00098150D02*
D03*
X00374500Y00072750D02*
D03*
X00679300Y00098150D02*
D03*
Y00072750D02*
D03*
X00704700Y00098150D02*
D03*
Y00072750D02*
D03*
X00730100D02*
D03*
X00628500D02*
D03*
X00603100Y00098150D02*
D03*
Y00072750D02*
D03*
X00577700Y00098150D02*
D03*
Y00072750D02*
D03*
X00552300Y00098150D02*
D03*
Y00072750D02*
D03*
X00526900Y00098150D02*
D03*
Y00072750D02*
D03*
X00501500Y00098150D02*
D03*
Y00072750D02*
D03*
X00476100Y00098150D02*
D03*
Y00072750D02*
D03*
X00450700Y00098150D02*
D03*
Y00072750D02*
D03*
X00425300Y00098150D02*
D03*
Y00072750D02*
D03*
X00399900Y00098150D02*
D03*
X00374500D02*
D03*
X00399900Y00072750D02*
D03*
D33*
X00755500Y00098150D02*
D03*
D34*
X00960000Y00040000D02*
D03*
Y00410000D02*
D03*
X00040000D02*
D03*
Y00040000D02*
D03*
D35*
X00140500Y00203500D02*
D03*
Y00216500D02*
D03*
X00151500Y00203500D02*
D03*
Y00216500D02*
D03*
X00162500Y00203500D02*
D03*
Y00216500D02*
D03*
M02*
